G04 #@! TF.FileFunction,Legend,Top*
%FSLAX46Y46*%
G04 Gerber Fmt 4.6, Leading zero omitted, Abs format (unit mm)*
G04 Created by KiCad (PCBNEW 4.0.2-stable) date 18.07.2016 12:30:42*
%MOMM*%
G01*
G04 APERTURE LIST*
%ADD10C,0.100000*%
%ADD11C,0.150000*%
%ADD12C,0.200000*%
%ADD13O,1.299160X1.901140*%
%ADD14C,1.924000*%
%ADD15C,2.127200*%
%ADD16R,2.127200X2.127200*%
%ADD17C,2.000000*%
%ADD18R,1.700000X1.700000*%
%ADD19C,1.700000*%
%ADD20O,2.000000X2.000000*%
%ADD21O,2.432000X2.940000*%
%ADD22C,1.797000*%
%ADD23R,1.924000X1.924000*%
%ADD24R,1.750000X1.750000*%
%ADD25C,1.750000*%
%ADD26O,2.127200X2.127200*%
G04 APERTURE END LIST*
D10*
D11*
X132304286Y-111611427D02*
X132304286Y-111182856D01*
X133054286Y-111397142D02*
X132304286Y-111397142D01*
X133018571Y-110647141D02*
X133054286Y-110718570D01*
X133054286Y-110861427D01*
X133018571Y-110932856D01*
X132947143Y-110968570D01*
X132661429Y-110968570D01*
X132590000Y-110932856D01*
X132554286Y-110861427D01*
X132554286Y-110718570D01*
X132590000Y-110647141D01*
X132661429Y-110611427D01*
X132732857Y-110611427D01*
X132804286Y-110968570D01*
X133018571Y-110325713D02*
X133054286Y-110254284D01*
X133054286Y-110111427D01*
X133018571Y-110039999D01*
X132947143Y-110004284D01*
X132911429Y-110004284D01*
X132840000Y-110039999D01*
X132804286Y-110111427D01*
X132804286Y-110218570D01*
X132768571Y-110289999D01*
X132697143Y-110325713D01*
X132661429Y-110325713D01*
X132590000Y-110289999D01*
X132554286Y-110218570D01*
X132554286Y-110111427D01*
X132590000Y-110039999D01*
X132554286Y-109789998D02*
X132554286Y-109504284D01*
X132304286Y-109682856D02*
X132947143Y-109682856D01*
X133018571Y-109647141D01*
X133054286Y-109575713D01*
X133054286Y-109504284D01*
X133054286Y-109254285D02*
X132554286Y-109254285D01*
X132304286Y-109254285D02*
X132340000Y-109289999D01*
X132375714Y-109254285D01*
X132340000Y-109218570D01*
X132304286Y-109254285D01*
X132375714Y-109254285D01*
X132554286Y-108897142D02*
X133054286Y-108897142D01*
X132625714Y-108897142D02*
X132590000Y-108861427D01*
X132554286Y-108789999D01*
X132554286Y-108682856D01*
X132590000Y-108611427D01*
X132661429Y-108575713D01*
X133054286Y-108575713D01*
X132554286Y-107897142D02*
X133161429Y-107897142D01*
X133232857Y-107932856D01*
X133268571Y-107968571D01*
X133304286Y-108039999D01*
X133304286Y-108147142D01*
X133268571Y-108218571D01*
X133018571Y-107897142D02*
X133054286Y-107968571D01*
X133054286Y-108111428D01*
X133018571Y-108182856D01*
X132982857Y-108218571D01*
X132911429Y-108254285D01*
X132697143Y-108254285D01*
X132625714Y-108218571D01*
X132590000Y-108182856D01*
X132554286Y-108111428D01*
X132554286Y-107968571D01*
X132590000Y-107897142D01*
X133054286Y-106361428D02*
X133054286Y-106397142D01*
X133018571Y-106468571D01*
X132911429Y-106575713D01*
X132697143Y-106754285D01*
X132590000Y-106825713D01*
X132482857Y-106861428D01*
X132411429Y-106861428D01*
X132340000Y-106825713D01*
X132304286Y-106754285D01*
X132304286Y-106718571D01*
X132340000Y-106647142D01*
X132411429Y-106611428D01*
X132447143Y-106611428D01*
X132518571Y-106647142D01*
X132554286Y-106682856D01*
X132697143Y-106897142D01*
X132732857Y-106932856D01*
X132804286Y-106968571D01*
X132911429Y-106968571D01*
X132982857Y-106932856D01*
X133018571Y-106897142D01*
X133054286Y-106825713D01*
X133054286Y-106718571D01*
X133018571Y-106647142D01*
X132982857Y-106611428D01*
X132840000Y-106504285D01*
X132732857Y-106468571D01*
X132661429Y-106468571D01*
X132661429Y-105218571D02*
X132661429Y-105468571D01*
X133054286Y-105468571D02*
X132304286Y-105468571D01*
X132304286Y-105111428D01*
X133018571Y-104539999D02*
X133054286Y-104611428D01*
X133054286Y-104754285D01*
X133018571Y-104825714D01*
X132947143Y-104861428D01*
X132661429Y-104861428D01*
X132590000Y-104825714D01*
X132554286Y-104754285D01*
X132554286Y-104611428D01*
X132590000Y-104539999D01*
X132661429Y-104504285D01*
X132732857Y-104504285D01*
X132804286Y-104861428D01*
X133018571Y-103897142D02*
X133054286Y-103968571D01*
X133054286Y-104111428D01*
X133018571Y-104182857D01*
X132947143Y-104218571D01*
X132661429Y-104218571D01*
X132590000Y-104182857D01*
X132554286Y-104111428D01*
X132554286Y-103968571D01*
X132590000Y-103897142D01*
X132661429Y-103861428D01*
X132732857Y-103861428D01*
X132804286Y-104218571D01*
X133054286Y-103218571D02*
X132304286Y-103218571D01*
X133018571Y-103218571D02*
X133054286Y-103290000D01*
X133054286Y-103432857D01*
X133018571Y-103504285D01*
X132982857Y-103540000D01*
X132911429Y-103575714D01*
X132697143Y-103575714D01*
X132625714Y-103540000D01*
X132590000Y-103504285D01*
X132554286Y-103432857D01*
X132554286Y-103290000D01*
X132590000Y-103218571D01*
X133054286Y-102861429D02*
X132304286Y-102861429D01*
X132590000Y-102861429D02*
X132554286Y-102790000D01*
X132554286Y-102647143D01*
X132590000Y-102575714D01*
X132625714Y-102540000D01*
X132697143Y-102504286D01*
X132911429Y-102504286D01*
X132982857Y-102540000D01*
X133018571Y-102575714D01*
X133054286Y-102647143D01*
X133054286Y-102790000D01*
X133018571Y-102861429D01*
X133054286Y-101861429D02*
X132661429Y-101861429D01*
X132590000Y-101897143D01*
X132554286Y-101968572D01*
X132554286Y-102111429D01*
X132590000Y-102182858D01*
X133018571Y-101861429D02*
X133054286Y-101932858D01*
X133054286Y-102111429D01*
X133018571Y-102182858D01*
X132947143Y-102218572D01*
X132875714Y-102218572D01*
X132804286Y-102182858D01*
X132768571Y-102111429D01*
X132768571Y-101932858D01*
X132732857Y-101861429D01*
X133018571Y-101182858D02*
X133054286Y-101254287D01*
X133054286Y-101397144D01*
X133018571Y-101468572D01*
X132982857Y-101504287D01*
X132911429Y-101540001D01*
X132697143Y-101540001D01*
X132625714Y-101504287D01*
X132590000Y-101468572D01*
X132554286Y-101397144D01*
X132554286Y-101254287D01*
X132590000Y-101182858D01*
X133054286Y-100861430D02*
X132304286Y-100861430D01*
X132768571Y-100790001D02*
X133054286Y-100575715D01*
X132554286Y-100575715D02*
X132840000Y-100861430D01*
X133054286Y-99682858D02*
X132304286Y-99682858D01*
X132590000Y-99682858D02*
X132554286Y-99611429D01*
X132554286Y-99468572D01*
X132590000Y-99397143D01*
X132625714Y-99361429D01*
X132697143Y-99325715D01*
X132911429Y-99325715D01*
X132982857Y-99361429D01*
X133018571Y-99397143D01*
X133054286Y-99468572D01*
X133054286Y-99611429D01*
X133018571Y-99682858D01*
X132554286Y-99075715D02*
X133054286Y-98897144D01*
X132554286Y-98718572D02*
X133054286Y-98897144D01*
X133232857Y-98968572D01*
X133268571Y-99004287D01*
X133304286Y-99075715D01*
X132982857Y-97432857D02*
X133018571Y-97468571D01*
X133054286Y-97575714D01*
X133054286Y-97647143D01*
X133018571Y-97754286D01*
X132947143Y-97825714D01*
X132875714Y-97861429D01*
X132732857Y-97897143D01*
X132625714Y-97897143D01*
X132482857Y-97861429D01*
X132411429Y-97825714D01*
X132340000Y-97754286D01*
X132304286Y-97647143D01*
X132304286Y-97575714D01*
X132340000Y-97468571D01*
X132375714Y-97432857D01*
X132304286Y-96968571D02*
X132304286Y-96897143D01*
X132340000Y-96825714D01*
X132375714Y-96790000D01*
X132447143Y-96754286D01*
X132590000Y-96718571D01*
X132768571Y-96718571D01*
X132911429Y-96754286D01*
X132982857Y-96790000D01*
X133018571Y-96825714D01*
X133054286Y-96897143D01*
X133054286Y-96968571D01*
X133018571Y-97040000D01*
X132982857Y-97075714D01*
X132911429Y-97111429D01*
X132768571Y-97147143D01*
X132590000Y-97147143D01*
X132447143Y-97111429D01*
X132375714Y-97075714D01*
X132340000Y-97040000D01*
X132304286Y-96968571D01*
X132554286Y-96468571D02*
X132554286Y-96075714D01*
X133054286Y-96468571D01*
X133054286Y-96075714D01*
X133054286Y-95790000D02*
X132554286Y-95790000D01*
X132625714Y-95790000D02*
X132590000Y-95754285D01*
X132554286Y-95682857D01*
X132554286Y-95575714D01*
X132590000Y-95504285D01*
X132661429Y-95468571D01*
X133054286Y-95468571D01*
X132661429Y-95468571D02*
X132590000Y-95432857D01*
X132554286Y-95361428D01*
X132554286Y-95254285D01*
X132590000Y-95182857D01*
X132661429Y-95147142D01*
X133054286Y-95147142D01*
X133054286Y-94682857D02*
X133018571Y-94754285D01*
X132982857Y-94790000D01*
X132911429Y-94825714D01*
X132697143Y-94825714D01*
X132625714Y-94790000D01*
X132590000Y-94754285D01*
X132554286Y-94682857D01*
X132554286Y-94575714D01*
X132590000Y-94504285D01*
X132625714Y-94468571D01*
X132697143Y-94432857D01*
X132911429Y-94432857D01*
X132982857Y-94468571D01*
X133018571Y-94504285D01*
X133054286Y-94575714D01*
X133054286Y-94682857D01*
X133018571Y-94075714D02*
X133054286Y-94075714D01*
X133125714Y-94111429D01*
X133161429Y-94147143D01*
X132340000Y-92789999D02*
X132304286Y-92861428D01*
X132304286Y-92968571D01*
X132340000Y-93075714D01*
X132411429Y-93147142D01*
X132482857Y-93182857D01*
X132625714Y-93218571D01*
X132732857Y-93218571D01*
X132875714Y-93182857D01*
X132947143Y-93147142D01*
X133018571Y-93075714D01*
X133054286Y-92968571D01*
X133054286Y-92897142D01*
X133018571Y-92789999D01*
X132982857Y-92754285D01*
X132732857Y-92754285D01*
X132732857Y-92897142D01*
X133054286Y-92432857D02*
X132304286Y-92432857D01*
X132768571Y-92075714D02*
X132768571Y-91504285D01*
X132304286Y-90932857D02*
X132840000Y-90932857D01*
X132947143Y-90968571D01*
X133018571Y-91040000D01*
X133054286Y-91147143D01*
X133054286Y-91218571D01*
X133054286Y-90468571D02*
X133018571Y-90539999D01*
X132982857Y-90575714D01*
X132911429Y-90611428D01*
X132697143Y-90611428D01*
X132625714Y-90575714D01*
X132590000Y-90539999D01*
X132554286Y-90468571D01*
X132554286Y-90361428D01*
X132590000Y-90289999D01*
X132625714Y-90254285D01*
X132697143Y-90218571D01*
X132911429Y-90218571D01*
X132982857Y-90254285D01*
X133018571Y-90289999D01*
X133054286Y-90361428D01*
X133054286Y-90468571D01*
X133018571Y-89611428D02*
X133054286Y-89682857D01*
X133054286Y-89825714D01*
X133018571Y-89897143D01*
X132947143Y-89932857D01*
X132661429Y-89932857D01*
X132590000Y-89897143D01*
X132554286Y-89825714D01*
X132554286Y-89682857D01*
X132590000Y-89611428D01*
X132661429Y-89575714D01*
X132732857Y-89575714D01*
X132804286Y-89932857D01*
X133054286Y-88361428D02*
X132661429Y-88361428D01*
X132590000Y-88397142D01*
X132554286Y-88468571D01*
X132554286Y-88611428D01*
X132590000Y-88682857D01*
X133018571Y-88361428D02*
X133054286Y-88432857D01*
X133054286Y-88611428D01*
X133018571Y-88682857D01*
X132947143Y-88718571D01*
X132875714Y-88718571D01*
X132804286Y-88682857D01*
X132768571Y-88611428D01*
X132768571Y-88432857D01*
X132732857Y-88361428D01*
X132554286Y-88004286D02*
X133054286Y-88004286D01*
X132625714Y-88004286D02*
X132590000Y-87968571D01*
X132554286Y-87897143D01*
X132554286Y-87790000D01*
X132590000Y-87718571D01*
X132661429Y-87682857D01*
X133054286Y-87682857D01*
X133054286Y-87004286D02*
X132304286Y-87004286D01*
X133018571Y-87004286D02*
X133054286Y-87075715D01*
X133054286Y-87218572D01*
X133018571Y-87290000D01*
X132982857Y-87325715D01*
X132911429Y-87361429D01*
X132697143Y-87361429D01*
X132625714Y-87325715D01*
X132590000Y-87290000D01*
X132554286Y-87218572D01*
X132554286Y-87075715D01*
X132590000Y-87004286D01*
X132340000Y-85682857D02*
X132304286Y-85754286D01*
X132304286Y-85861429D01*
X132340000Y-85968572D01*
X132411429Y-86040000D01*
X132482857Y-86075715D01*
X132625714Y-86111429D01*
X132732857Y-86111429D01*
X132875714Y-86075715D01*
X132947143Y-86040000D01*
X133018571Y-85968572D01*
X133054286Y-85861429D01*
X133054286Y-85790000D01*
X133018571Y-85682857D01*
X132982857Y-85647143D01*
X132732857Y-85647143D01*
X132732857Y-85790000D01*
X133054286Y-85325715D02*
X132304286Y-85325715D01*
X132840000Y-85075715D01*
X132304286Y-84825715D01*
X133054286Y-84825715D01*
X133054286Y-84468572D02*
X132304286Y-84468572D01*
X132304286Y-84182857D01*
X132340000Y-84111429D01*
X132375714Y-84075714D01*
X132447143Y-84040000D01*
X132554286Y-84040000D01*
X132625714Y-84075714D01*
X132661429Y-84111429D01*
X132697143Y-84182857D01*
X132697143Y-84468572D01*
X172364572Y-72090000D02*
X172307429Y-72061429D01*
X172221715Y-72061429D01*
X172136000Y-72090000D01*
X172078858Y-72147143D01*
X172050286Y-72204286D01*
X172021715Y-72318571D01*
X172021715Y-72404286D01*
X172050286Y-72518571D01*
X172078858Y-72575714D01*
X172136000Y-72632857D01*
X172221715Y-72661429D01*
X172278858Y-72661429D01*
X172364572Y-72632857D01*
X172393143Y-72604286D01*
X172393143Y-72404286D01*
X172278858Y-72404286D01*
X172650286Y-72661429D02*
X172650286Y-72061429D01*
X172993143Y-72661429D01*
X172993143Y-72061429D01*
X173278857Y-72661429D02*
X173278857Y-72061429D01*
X173421714Y-72061429D01*
X173507429Y-72090000D01*
X173564571Y-72147143D01*
X173593143Y-72204286D01*
X173621714Y-72318571D01*
X173621714Y-72404286D01*
X173593143Y-72518571D01*
X173564571Y-72575714D01*
X173507429Y-72632857D01*
X173421714Y-72661429D01*
X173278857Y-72661429D01*
X170764572Y-70092857D02*
X170850286Y-70121429D01*
X170993143Y-70121429D01*
X171050286Y-70092857D01*
X171078857Y-70064286D01*
X171107429Y-70007143D01*
X171107429Y-69950000D01*
X171078857Y-69892857D01*
X171050286Y-69864286D01*
X170993143Y-69835714D01*
X170878857Y-69807143D01*
X170821715Y-69778571D01*
X170793143Y-69750000D01*
X170764572Y-69692857D01*
X170764572Y-69635714D01*
X170793143Y-69578571D01*
X170821715Y-69550000D01*
X170878857Y-69521429D01*
X171021715Y-69521429D01*
X171107429Y-69550000D01*
X171364572Y-70121429D02*
X171364572Y-69521429D01*
X171964572Y-69550000D02*
X171907429Y-69521429D01*
X171821715Y-69521429D01*
X171736000Y-69550000D01*
X171678858Y-69607143D01*
X171650286Y-69664286D01*
X171621715Y-69778571D01*
X171621715Y-69864286D01*
X171650286Y-69978571D01*
X171678858Y-70035714D01*
X171736000Y-70092857D01*
X171821715Y-70121429D01*
X171878858Y-70121429D01*
X171964572Y-70092857D01*
X171993143Y-70064286D01*
X171993143Y-69864286D01*
X171878858Y-69864286D01*
X172250286Y-70121429D02*
X172250286Y-69521429D01*
X172593143Y-70121429D01*
X172593143Y-69521429D01*
X172850286Y-69950000D02*
X173136000Y-69950000D01*
X172793143Y-70121429D02*
X172993143Y-69521429D01*
X173193143Y-70121429D01*
X173678857Y-70121429D02*
X173393143Y-70121429D01*
X173393143Y-69521429D01*
D12*
X184785000Y-122936000D02*
X185420000Y-122301000D01*
X184150000Y-122301000D02*
X184785000Y-122936000D01*
X184785000Y-122936000D02*
X184150000Y-122301000D01*
X184150000Y-122301000D02*
X185420000Y-122301000D01*
X184785000Y-122301000D02*
X184150000Y-122301000D01*
X184785000Y-121539000D02*
X184785000Y-122301000D01*
D11*
X152053571Y-68303571D02*
X152160714Y-68339286D01*
X152339285Y-68339286D01*
X152410714Y-68303571D01*
X152446428Y-68267857D01*
X152482143Y-68196429D01*
X152482143Y-68125000D01*
X152446428Y-68053571D01*
X152410714Y-68017857D01*
X152339285Y-67982143D01*
X152196428Y-67946429D01*
X152125000Y-67910714D01*
X152089285Y-67875000D01*
X152053571Y-67803571D01*
X152053571Y-67732143D01*
X152089285Y-67660714D01*
X152125000Y-67625000D01*
X152196428Y-67589286D01*
X152375000Y-67589286D01*
X152482143Y-67625000D01*
X152803571Y-68339286D02*
X152803571Y-67589286D01*
X153160714Y-68339286D02*
X153160714Y-67589286D01*
X153339286Y-67589286D01*
X153446429Y-67625000D01*
X153517857Y-67696429D01*
X153553572Y-67767857D01*
X153589286Y-67910714D01*
X153589286Y-68017857D01*
X153553572Y-68160714D01*
X153517857Y-68232143D01*
X153446429Y-68303571D01*
X153339286Y-68339286D01*
X153160714Y-68339286D01*
X154303572Y-68339286D02*
X153875000Y-68339286D01*
X154089286Y-68339286D02*
X154089286Y-67589286D01*
X154017857Y-67696429D01*
X153946429Y-67767857D01*
X153875000Y-67803571D01*
X155625001Y-68267857D02*
X155589287Y-68303571D01*
X155482144Y-68339286D01*
X155410715Y-68339286D01*
X155303572Y-68303571D01*
X155232144Y-68232143D01*
X155196429Y-68160714D01*
X155160715Y-68017857D01*
X155160715Y-67910714D01*
X155196429Y-67767857D01*
X155232144Y-67696429D01*
X155303572Y-67625000D01*
X155410715Y-67589286D01*
X155482144Y-67589286D01*
X155589287Y-67625000D01*
X155625001Y-67660714D01*
X156089287Y-67589286D02*
X156232144Y-67589286D01*
X156303572Y-67625000D01*
X156375001Y-67696429D01*
X156410715Y-67839286D01*
X156410715Y-68089286D01*
X156375001Y-68232143D01*
X156303572Y-68303571D01*
X156232144Y-68339286D01*
X156089287Y-68339286D01*
X156017858Y-68303571D01*
X155946429Y-68232143D01*
X155910715Y-68089286D01*
X155910715Y-67839286D01*
X155946429Y-67696429D01*
X156017858Y-67625000D01*
X156089287Y-67589286D01*
X156732143Y-68339286D02*
X156732143Y-67589286D01*
X157160715Y-68339286D01*
X157160715Y-67589286D01*
X157767857Y-67946429D02*
X157517857Y-67946429D01*
X157517857Y-68339286D02*
X157517857Y-67589286D01*
X157875000Y-67589286D01*
X158160714Y-68339286D02*
X158160714Y-67589286D01*
X158910715Y-67625000D02*
X158839286Y-67589286D01*
X158732143Y-67589286D01*
X158625000Y-67625000D01*
X158553572Y-67696429D01*
X158517857Y-67767857D01*
X158482143Y-67910714D01*
X158482143Y-68017857D01*
X158517857Y-68160714D01*
X158553572Y-68232143D01*
X158625000Y-68303571D01*
X158732143Y-68339286D01*
X158803572Y-68339286D01*
X158910715Y-68303571D01*
X158946429Y-68267857D01*
X158946429Y-68017857D01*
X158803572Y-68017857D01*
X131053571Y-68303571D02*
X131160714Y-68339286D01*
X131339285Y-68339286D01*
X131410714Y-68303571D01*
X131446428Y-68267857D01*
X131482143Y-68196429D01*
X131482143Y-68125000D01*
X131446428Y-68053571D01*
X131410714Y-68017857D01*
X131339285Y-67982143D01*
X131196428Y-67946429D01*
X131125000Y-67910714D01*
X131089285Y-67875000D01*
X131053571Y-67803571D01*
X131053571Y-67732143D01*
X131089285Y-67660714D01*
X131125000Y-67625000D01*
X131196428Y-67589286D01*
X131375000Y-67589286D01*
X131482143Y-67625000D01*
X131803571Y-68339286D02*
X131803571Y-67589286D01*
X132160714Y-68339286D02*
X132160714Y-67589286D01*
X132339286Y-67589286D01*
X132446429Y-67625000D01*
X132517857Y-67696429D01*
X132553572Y-67767857D01*
X132589286Y-67910714D01*
X132589286Y-68017857D01*
X132553572Y-68160714D01*
X132517857Y-68232143D01*
X132446429Y-68303571D01*
X132339286Y-68339286D01*
X132160714Y-68339286D01*
X132875000Y-67660714D02*
X132910714Y-67625000D01*
X132982143Y-67589286D01*
X133160714Y-67589286D01*
X133232143Y-67625000D01*
X133267857Y-67660714D01*
X133303572Y-67732143D01*
X133303572Y-67803571D01*
X133267857Y-67910714D01*
X132839286Y-68339286D01*
X133303572Y-68339286D01*
X134625001Y-68267857D02*
X134589287Y-68303571D01*
X134482144Y-68339286D01*
X134410715Y-68339286D01*
X134303572Y-68303571D01*
X134232144Y-68232143D01*
X134196429Y-68160714D01*
X134160715Y-68017857D01*
X134160715Y-67910714D01*
X134196429Y-67767857D01*
X134232144Y-67696429D01*
X134303572Y-67625000D01*
X134410715Y-67589286D01*
X134482144Y-67589286D01*
X134589287Y-67625000D01*
X134625001Y-67660714D01*
X135089287Y-67589286D02*
X135232144Y-67589286D01*
X135303572Y-67625000D01*
X135375001Y-67696429D01*
X135410715Y-67839286D01*
X135410715Y-68089286D01*
X135375001Y-68232143D01*
X135303572Y-68303571D01*
X135232144Y-68339286D01*
X135089287Y-68339286D01*
X135017858Y-68303571D01*
X134946429Y-68232143D01*
X134910715Y-68089286D01*
X134910715Y-67839286D01*
X134946429Y-67696429D01*
X135017858Y-67625000D01*
X135089287Y-67589286D01*
X135732143Y-68339286D02*
X135732143Y-67589286D01*
X136160715Y-68339286D01*
X136160715Y-67589286D01*
X136767857Y-67946429D02*
X136517857Y-67946429D01*
X136517857Y-68339286D02*
X136517857Y-67589286D01*
X136875000Y-67589286D01*
X137160714Y-68339286D02*
X137160714Y-67589286D01*
X137910715Y-67625000D02*
X137839286Y-67589286D01*
X137732143Y-67589286D01*
X137625000Y-67625000D01*
X137553572Y-67696429D01*
X137517857Y-67767857D01*
X137482143Y-67910714D01*
X137482143Y-68017857D01*
X137517857Y-68160714D01*
X137553572Y-68232143D01*
X137625000Y-68303571D01*
X137732143Y-68339286D01*
X137803572Y-68339286D01*
X137910715Y-68303571D01*
X137946429Y-68267857D01*
X137946429Y-68017857D01*
X137803572Y-68017857D01*
X158742857Y-76521429D02*
X158742857Y-75921429D01*
X158885714Y-75921429D01*
X158971429Y-75950000D01*
X159028571Y-76007143D01*
X159057143Y-76064286D01*
X159085714Y-76178571D01*
X159085714Y-76264286D01*
X159057143Y-76378571D01*
X159028571Y-76435714D01*
X158971429Y-76492857D01*
X158885714Y-76521429D01*
X158742857Y-76521429D01*
X159657143Y-75950000D02*
X159600000Y-75921429D01*
X159514286Y-75921429D01*
X159428571Y-75950000D01*
X159371429Y-76007143D01*
X159342857Y-76064286D01*
X159314286Y-76178571D01*
X159314286Y-76264286D01*
X159342857Y-76378571D01*
X159371429Y-76435714D01*
X159428571Y-76492857D01*
X159514286Y-76521429D01*
X159571429Y-76521429D01*
X159657143Y-76492857D01*
X159685714Y-76464286D01*
X159685714Y-76264286D01*
X159571429Y-76264286D01*
X160142857Y-76207143D02*
X160228571Y-76235714D01*
X160257143Y-76264286D01*
X160285714Y-76321429D01*
X160285714Y-76407143D01*
X160257143Y-76464286D01*
X160228571Y-76492857D01*
X160171429Y-76521429D01*
X159942857Y-76521429D01*
X159942857Y-75921429D01*
X160142857Y-75921429D01*
X160200000Y-75950000D01*
X160228571Y-75978571D01*
X160257143Y-76035714D01*
X160257143Y-76092857D01*
X160228571Y-76150000D01*
X160200000Y-76178571D01*
X160142857Y-76207143D01*
X159942857Y-76207143D01*
X137742857Y-76521429D02*
X137742857Y-75921429D01*
X137885714Y-75921429D01*
X137971429Y-75950000D01*
X138028571Y-76007143D01*
X138057143Y-76064286D01*
X138085714Y-76178571D01*
X138085714Y-76264286D01*
X138057143Y-76378571D01*
X138028571Y-76435714D01*
X137971429Y-76492857D01*
X137885714Y-76521429D01*
X137742857Y-76521429D01*
X138657143Y-75950000D02*
X138600000Y-75921429D01*
X138514286Y-75921429D01*
X138428571Y-75950000D01*
X138371429Y-76007143D01*
X138342857Y-76064286D01*
X138314286Y-76178571D01*
X138314286Y-76264286D01*
X138342857Y-76378571D01*
X138371429Y-76435714D01*
X138428571Y-76492857D01*
X138514286Y-76521429D01*
X138571429Y-76521429D01*
X138657143Y-76492857D01*
X138685714Y-76464286D01*
X138685714Y-76264286D01*
X138571429Y-76264286D01*
X139142857Y-76207143D02*
X139228571Y-76235714D01*
X139257143Y-76264286D01*
X139285714Y-76321429D01*
X139285714Y-76407143D01*
X139257143Y-76464286D01*
X139228571Y-76492857D01*
X139171429Y-76521429D01*
X138942857Y-76521429D01*
X138942857Y-75921429D01*
X139142857Y-75921429D01*
X139200000Y-75950000D01*
X139228571Y-75978571D01*
X139257143Y-76035714D01*
X139257143Y-76092857D01*
X139228571Y-76150000D01*
X139200000Y-76178571D01*
X139142857Y-76207143D01*
X138942857Y-76207143D01*
X158628572Y-68957143D02*
X158828572Y-68957143D01*
X158914286Y-69271429D02*
X158628572Y-69271429D01*
X158628572Y-68671429D01*
X158914286Y-68671429D01*
X159114286Y-68671429D02*
X159514286Y-69271429D01*
X159514286Y-68671429D02*
X159114286Y-69271429D01*
X159742858Y-69271429D02*
X159742858Y-68671429D01*
X160028572Y-69271429D02*
X160028572Y-68671429D01*
X160371429Y-69271429D01*
X160371429Y-68671429D01*
X157400000Y-69271429D02*
X157200000Y-68985714D01*
X157057143Y-69271429D02*
X157057143Y-68671429D01*
X157285715Y-68671429D01*
X157342857Y-68700000D01*
X157371429Y-68728571D01*
X157400000Y-68785714D01*
X157400000Y-68871429D01*
X157371429Y-68928571D01*
X157342857Y-68957143D01*
X157285715Y-68985714D01*
X157057143Y-68985714D01*
X157742857Y-68928571D02*
X157685715Y-68900000D01*
X157657143Y-68871429D01*
X157628572Y-68814286D01*
X157628572Y-68785714D01*
X157657143Y-68728571D01*
X157685715Y-68700000D01*
X157742857Y-68671429D01*
X157857143Y-68671429D01*
X157914286Y-68700000D01*
X157942857Y-68728571D01*
X157971429Y-68785714D01*
X157971429Y-68814286D01*
X157942857Y-68871429D01*
X157914286Y-68900000D01*
X157857143Y-68928571D01*
X157742857Y-68928571D01*
X157685715Y-68957143D01*
X157657143Y-68985714D01*
X157628572Y-69042857D01*
X157628572Y-69157143D01*
X157657143Y-69214286D01*
X157685715Y-69242857D01*
X157742857Y-69271429D01*
X157857143Y-69271429D01*
X157914286Y-69242857D01*
X157942857Y-69214286D01*
X157971429Y-69157143D01*
X157971429Y-69042857D01*
X157942857Y-68985714D01*
X157914286Y-68957143D01*
X157857143Y-68928571D01*
X155000000Y-68957143D02*
X154800000Y-68957143D01*
X154800000Y-69271429D02*
X154800000Y-68671429D01*
X155085714Y-68671429D01*
X155657143Y-69214286D02*
X155628572Y-69242857D01*
X155542858Y-69271429D01*
X155485715Y-69271429D01*
X155400000Y-69242857D01*
X155342858Y-69185714D01*
X155314286Y-69128571D01*
X155285715Y-69014286D01*
X155285715Y-68928571D01*
X155314286Y-68814286D01*
X155342858Y-68757143D01*
X155400000Y-68700000D01*
X155485715Y-68671429D01*
X155542858Y-68671429D01*
X155628572Y-68700000D01*
X155657143Y-68728571D01*
X155885715Y-68728571D02*
X155914286Y-68700000D01*
X155971429Y-68671429D01*
X156114286Y-68671429D01*
X156171429Y-68700000D01*
X156200000Y-68728571D01*
X156228572Y-68785714D01*
X156228572Y-68842857D01*
X156200000Y-68928571D01*
X155857143Y-69271429D01*
X156228572Y-69271429D01*
X153000000Y-68957143D02*
X152800000Y-68957143D01*
X152800000Y-69271429D02*
X152800000Y-68671429D01*
X153085714Y-68671429D01*
X153657143Y-69214286D02*
X153628572Y-69242857D01*
X153542858Y-69271429D01*
X153485715Y-69271429D01*
X153400000Y-69242857D01*
X153342858Y-69185714D01*
X153314286Y-69128571D01*
X153285715Y-69014286D01*
X153285715Y-68928571D01*
X153314286Y-68814286D01*
X153342858Y-68757143D01*
X153400000Y-68700000D01*
X153485715Y-68671429D01*
X153542858Y-68671429D01*
X153628572Y-68700000D01*
X153657143Y-68728571D01*
X154228572Y-69271429D02*
X153885715Y-69271429D01*
X154057143Y-69271429D02*
X154057143Y-68671429D01*
X154000000Y-68757143D01*
X153942858Y-68814286D01*
X153885715Y-68842857D01*
X150700000Y-68671429D02*
X150900000Y-69271429D01*
X151100000Y-68671429D01*
X151300000Y-69271429D02*
X151300000Y-68671429D01*
X151442857Y-68671429D01*
X151528572Y-68700000D01*
X151585714Y-68757143D01*
X151614286Y-68814286D01*
X151642857Y-68928571D01*
X151642857Y-69014286D01*
X151614286Y-69128571D01*
X151585714Y-69185714D01*
X151528572Y-69242857D01*
X151442857Y-69271429D01*
X151300000Y-69271429D01*
X151900000Y-69271429D02*
X151900000Y-68671429D01*
X152042857Y-68671429D01*
X152128572Y-68700000D01*
X152185714Y-68757143D01*
X152214286Y-68814286D01*
X152242857Y-68928571D01*
X152242857Y-69014286D01*
X152214286Y-69128571D01*
X152185714Y-69185714D01*
X152128572Y-69242857D01*
X152042857Y-69271429D01*
X151900000Y-69271429D01*
X137628572Y-68957143D02*
X137828572Y-68957143D01*
X137914286Y-69271429D02*
X137628572Y-69271429D01*
X137628572Y-68671429D01*
X137914286Y-68671429D01*
X138114286Y-68671429D02*
X138514286Y-69271429D01*
X138514286Y-68671429D02*
X138114286Y-69271429D01*
X138742858Y-69271429D02*
X138742858Y-68671429D01*
X139028572Y-69271429D02*
X139028572Y-68671429D01*
X139371429Y-69271429D01*
X139371429Y-68671429D01*
X136400000Y-69271429D02*
X136200000Y-68985714D01*
X136057143Y-69271429D02*
X136057143Y-68671429D01*
X136285715Y-68671429D01*
X136342857Y-68700000D01*
X136371429Y-68728571D01*
X136400000Y-68785714D01*
X136400000Y-68871429D01*
X136371429Y-68928571D01*
X136342857Y-68957143D01*
X136285715Y-68985714D01*
X136057143Y-68985714D01*
X136742857Y-68928571D02*
X136685715Y-68900000D01*
X136657143Y-68871429D01*
X136628572Y-68814286D01*
X136628572Y-68785714D01*
X136657143Y-68728571D01*
X136685715Y-68700000D01*
X136742857Y-68671429D01*
X136857143Y-68671429D01*
X136914286Y-68700000D01*
X136942857Y-68728571D01*
X136971429Y-68785714D01*
X136971429Y-68814286D01*
X136942857Y-68871429D01*
X136914286Y-68900000D01*
X136857143Y-68928571D01*
X136742857Y-68928571D01*
X136685715Y-68957143D01*
X136657143Y-68985714D01*
X136628572Y-69042857D01*
X136628572Y-69157143D01*
X136657143Y-69214286D01*
X136685715Y-69242857D01*
X136742857Y-69271429D01*
X136857143Y-69271429D01*
X136914286Y-69242857D01*
X136942857Y-69214286D01*
X136971429Y-69157143D01*
X136971429Y-69042857D01*
X136942857Y-68985714D01*
X136914286Y-68957143D01*
X136857143Y-68928571D01*
X134000000Y-68957143D02*
X133800000Y-68957143D01*
X133800000Y-69271429D02*
X133800000Y-68671429D01*
X134085714Y-68671429D01*
X134657143Y-69214286D02*
X134628572Y-69242857D01*
X134542858Y-69271429D01*
X134485715Y-69271429D01*
X134400000Y-69242857D01*
X134342858Y-69185714D01*
X134314286Y-69128571D01*
X134285715Y-69014286D01*
X134285715Y-68928571D01*
X134314286Y-68814286D01*
X134342858Y-68757143D01*
X134400000Y-68700000D01*
X134485715Y-68671429D01*
X134542858Y-68671429D01*
X134628572Y-68700000D01*
X134657143Y-68728571D01*
X134885715Y-68728571D02*
X134914286Y-68700000D01*
X134971429Y-68671429D01*
X135114286Y-68671429D01*
X135171429Y-68700000D01*
X135200000Y-68728571D01*
X135228572Y-68785714D01*
X135228572Y-68842857D01*
X135200000Y-68928571D01*
X134857143Y-69271429D01*
X135228572Y-69271429D01*
X132000000Y-68957143D02*
X131800000Y-68957143D01*
X131800000Y-69271429D02*
X131800000Y-68671429D01*
X132085714Y-68671429D01*
X132657143Y-69214286D02*
X132628572Y-69242857D01*
X132542858Y-69271429D01*
X132485715Y-69271429D01*
X132400000Y-69242857D01*
X132342858Y-69185714D01*
X132314286Y-69128571D01*
X132285715Y-69014286D01*
X132285715Y-68928571D01*
X132314286Y-68814286D01*
X132342858Y-68757143D01*
X132400000Y-68700000D01*
X132485715Y-68671429D01*
X132542858Y-68671429D01*
X132628572Y-68700000D01*
X132657143Y-68728571D01*
X133228572Y-69271429D02*
X132885715Y-69271429D01*
X133057143Y-69271429D02*
X133057143Y-68671429D01*
X133000000Y-68757143D01*
X132942858Y-68814286D01*
X132885715Y-68842857D01*
X167552714Y-80305714D02*
X167588428Y-80270000D01*
X167659857Y-80234286D01*
X167838428Y-80234286D01*
X167909857Y-80270000D01*
X167945571Y-80305714D01*
X167981286Y-80377143D01*
X167981286Y-80448571D01*
X167945571Y-80555714D01*
X167517000Y-80984286D01*
X167981286Y-80984286D01*
X167981286Y-83524286D02*
X167552714Y-83524286D01*
X167767000Y-83524286D02*
X167767000Y-82774286D01*
X167695571Y-82881429D01*
X167624143Y-82952857D01*
X167552714Y-82988571D01*
X169130714Y-85501429D02*
X168930714Y-85215714D01*
X168787857Y-85501429D02*
X168787857Y-84901429D01*
X169016429Y-84901429D01*
X169073571Y-84930000D01*
X169102143Y-84958571D01*
X169130714Y-85015714D01*
X169130714Y-85101429D01*
X169102143Y-85158571D01*
X169073571Y-85187143D01*
X169016429Y-85215714D01*
X168787857Y-85215714D01*
X169359286Y-85330000D02*
X169645000Y-85330000D01*
X169302143Y-85501429D02*
X169502143Y-84901429D01*
X169702143Y-85501429D01*
X169845000Y-84901429D02*
X169987857Y-85501429D01*
X170102143Y-85072857D01*
X170216429Y-85501429D01*
X170359286Y-84901429D01*
X168945001Y-85891429D02*
X169059287Y-85891429D01*
X169116429Y-85920000D01*
X169173572Y-85977143D01*
X169202144Y-86091429D01*
X169202144Y-86291429D01*
X169173572Y-86405714D01*
X169116429Y-86462857D01*
X169059287Y-86491429D01*
X168945001Y-86491429D01*
X168887858Y-86462857D01*
X168830715Y-86405714D01*
X168802144Y-86291429D01*
X168802144Y-86091429D01*
X168830715Y-85977143D01*
X168887858Y-85920000D01*
X168945001Y-85891429D01*
X169459286Y-85891429D02*
X169459286Y-86377143D01*
X169487858Y-86434286D01*
X169516429Y-86462857D01*
X169573572Y-86491429D01*
X169687858Y-86491429D01*
X169745000Y-86462857D01*
X169773572Y-86434286D01*
X169802143Y-86377143D01*
X169802143Y-85891429D01*
X170002143Y-85891429D02*
X170345000Y-85891429D01*
X170173571Y-86491429D02*
X170173571Y-85891429D01*
D12*
X154428000Y-76089000D02*
X151126000Y-76089000D01*
X154682000Y-76089000D02*
X157984000Y-76089000D01*
X154555000Y-76216000D02*
X154682000Y-76089000D01*
X154555000Y-76216000D02*
X154428000Y-76089000D01*
X133727000Y-76089000D02*
X137029000Y-76089000D01*
X133473000Y-76089000D02*
X130171000Y-76089000D01*
X133600000Y-76216000D02*
X133727000Y-76089000D01*
X133600000Y-76216000D02*
X133473000Y-76089000D01*
D11*
X174841071Y-98699643D02*
X174926785Y-98728214D01*
X174955357Y-98756786D01*
X174983928Y-98813929D01*
X174983928Y-98899643D01*
X174955357Y-98956786D01*
X174926785Y-98985357D01*
X174869643Y-99013929D01*
X174641071Y-99013929D01*
X174641071Y-98413929D01*
X174841071Y-98413929D01*
X174898214Y-98442500D01*
X174926785Y-98471071D01*
X174955357Y-98528214D01*
X174955357Y-98585357D01*
X174926785Y-98642500D01*
X174898214Y-98671071D01*
X174841071Y-98699643D01*
X174641071Y-98699643D01*
X175583928Y-98956786D02*
X175555357Y-98985357D01*
X175469643Y-99013929D01*
X175412500Y-99013929D01*
X175326785Y-98985357D01*
X175269643Y-98928214D01*
X175241071Y-98871071D01*
X175212500Y-98756786D01*
X175212500Y-98671071D01*
X175241071Y-98556786D01*
X175269643Y-98499643D01*
X175326785Y-98442500D01*
X175412500Y-98413929D01*
X175469643Y-98413929D01*
X175555357Y-98442500D01*
X175583928Y-98471071D01*
X176126785Y-98413929D02*
X175841071Y-98413929D01*
X175812500Y-98699643D01*
X175841071Y-98671071D01*
X175898214Y-98642500D01*
X176041071Y-98642500D01*
X176098214Y-98671071D01*
X176126785Y-98699643D01*
X176155357Y-98756786D01*
X176155357Y-98899643D01*
X176126785Y-98956786D01*
X176098214Y-98985357D01*
X176041071Y-99013929D01*
X175898214Y-99013929D01*
X175841071Y-98985357D01*
X175812500Y-98956786D01*
X176669643Y-98613929D02*
X176669643Y-99013929D01*
X176526786Y-98385357D02*
X176383929Y-98813929D01*
X176755357Y-98813929D01*
X176926786Y-98413929D02*
X177326786Y-98413929D01*
X177069643Y-99013929D01*
X177526787Y-98842500D02*
X177812501Y-98842500D01*
X177469644Y-99013929D02*
X177669644Y-98413929D01*
X177869644Y-99013929D01*
X169761071Y-98699643D02*
X169846785Y-98728214D01*
X169875357Y-98756786D01*
X169903928Y-98813929D01*
X169903928Y-98899643D01*
X169875357Y-98956786D01*
X169846785Y-98985357D01*
X169789643Y-99013929D01*
X169561071Y-99013929D01*
X169561071Y-98413929D01*
X169761071Y-98413929D01*
X169818214Y-98442500D01*
X169846785Y-98471071D01*
X169875357Y-98528214D01*
X169875357Y-98585357D01*
X169846785Y-98642500D01*
X169818214Y-98671071D01*
X169761071Y-98699643D01*
X169561071Y-98699643D01*
X170503928Y-98956786D02*
X170475357Y-98985357D01*
X170389643Y-99013929D01*
X170332500Y-99013929D01*
X170246785Y-98985357D01*
X170189643Y-98928214D01*
X170161071Y-98871071D01*
X170132500Y-98756786D01*
X170132500Y-98671071D01*
X170161071Y-98556786D01*
X170189643Y-98499643D01*
X170246785Y-98442500D01*
X170332500Y-98413929D01*
X170389643Y-98413929D01*
X170475357Y-98442500D01*
X170503928Y-98471071D01*
X171046785Y-98413929D02*
X170761071Y-98413929D01*
X170732500Y-98699643D01*
X170761071Y-98671071D01*
X170818214Y-98642500D01*
X170961071Y-98642500D01*
X171018214Y-98671071D01*
X171046785Y-98699643D01*
X171075357Y-98756786D01*
X171075357Y-98899643D01*
X171046785Y-98956786D01*
X171018214Y-98985357D01*
X170961071Y-99013929D01*
X170818214Y-99013929D01*
X170761071Y-98985357D01*
X170732500Y-98956786D01*
X171589643Y-98613929D02*
X171589643Y-99013929D01*
X171446786Y-98385357D02*
X171303929Y-98813929D01*
X171675357Y-98813929D01*
X171846786Y-98413929D02*
X172246786Y-98413929D01*
X171989643Y-99013929D01*
X172446787Y-98842500D02*
X172732501Y-98842500D01*
X172389644Y-99013929D02*
X172589644Y-98413929D01*
X172789644Y-99013929D01*
X177127857Y-74689857D02*
X177092143Y-74725571D01*
X176985000Y-74761286D01*
X176913571Y-74761286D01*
X176806428Y-74725571D01*
X176735000Y-74654143D01*
X176699285Y-74582714D01*
X176663571Y-74439857D01*
X176663571Y-74332714D01*
X176699285Y-74189857D01*
X176735000Y-74118429D01*
X176806428Y-74047000D01*
X176913571Y-74011286D01*
X176985000Y-74011286D01*
X177092143Y-74047000D01*
X177127857Y-74082714D01*
X177592143Y-74011286D02*
X177735000Y-74011286D01*
X177806428Y-74047000D01*
X177877857Y-74118429D01*
X177913571Y-74261286D01*
X177913571Y-74511286D01*
X177877857Y-74654143D01*
X177806428Y-74725571D01*
X177735000Y-74761286D01*
X177592143Y-74761286D01*
X177520714Y-74725571D01*
X177449285Y-74654143D01*
X177413571Y-74511286D01*
X177413571Y-74261286D01*
X177449285Y-74118429D01*
X177520714Y-74047000D01*
X177592143Y-74011286D01*
X178234999Y-74761286D02*
X178234999Y-74011286D01*
X178663571Y-74761286D01*
X178663571Y-74011286D01*
X178913571Y-74011286D02*
X179342142Y-74011286D01*
X179127856Y-74761286D02*
X179127856Y-74011286D01*
X180020714Y-74761286D02*
X179770714Y-74404143D01*
X179592142Y-74761286D02*
X179592142Y-74011286D01*
X179877857Y-74011286D01*
X179949285Y-74047000D01*
X179985000Y-74082714D01*
X180020714Y-74154143D01*
X180020714Y-74261286D01*
X179985000Y-74332714D01*
X179949285Y-74368429D01*
X179877857Y-74404143D01*
X179592142Y-74404143D01*
X180485000Y-74011286D02*
X180627857Y-74011286D01*
X180699285Y-74047000D01*
X180770714Y-74118429D01*
X180806428Y-74261286D01*
X180806428Y-74511286D01*
X180770714Y-74654143D01*
X180699285Y-74725571D01*
X180627857Y-74761286D01*
X180485000Y-74761286D01*
X180413571Y-74725571D01*
X180342142Y-74654143D01*
X180306428Y-74511286D01*
X180306428Y-74261286D01*
X180342142Y-74118429D01*
X180413571Y-74047000D01*
X180485000Y-74011286D01*
X181484999Y-74761286D02*
X181127856Y-74761286D01*
X181127856Y-74011286D01*
X182270714Y-74725571D02*
X182377857Y-74761286D01*
X182556428Y-74761286D01*
X182627857Y-74725571D01*
X182663571Y-74689857D01*
X182699286Y-74618429D01*
X182699286Y-74547000D01*
X182663571Y-74475571D01*
X182627857Y-74439857D01*
X182556428Y-74404143D01*
X182413571Y-74368429D01*
X182342143Y-74332714D01*
X182306428Y-74297000D01*
X182270714Y-74225571D01*
X182270714Y-74154143D01*
X182306428Y-74082714D01*
X182342143Y-74047000D01*
X182413571Y-74011286D01*
X182592143Y-74011286D01*
X182699286Y-74047000D01*
X183020714Y-74761286D02*
X183020714Y-74011286D01*
X183770715Y-74047000D02*
X183699286Y-74011286D01*
X183592143Y-74011286D01*
X183485000Y-74047000D01*
X183413572Y-74118429D01*
X183377857Y-74189857D01*
X183342143Y-74332714D01*
X183342143Y-74439857D01*
X183377857Y-74582714D01*
X183413572Y-74654143D01*
X183485000Y-74725571D01*
X183592143Y-74761286D01*
X183663572Y-74761286D01*
X183770715Y-74725571D01*
X183806429Y-74689857D01*
X183806429Y-74439857D01*
X183663572Y-74439857D01*
X184127857Y-74761286D02*
X184127857Y-74011286D01*
X184556429Y-74761286D01*
X184556429Y-74011286D01*
X184877857Y-74547000D02*
X185235000Y-74547000D01*
X184806429Y-74761286D02*
X185056429Y-74011286D01*
X185306429Y-74761286D01*
X185913571Y-74761286D02*
X185556428Y-74761286D01*
X185556428Y-74011286D01*
X186127857Y-74725571D02*
X186235000Y-74761286D01*
X186413571Y-74761286D01*
X186485000Y-74725571D01*
X186520714Y-74689857D01*
X186556429Y-74618429D01*
X186556429Y-74547000D01*
X186520714Y-74475571D01*
X186485000Y-74439857D01*
X186413571Y-74404143D01*
X186270714Y-74368429D01*
X186199286Y-74332714D01*
X186163571Y-74297000D01*
X186127857Y-74225571D01*
X186127857Y-74154143D01*
X186163571Y-74082714D01*
X186199286Y-74047000D01*
X186270714Y-74011286D01*
X186449286Y-74011286D01*
X186556429Y-74047000D01*
D12*
X150745000Y-75708000D02*
X151126000Y-76089000D01*
X158365000Y-75708000D02*
X157984000Y-76089000D01*
D11*
X153021286Y-77190286D02*
X153021286Y-76440286D01*
X153271286Y-76976000D01*
X153521286Y-76440286D01*
X153521286Y-77190286D01*
X154021287Y-76440286D02*
X154164144Y-76440286D01*
X154235572Y-76476000D01*
X154307001Y-76547429D01*
X154342715Y-76690286D01*
X154342715Y-76940286D01*
X154307001Y-77083143D01*
X154235572Y-77154571D01*
X154164144Y-77190286D01*
X154021287Y-77190286D01*
X153949858Y-77154571D01*
X153878429Y-77083143D01*
X153842715Y-76940286D01*
X153842715Y-76690286D01*
X153878429Y-76547429D01*
X153949858Y-76476000D01*
X154021287Y-76440286D01*
X154664143Y-77190286D02*
X154664143Y-76440286D01*
X154842715Y-76440286D01*
X154949858Y-76476000D01*
X155021286Y-76547429D01*
X155057001Y-76618857D01*
X155092715Y-76761714D01*
X155092715Y-76868857D01*
X155057001Y-77011714D01*
X155021286Y-77083143D01*
X154949858Y-77154571D01*
X154842715Y-77190286D01*
X154664143Y-77190286D01*
X155414143Y-76797429D02*
X155664143Y-76797429D01*
X155771286Y-77190286D02*
X155414143Y-77190286D01*
X155414143Y-76440286D01*
X155771286Y-76440286D01*
X156449857Y-77190286D02*
X156092714Y-77190286D01*
X156092714Y-76440286D01*
X132066286Y-77190286D02*
X132066286Y-76440286D01*
X132316286Y-76976000D01*
X132566286Y-76440286D01*
X132566286Y-77190286D01*
X133066287Y-76440286D02*
X133209144Y-76440286D01*
X133280572Y-76476000D01*
X133352001Y-76547429D01*
X133387715Y-76690286D01*
X133387715Y-76940286D01*
X133352001Y-77083143D01*
X133280572Y-77154571D01*
X133209144Y-77190286D01*
X133066287Y-77190286D01*
X132994858Y-77154571D01*
X132923429Y-77083143D01*
X132887715Y-76940286D01*
X132887715Y-76690286D01*
X132923429Y-76547429D01*
X132994858Y-76476000D01*
X133066287Y-76440286D01*
X133709143Y-77190286D02*
X133709143Y-76440286D01*
X133887715Y-76440286D01*
X133994858Y-76476000D01*
X134066286Y-76547429D01*
X134102001Y-76618857D01*
X134137715Y-76761714D01*
X134137715Y-76868857D01*
X134102001Y-77011714D01*
X134066286Y-77083143D01*
X133994858Y-77154571D01*
X133887715Y-77190286D01*
X133709143Y-77190286D01*
X134459143Y-76797429D02*
X134709143Y-76797429D01*
X134816286Y-77190286D02*
X134459143Y-77190286D01*
X134459143Y-76440286D01*
X134816286Y-76440286D01*
X135494857Y-77190286D02*
X135137714Y-77190286D01*
X135137714Y-76440286D01*
D12*
X137410000Y-75708000D02*
X137029000Y-76089000D01*
X129790000Y-75708000D02*
X130171000Y-76089000D01*
D11*
X129498286Y-113111430D02*
X128748286Y-113111430D01*
X129284000Y-112861430D01*
X128748286Y-112611430D01*
X129498286Y-112611430D01*
X129498286Y-112254287D02*
X128998286Y-112254287D01*
X128748286Y-112254287D02*
X128784000Y-112290001D01*
X128819714Y-112254287D01*
X128784000Y-112218572D01*
X128748286Y-112254287D01*
X128819714Y-112254287D01*
X129498286Y-111968572D02*
X128998286Y-111575715D01*
X128998286Y-111968572D02*
X129498286Y-111575715D01*
X129462571Y-111325715D02*
X129498286Y-111218572D01*
X129498286Y-111040001D01*
X129462571Y-110968572D01*
X129426857Y-110932858D01*
X129355429Y-110897143D01*
X129284000Y-110897143D01*
X129212571Y-110932858D01*
X129176857Y-110968572D01*
X129141143Y-111040001D01*
X129105429Y-111182858D01*
X129069714Y-111254286D01*
X129034000Y-111290001D01*
X128962571Y-111325715D01*
X128891143Y-111325715D01*
X128819714Y-111290001D01*
X128784000Y-111254286D01*
X128748286Y-111182858D01*
X128748286Y-111004286D01*
X128784000Y-110897143D01*
X129498286Y-110575715D02*
X128748286Y-110575715D01*
X129498286Y-110218572D02*
X128748286Y-110218572D01*
X128748286Y-110040000D01*
X128784000Y-109932857D01*
X128855429Y-109861429D01*
X128926857Y-109825714D01*
X129069714Y-109790000D01*
X129176857Y-109790000D01*
X129319714Y-109825714D01*
X129391143Y-109861429D01*
X129462571Y-109932857D01*
X129498286Y-110040000D01*
X129498286Y-110218572D01*
X129462571Y-108932857D02*
X129498286Y-108825714D01*
X129498286Y-108647143D01*
X129462571Y-108575714D01*
X129426857Y-108540000D01*
X129355429Y-108504285D01*
X129284000Y-108504285D01*
X129212571Y-108540000D01*
X129176857Y-108575714D01*
X129141143Y-108647143D01*
X129105429Y-108790000D01*
X129069714Y-108861428D01*
X129034000Y-108897143D01*
X128962571Y-108932857D01*
X128891143Y-108932857D01*
X128819714Y-108897143D01*
X128784000Y-108861428D01*
X128748286Y-108790000D01*
X128748286Y-108611428D01*
X128784000Y-108504285D01*
X128998286Y-108289999D02*
X128998286Y-108004285D01*
X128748286Y-108182857D02*
X129391143Y-108182857D01*
X129462571Y-108147142D01*
X129498286Y-108075714D01*
X129498286Y-108004285D01*
X129462571Y-107468571D02*
X129498286Y-107540000D01*
X129498286Y-107682857D01*
X129462571Y-107754286D01*
X129391143Y-107790000D01*
X129105429Y-107790000D01*
X129034000Y-107754286D01*
X128998286Y-107682857D01*
X128998286Y-107540000D01*
X129034000Y-107468571D01*
X129105429Y-107432857D01*
X129176857Y-107432857D01*
X129248286Y-107790000D01*
X129498286Y-107111429D02*
X128998286Y-107111429D01*
X129141143Y-107111429D02*
X129069714Y-107075714D01*
X129034000Y-107040000D01*
X128998286Y-106968571D01*
X128998286Y-106897143D01*
X129462571Y-106361428D02*
X129498286Y-106432857D01*
X129498286Y-106575714D01*
X129462571Y-106647143D01*
X129391143Y-106682857D01*
X129105429Y-106682857D01*
X129034000Y-106647143D01*
X128998286Y-106575714D01*
X128998286Y-106432857D01*
X129034000Y-106361428D01*
X129105429Y-106325714D01*
X129176857Y-106325714D01*
X129248286Y-106682857D01*
X129498286Y-105897143D02*
X129462571Y-105968571D01*
X129426857Y-106004286D01*
X129355429Y-106040000D01*
X129141143Y-106040000D01*
X129069714Y-106004286D01*
X129034000Y-105968571D01*
X128998286Y-105897143D01*
X128998286Y-105790000D01*
X129034000Y-105718571D01*
X129069714Y-105682857D01*
X129141143Y-105647143D01*
X129355429Y-105647143D01*
X129426857Y-105682857D01*
X129462571Y-105718571D01*
X129498286Y-105790000D01*
X129498286Y-105897143D01*
X129462571Y-104790000D02*
X129498286Y-104682857D01*
X129498286Y-104504286D01*
X129462571Y-104432857D01*
X129426857Y-104397143D01*
X129355429Y-104361428D01*
X129284000Y-104361428D01*
X129212571Y-104397143D01*
X129176857Y-104432857D01*
X129141143Y-104504286D01*
X129105429Y-104647143D01*
X129069714Y-104718571D01*
X129034000Y-104754286D01*
X128962571Y-104790000D01*
X128891143Y-104790000D01*
X128819714Y-104754286D01*
X128784000Y-104718571D01*
X128748286Y-104647143D01*
X128748286Y-104468571D01*
X128784000Y-104361428D01*
X129498286Y-104040000D02*
X128748286Y-104040000D01*
X129498286Y-103682857D02*
X128748286Y-103682857D01*
X128748286Y-103504285D01*
X128784000Y-103397142D01*
X128855429Y-103325714D01*
X128926857Y-103289999D01*
X129069714Y-103254285D01*
X129176857Y-103254285D01*
X129319714Y-103289999D01*
X129391143Y-103325714D01*
X129462571Y-103397142D01*
X129498286Y-103504285D01*
X129498286Y-103682857D01*
X129105429Y-102111428D02*
X129141143Y-102004285D01*
X129176857Y-101968570D01*
X129248286Y-101932856D01*
X129355429Y-101932856D01*
X129426857Y-101968570D01*
X129462571Y-102004285D01*
X129498286Y-102075713D01*
X129498286Y-102361428D01*
X128748286Y-102361428D01*
X128748286Y-102111428D01*
X128784000Y-102039999D01*
X128819714Y-102004285D01*
X128891143Y-101968570D01*
X128962571Y-101968570D01*
X129034000Y-102004285D01*
X129069714Y-102039999D01*
X129105429Y-102111428D01*
X129105429Y-102361428D01*
X129498286Y-101504285D02*
X129462571Y-101575713D01*
X129426857Y-101611428D01*
X129355429Y-101647142D01*
X129141143Y-101647142D01*
X129069714Y-101611428D01*
X129034000Y-101575713D01*
X128998286Y-101504285D01*
X128998286Y-101397142D01*
X129034000Y-101325713D01*
X129069714Y-101289999D01*
X129141143Y-101254285D01*
X129355429Y-101254285D01*
X129426857Y-101289999D01*
X129462571Y-101325713D01*
X129498286Y-101397142D01*
X129498286Y-101504285D01*
X129498286Y-100611428D02*
X129105429Y-100611428D01*
X129034000Y-100647142D01*
X128998286Y-100718571D01*
X128998286Y-100861428D01*
X129034000Y-100932857D01*
X129462571Y-100611428D02*
X129498286Y-100682857D01*
X129498286Y-100861428D01*
X129462571Y-100932857D01*
X129391143Y-100968571D01*
X129319714Y-100968571D01*
X129248286Y-100932857D01*
X129212571Y-100861428D01*
X129212571Y-100682857D01*
X129176857Y-100611428D01*
X129498286Y-100254286D02*
X128998286Y-100254286D01*
X129141143Y-100254286D02*
X129069714Y-100218571D01*
X129034000Y-100182857D01*
X128998286Y-100111428D01*
X128998286Y-100040000D01*
X129498286Y-99468571D02*
X128748286Y-99468571D01*
X129462571Y-99468571D02*
X129498286Y-99540000D01*
X129498286Y-99682857D01*
X129462571Y-99754285D01*
X129426857Y-99790000D01*
X129355429Y-99825714D01*
X129141143Y-99825714D01*
X129069714Y-99790000D01*
X129034000Y-99754285D01*
X128998286Y-99682857D01*
X128998286Y-99540000D01*
X129034000Y-99468571D01*
X129498286Y-98111428D02*
X129141143Y-98361428D01*
X129498286Y-98540000D02*
X128748286Y-98540000D01*
X128748286Y-98254285D01*
X128784000Y-98182857D01*
X128819714Y-98147142D01*
X128891143Y-98111428D01*
X128998286Y-98111428D01*
X129069714Y-98147142D01*
X129105429Y-98182857D01*
X129141143Y-98254285D01*
X129141143Y-98540000D01*
X129462571Y-97504285D02*
X129498286Y-97575714D01*
X129498286Y-97718571D01*
X129462571Y-97790000D01*
X129391143Y-97825714D01*
X129105429Y-97825714D01*
X129034000Y-97790000D01*
X128998286Y-97718571D01*
X128998286Y-97575714D01*
X129034000Y-97504285D01*
X129105429Y-97468571D01*
X129176857Y-97468571D01*
X129248286Y-97825714D01*
X128998286Y-97218571D02*
X129498286Y-97040000D01*
X128998286Y-96861428D01*
X129426857Y-96575714D02*
X129462571Y-96539999D01*
X129498286Y-96575714D01*
X129462571Y-96611428D01*
X129426857Y-96575714D01*
X129498286Y-96575714D01*
X129498286Y-95825713D02*
X129498286Y-96254285D01*
X129498286Y-96039999D02*
X128748286Y-96039999D01*
X128855429Y-96111428D01*
X128926857Y-96182856D01*
X128962571Y-96254285D01*
X128926857Y-94325713D02*
X128891143Y-94397141D01*
X128891143Y-94539998D01*
X128926857Y-94611427D01*
X128998286Y-94682856D01*
X129069714Y-94718570D01*
X129212571Y-94718570D01*
X129284000Y-94682856D01*
X129355429Y-94611427D01*
X129391143Y-94539998D01*
X129391143Y-94397141D01*
X129355429Y-94325713D01*
X128641143Y-94468570D02*
X128676857Y-94647141D01*
X128784000Y-94825713D01*
X128962571Y-94932856D01*
X129141143Y-94968570D01*
X129319714Y-94932856D01*
X129498286Y-94825713D01*
X129605429Y-94647141D01*
X129641143Y-94468570D01*
X129605429Y-94289998D01*
X129498286Y-94111427D01*
X129319714Y-94004284D01*
X129141143Y-93968570D01*
X128962571Y-94004284D01*
X128784000Y-94111427D01*
X128676857Y-94289998D01*
X128641143Y-94468570D01*
X128819714Y-93682856D02*
X128784000Y-93647142D01*
X128748286Y-93575713D01*
X128748286Y-93397142D01*
X128784000Y-93325713D01*
X128819714Y-93289999D01*
X128891143Y-93254284D01*
X128962571Y-93254284D01*
X129069714Y-93289999D01*
X129498286Y-93718570D01*
X129498286Y-93254284D01*
X128748286Y-92789998D02*
X128748286Y-92718570D01*
X128784000Y-92647141D01*
X128819714Y-92611427D01*
X128891143Y-92575713D01*
X129034000Y-92539998D01*
X129212571Y-92539998D01*
X129355429Y-92575713D01*
X129426857Y-92611427D01*
X129462571Y-92647141D01*
X129498286Y-92718570D01*
X129498286Y-92789998D01*
X129462571Y-92861427D01*
X129426857Y-92897141D01*
X129355429Y-92932856D01*
X129212571Y-92968570D01*
X129034000Y-92968570D01*
X128891143Y-92932856D01*
X128819714Y-92897141D01*
X128784000Y-92861427D01*
X128748286Y-92789998D01*
X129498286Y-91825712D02*
X129498286Y-92254284D01*
X129498286Y-92039998D02*
X128748286Y-92039998D01*
X128855429Y-92111427D01*
X128926857Y-92182855D01*
X128962571Y-92254284D01*
X128748286Y-91182855D02*
X128748286Y-91325712D01*
X128784000Y-91397141D01*
X128819714Y-91432855D01*
X128926857Y-91504284D01*
X129069714Y-91539998D01*
X129355429Y-91539998D01*
X129426857Y-91504284D01*
X129462571Y-91468569D01*
X129498286Y-91397141D01*
X129498286Y-91254284D01*
X129462571Y-91182855D01*
X129426857Y-91147141D01*
X129355429Y-91111426D01*
X129176857Y-91111426D01*
X129105429Y-91147141D01*
X129069714Y-91182855D01*
X129034000Y-91254284D01*
X129034000Y-91397141D01*
X129069714Y-91468569D01*
X129105429Y-91504284D01*
X129176857Y-91539998D01*
X129498286Y-90218569D02*
X128748286Y-90218569D01*
X129105429Y-90218569D02*
X129105429Y-89789997D01*
X129498286Y-89789997D02*
X128748286Y-89789997D01*
X129462571Y-89147140D02*
X129498286Y-89218569D01*
X129498286Y-89361426D01*
X129462571Y-89432855D01*
X129391143Y-89468569D01*
X129105429Y-89468569D01*
X129034000Y-89432855D01*
X128998286Y-89361426D01*
X128998286Y-89218569D01*
X129034000Y-89147140D01*
X129105429Y-89111426D01*
X129176857Y-89111426D01*
X129248286Y-89468569D01*
X128998286Y-88789998D02*
X129498286Y-88789998D01*
X129069714Y-88789998D02*
X129034000Y-88754283D01*
X128998286Y-88682855D01*
X128998286Y-88575712D01*
X129034000Y-88504283D01*
X129105429Y-88468569D01*
X129498286Y-88468569D01*
X128998286Y-88111427D02*
X129498286Y-88111427D01*
X129069714Y-88111427D02*
X129034000Y-88075712D01*
X128998286Y-88004284D01*
X128998286Y-87897141D01*
X129034000Y-87825712D01*
X129105429Y-87789998D01*
X129498286Y-87789998D01*
X129498286Y-87432856D02*
X128998286Y-87432856D01*
X128748286Y-87432856D02*
X128784000Y-87468570D01*
X128819714Y-87432856D01*
X128784000Y-87397141D01*
X128748286Y-87432856D01*
X128819714Y-87432856D01*
X128998286Y-87075713D02*
X129498286Y-87075713D01*
X129069714Y-87075713D02*
X129034000Y-87039998D01*
X128998286Y-86968570D01*
X128998286Y-86861427D01*
X129034000Y-86789998D01*
X129105429Y-86754284D01*
X129498286Y-86754284D01*
X128998286Y-86075713D02*
X129605429Y-86075713D01*
X129676857Y-86111427D01*
X129712571Y-86147142D01*
X129748286Y-86218570D01*
X129748286Y-86325713D01*
X129712571Y-86397142D01*
X129462571Y-86075713D02*
X129498286Y-86147142D01*
X129498286Y-86289999D01*
X129462571Y-86361427D01*
X129426857Y-86397142D01*
X129355429Y-86432856D01*
X129141143Y-86432856D01*
X129069714Y-86397142D01*
X129034000Y-86361427D01*
X128998286Y-86289999D01*
X128998286Y-86147142D01*
X129034000Y-86075713D01*
X129105429Y-84897142D02*
X129141143Y-84789999D01*
X129176857Y-84754284D01*
X129248286Y-84718570D01*
X129355429Y-84718570D01*
X129426857Y-84754284D01*
X129462571Y-84789999D01*
X129498286Y-84861427D01*
X129498286Y-85147142D01*
X128748286Y-85147142D01*
X128748286Y-84897142D01*
X128784000Y-84825713D01*
X128819714Y-84789999D01*
X128891143Y-84754284D01*
X128962571Y-84754284D01*
X129034000Y-84789999D01*
X129069714Y-84825713D01*
X129105429Y-84897142D01*
X129105429Y-85147142D01*
X129462571Y-84111427D02*
X129498286Y-84182856D01*
X129498286Y-84325713D01*
X129462571Y-84397142D01*
X129391143Y-84432856D01*
X129105429Y-84432856D01*
X129034000Y-84397142D01*
X128998286Y-84325713D01*
X128998286Y-84182856D01*
X129034000Y-84111427D01*
X129105429Y-84075713D01*
X129176857Y-84075713D01*
X129248286Y-84432856D01*
X129498286Y-83754285D02*
X128748286Y-83754285D01*
X129212571Y-83682856D02*
X129498286Y-83468570D01*
X128998286Y-83468570D02*
X129284000Y-83754285D01*
X129462571Y-82861427D02*
X129498286Y-82932856D01*
X129498286Y-83075713D01*
X129462571Y-83147142D01*
X129391143Y-83182856D01*
X129105429Y-83182856D01*
X129034000Y-83147142D01*
X128998286Y-83075713D01*
X128998286Y-82932856D01*
X129034000Y-82861427D01*
X129105429Y-82825713D01*
X129176857Y-82825713D01*
X129248286Y-83182856D01*
X129498286Y-82397142D02*
X129462571Y-82468570D01*
X129391143Y-82504285D01*
X128748286Y-82504285D01*
X158228571Y-117421429D02*
X158335714Y-117457143D01*
X158371429Y-117492857D01*
X158407143Y-117564286D01*
X158407143Y-117671429D01*
X158371429Y-117742857D01*
X158335714Y-117778571D01*
X158264286Y-117814286D01*
X157978571Y-117814286D01*
X157978571Y-117064286D01*
X158228571Y-117064286D01*
X158300000Y-117100000D01*
X158335714Y-117135714D01*
X158371429Y-117207143D01*
X158371429Y-117278571D01*
X158335714Y-117350000D01*
X158300000Y-117385714D01*
X158228571Y-117421429D01*
X157978571Y-117421429D01*
X158871429Y-117064286D02*
X159014286Y-117064286D01*
X159085714Y-117100000D01*
X159157143Y-117171429D01*
X159192857Y-117314286D01*
X159192857Y-117564286D01*
X159157143Y-117707143D01*
X159085714Y-117778571D01*
X159014286Y-117814286D01*
X158871429Y-117814286D01*
X158800000Y-117778571D01*
X158728571Y-117707143D01*
X158692857Y-117564286D01*
X158692857Y-117314286D01*
X158728571Y-117171429D01*
X158800000Y-117100000D01*
X158871429Y-117064286D01*
X159478571Y-117600000D02*
X159835714Y-117600000D01*
X159407143Y-117814286D02*
X159657143Y-117064286D01*
X159907143Y-117814286D01*
X160585714Y-117814286D02*
X160335714Y-117457143D01*
X160157142Y-117814286D02*
X160157142Y-117064286D01*
X160442857Y-117064286D01*
X160514285Y-117100000D01*
X160550000Y-117135714D01*
X160585714Y-117207143D01*
X160585714Y-117314286D01*
X160550000Y-117385714D01*
X160514285Y-117421429D01*
X160442857Y-117457143D01*
X160157142Y-117457143D01*
X160907142Y-117814286D02*
X160907142Y-117064286D01*
X161085714Y-117064286D01*
X161192857Y-117100000D01*
X161264285Y-117171429D01*
X161300000Y-117242857D01*
X161335714Y-117385714D01*
X161335714Y-117492857D01*
X161300000Y-117635714D01*
X161264285Y-117707143D01*
X161192857Y-117778571D01*
X161085714Y-117814286D01*
X160907142Y-117814286D01*
X162192857Y-117778571D02*
X162300000Y-117814286D01*
X162478571Y-117814286D01*
X162550000Y-117778571D01*
X162585714Y-117742857D01*
X162621429Y-117671429D01*
X162621429Y-117600000D01*
X162585714Y-117528571D01*
X162550000Y-117492857D01*
X162478571Y-117457143D01*
X162335714Y-117421429D01*
X162264286Y-117385714D01*
X162228571Y-117350000D01*
X162192857Y-117278571D01*
X162192857Y-117207143D01*
X162228571Y-117135714D01*
X162264286Y-117100000D01*
X162335714Y-117064286D01*
X162514286Y-117064286D01*
X162621429Y-117100000D01*
X162942857Y-117421429D02*
X163192857Y-117421429D01*
X163300000Y-117814286D02*
X162942857Y-117814286D01*
X162942857Y-117064286D01*
X163300000Y-117064286D01*
X163978571Y-117814286D02*
X163621428Y-117814286D01*
X163621428Y-117064286D01*
X164228571Y-117421429D02*
X164478571Y-117421429D01*
X164585714Y-117814286D02*
X164228571Y-117814286D01*
X164228571Y-117064286D01*
X164585714Y-117064286D01*
X165335714Y-117742857D02*
X165300000Y-117778571D01*
X165192857Y-117814286D01*
X165121428Y-117814286D01*
X165014285Y-117778571D01*
X164942857Y-117707143D01*
X164907142Y-117635714D01*
X164871428Y-117492857D01*
X164871428Y-117385714D01*
X164907142Y-117242857D01*
X164942857Y-117171429D01*
X165014285Y-117100000D01*
X165121428Y-117064286D01*
X165192857Y-117064286D01*
X165300000Y-117100000D01*
X165335714Y-117135714D01*
X165550000Y-117064286D02*
X165978571Y-117064286D01*
X165764285Y-117814286D02*
X165764285Y-117064286D01*
X177514287Y-85776429D02*
X177714287Y-86376429D01*
X177914287Y-85776429D01*
X178228573Y-85776429D02*
X178342859Y-85776429D01*
X178400001Y-85805000D01*
X178457144Y-85862143D01*
X178485716Y-85976429D01*
X178485716Y-86176429D01*
X178457144Y-86290714D01*
X178400001Y-86347857D01*
X178342859Y-86376429D01*
X178228573Y-86376429D01*
X178171430Y-86347857D01*
X178114287Y-86290714D01*
X178085716Y-86176429D01*
X178085716Y-85976429D01*
X178114287Y-85862143D01*
X178171430Y-85805000D01*
X178228573Y-85776429D01*
X179028572Y-86376429D02*
X178742858Y-86376429D01*
X178742858Y-85776429D01*
X179228572Y-85776429D02*
X179228572Y-86262143D01*
X179257144Y-86319286D01*
X179285715Y-86347857D01*
X179342858Y-86376429D01*
X179457144Y-86376429D01*
X179514286Y-86347857D01*
X179542858Y-86319286D01*
X179571429Y-86262143D01*
X179571429Y-85776429D01*
X179857143Y-86376429D02*
X179857143Y-85776429D01*
X180057143Y-86205000D01*
X180257143Y-85776429D01*
X180257143Y-86376429D01*
X180542857Y-86062143D02*
X180742857Y-86062143D01*
X180828571Y-86376429D02*
X180542857Y-86376429D01*
X180542857Y-85776429D01*
X180828571Y-85776429D01*
X177700000Y-87195000D02*
X177985714Y-87195000D01*
X177642857Y-87366429D02*
X177842857Y-86766429D01*
X178042857Y-87366429D01*
X178242857Y-87366429D02*
X178242857Y-86766429D01*
X178385714Y-86766429D01*
X178471429Y-86795000D01*
X178528571Y-86852143D01*
X178557143Y-86909286D01*
X178585714Y-87023571D01*
X178585714Y-87109286D01*
X178557143Y-87223571D01*
X178528571Y-87280714D01*
X178471429Y-87337857D01*
X178385714Y-87366429D01*
X178242857Y-87366429D01*
X179014286Y-86766429D02*
X179014286Y-87195000D01*
X178985714Y-87280714D01*
X178928571Y-87337857D01*
X178842857Y-87366429D01*
X178785714Y-87366429D01*
X179300000Y-86766429D02*
X179300000Y-87252143D01*
X179328572Y-87309286D01*
X179357143Y-87337857D01*
X179414286Y-87366429D01*
X179528572Y-87366429D01*
X179585714Y-87337857D01*
X179614286Y-87309286D01*
X179642857Y-87252143D01*
X179642857Y-86766429D01*
X179900000Y-87337857D02*
X179985714Y-87366429D01*
X180128571Y-87366429D01*
X180185714Y-87337857D01*
X180214285Y-87309286D01*
X180242857Y-87252143D01*
X180242857Y-87195000D01*
X180214285Y-87137857D01*
X180185714Y-87109286D01*
X180128571Y-87080714D01*
X180014285Y-87052143D01*
X179957143Y-87023571D01*
X179928571Y-86995000D01*
X179900000Y-86937857D01*
X179900000Y-86880714D01*
X179928571Y-86823571D01*
X179957143Y-86795000D01*
X180014285Y-86766429D01*
X180157143Y-86766429D01*
X180242857Y-86795000D01*
X180414286Y-86766429D02*
X180757143Y-86766429D01*
X180585714Y-87366429D02*
X180585714Y-86766429D01*
X148919571Y-123795286D02*
X149419571Y-123795286D01*
X149098142Y-124545286D01*
X149812428Y-124116714D02*
X149741000Y-124081000D01*
X149705285Y-124045286D01*
X149669571Y-123973857D01*
X149669571Y-123938143D01*
X149705285Y-123866714D01*
X149741000Y-123831000D01*
X149812428Y-123795286D01*
X149955285Y-123795286D01*
X150026714Y-123831000D01*
X150062428Y-123866714D01*
X150098143Y-123938143D01*
X150098143Y-123973857D01*
X150062428Y-124045286D01*
X150026714Y-124081000D01*
X149955285Y-124116714D01*
X149812428Y-124116714D01*
X149741000Y-124152429D01*
X149705285Y-124188143D01*
X149669571Y-124259571D01*
X149669571Y-124402429D01*
X149705285Y-124473857D01*
X149741000Y-124509571D01*
X149812428Y-124545286D01*
X149955285Y-124545286D01*
X150026714Y-124509571D01*
X150062428Y-124473857D01*
X150098143Y-124402429D01*
X150098143Y-124259571D01*
X150062428Y-124188143D01*
X150026714Y-124152429D01*
X149955285Y-124116714D01*
X150562429Y-123795286D02*
X150633857Y-123795286D01*
X150705286Y-123831000D01*
X150741000Y-123866714D01*
X150776714Y-123938143D01*
X150812429Y-124081000D01*
X150812429Y-124259571D01*
X150776714Y-124402429D01*
X150741000Y-124473857D01*
X150705286Y-124509571D01*
X150633857Y-124545286D01*
X150562429Y-124545286D01*
X150491000Y-124509571D01*
X150455286Y-124473857D01*
X150419571Y-124402429D01*
X150383857Y-124259571D01*
X150383857Y-124081000D01*
X150419571Y-123938143D01*
X150455286Y-123866714D01*
X150491000Y-123831000D01*
X150562429Y-123795286D01*
X151169572Y-124545286D02*
X151312429Y-124545286D01*
X151383857Y-124509571D01*
X151419572Y-124473857D01*
X151491000Y-124366714D01*
X151526715Y-124223857D01*
X151526715Y-123938143D01*
X151491000Y-123866714D01*
X151455286Y-123831000D01*
X151383857Y-123795286D01*
X151241000Y-123795286D01*
X151169572Y-123831000D01*
X151133857Y-123866714D01*
X151098143Y-123938143D01*
X151098143Y-124116714D01*
X151133857Y-124188143D01*
X151169572Y-124223857D01*
X151241000Y-124259571D01*
X151383857Y-124259571D01*
X151455286Y-124223857D01*
X151491000Y-124188143D01*
X151526715Y-124116714D01*
X172414571Y-123795286D02*
X172914571Y-123795286D01*
X172593142Y-124545286D01*
X173307428Y-124116714D02*
X173236000Y-124081000D01*
X173200285Y-124045286D01*
X173164571Y-123973857D01*
X173164571Y-123938143D01*
X173200285Y-123866714D01*
X173236000Y-123831000D01*
X173307428Y-123795286D01*
X173450285Y-123795286D01*
X173521714Y-123831000D01*
X173557428Y-123866714D01*
X173593143Y-123938143D01*
X173593143Y-123973857D01*
X173557428Y-124045286D01*
X173521714Y-124081000D01*
X173450285Y-124116714D01*
X173307428Y-124116714D01*
X173236000Y-124152429D01*
X173200285Y-124188143D01*
X173164571Y-124259571D01*
X173164571Y-124402429D01*
X173200285Y-124473857D01*
X173236000Y-124509571D01*
X173307428Y-124545286D01*
X173450285Y-124545286D01*
X173521714Y-124509571D01*
X173557428Y-124473857D01*
X173593143Y-124402429D01*
X173593143Y-124259571D01*
X173557428Y-124188143D01*
X173521714Y-124152429D01*
X173450285Y-124116714D01*
X174307429Y-124545286D02*
X173878857Y-124545286D01*
X174093143Y-124545286D02*
X174093143Y-123795286D01*
X174021714Y-123902429D01*
X173950286Y-123973857D01*
X173878857Y-124009571D01*
X174593143Y-123866714D02*
X174628857Y-123831000D01*
X174700286Y-123795286D01*
X174878857Y-123795286D01*
X174950286Y-123831000D01*
X174986000Y-123866714D01*
X175021715Y-123938143D01*
X175021715Y-124009571D01*
X174986000Y-124116714D01*
X174557429Y-124545286D01*
X175021715Y-124545286D01*
X131100357Y-117421429D02*
X131350357Y-117421429D01*
X131457500Y-117814286D02*
X131100357Y-117814286D01*
X131100357Y-117064286D01*
X131457500Y-117064286D01*
X131707500Y-117064286D02*
X132207500Y-117814286D01*
X132207500Y-117064286D02*
X131707500Y-117814286D01*
X132386072Y-117064286D02*
X132814643Y-117064286D01*
X132600357Y-117814286D02*
X132600357Y-117064286D01*
X133064643Y-117421429D02*
X133314643Y-117421429D01*
X133421786Y-117814286D02*
X133064643Y-117814286D01*
X133064643Y-117064286D01*
X133421786Y-117064286D01*
X134171786Y-117814286D02*
X133921786Y-117457143D01*
X133743214Y-117814286D02*
X133743214Y-117064286D01*
X134028929Y-117064286D01*
X134100357Y-117100000D01*
X134136072Y-117135714D01*
X134171786Y-117207143D01*
X134171786Y-117314286D01*
X134136072Y-117385714D01*
X134100357Y-117421429D01*
X134028929Y-117457143D01*
X133743214Y-117457143D01*
X134493214Y-117814286D02*
X134493214Y-117064286D01*
X134921786Y-117814286D01*
X134921786Y-117064286D01*
X135243214Y-117600000D02*
X135600357Y-117600000D01*
X135171786Y-117814286D02*
X135421786Y-117064286D01*
X135671786Y-117814286D01*
X136278928Y-117814286D02*
X135921785Y-117814286D01*
X135921785Y-117064286D01*
X137064643Y-117778571D02*
X137171786Y-117814286D01*
X137350357Y-117814286D01*
X137421786Y-117778571D01*
X137457500Y-117742857D01*
X137493215Y-117671429D01*
X137493215Y-117600000D01*
X137457500Y-117528571D01*
X137421786Y-117492857D01*
X137350357Y-117457143D01*
X137207500Y-117421429D01*
X137136072Y-117385714D01*
X137100357Y-117350000D01*
X137064643Y-117278571D01*
X137064643Y-117207143D01*
X137100357Y-117135714D01*
X137136072Y-117100000D01*
X137207500Y-117064286D01*
X137386072Y-117064286D01*
X137493215Y-117100000D01*
X137814643Y-117814286D02*
X137814643Y-117064286D01*
X138564644Y-117100000D02*
X138493215Y-117064286D01*
X138386072Y-117064286D01*
X138278929Y-117100000D01*
X138207501Y-117171429D01*
X138171786Y-117242857D01*
X138136072Y-117385714D01*
X138136072Y-117492857D01*
X138171786Y-117635714D01*
X138207501Y-117707143D01*
X138278929Y-117778571D01*
X138386072Y-117814286D01*
X138457501Y-117814286D01*
X138564644Y-117778571D01*
X138600358Y-117742857D01*
X138600358Y-117492857D01*
X138457501Y-117492857D01*
X138921786Y-117814286D02*
X138921786Y-117064286D01*
X139350358Y-117814286D01*
X139350358Y-117064286D01*
X139671786Y-117600000D02*
X140028929Y-117600000D01*
X139600358Y-117814286D02*
X139850358Y-117064286D01*
X140100358Y-117814286D01*
X140707500Y-117814286D02*
X140350357Y-117814286D01*
X140350357Y-117064286D01*
X140921786Y-117778571D02*
X141028929Y-117814286D01*
X141207500Y-117814286D01*
X141278929Y-117778571D01*
X141314643Y-117742857D01*
X141350358Y-117671429D01*
X141350358Y-117600000D01*
X141314643Y-117528571D01*
X141278929Y-117492857D01*
X141207500Y-117457143D01*
X141064643Y-117421429D01*
X140993215Y-117385714D01*
X140957500Y-117350000D01*
X140921786Y-117278571D01*
X140921786Y-117207143D01*
X140957500Y-117135714D01*
X140993215Y-117100000D01*
X141064643Y-117064286D01*
X141243215Y-117064286D01*
X141350358Y-117100000D01*
X189462143Y-120989286D02*
X189212143Y-120632143D01*
X189033571Y-120989286D02*
X189033571Y-120239286D01*
X189319286Y-120239286D01*
X189390714Y-120275000D01*
X189426429Y-120310714D01*
X189462143Y-120382143D01*
X189462143Y-120489286D01*
X189426429Y-120560714D01*
X189390714Y-120596429D01*
X189319286Y-120632143D01*
X189033571Y-120632143D01*
X180572143Y-120989286D02*
X180215000Y-120989286D01*
X180215000Y-120239286D01*
X181910000Y-118743000D02*
X182267143Y-118743000D01*
X181838572Y-118957286D02*
X182088572Y-118207286D01*
X182338572Y-118957286D01*
X182588571Y-118207286D02*
X182588571Y-118814429D01*
X182624286Y-118885857D01*
X182660000Y-118921571D01*
X182731429Y-118957286D01*
X182874286Y-118957286D01*
X182945714Y-118921571D01*
X182981429Y-118885857D01*
X183017143Y-118814429D01*
X183017143Y-118207286D01*
X183374285Y-118957286D02*
X183374285Y-118207286D01*
X183552857Y-118207286D01*
X183660000Y-118243000D01*
X183731428Y-118314429D01*
X183767143Y-118385857D01*
X183802857Y-118528714D01*
X183802857Y-118635857D01*
X183767143Y-118778714D01*
X183731428Y-118850143D01*
X183660000Y-118921571D01*
X183552857Y-118957286D01*
X183374285Y-118957286D01*
X184124285Y-118957286D02*
X184124285Y-118207286D01*
X184624286Y-118207286D02*
X184767143Y-118207286D01*
X184838571Y-118243000D01*
X184910000Y-118314429D01*
X184945714Y-118457286D01*
X184945714Y-118707286D01*
X184910000Y-118850143D01*
X184838571Y-118921571D01*
X184767143Y-118957286D01*
X184624286Y-118957286D01*
X184552857Y-118921571D01*
X184481428Y-118850143D01*
X184445714Y-118707286D01*
X184445714Y-118457286D01*
X184481428Y-118314429D01*
X184552857Y-118243000D01*
X184624286Y-118207286D01*
X185981429Y-118207286D02*
X186124286Y-118207286D01*
X186195714Y-118243000D01*
X186267143Y-118314429D01*
X186302857Y-118457286D01*
X186302857Y-118707286D01*
X186267143Y-118850143D01*
X186195714Y-118921571D01*
X186124286Y-118957286D01*
X185981429Y-118957286D01*
X185910000Y-118921571D01*
X185838571Y-118850143D01*
X185802857Y-118707286D01*
X185802857Y-118457286D01*
X185838571Y-118314429D01*
X185910000Y-118243000D01*
X185981429Y-118207286D01*
X186624285Y-118207286D02*
X186624285Y-118814429D01*
X186660000Y-118885857D01*
X186695714Y-118921571D01*
X186767143Y-118957286D01*
X186910000Y-118957286D01*
X186981428Y-118921571D01*
X187017143Y-118885857D01*
X187052857Y-118814429D01*
X187052857Y-118207286D01*
X187302857Y-118207286D02*
X187731428Y-118207286D01*
X187517142Y-118957286D02*
X187517142Y-118207286D01*
X168598571Y-78571286D02*
X168598571Y-77821286D01*
X169027143Y-78571286D01*
X169027143Y-77821286D01*
X169812857Y-78571286D02*
X169562857Y-78214143D01*
X169384285Y-78571286D02*
X169384285Y-77821286D01*
X169670000Y-77821286D01*
X169741428Y-77857000D01*
X169777143Y-77892714D01*
X169812857Y-77964143D01*
X169812857Y-78071286D01*
X169777143Y-78142714D01*
X169741428Y-78178429D01*
X169670000Y-78214143D01*
X169384285Y-78214143D01*
X170527143Y-78571286D02*
X170098571Y-78571286D01*
X170312857Y-78571286D02*
X170312857Y-77821286D01*
X170241428Y-77928429D01*
X170170000Y-77999857D01*
X170098571Y-78035571D01*
X147516571Y-78571286D02*
X147516571Y-77821286D01*
X147945143Y-78571286D01*
X147945143Y-77821286D01*
X148730857Y-78571286D02*
X148480857Y-78214143D01*
X148302285Y-78571286D02*
X148302285Y-77821286D01*
X148588000Y-77821286D01*
X148659428Y-77857000D01*
X148695143Y-77892714D01*
X148730857Y-77964143D01*
X148730857Y-78071286D01*
X148695143Y-78142714D01*
X148659428Y-78178429D01*
X148588000Y-78214143D01*
X148302285Y-78214143D01*
X149016571Y-77892714D02*
X149052285Y-77857000D01*
X149123714Y-77821286D01*
X149302285Y-77821286D01*
X149373714Y-77857000D01*
X149409428Y-77892714D01*
X149445143Y-77964143D01*
X149445143Y-78035571D01*
X149409428Y-78142714D01*
X148980857Y-78571286D01*
X149445143Y-78571286D01*
X128815714Y-75310858D02*
X128780000Y-75382286D01*
X128744286Y-75418001D01*
X128672857Y-75453715D01*
X128637143Y-75453715D01*
X128565714Y-75418001D01*
X128530000Y-75382286D01*
X128494286Y-75310858D01*
X128494286Y-75168001D01*
X128530000Y-75096572D01*
X128565714Y-75060858D01*
X128637143Y-75025143D01*
X128672857Y-75025143D01*
X128744286Y-75060858D01*
X128780000Y-75096572D01*
X128815714Y-75168001D01*
X128815714Y-75310858D01*
X128851429Y-75382286D01*
X128887143Y-75418001D01*
X128958571Y-75453715D01*
X129101429Y-75453715D01*
X129172857Y-75418001D01*
X129208571Y-75382286D01*
X129244286Y-75310858D01*
X129244286Y-75168001D01*
X129208571Y-75096572D01*
X129172857Y-75060858D01*
X129101429Y-75025143D01*
X128958571Y-75025143D01*
X128887143Y-75060858D01*
X128851429Y-75096572D01*
X128815714Y-75168001D01*
X128494286Y-74346572D02*
X128494286Y-74703715D01*
X128851429Y-74739429D01*
X128815714Y-74703715D01*
X128780000Y-74632286D01*
X128780000Y-74453715D01*
X128815714Y-74382286D01*
X128851429Y-74346572D01*
X128922857Y-74310857D01*
X129101429Y-74310857D01*
X129172857Y-74346572D01*
X129208571Y-74382286D01*
X129244286Y-74453715D01*
X129244286Y-74632286D01*
X129208571Y-74703715D01*
X129172857Y-74739429D01*
X128815714Y-73882286D02*
X128780000Y-73953714D01*
X128744286Y-73989429D01*
X128672857Y-74025143D01*
X128637143Y-74025143D01*
X128565714Y-73989429D01*
X128530000Y-73953714D01*
X128494286Y-73882286D01*
X128494286Y-73739429D01*
X128530000Y-73668000D01*
X128565714Y-73632286D01*
X128637143Y-73596571D01*
X128672857Y-73596571D01*
X128744286Y-73632286D01*
X128780000Y-73668000D01*
X128815714Y-73739429D01*
X128815714Y-73882286D01*
X128851429Y-73953714D01*
X128887143Y-73989429D01*
X128958571Y-74025143D01*
X129101429Y-74025143D01*
X129172857Y-73989429D01*
X129208571Y-73953714D01*
X129244286Y-73882286D01*
X129244286Y-73739429D01*
X129208571Y-73668000D01*
X129172857Y-73632286D01*
X129101429Y-73596571D01*
X128958571Y-73596571D01*
X128887143Y-73632286D01*
X128851429Y-73668000D01*
X128815714Y-73739429D01*
X128494286Y-73132285D02*
X128494286Y-73060857D01*
X128530000Y-72989428D01*
X128565714Y-72953714D01*
X128637143Y-72918000D01*
X128780000Y-72882285D01*
X128958571Y-72882285D01*
X129101429Y-72918000D01*
X129172857Y-72953714D01*
X129208571Y-72989428D01*
X129244286Y-73060857D01*
X129244286Y-73132285D01*
X129208571Y-73203714D01*
X129172857Y-73239428D01*
X129101429Y-73275143D01*
X128958571Y-73310857D01*
X128780000Y-73310857D01*
X128637143Y-73275143D01*
X128565714Y-73239428D01*
X128530000Y-73203714D01*
X128494286Y-73132285D01*
X128494286Y-71540572D02*
X128494286Y-71683429D01*
X128530000Y-71754858D01*
X128565714Y-71790572D01*
X128672857Y-71862001D01*
X128815714Y-71897715D01*
X129101429Y-71897715D01*
X129172857Y-71862001D01*
X129208571Y-71826286D01*
X129244286Y-71754858D01*
X129244286Y-71612001D01*
X129208571Y-71540572D01*
X129172857Y-71504858D01*
X129101429Y-71469143D01*
X128922857Y-71469143D01*
X128851429Y-71504858D01*
X128815714Y-71540572D01*
X128780000Y-71612001D01*
X128780000Y-71754858D01*
X128815714Y-71826286D01*
X128851429Y-71862001D01*
X128922857Y-71897715D01*
X128494286Y-70790572D02*
X128494286Y-71147715D01*
X128851429Y-71183429D01*
X128815714Y-71147715D01*
X128780000Y-71076286D01*
X128780000Y-70897715D01*
X128815714Y-70826286D01*
X128851429Y-70790572D01*
X128922857Y-70754857D01*
X129101429Y-70754857D01*
X129172857Y-70790572D01*
X129208571Y-70826286D01*
X129244286Y-70897715D01*
X129244286Y-71076286D01*
X129208571Y-71147715D01*
X129172857Y-71183429D01*
X128815714Y-70326286D02*
X128780000Y-70397714D01*
X128744286Y-70433429D01*
X128672857Y-70469143D01*
X128637143Y-70469143D01*
X128565714Y-70433429D01*
X128530000Y-70397714D01*
X128494286Y-70326286D01*
X128494286Y-70183429D01*
X128530000Y-70112000D01*
X128565714Y-70076286D01*
X128637143Y-70040571D01*
X128672857Y-70040571D01*
X128744286Y-70076286D01*
X128780000Y-70112000D01*
X128815714Y-70183429D01*
X128815714Y-70326286D01*
X128851429Y-70397714D01*
X128887143Y-70433429D01*
X128958571Y-70469143D01*
X129101429Y-70469143D01*
X129172857Y-70433429D01*
X129208571Y-70397714D01*
X129244286Y-70326286D01*
X129244286Y-70183429D01*
X129208571Y-70112000D01*
X129172857Y-70076286D01*
X129101429Y-70040571D01*
X128958571Y-70040571D01*
X128887143Y-70076286D01*
X128851429Y-70112000D01*
X128815714Y-70183429D01*
X129244286Y-69326285D02*
X129244286Y-69754857D01*
X129244286Y-69540571D02*
X128494286Y-69540571D01*
X128601429Y-69612000D01*
X128672857Y-69683428D01*
X128708571Y-69754857D01*
X163482857Y-119084286D02*
X163482857Y-118334286D01*
X163911429Y-119084286D01*
X163911429Y-118334286D01*
X164268571Y-118691429D02*
X164518571Y-118691429D01*
X164625714Y-119084286D02*
X164268571Y-119084286D01*
X164268571Y-118334286D01*
X164625714Y-118334286D01*
X164875714Y-118334286D02*
X165054285Y-119084286D01*
X165197142Y-118548571D01*
X165340000Y-119084286D01*
X165518571Y-118334286D01*
X158635001Y-118334286D02*
X158777858Y-118334286D01*
X158849286Y-118370000D01*
X158920715Y-118441429D01*
X158956429Y-118584286D01*
X158956429Y-118834286D01*
X158920715Y-118977143D01*
X158849286Y-119048571D01*
X158777858Y-119084286D01*
X158635001Y-119084286D01*
X158563572Y-119048571D01*
X158492143Y-118977143D01*
X158456429Y-118834286D01*
X158456429Y-118584286D01*
X158492143Y-118441429D01*
X158563572Y-118370000D01*
X158635001Y-118334286D01*
X159635000Y-119084286D02*
X159277857Y-119084286D01*
X159277857Y-118334286D01*
X159885000Y-119084286D02*
X159885000Y-118334286D01*
X160063572Y-118334286D01*
X160170715Y-118370000D01*
X160242143Y-118441429D01*
X160277858Y-118512857D01*
X160313572Y-118655714D01*
X160313572Y-118762857D01*
X160277858Y-118905714D01*
X160242143Y-118977143D01*
X160170715Y-119048571D01*
X160063572Y-119084286D01*
X159885000Y-119084286D01*
X140055358Y-118334286D02*
X140305358Y-119084286D01*
X140555358Y-118334286D01*
X140805357Y-118691429D02*
X141055357Y-118691429D01*
X141162500Y-119084286D02*
X140805357Y-119084286D01*
X140805357Y-118334286D01*
X141162500Y-118334286D01*
X141412500Y-118334286D02*
X141912500Y-119084286D01*
X141912500Y-118334286D02*
X141412500Y-119084286D01*
X142091072Y-118334286D02*
X142519643Y-118334286D01*
X142305357Y-119084286D02*
X142305357Y-118334286D01*
X137997500Y-119084286D02*
X137997500Y-118334286D01*
X138497501Y-118334286D02*
X138640358Y-118334286D01*
X138711786Y-118370000D01*
X138783215Y-118441429D01*
X138818929Y-118584286D01*
X138818929Y-118834286D01*
X138783215Y-118977143D01*
X138711786Y-119048571D01*
X138640358Y-119084286D01*
X138497501Y-119084286D01*
X138426072Y-119048571D01*
X138354643Y-118977143D01*
X138318929Y-118834286D01*
X138318929Y-118584286D01*
X138354643Y-118441429D01*
X138426072Y-118370000D01*
X138497501Y-118334286D01*
X139104643Y-118405714D02*
X139140357Y-118370000D01*
X139211786Y-118334286D01*
X139390357Y-118334286D01*
X139461786Y-118370000D01*
X139497500Y-118405714D01*
X139533215Y-118477143D01*
X139533215Y-118548571D01*
X139497500Y-118655714D01*
X139068929Y-119084286D01*
X139533215Y-119084286D01*
X135457500Y-119084286D02*
X135457500Y-118334286D01*
X135957501Y-118334286D02*
X136100358Y-118334286D01*
X136171786Y-118370000D01*
X136243215Y-118441429D01*
X136278929Y-118584286D01*
X136278929Y-118834286D01*
X136243215Y-118977143D01*
X136171786Y-119048571D01*
X136100358Y-119084286D01*
X135957501Y-119084286D01*
X135886072Y-119048571D01*
X135814643Y-118977143D01*
X135778929Y-118834286D01*
X135778929Y-118584286D01*
X135814643Y-118441429D01*
X135886072Y-118370000D01*
X135957501Y-118334286D01*
X136993215Y-119084286D02*
X136564643Y-119084286D01*
X136778929Y-119084286D02*
X136778929Y-118334286D01*
X136707500Y-118441429D01*
X136636072Y-118512857D01*
X136564643Y-118548571D01*
X133131786Y-118870000D02*
X133488929Y-118870000D01*
X133060358Y-119084286D02*
X133310358Y-118334286D01*
X133560358Y-119084286D01*
X133917500Y-118655714D02*
X133846072Y-118620000D01*
X133810357Y-118584286D01*
X133774643Y-118512857D01*
X133774643Y-118477143D01*
X133810357Y-118405714D01*
X133846072Y-118370000D01*
X133917500Y-118334286D01*
X134060357Y-118334286D01*
X134131786Y-118370000D01*
X134167500Y-118405714D01*
X134203215Y-118477143D01*
X134203215Y-118512857D01*
X134167500Y-118584286D01*
X134131786Y-118620000D01*
X134060357Y-118655714D01*
X133917500Y-118655714D01*
X133846072Y-118691429D01*
X133810357Y-118727143D01*
X133774643Y-118798571D01*
X133774643Y-118941429D01*
X133810357Y-119012857D01*
X133846072Y-119048571D01*
X133917500Y-119084286D01*
X134060357Y-119084286D01*
X134131786Y-119048571D01*
X134167500Y-119012857D01*
X134203215Y-118941429D01*
X134203215Y-118798571D01*
X134167500Y-118727143D01*
X134131786Y-118691429D01*
X134060357Y-118655714D01*
X130591786Y-118870000D02*
X130948929Y-118870000D01*
X130520358Y-119084286D02*
X130770358Y-118334286D01*
X131020358Y-119084286D01*
X131627500Y-118334286D02*
X131270357Y-118334286D01*
X131234643Y-118691429D01*
X131270357Y-118655714D01*
X131341786Y-118620000D01*
X131520357Y-118620000D01*
X131591786Y-118655714D01*
X131627500Y-118691429D01*
X131663215Y-118762857D01*
X131663215Y-118941429D01*
X131627500Y-119012857D01*
X131591786Y-119048571D01*
X131520357Y-119084286D01*
X131341786Y-119084286D01*
X131270357Y-119048571D01*
X131234643Y-119012857D01*
X187352857Y-68284286D02*
X187352857Y-67534286D01*
X187602857Y-68070000D01*
X187852857Y-67534286D01*
X187852857Y-68284286D01*
X188352858Y-67534286D02*
X188424286Y-67534286D01*
X188495715Y-67570000D01*
X188531429Y-67605714D01*
X188567143Y-67677143D01*
X188602858Y-67820000D01*
X188602858Y-67998571D01*
X188567143Y-68141429D01*
X188531429Y-68212857D01*
X188495715Y-68248571D01*
X188424286Y-68284286D01*
X188352858Y-68284286D01*
X188281429Y-68248571D01*
X188245715Y-68212857D01*
X188210000Y-68141429D01*
X188174286Y-67998571D01*
X188174286Y-67820000D01*
X188210000Y-67677143D01*
X188245715Y-67605714D01*
X188281429Y-67570000D01*
X188352858Y-67534286D01*
X184812857Y-68284286D02*
X184812857Y-67534286D01*
X185062857Y-68070000D01*
X185312857Y-67534286D01*
X185312857Y-68284286D01*
X186062858Y-68284286D02*
X185634286Y-68284286D01*
X185848572Y-68284286D02*
X185848572Y-67534286D01*
X185777143Y-67641429D01*
X185705715Y-67712857D01*
X185634286Y-67748571D01*
X182183571Y-68284286D02*
X182183571Y-67534286D01*
X182505000Y-67605714D02*
X182540714Y-67570000D01*
X182612143Y-67534286D01*
X182790714Y-67534286D01*
X182862143Y-67570000D01*
X182897857Y-67605714D01*
X182933572Y-67677143D01*
X182933572Y-67748571D01*
X182897857Y-67855714D01*
X182469286Y-68284286D01*
X182933572Y-68284286D01*
X183255000Y-67891429D02*
X183505000Y-67891429D01*
X183612143Y-68284286D02*
X183255000Y-68284286D01*
X183255000Y-67534286D01*
X183612143Y-67534286D01*
X179643571Y-68284286D02*
X179643571Y-67534286D01*
X180393572Y-68284286D02*
X179965000Y-68284286D01*
X180179286Y-68284286D02*
X180179286Y-67534286D01*
X180107857Y-67641429D01*
X180036429Y-67712857D01*
X179965000Y-67748571D01*
X180715000Y-67891429D02*
X180965000Y-67891429D01*
X181072143Y-68284286D02*
X180715000Y-68284286D01*
X180715000Y-67534286D01*
X181072143Y-67534286D01*
X174652857Y-68284286D02*
X174652857Y-67534286D01*
X174902857Y-68070000D01*
X175152857Y-67534286D01*
X175152857Y-68284286D01*
X175474286Y-68248571D02*
X175581429Y-68284286D01*
X175760000Y-68284286D01*
X175831429Y-68248571D01*
X175867143Y-68212857D01*
X175902858Y-68141429D01*
X175902858Y-68070000D01*
X175867143Y-67998571D01*
X175831429Y-67962857D01*
X175760000Y-67927143D01*
X175617143Y-67891429D01*
X175545715Y-67855714D01*
X175510000Y-67820000D01*
X175474286Y-67748571D01*
X175474286Y-67677143D01*
X175510000Y-67605714D01*
X175545715Y-67570000D01*
X175617143Y-67534286D01*
X175795715Y-67534286D01*
X175902858Y-67570000D01*
X177246428Y-68284286D02*
X177246428Y-67534286D01*
X177532143Y-67534286D01*
X177603571Y-67570000D01*
X177639286Y-67605714D01*
X177675000Y-67677143D01*
X177675000Y-67784286D01*
X177639286Y-67855714D01*
X177603571Y-67891429D01*
X177532143Y-67927143D01*
X177246428Y-67927143D01*
X177960714Y-68248571D02*
X178067857Y-68284286D01*
X178246428Y-68284286D01*
X178317857Y-68248571D01*
X178353571Y-68212857D01*
X178389286Y-68141429D01*
X178389286Y-68070000D01*
X178353571Y-67998571D01*
X178317857Y-67962857D01*
X178246428Y-67927143D01*
X178103571Y-67891429D01*
X178032143Y-67855714D01*
X177996428Y-67820000D01*
X177960714Y-67748571D01*
X177960714Y-67677143D01*
X177996428Y-67605714D01*
X178032143Y-67570000D01*
X178103571Y-67534286D01*
X178282143Y-67534286D01*
X178389286Y-67570000D01*
X129700000Y-68671429D02*
X129900000Y-69271429D01*
X130100000Y-68671429D01*
X130300000Y-69271429D02*
X130300000Y-68671429D01*
X130442857Y-68671429D01*
X130528572Y-68700000D01*
X130585714Y-68757143D01*
X130614286Y-68814286D01*
X130642857Y-68928571D01*
X130642857Y-69014286D01*
X130614286Y-69128571D01*
X130585714Y-69185714D01*
X130528572Y-69242857D01*
X130442857Y-69271429D01*
X130300000Y-69271429D01*
X130900000Y-69271429D02*
X130900000Y-68671429D01*
X131042857Y-68671429D01*
X131128572Y-68700000D01*
X131185714Y-68757143D01*
X131214286Y-68814286D01*
X131242857Y-68928571D01*
X131242857Y-69014286D01*
X131214286Y-69128571D01*
X131185714Y-69185714D01*
X131128572Y-69242857D01*
X131042857Y-69271429D01*
X130900000Y-69271429D01*
X169432000Y-101712000D02*
X172832000Y-101712000D01*
X169434944Y-101709056D02*
G75*
G02X171132000Y-97612000I1697056J1697056D01*
G01*
X172829056Y-101709056D02*
G75*
G03X171132000Y-97612000I-1697056J1697056D01*
G01*
X174512000Y-101712000D02*
X177912000Y-101712000D01*
X174514944Y-101709056D02*
G75*
G02X176212000Y-97612000I1697056J1697056D01*
G01*
X177909056Y-101709056D02*
G75*
G03X176212000Y-97612000I-1697056J1697056D01*
G01*
X165227000Y-68834000D02*
X163957000Y-68834000D01*
X164477700Y-69621400D02*
X164731700Y-69583300D01*
X164731700Y-69583300D02*
X165011100Y-69405500D01*
X165011100Y-69405500D02*
X165227000Y-69088000D01*
X165227000Y-69088000D02*
X165239700Y-68643500D01*
X165239700Y-68643500D02*
X165036500Y-68287900D01*
X165036500Y-68287900D02*
X164744400Y-68110100D01*
X164744400Y-68110100D02*
X164426900Y-68059300D01*
X164426900Y-68059300D02*
X164020500Y-68160900D01*
X164020500Y-68160900D02*
X163766500Y-68503800D01*
X163766500Y-68503800D02*
X163677600Y-68681600D01*
X161417000Y-77216000D02*
X161417000Y-67564000D01*
X164465000Y-67564000D02*
X165735000Y-67564000D01*
X165735000Y-67564000D02*
X165735000Y-77216000D01*
X165735000Y-77216000D02*
X160655000Y-77216000D01*
X160655000Y-67564000D02*
X163195000Y-67564000D01*
X163195000Y-67564000D02*
X164465000Y-67564000D01*
X144272000Y-68834000D02*
X143002000Y-68834000D01*
X143522700Y-69621400D02*
X143776700Y-69583300D01*
X143776700Y-69583300D02*
X144056100Y-69405500D01*
X144056100Y-69405500D02*
X144272000Y-69088000D01*
X144272000Y-69088000D02*
X144284700Y-68643500D01*
X144284700Y-68643500D02*
X144081500Y-68287900D01*
X144081500Y-68287900D02*
X143789400Y-68110100D01*
X143789400Y-68110100D02*
X143471900Y-68059300D01*
X143471900Y-68059300D02*
X143065500Y-68160900D01*
X143065500Y-68160900D02*
X142811500Y-68503800D01*
X142811500Y-68503800D02*
X142722600Y-68681600D01*
X140462000Y-77216000D02*
X140462000Y-67564000D01*
X143510000Y-67564000D02*
X144780000Y-67564000D01*
X144780000Y-67564000D02*
X144780000Y-77216000D01*
X144780000Y-77216000D02*
X139700000Y-77216000D01*
X139700000Y-67564000D02*
X142240000Y-67564000D01*
X142240000Y-67564000D02*
X143510000Y-67564000D01*
X132398000Y-121920000D02*
X129858000Y-121920000D01*
X129858000Y-121920000D02*
X129858000Y-119380000D01*
X129858000Y-119380000D02*
X132398000Y-119380000D01*
X132398000Y-119380000D02*
X142558000Y-119380000D01*
X142558000Y-119380000D02*
X142558000Y-121920000D01*
X142558000Y-121920000D02*
X132398000Y-121920000D01*
X183515000Y-121920000D02*
X180975000Y-121920000D01*
X180975000Y-121920000D02*
X180975000Y-119380000D01*
X180975000Y-119380000D02*
X183515000Y-119380000D01*
X183515000Y-121920000D02*
X188595000Y-121920000D01*
X188595000Y-121920000D02*
X188595000Y-119380000D01*
X188595000Y-119380000D02*
X183515000Y-119380000D01*
X172960800Y-95288100D02*
X173011600Y-95440500D01*
X172910000Y-95694500D02*
X172910000Y-95288100D01*
X172808400Y-95389700D02*
X172808400Y-95897700D01*
X172706800Y-96100900D02*
X172706800Y-95491300D01*
X172605200Y-95491300D02*
X172605200Y-96151700D01*
X172503600Y-96304100D02*
X172503600Y-95542100D01*
X172402000Y-95542100D02*
X172402000Y-96405700D01*
X172300400Y-96507300D02*
X172300400Y-95542100D01*
X172198800Y-95542100D02*
X172198800Y-96558100D01*
X172097200Y-96608900D02*
X172097200Y-95491300D01*
X171995600Y-95389700D02*
X171995600Y-96659700D01*
X171894000Y-96710500D02*
X171894000Y-95338900D01*
X171792400Y-95186500D02*
X171792400Y-96710500D01*
X173011600Y-94627700D02*
X173011600Y-95288100D01*
X172960800Y-94272100D02*
X172960800Y-94627700D01*
X172859200Y-94068900D02*
X172859200Y-94526100D01*
X172808400Y-93916500D02*
X172808400Y-94475300D01*
X172706800Y-93764100D02*
X172706800Y-94424500D01*
X172605200Y-93662500D02*
X172605200Y-94373700D01*
X172503600Y-93560900D02*
X172503600Y-94272100D01*
X172402000Y-93459300D02*
X172402000Y-94322900D01*
X172300400Y-94322900D02*
X172300400Y-93408500D01*
X172198800Y-93306900D02*
X172198800Y-94322900D01*
X172097200Y-94373700D02*
X172097200Y-93256100D01*
X171995600Y-93205300D02*
X171995600Y-94424500D01*
X171894000Y-94526100D02*
X171894000Y-93154500D01*
X171792400Y-93103700D02*
X171792400Y-94627700D01*
X171538400Y-93052900D02*
X171589200Y-93205300D01*
X171386000Y-93002100D02*
X171436800Y-96812100D01*
X171690800Y-93052900D02*
X171690800Y-96812100D01*
X171233600Y-96913700D02*
X171233600Y-93052900D01*
X171233600Y-93052900D02*
X171335200Y-93052900D01*
X171335200Y-93052900D02*
X171335200Y-96812100D01*
X171335200Y-96812100D02*
X171487600Y-96812100D01*
X171487600Y-96812100D02*
X171487600Y-93002100D01*
X171487600Y-93002100D02*
X171640000Y-93052900D01*
X171640000Y-93052900D02*
X171589200Y-96812100D01*
X171589200Y-96812100D02*
X171792400Y-96710500D01*
X171792400Y-96710500D02*
X171690800Y-96710500D01*
X171132000Y-92951300D02*
X171132000Y-96913700D01*
X173132000Y-94932500D02*
G75*
G03X173132000Y-94932500I-2000000J0D01*
G01*
X178040800Y-95351600D02*
X178091600Y-95504000D01*
X177990000Y-95758000D02*
X177990000Y-95351600D01*
X177888400Y-95453200D02*
X177888400Y-95961200D01*
X177786800Y-96164400D02*
X177786800Y-95554800D01*
X177685200Y-95554800D02*
X177685200Y-96215200D01*
X177583600Y-96367600D02*
X177583600Y-95605600D01*
X177482000Y-95605600D02*
X177482000Y-96469200D01*
X177380400Y-96570800D02*
X177380400Y-95605600D01*
X177278800Y-95605600D02*
X177278800Y-96621600D01*
X177177200Y-96672400D02*
X177177200Y-95554800D01*
X177075600Y-95453200D02*
X177075600Y-96723200D01*
X176974000Y-96774000D02*
X176974000Y-95402400D01*
X176872400Y-95250000D02*
X176872400Y-96774000D01*
X178091600Y-94691200D02*
X178091600Y-95351600D01*
X178040800Y-94335600D02*
X178040800Y-94691200D01*
X177939200Y-94132400D02*
X177939200Y-94589600D01*
X177888400Y-93980000D02*
X177888400Y-94538800D01*
X177786800Y-93827600D02*
X177786800Y-94488000D01*
X177685200Y-93726000D02*
X177685200Y-94437200D01*
X177583600Y-93624400D02*
X177583600Y-94335600D01*
X177482000Y-93522800D02*
X177482000Y-94386400D01*
X177380400Y-94386400D02*
X177380400Y-93472000D01*
X177278800Y-93370400D02*
X177278800Y-94386400D01*
X177177200Y-94437200D02*
X177177200Y-93319600D01*
X177075600Y-93268800D02*
X177075600Y-94488000D01*
X176974000Y-94589600D02*
X176974000Y-93218000D01*
X176872400Y-93167200D02*
X176872400Y-94691200D01*
X176618400Y-93116400D02*
X176669200Y-93268800D01*
X176466000Y-93065600D02*
X176516800Y-96875600D01*
X176770800Y-93116400D02*
X176770800Y-96875600D01*
X176313600Y-96977200D02*
X176313600Y-93116400D01*
X176313600Y-93116400D02*
X176415200Y-93116400D01*
X176415200Y-93116400D02*
X176415200Y-96875600D01*
X176415200Y-96875600D02*
X176567600Y-96875600D01*
X176567600Y-96875600D02*
X176567600Y-93065600D01*
X176567600Y-93065600D02*
X176720000Y-93116400D01*
X176720000Y-93116400D02*
X176669200Y-96875600D01*
X176669200Y-96875600D02*
X176872400Y-96774000D01*
X176872400Y-96774000D02*
X176770800Y-96774000D01*
X176212000Y-93014800D02*
X176212000Y-96977200D01*
X178212000Y-94996000D02*
G75*
G03X178212000Y-94996000I-2000000J0D01*
G01*
X175818800Y-78079600D02*
X175869600Y-78232000D01*
X175768000Y-78486000D02*
X175768000Y-78079600D01*
X175666400Y-78181200D02*
X175666400Y-78689200D01*
X175564800Y-78892400D02*
X175564800Y-78282800D01*
X175463200Y-78282800D02*
X175463200Y-78943200D01*
X175361600Y-79095600D02*
X175361600Y-78333600D01*
X175260000Y-78333600D02*
X175260000Y-79197200D01*
X175158400Y-79298800D02*
X175158400Y-78333600D01*
X175056800Y-78333600D02*
X175056800Y-79349600D01*
X174955200Y-79400400D02*
X174955200Y-78282800D01*
X174853600Y-78181200D02*
X174853600Y-79451200D01*
X174752000Y-79502000D02*
X174752000Y-78130400D01*
X174650400Y-77978000D02*
X174650400Y-79502000D01*
X175869600Y-77419200D02*
X175869600Y-78079600D01*
X175818800Y-77063600D02*
X175818800Y-77419200D01*
X175717200Y-76860400D02*
X175717200Y-77317600D01*
X175666400Y-76708000D02*
X175666400Y-77266800D01*
X175564800Y-76555600D02*
X175564800Y-77216000D01*
X175463200Y-76454000D02*
X175463200Y-77165200D01*
X175361600Y-76352400D02*
X175361600Y-77063600D01*
X175260000Y-76250800D02*
X175260000Y-77114400D01*
X175158400Y-77114400D02*
X175158400Y-76200000D01*
X175056800Y-76098400D02*
X175056800Y-77114400D01*
X174955200Y-77165200D02*
X174955200Y-76047600D01*
X174853600Y-75996800D02*
X174853600Y-77216000D01*
X174752000Y-77317600D02*
X174752000Y-75946000D01*
X174650400Y-75895200D02*
X174650400Y-77419200D01*
X174396400Y-75844400D02*
X174447200Y-75996800D01*
X174244000Y-75793600D02*
X174294800Y-79603600D01*
X174548800Y-75844400D02*
X174548800Y-79603600D01*
X174091600Y-79705200D02*
X174091600Y-75844400D01*
X174091600Y-75844400D02*
X174193200Y-75844400D01*
X174193200Y-75844400D02*
X174193200Y-79603600D01*
X174193200Y-79603600D02*
X174345600Y-79603600D01*
X174345600Y-79603600D02*
X174345600Y-75793600D01*
X174345600Y-75793600D02*
X174498000Y-75844400D01*
X174498000Y-75844400D02*
X174447200Y-79603600D01*
X174447200Y-79603600D02*
X174650400Y-79502000D01*
X174650400Y-79502000D02*
X174548800Y-79502000D01*
X173990000Y-75742800D02*
X173990000Y-79705200D01*
X175990000Y-77724000D02*
G75*
G03X175990000Y-77724000I-2000000J0D01*
G01*
X175818800Y-82651600D02*
X175869600Y-82804000D01*
X175768000Y-83058000D02*
X175768000Y-82651600D01*
X175666400Y-82753200D02*
X175666400Y-83261200D01*
X175564800Y-83464400D02*
X175564800Y-82854800D01*
X175463200Y-82854800D02*
X175463200Y-83515200D01*
X175361600Y-83667600D02*
X175361600Y-82905600D01*
X175260000Y-82905600D02*
X175260000Y-83769200D01*
X175158400Y-83870800D02*
X175158400Y-82905600D01*
X175056800Y-82905600D02*
X175056800Y-83921600D01*
X174955200Y-83972400D02*
X174955200Y-82854800D01*
X174853600Y-82753200D02*
X174853600Y-84023200D01*
X174752000Y-84074000D02*
X174752000Y-82702400D01*
X174650400Y-82550000D02*
X174650400Y-84074000D01*
X175869600Y-81991200D02*
X175869600Y-82651600D01*
X175818800Y-81635600D02*
X175818800Y-81991200D01*
X175717200Y-81432400D02*
X175717200Y-81889600D01*
X175666400Y-81280000D02*
X175666400Y-81838800D01*
X175564800Y-81127600D02*
X175564800Y-81788000D01*
X175463200Y-81026000D02*
X175463200Y-81737200D01*
X175361600Y-80924400D02*
X175361600Y-81635600D01*
X175260000Y-80822800D02*
X175260000Y-81686400D01*
X175158400Y-81686400D02*
X175158400Y-80772000D01*
X175056800Y-80670400D02*
X175056800Y-81686400D01*
X174955200Y-81737200D02*
X174955200Y-80619600D01*
X174853600Y-80568800D02*
X174853600Y-81788000D01*
X174752000Y-81889600D02*
X174752000Y-80518000D01*
X174650400Y-80467200D02*
X174650400Y-81991200D01*
X174396400Y-80416400D02*
X174447200Y-80568800D01*
X174244000Y-80365600D02*
X174294800Y-84175600D01*
X174548800Y-80416400D02*
X174548800Y-84175600D01*
X174091600Y-84277200D02*
X174091600Y-80416400D01*
X174091600Y-80416400D02*
X174193200Y-80416400D01*
X174193200Y-80416400D02*
X174193200Y-84175600D01*
X174193200Y-84175600D02*
X174345600Y-84175600D01*
X174345600Y-84175600D02*
X174345600Y-80365600D01*
X174345600Y-80365600D02*
X174498000Y-80416400D01*
X174498000Y-80416400D02*
X174447200Y-84175600D01*
X174447200Y-84175600D02*
X174650400Y-84074000D01*
X174650400Y-84074000D02*
X174548800Y-84074000D01*
X173990000Y-80314800D02*
X173990000Y-84277200D01*
X175990000Y-82296000D02*
G75*
G03X175990000Y-82296000I-2000000J0D01*
G01*
X163195000Y-119380000D02*
X165735000Y-119380000D01*
X165735000Y-119380000D02*
X165735000Y-121920000D01*
X165735000Y-121920000D02*
X163195000Y-121920000D01*
X163195000Y-119380000D02*
X158115000Y-119380000D01*
X158115000Y-119380000D02*
X158115000Y-121920000D01*
X158115000Y-121920000D02*
X163195000Y-121920000D01*
X176466000Y-91567000D02*
X176085000Y-91186000D01*
X177101000Y-90678000D02*
X176720000Y-90424000D01*
X170370000Y-90678000D02*
X170751000Y-90424000D01*
X171005000Y-91567000D02*
X171259000Y-91313000D01*
X174180000Y-85598000D02*
X174180000Y-85217000D01*
X173291000Y-85598000D02*
X173291000Y-85217000D01*
X176974000Y-88900000D02*
G75*
G03X176974000Y-88900000I-3302000J0D01*
G01*
X177482000Y-88900000D02*
G75*
G03X177482000Y-88900000I-3810000J0D01*
G01*
X187579000Y-91567000D02*
X187198000Y-91186000D01*
X188214000Y-90678000D02*
X187833000Y-90424000D01*
X181483000Y-90678000D02*
X181864000Y-90424000D01*
X182118000Y-91567000D02*
X182372000Y-91313000D01*
X185293000Y-85598000D02*
X185293000Y-85217000D01*
X184404000Y-85598000D02*
X184404000Y-85217000D01*
X188087000Y-88900000D02*
G75*
G03X188087000Y-88900000I-3302000J0D01*
G01*
X188595000Y-88900000D02*
G75*
G03X188595000Y-88900000I-3810000J0D01*
G01*
X184023000Y-97409000D02*
X184023000Y-97917000D01*
X184023000Y-97917000D02*
X185547000Y-97917000D01*
X185547000Y-97917000D02*
X185547000Y-97409000D01*
X184023000Y-96901000D02*
X184023000Y-97409000D01*
X185547000Y-97409000D02*
X185547000Y-96901000D01*
X180975000Y-116713000D02*
X180975000Y-117729000D01*
X180975000Y-117729000D02*
X188595000Y-117729000D01*
X188595000Y-117729000D02*
X188595000Y-116713000D01*
X180975000Y-97917000D02*
X180975000Y-96901000D01*
X180975000Y-96901000D02*
X188595000Y-96901000D01*
X188595000Y-96901000D02*
X188595000Y-97917000D01*
X156718000Y-90424000D02*
X156718000Y-90932000D01*
X156718000Y-90932000D02*
X158242000Y-90932000D01*
X158242000Y-90932000D02*
X158242000Y-90424000D01*
X156718000Y-89916000D02*
X156718000Y-90424000D01*
X158242000Y-90424000D02*
X158242000Y-89916000D01*
X153670000Y-109728000D02*
X153670000Y-110744000D01*
X153670000Y-110744000D02*
X161290000Y-110744000D01*
X161290000Y-110744000D02*
X161290000Y-109728000D01*
X153670000Y-90932000D02*
X153670000Y-89916000D01*
X153670000Y-89916000D02*
X161290000Y-89916000D01*
X161290000Y-89916000D02*
X161290000Y-90932000D01*
X137668000Y-87884000D02*
X137668000Y-88392000D01*
X137668000Y-88392000D02*
X139192000Y-88392000D01*
X139192000Y-88392000D02*
X139192000Y-87884000D01*
X137668000Y-87376000D02*
X137668000Y-87884000D01*
X139192000Y-87884000D02*
X139192000Y-87376000D01*
X134620000Y-88392000D02*
X134620000Y-87376000D01*
X134620000Y-87376000D02*
X142240000Y-87376000D01*
X142240000Y-87376000D02*
X142240000Y-88392000D01*
X134620000Y-112268000D02*
X134620000Y-113284000D01*
X134620000Y-113284000D02*
X142240000Y-113284000D01*
X142240000Y-113284000D02*
X142240000Y-112268000D01*
X139700000Y-80010000D02*
X139700000Y-79756000D01*
X137160000Y-80010000D02*
X137160000Y-79756000D01*
X137160000Y-80010000D02*
X137160000Y-81280000D01*
X137160000Y-81280000D02*
X139700000Y-81280000D01*
X139700000Y-81280000D02*
X139700000Y-80010000D01*
X130810000Y-115824000D02*
X130810000Y-114808000D01*
X130810000Y-115824000D02*
X146050000Y-115824000D01*
X146050000Y-115824000D02*
X146050000Y-114808000D01*
X130810000Y-80772000D02*
X130810000Y-79756000D01*
X130810000Y-79756000D02*
X146050000Y-79756000D01*
X146050000Y-79756000D02*
X146050000Y-80772000D01*
X157480000Y-80010000D02*
X157480000Y-79756000D01*
X154940000Y-80010000D02*
X154940000Y-79756000D01*
X154940000Y-80010000D02*
X154940000Y-81280000D01*
X154940000Y-81280000D02*
X157480000Y-81280000D01*
X157480000Y-81280000D02*
X157480000Y-80010000D01*
X148590000Y-115824000D02*
X148590000Y-114808000D01*
X148590000Y-115824000D02*
X163830000Y-115824000D01*
X163830000Y-115824000D02*
X163830000Y-114808000D01*
X148590000Y-80772000D02*
X148590000Y-79756000D01*
X148590000Y-79756000D02*
X163830000Y-79756000D01*
X163830000Y-79756000D02*
X163830000Y-80772000D01*
X186690000Y-79248000D02*
X185674000Y-79248000D01*
X185674000Y-79248000D02*
X185674000Y-80772000D01*
X185674000Y-80772000D02*
X186690000Y-80772000D01*
X177038000Y-83820000D02*
X176530000Y-83820000D01*
X177038000Y-76200000D02*
X176530000Y-76200000D01*
X186436000Y-83820000D02*
X186182000Y-83820000D01*
X186182000Y-76200000D02*
X186436000Y-76200000D01*
X186436000Y-83820000D02*
X186690000Y-83820000D01*
X186436000Y-76200000D02*
X186690000Y-76200000D01*
X176530000Y-76200000D02*
X176530000Y-83820000D01*
X186690000Y-76200000D02*
X186690000Y-83820000D01*
X146304000Y-120142000D02*
X154178000Y-120142000D01*
X144907000Y-124968000D02*
X144907000Y-123571000D01*
X155575000Y-124968000D02*
X155575000Y-123571000D01*
X146304000Y-120142000D02*
X146304000Y-123571000D01*
X154178000Y-120142000D02*
X154178000Y-123571000D01*
X144907000Y-124714000D02*
X155575000Y-124714000D01*
X148463000Y-123698000D02*
X148463000Y-124968000D01*
X152019000Y-123698000D02*
X152019000Y-124968000D01*
X155575000Y-123571000D02*
X144907000Y-123571000D01*
X144907000Y-124968000D02*
X155575000Y-124968000D01*
X169799000Y-120142000D02*
X177673000Y-120142000D01*
X168402000Y-124968000D02*
X168402000Y-123571000D01*
X179070000Y-124968000D02*
X179070000Y-123571000D01*
X169799000Y-120142000D02*
X169799000Y-123571000D01*
X177673000Y-120142000D02*
X177673000Y-123571000D01*
X168402000Y-124714000D02*
X179070000Y-124714000D01*
X171958000Y-123698000D02*
X171958000Y-124968000D01*
X175514000Y-123698000D02*
X175514000Y-124968000D01*
X179070000Y-123571000D02*
X168402000Y-123571000D01*
X168402000Y-124968000D02*
X179070000Y-124968000D01*
X142240000Y-84455000D02*
X142494000Y-84328000D01*
X142240000Y-84455000D02*
X141732000Y-84582000D01*
X141732000Y-84582000D02*
X140208000Y-84582000D01*
X140208000Y-84582000D02*
X139700000Y-84455000D01*
X139700000Y-84455000D02*
X139446000Y-84328000D01*
X139446000Y-84328000D02*
X139319000Y-84201000D01*
X140208000Y-83058000D02*
X139700000Y-83185000D01*
X139700000Y-83185000D02*
X139446000Y-83312000D01*
X139446000Y-83312000D02*
X139319000Y-83439000D01*
X140208000Y-83058000D02*
X141732000Y-83058000D01*
X142240000Y-83185000D02*
X142494000Y-83312000D01*
X142240000Y-83185000D02*
X141732000Y-83058000D01*
X139700000Y-85725000D02*
X139446000Y-85852000D01*
X139700000Y-85725000D02*
X140208000Y-85598000D01*
X140208000Y-85598000D02*
X141732000Y-85598000D01*
X141732000Y-85598000D02*
X142240000Y-85725000D01*
X142240000Y-85725000D02*
X142494000Y-85852000D01*
X142494000Y-85852000D02*
X142621000Y-85979000D01*
X141732000Y-87122000D02*
X142240000Y-86995000D01*
X142240000Y-86995000D02*
X142494000Y-86868000D01*
X142494000Y-86868000D02*
X142621000Y-86741000D01*
X141732000Y-87122000D02*
X140208000Y-87122000D01*
X139700000Y-86995000D02*
X139446000Y-86868000D01*
X139700000Y-86995000D02*
X140208000Y-87122000D01*
X137160000Y-84455000D02*
X137414000Y-84328000D01*
X137160000Y-84455000D02*
X136652000Y-84582000D01*
X136652000Y-84582000D02*
X135128000Y-84582000D01*
X135128000Y-84582000D02*
X134620000Y-84455000D01*
X134620000Y-84455000D02*
X134366000Y-84328000D01*
X134366000Y-84328000D02*
X134239000Y-84201000D01*
X135128000Y-83058000D02*
X134620000Y-83185000D01*
X134620000Y-83185000D02*
X134366000Y-83312000D01*
X134366000Y-83312000D02*
X134239000Y-83439000D01*
X135128000Y-83058000D02*
X136652000Y-83058000D01*
X137160000Y-83185000D02*
X137414000Y-83312000D01*
X137160000Y-83185000D02*
X136652000Y-83058000D01*
X134620000Y-85725000D02*
X134366000Y-85852000D01*
X134620000Y-85725000D02*
X135128000Y-85598000D01*
X135128000Y-85598000D02*
X136652000Y-85598000D01*
X136652000Y-85598000D02*
X137160000Y-85725000D01*
X137160000Y-85725000D02*
X137414000Y-85852000D01*
X137414000Y-85852000D02*
X137541000Y-85979000D01*
X136652000Y-87122000D02*
X137160000Y-86995000D01*
X137160000Y-86995000D02*
X137414000Y-86868000D01*
X137414000Y-86868000D02*
X137541000Y-86741000D01*
X136652000Y-87122000D02*
X135128000Y-87122000D01*
X134620000Y-86995000D02*
X134366000Y-86868000D01*
X134620000Y-86995000D02*
X135128000Y-87122000D01*
X178181000Y-122936000D02*
X178308000Y-123190000D01*
X178181000Y-122936000D02*
X178054000Y-122428000D01*
X178054000Y-122428000D02*
X178054000Y-120904000D01*
X178054000Y-120904000D02*
X178181000Y-120396000D01*
X178181000Y-120396000D02*
X178308000Y-120142000D01*
X178308000Y-120142000D02*
X178435000Y-120015000D01*
X179578000Y-120904000D02*
X179451000Y-120396000D01*
X179451000Y-120396000D02*
X179324000Y-120142000D01*
X179324000Y-120142000D02*
X179197000Y-120015000D01*
X179578000Y-120904000D02*
X179578000Y-122428000D01*
X179451000Y-122936000D02*
X179324000Y-123190000D01*
X179451000Y-122936000D02*
X179578000Y-122428000D01*
X168021000Y-122936000D02*
X168148000Y-123190000D01*
X168021000Y-122936000D02*
X167894000Y-122428000D01*
X167894000Y-122428000D02*
X167894000Y-120904000D01*
X167894000Y-120904000D02*
X168021000Y-120396000D01*
X168021000Y-120396000D02*
X168148000Y-120142000D01*
X168148000Y-120142000D02*
X168275000Y-120015000D01*
X169418000Y-120904000D02*
X169291000Y-120396000D01*
X169291000Y-120396000D02*
X169164000Y-120142000D01*
X169164000Y-120142000D02*
X169037000Y-120015000D01*
X169418000Y-120904000D02*
X169418000Y-122428000D01*
X169291000Y-122936000D02*
X169164000Y-123190000D01*
X169291000Y-122936000D02*
X169418000Y-122428000D01*
X154813000Y-122936000D02*
X154940000Y-123190000D01*
X154813000Y-122936000D02*
X154686000Y-122428000D01*
X154686000Y-122428000D02*
X154686000Y-120904000D01*
X154686000Y-120904000D02*
X154813000Y-120396000D01*
X154813000Y-120396000D02*
X154940000Y-120142000D01*
X154940000Y-120142000D02*
X155067000Y-120015000D01*
X156210000Y-120904000D02*
X156083000Y-120396000D01*
X156083000Y-120396000D02*
X155956000Y-120142000D01*
X155956000Y-120142000D02*
X155829000Y-120015000D01*
X156210000Y-120904000D02*
X156210000Y-122428000D01*
X156083000Y-122936000D02*
X155956000Y-123190000D01*
X156083000Y-122936000D02*
X156210000Y-122428000D01*
X144653000Y-122936000D02*
X144780000Y-123190000D01*
X144653000Y-122936000D02*
X144526000Y-122428000D01*
X144526000Y-122428000D02*
X144526000Y-120904000D01*
X144526000Y-120904000D02*
X144653000Y-120396000D01*
X144653000Y-120396000D02*
X144780000Y-120142000D01*
X144780000Y-120142000D02*
X144907000Y-120015000D01*
X146050000Y-120904000D02*
X145923000Y-120396000D01*
X145923000Y-120396000D02*
X145796000Y-120142000D01*
X145796000Y-120142000D02*
X145669000Y-120015000D01*
X146050000Y-120904000D02*
X146050000Y-122428000D01*
X145923000Y-122936000D02*
X145796000Y-123190000D01*
X145923000Y-122936000D02*
X146050000Y-122428000D01*
X158750000Y-83185000D02*
X158496000Y-83312000D01*
X158750000Y-83185000D02*
X159258000Y-83058000D01*
X159258000Y-83058000D02*
X160782000Y-83058000D01*
X160782000Y-83058000D02*
X161290000Y-83185000D01*
X161290000Y-83185000D02*
X161544000Y-83312000D01*
X161544000Y-83312000D02*
X161671000Y-83439000D01*
X160782000Y-84582000D02*
X161290000Y-84455000D01*
X161290000Y-84455000D02*
X161544000Y-84328000D01*
X161544000Y-84328000D02*
X161671000Y-84201000D01*
X160782000Y-84582000D02*
X159258000Y-84582000D01*
X158750000Y-84455000D02*
X158496000Y-84328000D01*
X158750000Y-84455000D02*
X159258000Y-84582000D01*
X153670000Y-85725000D02*
X153416000Y-85852000D01*
X153670000Y-85725000D02*
X154178000Y-85598000D01*
X154178000Y-85598000D02*
X155702000Y-85598000D01*
X155702000Y-85598000D02*
X156210000Y-85725000D01*
X156210000Y-85725000D02*
X156464000Y-85852000D01*
X156464000Y-85852000D02*
X156591000Y-85979000D01*
X155702000Y-87122000D02*
X156210000Y-86995000D01*
X156210000Y-86995000D02*
X156464000Y-86868000D01*
X156464000Y-86868000D02*
X156591000Y-86741000D01*
X155702000Y-87122000D02*
X154178000Y-87122000D01*
X153670000Y-86995000D02*
X153416000Y-86868000D01*
X153670000Y-86995000D02*
X154178000Y-87122000D01*
X153670000Y-83185000D02*
X153416000Y-83312000D01*
X153670000Y-83185000D02*
X154178000Y-83058000D01*
X154178000Y-83058000D02*
X155702000Y-83058000D01*
X155702000Y-83058000D02*
X156210000Y-83185000D01*
X156210000Y-83185000D02*
X156464000Y-83312000D01*
X156464000Y-83312000D02*
X156591000Y-83439000D01*
X155702000Y-84582000D02*
X156210000Y-84455000D01*
X156210000Y-84455000D02*
X156464000Y-84328000D01*
X156464000Y-84328000D02*
X156591000Y-84201000D01*
X155702000Y-84582000D02*
X154178000Y-84582000D01*
X153670000Y-84455000D02*
X153416000Y-84328000D01*
X153670000Y-84455000D02*
X154178000Y-84582000D01*
X161290000Y-86995000D02*
X161544000Y-86868000D01*
X161290000Y-86995000D02*
X160782000Y-87122000D01*
X160782000Y-87122000D02*
X159258000Y-87122000D01*
X159258000Y-87122000D02*
X158750000Y-86995000D01*
X158750000Y-86995000D02*
X158496000Y-86868000D01*
X158496000Y-86868000D02*
X158369000Y-86741000D01*
X159258000Y-85598000D02*
X158750000Y-85725000D01*
X158750000Y-85725000D02*
X158496000Y-85852000D01*
X158496000Y-85852000D02*
X158369000Y-85979000D01*
X159258000Y-85598000D02*
X160782000Y-85598000D01*
X161290000Y-85725000D02*
X161544000Y-85852000D01*
X161290000Y-85725000D02*
X160782000Y-85598000D01*
X148590000Y-71755000D02*
X148844000Y-71628000D01*
X148590000Y-71755000D02*
X148082000Y-71882000D01*
X148082000Y-71882000D02*
X146558000Y-71882000D01*
X146558000Y-71882000D02*
X146050000Y-71755000D01*
X146050000Y-71755000D02*
X145796000Y-71628000D01*
X145796000Y-71628000D02*
X145669000Y-71501000D01*
X146558000Y-70358000D02*
X146050000Y-70485000D01*
X146050000Y-70485000D02*
X145796000Y-70612000D01*
X145796000Y-70612000D02*
X145669000Y-70739000D01*
X146558000Y-70358000D02*
X148082000Y-70358000D01*
X148590000Y-70485000D02*
X148844000Y-70612000D01*
X148590000Y-70485000D02*
X148082000Y-70358000D01*
X169545000Y-71755000D02*
X169799000Y-71628000D01*
X169545000Y-71755000D02*
X169037000Y-71882000D01*
X169037000Y-71882000D02*
X167513000Y-71882000D01*
X167513000Y-71882000D02*
X167005000Y-71755000D01*
X167005000Y-71755000D02*
X166751000Y-71628000D01*
X166751000Y-71628000D02*
X166624000Y-71501000D01*
X167513000Y-70358000D02*
X167005000Y-70485000D01*
X167005000Y-70485000D02*
X166751000Y-70612000D01*
X166751000Y-70612000D02*
X166624000Y-70739000D01*
X167513000Y-70358000D02*
X169037000Y-70358000D01*
X169545000Y-70485000D02*
X169799000Y-70612000D01*
X169545000Y-70485000D02*
X169037000Y-70358000D01*
X172402000Y-109220000D02*
X172656000Y-109093000D01*
X172402000Y-109220000D02*
X171894000Y-109347000D01*
X171894000Y-109347000D02*
X170370000Y-109347000D01*
X170370000Y-109347000D02*
X169862000Y-109220000D01*
X169862000Y-109220000D02*
X169608000Y-109093000D01*
X169608000Y-109093000D02*
X169481000Y-108966000D01*
X170370000Y-107823000D02*
X169862000Y-107950000D01*
X169862000Y-107950000D02*
X169608000Y-108077000D01*
X169608000Y-108077000D02*
X169481000Y-108204000D01*
X170370000Y-107823000D02*
X171894000Y-107823000D01*
X172402000Y-107950000D02*
X172656000Y-108077000D01*
X172402000Y-107950000D02*
X171894000Y-107823000D01*
X177482000Y-109220000D02*
X177736000Y-109093000D01*
X177482000Y-109220000D02*
X176974000Y-109347000D01*
X176974000Y-109347000D02*
X175450000Y-109347000D01*
X175450000Y-109347000D02*
X174942000Y-109220000D01*
X174942000Y-109220000D02*
X174688000Y-109093000D01*
X174688000Y-109093000D02*
X174561000Y-108966000D01*
X175450000Y-107823000D02*
X174942000Y-107950000D01*
X174942000Y-107950000D02*
X174688000Y-108077000D01*
X174688000Y-108077000D02*
X174561000Y-108204000D01*
X175450000Y-107823000D02*
X176974000Y-107823000D01*
X177482000Y-107950000D02*
X177736000Y-108077000D01*
X177482000Y-107950000D02*
X176974000Y-107823000D01*
X178117000Y-103505000D02*
X177990000Y-103251000D01*
X178117000Y-103505000D02*
X178244000Y-104013000D01*
X178244000Y-104013000D02*
X178244000Y-105537000D01*
X178244000Y-105537000D02*
X178117000Y-106045000D01*
X178117000Y-106045000D02*
X177990000Y-106299000D01*
X177990000Y-106299000D02*
X177863000Y-106426000D01*
X176720000Y-105537000D02*
X176847000Y-106045000D01*
X176847000Y-106045000D02*
X176974000Y-106299000D01*
X176974000Y-106299000D02*
X177101000Y-106426000D01*
X176720000Y-105537000D02*
X176720000Y-104013000D01*
X176847000Y-103505000D02*
X176974000Y-103251000D01*
X176847000Y-103505000D02*
X176720000Y-104013000D01*
X187325000Y-81280000D02*
X187452000Y-81534000D01*
X187325000Y-81280000D02*
X187198000Y-80772000D01*
X187198000Y-80772000D02*
X187198000Y-79248000D01*
X187198000Y-79248000D02*
X187325000Y-78740000D01*
X187325000Y-78740000D02*
X187452000Y-78486000D01*
X187452000Y-78486000D02*
X187579000Y-78359000D01*
X188722000Y-79248000D02*
X188595000Y-78740000D01*
X188595000Y-78740000D02*
X188468000Y-78486000D01*
X188468000Y-78486000D02*
X188341000Y-78359000D01*
X188722000Y-79248000D02*
X188722000Y-80772000D01*
X188595000Y-81280000D02*
X188468000Y-81534000D01*
X188595000Y-81280000D02*
X188722000Y-80772000D01*
X158750000Y-89535000D02*
X159004000Y-89408000D01*
X158750000Y-89535000D02*
X158242000Y-89662000D01*
X158242000Y-89662000D02*
X156718000Y-89662000D01*
X156718000Y-89662000D02*
X156210000Y-89535000D01*
X156210000Y-89535000D02*
X155956000Y-89408000D01*
X155956000Y-89408000D02*
X155829000Y-89281000D01*
X156718000Y-88138000D02*
X156210000Y-88265000D01*
X156210000Y-88265000D02*
X155956000Y-88392000D01*
X155956000Y-88392000D02*
X155829000Y-88519000D01*
X156718000Y-88138000D02*
X158242000Y-88138000D01*
X158750000Y-88265000D02*
X159004000Y-88392000D01*
X158750000Y-88265000D02*
X158242000Y-88138000D01*
X186055000Y-95885000D02*
X186309000Y-95758000D01*
X186055000Y-95885000D02*
X185547000Y-96012000D01*
X185547000Y-96012000D02*
X184023000Y-96012000D01*
X184023000Y-96012000D02*
X183515000Y-95885000D01*
X183515000Y-95885000D02*
X183261000Y-95758000D01*
X183261000Y-95758000D02*
X183134000Y-95631000D01*
X184023000Y-94488000D02*
X183515000Y-94615000D01*
X183515000Y-94615000D02*
X183261000Y-94742000D01*
X183261000Y-94742000D02*
X183134000Y-94869000D01*
X184023000Y-94488000D02*
X185547000Y-94488000D01*
X186055000Y-94615000D02*
X186309000Y-94742000D01*
X186055000Y-94615000D02*
X185547000Y-94488000D01*
X173037000Y-103505000D02*
X172910000Y-103251000D01*
X173037000Y-103505000D02*
X173164000Y-104013000D01*
X173164000Y-104013000D02*
X173164000Y-105537000D01*
X173164000Y-105537000D02*
X173037000Y-106045000D01*
X173037000Y-106045000D02*
X172910000Y-106299000D01*
X172910000Y-106299000D02*
X172783000Y-106426000D01*
X171640000Y-105537000D02*
X171767000Y-106045000D01*
X171767000Y-106045000D02*
X171894000Y-106299000D01*
X171894000Y-106299000D02*
X172021000Y-106426000D01*
X171640000Y-105537000D02*
X171640000Y-104013000D01*
X171767000Y-103505000D02*
X171894000Y-103251000D01*
X171767000Y-103505000D02*
X171640000Y-104013000D01*
X168275000Y-74930000D02*
X168275000Y-72390000D01*
X168275000Y-72390000D02*
X170815000Y-72390000D01*
X170815000Y-72390000D02*
X170815000Y-74930000D01*
X170815000Y-74930000D02*
X170815000Y-77470000D01*
X168275000Y-74930000D02*
X168275000Y-77470000D01*
X168275000Y-77470000D02*
X170815000Y-77470000D01*
X147320000Y-74930000D02*
X147320000Y-72390000D01*
X147320000Y-72390000D02*
X149860000Y-72390000D01*
X149860000Y-72390000D02*
X149860000Y-74930000D01*
X149860000Y-74930000D02*
X149860000Y-77470000D01*
X147320000Y-74930000D02*
X147320000Y-77470000D01*
X147320000Y-77470000D02*
X149860000Y-77470000D01*
X168275000Y-81915000D02*
X168275000Y-79375000D01*
X168275000Y-79375000D02*
X170815000Y-79375000D01*
X170815000Y-79375000D02*
X170815000Y-81915000D01*
X170815000Y-81915000D02*
X170815000Y-84455000D01*
X168275000Y-81915000D02*
X168275000Y-84455000D01*
X168275000Y-84455000D02*
X170815000Y-84455000D01*
X178631526Y-116205000D02*
G75*
G03X178631526Y-116205000I-1159526J0D01*
G01*
X177482000Y-116205000D02*
X174942000Y-116205000D01*
X171031526Y-116205000D02*
G75*
G03X171031526Y-116205000I-1159526J0D01*
G01*
X169862000Y-116205000D02*
X172402000Y-116205000D01*
X176101526Y-103515000D02*
G75*
G03X176101526Y-103515000I-1159526J0D01*
G01*
X174942000Y-103505000D02*
X174942000Y-106045000D01*
X178641526Y-111135000D02*
G75*
G03X178641526Y-111135000I-1159526J0D01*
G01*
X177482000Y-111125000D02*
X177482000Y-113665000D01*
X168164526Y-76190000D02*
G75*
G03X168164526Y-76190000I-1159526J0D01*
G01*
X167005000Y-76200000D02*
X167005000Y-73660000D01*
X147219526Y-68580000D02*
G75*
G03X147219526Y-68580000I-1159526J0D01*
G01*
X146050000Y-68580000D02*
X148590000Y-68580000D01*
X182134526Y-95240000D02*
G75*
G03X182134526Y-95240000I-1159526J0D01*
G01*
X180975000Y-95250000D02*
X180975000Y-92710000D01*
X189754526Y-95240000D02*
G75*
G03X189754526Y-95240000I-1159526J0D01*
G01*
X188595000Y-95250000D02*
X188595000Y-92710000D01*
X176101526Y-111135000D02*
G75*
G03X176101526Y-111135000I-1159526J0D01*
G01*
X174942000Y-111125000D02*
X174942000Y-113665000D01*
X171021526Y-103515000D02*
G75*
G03X171021526Y-103515000I-1159526J0D01*
G01*
X169862000Y-103505000D02*
X169862000Y-106045000D01*
X173561526Y-111135000D02*
G75*
G03X173561526Y-111135000I-1159526J0D01*
G01*
X172402000Y-111125000D02*
X172402000Y-113665000D01*
X171021526Y-111135000D02*
G75*
G03X171021526Y-111135000I-1159526J0D01*
G01*
X169862000Y-111125000D02*
X169862000Y-113665000D01*
X168174526Y-68580000D02*
G75*
G03X168174526Y-68580000I-1159526J0D01*
G01*
X167005000Y-68580000D02*
X169545000Y-68580000D01*
X147209526Y-76190000D02*
G75*
G03X147209526Y-76190000I-1159526J0D01*
G01*
X146050000Y-76200000D02*
X146050000Y-73660000D01*
X143510000Y-78105000D02*
X143256000Y-78232000D01*
X143510000Y-78105000D02*
X144018000Y-77978000D01*
X144018000Y-77978000D02*
X145542000Y-77978000D01*
X145542000Y-77978000D02*
X146050000Y-78105000D01*
X146050000Y-78105000D02*
X146304000Y-78232000D01*
X146304000Y-78232000D02*
X146431000Y-78359000D01*
X145542000Y-79502000D02*
X146050000Y-79375000D01*
X146050000Y-79375000D02*
X146304000Y-79248000D01*
X146304000Y-79248000D02*
X146431000Y-79121000D01*
X145542000Y-79502000D02*
X144018000Y-79502000D01*
X143510000Y-79375000D02*
X143256000Y-79248000D01*
X143510000Y-79375000D02*
X144018000Y-79502000D01*
X163830000Y-79375000D02*
X164084000Y-79248000D01*
X163830000Y-79375000D02*
X163322000Y-79502000D01*
X163322000Y-79502000D02*
X161798000Y-79502000D01*
X161798000Y-79502000D02*
X161290000Y-79375000D01*
X161290000Y-79375000D02*
X161036000Y-79248000D01*
X161036000Y-79248000D02*
X160909000Y-79121000D01*
X161798000Y-77978000D02*
X161290000Y-78105000D01*
X161290000Y-78105000D02*
X161036000Y-78232000D01*
X161036000Y-78232000D02*
X160909000Y-78359000D01*
X161798000Y-77978000D02*
X163322000Y-77978000D01*
X163830000Y-78105000D02*
X164084000Y-78232000D01*
X163830000Y-78105000D02*
X163322000Y-77978000D01*
X169926000Y-118618000D02*
X168656000Y-118618000D01*
X177546000Y-118618000D02*
X178816000Y-118618000D01*
X177546000Y-118618000D02*
X176784000Y-118618000D01*
X176784000Y-118618000D02*
X176784000Y-117602000D01*
X176784000Y-117602000D02*
X170688000Y-117602000D01*
X170688000Y-117602000D02*
X170688000Y-118618000D01*
X170688000Y-118618000D02*
X169926000Y-118618000D01*
X170688000Y-118618000D02*
X170688000Y-119634000D01*
X170688000Y-119634000D02*
X176784000Y-119634000D01*
X176784000Y-119634000D02*
X176784000Y-118618000D01*
X176276000Y-117602000D02*
X176276000Y-119634000D01*
X176022000Y-119634000D02*
X176022000Y-117602000D01*
X146558000Y-118618000D02*
X145288000Y-118618000D01*
X154178000Y-118618000D02*
X155448000Y-118618000D01*
X154178000Y-118618000D02*
X153416000Y-118618000D01*
X153416000Y-118618000D02*
X153416000Y-117602000D01*
X153416000Y-117602000D02*
X147320000Y-117602000D01*
X147320000Y-117602000D02*
X147320000Y-118618000D01*
X147320000Y-118618000D02*
X146558000Y-118618000D01*
X147320000Y-118618000D02*
X147320000Y-119634000D01*
X147320000Y-119634000D02*
X153416000Y-119634000D01*
X153416000Y-119634000D02*
X153416000Y-118618000D01*
X152908000Y-117602000D02*
X152908000Y-119634000D01*
X152654000Y-119634000D02*
X152654000Y-117602000D01*
X131500000Y-71500000D02*
X131500000Y-69500000D01*
X131500000Y-69500000D02*
X133500000Y-69500000D01*
X133500000Y-69500000D02*
X133500000Y-71500000D01*
X133500000Y-71500000D02*
X133500000Y-75500000D01*
X133500000Y-75500000D02*
X131500000Y-75500000D01*
X131500000Y-75500000D02*
X131500000Y-71500000D01*
X133500000Y-71500000D02*
X133500000Y-69500000D01*
X133500000Y-69500000D02*
X135500000Y-69500000D01*
X135500000Y-69500000D02*
X135500000Y-71500000D01*
X135500000Y-71500000D02*
X135500000Y-75500000D01*
X135500000Y-75500000D02*
X133500000Y-75500000D01*
X133500000Y-75500000D02*
X133500000Y-71500000D01*
X135500000Y-71500000D02*
X135500000Y-69500000D01*
X135500000Y-69500000D02*
X137500000Y-69500000D01*
X137500000Y-69500000D02*
X137500000Y-71500000D01*
X137500000Y-71500000D02*
X137500000Y-75500000D01*
X137500000Y-75500000D02*
X135500000Y-75500000D01*
X135500000Y-75500000D02*
X135500000Y-71500000D01*
X150500000Y-71500000D02*
X150500000Y-69500000D01*
X150500000Y-69500000D02*
X152500000Y-69500000D01*
X152500000Y-69500000D02*
X152500000Y-71500000D01*
X152500000Y-71500000D02*
X152500000Y-75500000D01*
X152500000Y-75500000D02*
X150500000Y-75500000D01*
X150500000Y-75500000D02*
X150500000Y-71500000D01*
X152500000Y-71500000D02*
X152500000Y-69500000D01*
X152500000Y-69500000D02*
X154500000Y-69500000D01*
X154500000Y-69500000D02*
X154500000Y-71500000D01*
X154500000Y-71500000D02*
X154500000Y-75500000D01*
X154500000Y-75500000D02*
X152500000Y-75500000D01*
X152500000Y-75500000D02*
X152500000Y-71500000D01*
X154500000Y-71500000D02*
X154500000Y-69500000D01*
X154500000Y-69500000D02*
X156500000Y-69500000D01*
X156500000Y-69500000D02*
X156500000Y-71500000D01*
X156500000Y-71500000D02*
X156500000Y-75500000D01*
X156500000Y-75500000D02*
X154500000Y-75500000D01*
X154500000Y-75500000D02*
X154500000Y-71500000D01*
X156500000Y-71500000D02*
X156500000Y-69500000D01*
X156500000Y-69500000D02*
X158500000Y-69500000D01*
X158500000Y-69500000D02*
X158500000Y-71500000D01*
X158500000Y-71500000D02*
X158500000Y-75500000D01*
X158500000Y-75500000D02*
X156500000Y-75500000D01*
X156500000Y-75500000D02*
X156500000Y-71500000D01*
X129500000Y-71500000D02*
X129500000Y-69500000D01*
X129500000Y-69500000D02*
X131500000Y-69500000D01*
X131500000Y-69500000D02*
X131500000Y-71500000D01*
X131500000Y-71500000D02*
X131500000Y-75500000D01*
X131500000Y-75500000D02*
X129500000Y-75500000D01*
X129500000Y-75500000D02*
X129500000Y-71500000D01*
X137500000Y-71500000D02*
X137500000Y-69500000D01*
X137500000Y-69500000D02*
X139500000Y-69500000D01*
X139500000Y-69500000D02*
X139500000Y-71500000D01*
X139500000Y-71500000D02*
X139500000Y-75500000D01*
X139500000Y-75500000D02*
X137500000Y-75500000D01*
X137500000Y-75500000D02*
X137500000Y-71500000D01*
X158500000Y-71500000D02*
X158500000Y-69500000D01*
X158500000Y-69500000D02*
X160500000Y-69500000D01*
X160500000Y-69500000D02*
X160500000Y-71500000D01*
X160500000Y-71500000D02*
X160500000Y-75500000D01*
X160500000Y-75500000D02*
X158500000Y-75500000D01*
X158500000Y-75500000D02*
X158500000Y-71500000D01*
X176530000Y-73660000D02*
X173990000Y-73660000D01*
X173990000Y-73660000D02*
X173990000Y-71120000D01*
X189230000Y-68580000D02*
X173990000Y-68580000D01*
X176530000Y-73660000D02*
X189230000Y-73660000D01*
X189230000Y-68580000D02*
X189230000Y-73660000D01*
X173990000Y-68580000D02*
X173990000Y-71120000D01*
X165298381Y-72985238D02*
X164822190Y-73318572D01*
X165298381Y-73556667D02*
X164298381Y-73556667D01*
X164298381Y-73175714D01*
X164346000Y-73080476D01*
X164393619Y-73032857D01*
X164488857Y-72985238D01*
X164631714Y-72985238D01*
X164726952Y-73032857D01*
X164774571Y-73080476D01*
X164822190Y-73175714D01*
X164822190Y-73556667D01*
X164298381Y-72699524D02*
X165298381Y-72366191D01*
X164298381Y-72032857D01*
X165298381Y-71175714D02*
X165298381Y-71747143D01*
X165298381Y-71461429D02*
X164298381Y-71461429D01*
X164441238Y-71556667D01*
X164536476Y-71651905D01*
X164584095Y-71747143D01*
X164306286Y-76906381D02*
X163734857Y-76906381D01*
X164020571Y-76906381D02*
X164020571Y-75906381D01*
X163925333Y-76049238D01*
X163830095Y-76144476D01*
X163734857Y-76192095D01*
X164734857Y-76906381D02*
X164734857Y-75906381D01*
X165068191Y-76620667D01*
X165401524Y-75906381D01*
X165401524Y-76906381D01*
X144343381Y-72985238D02*
X143867190Y-73318572D01*
X144343381Y-73556667D02*
X143343381Y-73556667D01*
X143343381Y-73175714D01*
X143391000Y-73080476D01*
X143438619Y-73032857D01*
X143533857Y-72985238D01*
X143676714Y-72985238D01*
X143771952Y-73032857D01*
X143819571Y-73080476D01*
X143867190Y-73175714D01*
X143867190Y-73556667D01*
X143343381Y-72699524D02*
X144343381Y-72366191D01*
X143343381Y-72032857D01*
X143438619Y-71747143D02*
X143391000Y-71699524D01*
X143343381Y-71604286D01*
X143343381Y-71366190D01*
X143391000Y-71270952D01*
X143438619Y-71223333D01*
X143533857Y-71175714D01*
X143629095Y-71175714D01*
X143771952Y-71223333D01*
X144343381Y-71794762D01*
X144343381Y-71175714D01*
X143224286Y-76906381D02*
X142652857Y-76906381D01*
X142938571Y-76906381D02*
X142938571Y-75906381D01*
X142843333Y-76049238D01*
X142748095Y-76144476D01*
X142652857Y-76192095D01*
X143652857Y-76906381D02*
X143652857Y-75906381D01*
X143986191Y-76620667D01*
X144319524Y-75906381D01*
X144319524Y-76906381D01*
X170325586Y-96319571D02*
X170897015Y-96319571D01*
X170611301Y-96605286D02*
X170611301Y-96033857D01*
X175405586Y-96383071D02*
X175977015Y-96383071D01*
X175691301Y-96668786D02*
X175691301Y-96097357D01*
X173183586Y-79111071D02*
X173755015Y-79111071D01*
X173469301Y-79396786D02*
X173469301Y-78825357D01*
X173183586Y-83683071D02*
X173755015Y-83683071D01*
X173469301Y-83968786D02*
X173469301Y-83397357D01*
X173076762Y-88590381D02*
X172743428Y-88114190D01*
X172505333Y-88590381D02*
X172505333Y-87590381D01*
X172886286Y-87590381D01*
X172981524Y-87638000D01*
X173029143Y-87685619D01*
X173076762Y-87780857D01*
X173076762Y-87923714D01*
X173029143Y-88018952D01*
X172981524Y-88066571D01*
X172886286Y-88114190D01*
X172505333Y-88114190D01*
X173362476Y-87590381D02*
X173695809Y-88590381D01*
X174029143Y-87590381D01*
X174267238Y-87590381D02*
X174886286Y-87590381D01*
X174552952Y-87971333D01*
X174695810Y-87971333D01*
X174791048Y-88018952D01*
X174838667Y-88066571D01*
X174886286Y-88161810D01*
X174886286Y-88399905D01*
X174838667Y-88495143D01*
X174791048Y-88542762D01*
X174695810Y-88590381D01*
X174410095Y-88590381D01*
X174314857Y-88542762D01*
X174267238Y-88495143D01*
X173076762Y-90495381D02*
X172505333Y-90495381D01*
X172791047Y-90495381D02*
X172791047Y-89495381D01*
X172695809Y-89638238D01*
X172600571Y-89733476D01*
X172505333Y-89781095D01*
X173695809Y-89495381D02*
X173791048Y-89495381D01*
X173886286Y-89543000D01*
X173933905Y-89590619D01*
X173981524Y-89685857D01*
X174029143Y-89876333D01*
X174029143Y-90114429D01*
X173981524Y-90304905D01*
X173933905Y-90400143D01*
X173886286Y-90447762D01*
X173791048Y-90495381D01*
X173695809Y-90495381D01*
X173600571Y-90447762D01*
X173552952Y-90400143D01*
X173505333Y-90304905D01*
X173457714Y-90114429D01*
X173457714Y-89876333D01*
X173505333Y-89685857D01*
X173552952Y-89590619D01*
X173600571Y-89543000D01*
X173695809Y-89495381D01*
X174457714Y-90495381D02*
X174457714Y-89495381D01*
X174552952Y-90114429D02*
X174838667Y-90495381D01*
X174838667Y-89828714D02*
X174457714Y-90209667D01*
X184189762Y-88717381D02*
X183856428Y-88241190D01*
X183618333Y-88717381D02*
X183618333Y-87717381D01*
X183999286Y-87717381D01*
X184094524Y-87765000D01*
X184142143Y-87812619D01*
X184189762Y-87907857D01*
X184189762Y-88050714D01*
X184142143Y-88145952D01*
X184094524Y-88193571D01*
X183999286Y-88241190D01*
X183618333Y-88241190D01*
X184475476Y-87717381D02*
X184808809Y-88717381D01*
X185142143Y-87717381D01*
X185904048Y-88050714D02*
X185904048Y-88717381D01*
X185665952Y-87669762D02*
X185427857Y-88384048D01*
X186046905Y-88384048D01*
X184189762Y-90495381D02*
X183618333Y-90495381D01*
X183904047Y-90495381D02*
X183904047Y-89495381D01*
X183808809Y-89638238D01*
X183713571Y-89733476D01*
X183618333Y-89781095D01*
X184808809Y-89495381D02*
X184904048Y-89495381D01*
X184999286Y-89543000D01*
X185046905Y-89590619D01*
X185094524Y-89685857D01*
X185142143Y-89876333D01*
X185142143Y-90114429D01*
X185094524Y-90304905D01*
X185046905Y-90400143D01*
X184999286Y-90447762D01*
X184904048Y-90495381D01*
X184808809Y-90495381D01*
X184713571Y-90447762D01*
X184665952Y-90400143D01*
X184618333Y-90304905D01*
X184570714Y-90114429D01*
X184570714Y-89876333D01*
X184618333Y-89685857D01*
X184665952Y-89590619D01*
X184713571Y-89543000D01*
X184808809Y-89495381D01*
X185570714Y-90495381D02*
X185570714Y-89495381D01*
X185665952Y-90114429D02*
X185951667Y-90495381D01*
X185951667Y-89828714D02*
X185570714Y-90209667D01*
X184570714Y-108553095D02*
X185237381Y-108553095D01*
X184189762Y-108791191D02*
X184904048Y-109029286D01*
X184904048Y-108410238D01*
X184237381Y-107838810D02*
X184237381Y-107743571D01*
X184285000Y-107648333D01*
X184332619Y-107600714D01*
X184427857Y-107553095D01*
X184618333Y-107505476D01*
X184856429Y-107505476D01*
X185046905Y-107553095D01*
X185142143Y-107600714D01*
X185189762Y-107648333D01*
X185237381Y-107743571D01*
X185237381Y-107838810D01*
X185189762Y-107934048D01*
X185142143Y-107981667D01*
X185046905Y-108029286D01*
X184856429Y-108076905D01*
X184618333Y-108076905D01*
X184427857Y-108029286D01*
X184332619Y-107981667D01*
X184285000Y-107934048D01*
X184237381Y-107838810D01*
X184237381Y-106600714D02*
X184237381Y-107076905D01*
X184713571Y-107124524D01*
X184665952Y-107076905D01*
X184618333Y-106981667D01*
X184618333Y-106743571D01*
X184665952Y-106648333D01*
X184713571Y-106600714D01*
X184808810Y-106553095D01*
X185046905Y-106553095D01*
X185142143Y-106600714D01*
X185189762Y-106648333D01*
X185237381Y-106743571D01*
X185237381Y-106981667D01*
X185189762Y-107076905D01*
X185142143Y-107124524D01*
X184332619Y-106172143D02*
X184285000Y-106124524D01*
X184237381Y-106029286D01*
X184237381Y-105791190D01*
X184285000Y-105695952D01*
X184332619Y-105648333D01*
X184427857Y-105600714D01*
X184523095Y-105600714D01*
X184665952Y-105648333D01*
X185237381Y-106219762D01*
X185237381Y-105600714D01*
X157265714Y-101568095D02*
X157932381Y-101568095D01*
X156884762Y-101806191D02*
X157599048Y-102044286D01*
X157599048Y-101425238D01*
X156932381Y-100853810D02*
X156932381Y-100758571D01*
X156980000Y-100663333D01*
X157027619Y-100615714D01*
X157122857Y-100568095D01*
X157313333Y-100520476D01*
X157551429Y-100520476D01*
X157741905Y-100568095D01*
X157837143Y-100615714D01*
X157884762Y-100663333D01*
X157932381Y-100758571D01*
X157932381Y-100853810D01*
X157884762Y-100949048D01*
X157837143Y-100996667D01*
X157741905Y-101044286D01*
X157551429Y-101091905D01*
X157313333Y-101091905D01*
X157122857Y-101044286D01*
X157027619Y-100996667D01*
X156980000Y-100949048D01*
X156932381Y-100853810D01*
X156932381Y-99615714D02*
X156932381Y-100091905D01*
X157408571Y-100139524D01*
X157360952Y-100091905D01*
X157313333Y-99996667D01*
X157313333Y-99758571D01*
X157360952Y-99663333D01*
X157408571Y-99615714D01*
X157503810Y-99568095D01*
X157741905Y-99568095D01*
X157837143Y-99615714D01*
X157884762Y-99663333D01*
X157932381Y-99758571D01*
X157932381Y-99996667D01*
X157884762Y-100091905D01*
X157837143Y-100139524D01*
X156932381Y-99234762D02*
X156932381Y-98615714D01*
X157313333Y-98949048D01*
X157313333Y-98806190D01*
X157360952Y-98710952D01*
X157408571Y-98663333D01*
X157503810Y-98615714D01*
X157741905Y-98615714D01*
X157837143Y-98663333D01*
X157884762Y-98710952D01*
X157932381Y-98806190D01*
X157932381Y-99091905D01*
X157884762Y-99187143D01*
X157837143Y-99234762D01*
X137930000Y-102758571D02*
X137882381Y-102853809D01*
X137882381Y-102996666D01*
X137930000Y-103139524D01*
X138025238Y-103234762D01*
X138120476Y-103282381D01*
X138310952Y-103330000D01*
X138453810Y-103330000D01*
X138644286Y-103282381D01*
X138739524Y-103234762D01*
X138834762Y-103139524D01*
X138882381Y-102996666D01*
X138882381Y-102901428D01*
X138834762Y-102758571D01*
X138787143Y-102710952D01*
X138453810Y-102710952D01*
X138453810Y-102901428D01*
X138596667Y-102330000D02*
X138596667Y-101853809D01*
X138882381Y-102425238D02*
X137882381Y-102091905D01*
X138882381Y-101758571D01*
X138882381Y-100949047D02*
X138882381Y-101425238D01*
X137882381Y-101425238D01*
X138882381Y-100091904D02*
X138882381Y-100663333D01*
X138882381Y-100377619D02*
X137882381Y-100377619D01*
X138025238Y-100472857D01*
X138120476Y-100568095D01*
X138168095Y-100663333D01*
X137882381Y-99234761D02*
X137882381Y-99425238D01*
X137930000Y-99520476D01*
X137977619Y-99568095D01*
X138120476Y-99663333D01*
X138310952Y-99710952D01*
X138691905Y-99710952D01*
X138787143Y-99663333D01*
X138834762Y-99615714D01*
X138882381Y-99520476D01*
X138882381Y-99329999D01*
X138834762Y-99234761D01*
X138787143Y-99187142D01*
X138691905Y-99139523D01*
X138453810Y-99139523D01*
X138358571Y-99187142D01*
X138310952Y-99234761D01*
X138263333Y-99329999D01*
X138263333Y-99520476D01*
X138310952Y-99615714D01*
X138358571Y-99663333D01*
X138453810Y-99710952D01*
X137882381Y-98853809D02*
X138882381Y-98520476D01*
X137882381Y-98187142D01*
X138310952Y-97710952D02*
X138263333Y-97806190D01*
X138215714Y-97853809D01*
X138120476Y-97901428D01*
X138072857Y-97901428D01*
X137977619Y-97853809D01*
X137930000Y-97806190D01*
X137882381Y-97710952D01*
X137882381Y-97520475D01*
X137930000Y-97425237D01*
X137977619Y-97377618D01*
X138072857Y-97329999D01*
X138120476Y-97329999D01*
X138215714Y-97377618D01*
X138263333Y-97425237D01*
X138310952Y-97520475D01*
X138310952Y-97710952D01*
X138358571Y-97806190D01*
X138406190Y-97853809D01*
X138501429Y-97901428D01*
X138691905Y-97901428D01*
X138787143Y-97853809D01*
X138834762Y-97806190D01*
X138882381Y-97710952D01*
X138882381Y-97520475D01*
X138834762Y-97425237D01*
X138787143Y-97377618D01*
X138691905Y-97329999D01*
X138501429Y-97329999D01*
X138406190Y-97377618D01*
X138358571Y-97425237D01*
X138310952Y-97520475D01*
X136930000Y-79144762D02*
X137072857Y-79192381D01*
X137310953Y-79192381D01*
X137406191Y-79144762D01*
X137453810Y-79097143D01*
X137501429Y-79001905D01*
X137501429Y-78906667D01*
X137453810Y-78811429D01*
X137406191Y-78763810D01*
X137310953Y-78716190D01*
X137120476Y-78668571D01*
X137025238Y-78620952D01*
X136977619Y-78573333D01*
X136930000Y-78478095D01*
X136930000Y-78382857D01*
X136977619Y-78287619D01*
X137025238Y-78240000D01*
X137120476Y-78192381D01*
X137358572Y-78192381D01*
X137501429Y-78240000D01*
X137930000Y-79192381D02*
X137930000Y-78192381D01*
X138406190Y-79192381D02*
X138406190Y-78192381D01*
X138644285Y-78192381D01*
X138787143Y-78240000D01*
X138882381Y-78335238D01*
X138930000Y-78430476D01*
X138977619Y-78620952D01*
X138977619Y-78763810D01*
X138930000Y-78954286D01*
X138882381Y-79049524D01*
X138787143Y-79144762D01*
X138644285Y-79192381D01*
X138406190Y-79192381D01*
X139358571Y-78287619D02*
X139406190Y-78240000D01*
X139501428Y-78192381D01*
X139739524Y-78192381D01*
X139834762Y-78240000D01*
X139882381Y-78287619D01*
X139930000Y-78382857D01*
X139930000Y-78478095D01*
X139882381Y-78620952D01*
X139310952Y-79192381D01*
X139930000Y-79192381D01*
X154710000Y-79144762D02*
X154852857Y-79192381D01*
X155090953Y-79192381D01*
X155186191Y-79144762D01*
X155233810Y-79097143D01*
X155281429Y-79001905D01*
X155281429Y-78906667D01*
X155233810Y-78811429D01*
X155186191Y-78763810D01*
X155090953Y-78716190D01*
X154900476Y-78668571D01*
X154805238Y-78620952D01*
X154757619Y-78573333D01*
X154710000Y-78478095D01*
X154710000Y-78382857D01*
X154757619Y-78287619D01*
X154805238Y-78240000D01*
X154900476Y-78192381D01*
X155138572Y-78192381D01*
X155281429Y-78240000D01*
X155710000Y-79192381D02*
X155710000Y-78192381D01*
X156186190Y-79192381D02*
X156186190Y-78192381D01*
X156424285Y-78192381D01*
X156567143Y-78240000D01*
X156662381Y-78335238D01*
X156710000Y-78430476D01*
X156757619Y-78620952D01*
X156757619Y-78763810D01*
X156710000Y-78954286D01*
X156662381Y-79049524D01*
X156567143Y-79144762D01*
X156424285Y-79192381D01*
X156186190Y-79192381D01*
X157710000Y-79192381D02*
X157138571Y-79192381D01*
X157424285Y-79192381D02*
X157424285Y-78192381D01*
X157329047Y-78335238D01*
X157233809Y-78430476D01*
X157138571Y-78478095D01*
X179848095Y-79462381D02*
X180514762Y-79462381D01*
X180086190Y-80462381D01*
X181324286Y-79462381D02*
X181133809Y-79462381D01*
X181038571Y-79510000D01*
X180990952Y-79557619D01*
X180895714Y-79700476D01*
X180848095Y-79890952D01*
X180848095Y-80271905D01*
X180895714Y-80367143D01*
X180943333Y-80414762D01*
X181038571Y-80462381D01*
X181229048Y-80462381D01*
X181324286Y-80414762D01*
X181371905Y-80367143D01*
X181419524Y-80271905D01*
X181419524Y-80033810D01*
X181371905Y-79938571D01*
X181324286Y-79890952D01*
X181229048Y-79843333D01*
X181038571Y-79843333D01*
X180943333Y-79890952D01*
X180895714Y-79938571D01*
X180848095Y-80033810D01*
X182276667Y-79462381D02*
X182086190Y-79462381D01*
X181990952Y-79510000D01*
X181943333Y-79557619D01*
X181848095Y-79700476D01*
X181800476Y-79890952D01*
X181800476Y-80271905D01*
X181848095Y-80367143D01*
X181895714Y-80414762D01*
X181990952Y-80462381D01*
X182181429Y-80462381D01*
X182276667Y-80414762D01*
X182324286Y-80367143D01*
X182371905Y-80271905D01*
X182371905Y-80033810D01*
X182324286Y-79938571D01*
X182276667Y-79890952D01*
X182181429Y-79843333D01*
X181990952Y-79843333D01*
X181895714Y-79890952D01*
X181848095Y-79938571D01*
X181800476Y-80033810D01*
X182990952Y-79462381D02*
X183086191Y-79462381D01*
X183181429Y-79510000D01*
X183229048Y-79557619D01*
X183276667Y-79652857D01*
X183324286Y-79843333D01*
X183324286Y-80081429D01*
X183276667Y-80271905D01*
X183229048Y-80367143D01*
X183181429Y-80414762D01*
X183086191Y-80462381D01*
X182990952Y-80462381D01*
X182895714Y-80414762D01*
X182848095Y-80367143D01*
X182800476Y-80271905D01*
X182752857Y-80081429D01*
X182752857Y-79843333D01*
X182800476Y-79652857D01*
X182848095Y-79557619D01*
X182895714Y-79510000D01*
X182990952Y-79462381D01*
X172997905Y-119070381D02*
X172997905Y-118070381D01*
X173236000Y-118070381D01*
X173378858Y-118118000D01*
X173474096Y-118213238D01*
X173521715Y-118308476D01*
X173569334Y-118498952D01*
X173569334Y-118641810D01*
X173521715Y-118832286D01*
X173474096Y-118927524D01*
X173378858Y-119022762D01*
X173236000Y-119070381D01*
X172997905Y-119070381D01*
X174521715Y-119070381D02*
X173950286Y-119070381D01*
X174236000Y-119070381D02*
X174236000Y-118070381D01*
X174140762Y-118213238D01*
X174045524Y-118308476D01*
X173950286Y-118356095D01*
X149629905Y-119070381D02*
X149629905Y-118070381D01*
X149868000Y-118070381D01*
X150010858Y-118118000D01*
X150106096Y-118213238D01*
X150153715Y-118308476D01*
X150201334Y-118498952D01*
X150201334Y-118641810D01*
X150153715Y-118832286D01*
X150106096Y-118927524D01*
X150010858Y-119022762D01*
X149868000Y-119070381D01*
X149629905Y-119070381D01*
X150582286Y-118165619D02*
X150629905Y-118118000D01*
X150725143Y-118070381D01*
X150963239Y-118070381D01*
X151058477Y-118118000D01*
X151106096Y-118165619D01*
X151153715Y-118260857D01*
X151153715Y-118356095D01*
X151106096Y-118498952D01*
X150534667Y-119070381D01*
X151153715Y-119070381D01*
%LPC*%
D13*
X171132000Y-100012000D03*
X172402000Y-100012000D03*
X169862000Y-100012000D03*
X176212000Y-100012000D03*
X177482000Y-100012000D03*
X174942000Y-100012000D03*
D14*
X163195000Y-72390000D03*
X163195000Y-74930000D03*
X163195000Y-69850000D03*
X142240000Y-72390000D03*
X142240000Y-74930000D03*
X142240000Y-69850000D03*
D15*
X131128000Y-120650000D03*
X133668000Y-120650000D03*
X136208000Y-120650000D03*
X138748000Y-120650000D03*
X141288000Y-120650000D03*
D16*
X182245000Y-120650000D03*
D15*
X184785000Y-120650000D03*
X187325000Y-120650000D03*
D17*
X151130000Y-78740000D03*
X151130000Y-81280000D03*
X151130000Y-83820000D03*
X151130000Y-86360000D03*
X151130000Y-88900000D03*
X151130000Y-91440000D03*
X151130000Y-93980000D03*
X151130000Y-96520000D03*
X151130000Y-99060000D03*
X151130000Y-101600000D03*
X151130000Y-104140000D03*
X151130000Y-106680000D03*
X151130000Y-109220000D03*
X151130000Y-111760000D03*
X166370000Y-111760000D03*
X166370000Y-109220000D03*
X166370000Y-106680000D03*
X166370000Y-104140000D03*
X166370000Y-101600000D03*
X166370000Y-99060000D03*
X166370000Y-96520000D03*
X166370000Y-93980000D03*
X166370000Y-91440000D03*
X166370000Y-88900000D03*
X166370000Y-86360000D03*
X166370000Y-83820000D03*
X166370000Y-81280000D03*
X166370000Y-78740000D03*
D18*
X169862000Y-94932500D03*
D19*
X172362000Y-94932500D03*
D18*
X174942000Y-94996000D03*
D19*
X177442000Y-94996000D03*
D18*
X172720000Y-77724000D03*
D19*
X175220000Y-77724000D03*
D18*
X172720000Y-82296000D03*
D19*
X175220000Y-82296000D03*
D16*
X164465000Y-120650000D03*
D15*
X161925000Y-120650000D03*
X159385000Y-120650000D03*
D14*
X173672000Y-86360000D03*
X171132000Y-88900000D03*
X176212000Y-88900000D03*
X184785000Y-86360000D03*
X182245000Y-88900000D03*
X187325000Y-88900000D03*
D20*
X180975000Y-98425000D03*
X180975000Y-100965000D03*
X180975000Y-103505000D03*
X180975000Y-106045000D03*
X180975000Y-108585000D03*
X180975000Y-111125000D03*
X180975000Y-113665000D03*
X180975000Y-116205000D03*
X188595000Y-116205000D03*
X188595000Y-113665000D03*
X188595000Y-111125000D03*
X188595000Y-108585000D03*
X188595000Y-106045000D03*
X188595000Y-103505000D03*
X188595000Y-100965000D03*
X188595000Y-98425000D03*
X153670000Y-91440000D03*
X153670000Y-93980000D03*
X153670000Y-96520000D03*
X153670000Y-99060000D03*
X153670000Y-101600000D03*
X153670000Y-104140000D03*
X153670000Y-106680000D03*
X153670000Y-109220000D03*
X161290000Y-109220000D03*
X161290000Y-106680000D03*
X161290000Y-104140000D03*
X161290000Y-101600000D03*
X161290000Y-99060000D03*
X161290000Y-96520000D03*
X161290000Y-93980000D03*
X161290000Y-91440000D03*
X134620000Y-88900000D03*
X134620000Y-91440000D03*
X134620000Y-93980000D03*
X134620000Y-96520000D03*
X134620000Y-99060000D03*
X134620000Y-101600000D03*
X134620000Y-104140000D03*
X134620000Y-106680000D03*
X134620000Y-109220000D03*
X134620000Y-111760000D03*
X142240000Y-111760000D03*
X142240000Y-109220000D03*
X142240000Y-106680000D03*
X142240000Y-104140000D03*
X142240000Y-101600000D03*
X142240000Y-99060000D03*
X142240000Y-96520000D03*
X142240000Y-93980000D03*
X142240000Y-91440000D03*
X142240000Y-88900000D03*
X130810000Y-81280000D03*
X130810000Y-83820000D03*
X130810000Y-86360000D03*
X130810000Y-88900000D03*
X130810000Y-91440000D03*
X130810000Y-93980000D03*
X130810000Y-96520000D03*
X130810000Y-99060000D03*
X130810000Y-101600000D03*
X130810000Y-104140000D03*
X130810000Y-106680000D03*
X130810000Y-109220000D03*
X130810000Y-111760000D03*
X130810000Y-114300000D03*
X146050000Y-114300000D03*
X146050000Y-111760000D03*
X146050000Y-109220000D03*
X146050000Y-106680000D03*
X146050000Y-104140000D03*
X146050000Y-101600000D03*
X146050000Y-99060000D03*
X146050000Y-96520000D03*
X146050000Y-93980000D03*
X146050000Y-91440000D03*
X146050000Y-88900000D03*
X146050000Y-86360000D03*
X146050000Y-83820000D03*
X146050000Y-81280000D03*
X148590000Y-81280000D03*
X148590000Y-83820000D03*
X148590000Y-86360000D03*
X148590000Y-88900000D03*
X148590000Y-91440000D03*
X148590000Y-93980000D03*
X148590000Y-96520000D03*
X148590000Y-99060000D03*
X148590000Y-101600000D03*
X148590000Y-104140000D03*
X148590000Y-106680000D03*
X148590000Y-109220000D03*
X148590000Y-111760000D03*
X148590000Y-114300000D03*
X163830000Y-114300000D03*
X163830000Y-111760000D03*
X163830000Y-109220000D03*
X163830000Y-106680000D03*
X163830000Y-104140000D03*
X163830000Y-101600000D03*
X163830000Y-99060000D03*
X163830000Y-96520000D03*
X163830000Y-93980000D03*
X163830000Y-91440000D03*
X163830000Y-88900000D03*
X163830000Y-86360000D03*
X163830000Y-83820000D03*
X163830000Y-81280000D03*
X185420000Y-76200000D03*
X182880000Y-76200000D03*
X180340000Y-76200000D03*
X177800000Y-76200000D03*
X177800000Y-83820000D03*
X180340000Y-83820000D03*
X182880000Y-83820000D03*
X185420000Y-83820000D03*
D21*
X150241000Y-121920000D03*
X147701000Y-121920000D03*
X152781000Y-121920000D03*
X173736000Y-121920000D03*
X171196000Y-121920000D03*
X176276000Y-121920000D03*
D19*
X142240000Y-83820000D03*
X139740000Y-83820000D03*
X139700000Y-86360000D03*
X142200000Y-86360000D03*
X137160000Y-83820000D03*
X134660000Y-83820000D03*
X134620000Y-86360000D03*
X137120000Y-86360000D03*
X178816000Y-122936000D03*
X178816000Y-120436000D03*
X168656000Y-122936000D03*
X168656000Y-120436000D03*
X155448000Y-122936000D03*
X155448000Y-120436000D03*
X145288000Y-122936000D03*
X145288000Y-120436000D03*
X158750000Y-83820000D03*
X161250000Y-83820000D03*
X153670000Y-86360000D03*
X156170000Y-86360000D03*
X153670000Y-83820000D03*
X156170000Y-83820000D03*
X161290000Y-86360000D03*
X158790000Y-86360000D03*
X148590000Y-71120000D03*
X146090000Y-71120000D03*
X169545000Y-71120000D03*
X167045000Y-71120000D03*
X172402000Y-108585000D03*
X169902000Y-108585000D03*
X177482000Y-108585000D03*
X174982000Y-108585000D03*
X177482000Y-103505000D03*
X177482000Y-106005000D03*
X187960000Y-81280000D03*
X187960000Y-78780000D03*
X158750000Y-88900000D03*
X156250000Y-88900000D03*
X186055000Y-95250000D03*
X183555000Y-95250000D03*
X172402000Y-103505000D03*
X172402000Y-106005000D03*
D15*
X169545000Y-73660000D03*
X169545000Y-76200000D03*
X148590000Y-73660000D03*
X148590000Y-76200000D03*
X169545000Y-80645000D03*
X169545000Y-83185000D03*
D22*
X177482000Y-116205000D03*
X174942000Y-116205000D03*
X169862000Y-116205000D03*
X172402000Y-116205000D03*
X174942000Y-103505000D03*
X174942000Y-106045000D03*
X177482000Y-111125000D03*
X177482000Y-113665000D03*
X167005000Y-76200000D03*
X167005000Y-73660000D03*
X146050000Y-68580000D03*
X148590000Y-68580000D03*
X180975000Y-95250000D03*
X180975000Y-92710000D03*
X188595000Y-95250000D03*
X188595000Y-92710000D03*
X174942000Y-111125000D03*
X174942000Y-113665000D03*
X169862000Y-103505000D03*
X169862000Y-106045000D03*
X172402000Y-111125000D03*
X172402000Y-113665000D03*
X169862000Y-111125000D03*
X169862000Y-113665000D03*
X167005000Y-68580000D03*
X169545000Y-68580000D03*
X146050000Y-76200000D03*
X146050000Y-73660000D03*
D19*
X143510000Y-78740000D03*
X146010000Y-78740000D03*
X163830000Y-78740000D03*
X161330000Y-78740000D03*
D23*
X178816000Y-118618000D03*
D14*
X168656000Y-118618000D03*
D23*
X155448000Y-118618000D03*
D14*
X145288000Y-118618000D03*
D24*
X132500000Y-70500000D03*
D25*
X132500000Y-72500000D03*
X132500000Y-74500000D03*
D24*
X134500000Y-70500000D03*
D25*
X134500000Y-72500000D03*
X134500000Y-74500000D03*
D24*
X136500000Y-70500000D03*
D25*
X136500000Y-72500000D03*
X136500000Y-74500000D03*
D24*
X151500000Y-70500000D03*
D25*
X151500000Y-72500000D03*
X151500000Y-74500000D03*
D24*
X153500000Y-70500000D03*
D25*
X153500000Y-72500000D03*
X153500000Y-74500000D03*
D24*
X155500000Y-70500000D03*
D25*
X155500000Y-72500000D03*
X155500000Y-74500000D03*
D24*
X157500000Y-70500000D03*
D25*
X157500000Y-72500000D03*
X157500000Y-74500000D03*
D24*
X130500000Y-70500000D03*
D25*
X130500000Y-72500000D03*
X130500000Y-74500000D03*
D24*
X138500000Y-70500000D03*
D25*
X138500000Y-72500000D03*
X138500000Y-74500000D03*
D24*
X159500000Y-70500000D03*
D25*
X159500000Y-72500000D03*
X159500000Y-74500000D03*
D16*
X175260000Y-72390000D03*
D26*
X175260000Y-69850000D03*
X177800000Y-72390000D03*
X177800000Y-69850000D03*
X180340000Y-72390000D03*
X180340000Y-69850000D03*
X182880000Y-72390000D03*
X182880000Y-69850000D03*
X185420000Y-72390000D03*
X185420000Y-69850000D03*
X187960000Y-72390000D03*
X187960000Y-69850000D03*
M02*
