M48
;DRILL file {KiCad 4.0.0-rc2-stable} date 04.05.2016 11:08:14
;FORMAT={-:-/ absolute / inch / decimal}
FMAT,2
INCH,TZ
T1C0.016
T2C0.024
T3C0.030
T4C0.031
T5C0.032
T6C0.032
T7C0.040
T8C0.045
%
G90
G05
M72
T1
X5.075Y-4.57
X5.225Y-3.023
X5.3542Y-3.927
X5.505Y-3.8
X5.529Y-4.0505
X5.529Y-4.147
X5.5945Y-3.0215
X5.6725Y-3.254
X5.7995Y-3.3365
X5.8015Y-4.2465
X5.8897Y-4.4667
X5.91Y-3.02
X5.9751Y-3.8513
X6.019Y-3.058
X6.023Y-4.3905
X6.113Y-3.0424
X6.1143Y-3.0794
X6.115Y-3.231
X6.169Y-4.0285
X6.275Y-3.8977
X6.4125Y-3.447
X6.476Y-3.0188
X6.6454Y-4.0132
X6.6545Y-3.587
X6.6607Y-2.7535
X6.7859Y-4.8068
X6.8219Y-3.6288
X6.92Y-3.808
T2
X6.65Y-3.95
X6.7Y-3.95
X6.75Y-3.95
X6.85Y-3.95
X6.9Y-3.95
X6.95Y-3.95
T3
X6.8Y-3.375
X6.8Y-3.575
X6.9Y-3.475
X7.2Y-3.375
X7.2Y-3.575
X7.3Y-3.475
T4
X5.15Y-3.2
X5.15Y-3.3
X5.15Y-3.4
X5.15Y-3.5
X5.15Y-3.6
X5.15Y-3.7
X5.15Y-3.8
X5.15Y-3.9
X5.15Y-4.
X5.15Y-4.1
X5.15Y-4.2
X5.15Y-4.3
X5.15Y-4.4
X5.15Y-4.5
X5.3Y-3.4
X5.3Y-3.5
X5.3Y-3.6
X5.3Y-3.7
X5.3Y-3.8
X5.3Y-3.9
X5.3Y-4.
X5.3Y-4.1
X5.3Y-4.2
X5.3Y-4.3
X5.3Y-4.4
X5.4Y-3.3
X5.5Y-3.4
X5.6Y-3.3
X5.6Y-3.5
X5.6Y-3.6
X5.6Y-3.7
X5.6Y-3.8
X5.6Y-3.9
X5.6Y-4.
X5.6Y-4.1
X5.6Y-4.2
X5.6Y-4.3
X5.6Y-4.4
X5.65Y-4.75
X5.75Y-3.2
X5.75Y-3.3
X5.75Y-3.4
X5.75Y-3.5
X5.75Y-3.6
X5.75Y-3.7
X5.75Y-3.8
X5.75Y-3.9
X5.75Y-4.
X5.75Y-4.1
X5.75Y-4.2
X5.75Y-4.3
X5.75Y-4.4
X5.75Y-4.5
X5.85Y-2.8
X5.85Y-3.2
X5.85Y-3.3
X5.85Y-3.4
X5.85Y-3.5
X5.85Y-3.6
X5.85Y-3.7
X5.85Y-3.8
X5.85Y-3.9
X5.85Y-4.
X5.85Y-4.1
X5.85Y-4.2
X5.85Y-4.3
X5.85Y-4.4
X5.85Y-4.5
X6.05Y-3.3
X6.05Y-3.4
X6.05Y-3.6
X6.05Y-3.7
X6.05Y-3.8
X6.05Y-3.9
X6.05Y-4.
X6.05Y-4.1
X6.05Y-4.2
X6.05Y-4.3
X6.05Y-4.75
X6.25Y-3.3
X6.25Y-3.5
X6.35Y-3.4
X6.35Y-3.6
X6.35Y-3.7
X6.35Y-3.8
X6.35Y-3.9
X6.35Y-4.
X6.35Y-4.1
X6.35Y-4.2
X6.35Y-4.3
X6.45Y-3.2
X6.45Y-3.3
X6.45Y-3.4
X6.45Y-3.5
X6.45Y-3.6
X6.45Y-3.7
X6.45Y-3.8
X6.45Y-3.9
X6.45Y-4.
X6.45Y-4.1
X6.45Y-4.2
X6.45Y-4.3
X6.45Y-4.4
X6.45Y-4.5
X6.55Y-4.75
X6.65Y-3.75
X6.675Y-2.8
X6.7484Y-3.75
X6.75Y-4.075
X6.75Y-4.275
X6.825Y-2.9766
X6.825Y-3.075
X6.825Y-3.175
X6.825Y-3.2734
X6.85Y-3.75
X6.9484Y-3.75
X6.95Y-4.075
X6.95Y-4.275
X6.95Y-4.75
X6.975Y-2.975
X6.975Y-3.275
X7.05Y-3.85
X7.05Y-3.95
X7.05Y-4.05
X7.05Y-4.15
X7.05Y-4.25
X7.05Y-4.35
X7.05Y-4.45
X7.05Y-4.55
X7.075Y-2.975
X7.075Y-3.275
X7.175Y-2.975
X7.175Y-3.275
X7.25Y-3.7
X7.275Y-2.975
X7.275Y-3.275
X7.35Y-3.85
X7.35Y-3.95
X7.35Y-4.05
X7.35Y-4.15
X7.35Y-4.25
X7.35Y-4.35
X7.35Y-4.45
X7.35Y-4.55
X7.4Y-3.175
T5
X5.3016Y-3.3
X5.3984Y-3.4
X5.5016Y-3.3
X5.5984Y-3.4
X5.65Y-4.6516
X5.7516Y-2.8
X6.05Y-4.6516
X6.1484Y-3.3
X6.1484Y-3.4
X6.1516Y-3.5
X6.2516Y-3.4
X6.3484Y-3.3
X6.55Y-4.6516
X6.5766Y-2.8
X6.6516Y-4.275
X6.75Y-4.1734
X6.8516Y-4.275
X6.95Y-4.1734
X6.95Y-4.6516
X7.1516Y-3.7
X7.4Y-3.0766
T6
X5.6Y-2.75
X5.6Y-2.85
X5.6Y-2.95
X5.75Y-2.7
X5.75Y-2.9
X5.75Y-3.
X5.85Y-2.7
X6.425Y-2.75
X6.425Y-2.85
X6.425Y-2.95
X6.575Y-2.7
X6.575Y-2.9
X6.575Y-3.
X6.65Y-4.075
X6.65Y-4.175
X6.65Y-4.375
X6.65Y-4.475
X6.65Y-4.575
X6.675Y-2.7
X6.75Y-4.375
X6.75Y-4.475
X6.75Y-4.575
X6.85Y-4.075
X6.85Y-4.175
X6.85Y-4.375
X6.85Y-4.475
X6.85Y-4.575
X6.95Y-4.375
X6.95Y-4.475
X6.95Y-4.575
X7.05Y-3.6
X7.05Y-3.7
X7.35Y-3.6
X7.35Y-3.7
T7
X5.125Y-4.725
X5.15Y-2.75
X5.15Y-2.85
X5.15Y-2.95
X5.225Y-4.725
X5.25Y-2.75
X5.25Y-2.85
X5.25Y-2.95
X5.325Y-4.725
X5.35Y-2.75
X5.35Y-2.85
X5.35Y-2.95
X5.425Y-4.725
X5.45Y-2.75
X5.45Y-2.85
X5.45Y-2.95
X5.525Y-4.725
X5.85Y-2.9
X5.85Y-3.
X5.95Y-3.1
X5.95Y-3.2
X5.95Y-3.3
X5.95Y-3.4
X5.95Y-3.5
X5.95Y-3.6
X5.95Y-3.7
X5.95Y-3.8
X5.95Y-3.9
X5.95Y-4.
X5.95Y-4.1
X5.95Y-4.2
X5.95Y-4.3
X5.95Y-4.4
X5.975Y-2.75
X5.975Y-2.85
X5.975Y-2.95
X6.075Y-2.75
X6.075Y-2.85
X6.075Y-2.95
X6.175Y-2.75
X6.175Y-2.85
X6.175Y-2.95
X6.2Y-4.725
X6.275Y-2.75
X6.275Y-2.85
X6.275Y-2.95
X6.3Y-4.725
X6.4Y-4.725
X6.55Y-3.1
X6.55Y-3.2
X6.55Y-3.3
X6.55Y-3.4
X6.55Y-3.5
X6.55Y-3.6
X6.55Y-3.7
X6.55Y-3.8
X6.55Y-3.9
X6.55Y-4.
X6.55Y-4.1
X6.55Y-4.2
X6.55Y-4.3
X6.55Y-4.4
X6.675Y-2.9
X6.675Y-3.
X6.8Y-2.75
X6.8Y-2.85
X6.9Y-2.75
X6.9Y-2.85
X7.Y-2.75
X7.Y-2.85
X7.1Y-2.75
X7.1Y-2.85
X7.1Y-4.725
X7.2Y-2.75
X7.2Y-2.85
X7.2Y-4.725
X7.3Y-2.75
X7.3Y-2.85
X7.3Y-4.725
X7.4Y-2.75
X7.4Y-2.85
T8
X5.75Y-4.7
X5.85Y-4.7
X5.95Y-4.7
X6.65Y-4.7
X6.75Y-4.7
X6.85Y-4.7
T0
M30
