M48
;DRILL file {KiCad 4.0.2-stable} date 18.07.2016 12:30:44
;FORMAT={-:-/ absolute / inch / decimal}
FMAT,2
INCH,TZ
T1C0.016
T2C0.024
T3C0.030
T4C0.031
T5C0.032
T6C0.032
T7C0.035
T8C0.040
T9C0.045
%
G90
G05
M72
T1
X5.072Y-4.574
X5.3643Y-3.8296
X5.4472Y-3.4011
X5.486Y-3.022
X5.541Y-3.2295
X5.6795Y-3.61
X5.697Y-3.054
X5.8087Y-3.6453
X5.843Y-3.085
X5.8834Y-2.8398
X5.9665Y-3.0045
X6.0045Y-3.043
X6.005Y-3.13
X6.0523Y-2.9801
X6.2019Y-3.7875
X6.2935Y-4.4773
X6.3808Y-3.2685
X6.441Y-3.55
X6.4841Y-2.74
X6.55Y-4.77
X6.7228Y-4.2103
X6.748Y-3.388
X6.8655Y-3.4516
X6.88Y-3.6525
X7.02Y-3.45
T2
X6.6875Y-3.9375
X6.7375Y-3.9375
X6.7875Y-3.9375
X6.8875Y-3.9375
X6.9375Y-3.9375
X6.9875Y-3.9375
T3
X6.7375Y-3.5
X6.8375Y-3.4
X6.9375Y-3.5
X7.175Y-3.5
X7.275Y-3.4
X7.375Y-3.5
T4
X5.1378Y-2.7756
X5.1378Y-2.8543
X5.1378Y-2.9331
X5.15Y-3.2
X5.15Y-3.3
X5.15Y-3.4
X5.15Y-3.5
X5.15Y-3.6
X5.15Y-3.7
X5.15Y-3.8
X5.15Y-3.9
X5.15Y-4.
X5.15Y-4.1
X5.15Y-4.2
X5.15Y-4.3
X5.15Y-4.4
X5.15Y-4.5
X5.2165Y-2.7756
X5.2165Y-2.8543
X5.2165Y-2.9331
X5.2953Y-2.7756
X5.2953Y-2.8543
X5.2953Y-2.9331
X5.3Y-3.4
X5.3Y-3.5
X5.3Y-3.6
X5.3Y-3.7
X5.3Y-3.8
X5.3Y-3.9
X5.3Y-4.
X5.3Y-4.1
X5.3Y-4.2
X5.3Y-4.3
X5.3Y-4.4
X5.374Y-2.7756
X5.374Y-2.8543
X5.374Y-2.9331
X5.4Y-3.3
X5.4528Y-2.7756
X5.4528Y-2.8543
X5.4528Y-2.9331
X5.5Y-3.4
X5.6Y-3.3
X5.6Y-3.5
X5.6Y-3.6
X5.6Y-3.7
X5.6Y-3.8
X5.6Y-3.9
X5.6Y-4.
X5.6Y-4.1
X5.6Y-4.2
X5.6Y-4.3
X5.6Y-4.4
X5.65Y-3.1
X5.72Y-4.84
X5.75Y-3.2
X5.75Y-3.3
X5.75Y-3.4
X5.75Y-3.5
X5.75Y-3.6
X5.75Y-3.7
X5.75Y-3.8
X5.75Y-3.9
X5.75Y-4.
X5.75Y-4.1
X5.75Y-4.2
X5.75Y-4.3
X5.75Y-4.4
X5.75Y-4.5
X5.85Y-2.8
X5.85Y-3.2
X5.85Y-3.3
X5.85Y-3.4
X5.85Y-3.5
X5.85Y-3.6
X5.85Y-3.7
X5.85Y-3.8
X5.85Y-3.9
X5.85Y-4.
X5.85Y-4.1
X5.85Y-4.2
X5.85Y-4.3
X5.85Y-4.4
X5.85Y-4.5
X5.9646Y-2.7756
X5.9646Y-2.8543
X5.9646Y-2.9331
X6.0433Y-2.7756
X6.0433Y-2.8543
X6.0433Y-2.9331
X6.05Y-3.3
X6.05Y-3.4
X6.05Y-3.6
X6.05Y-3.7
X6.05Y-3.8
X6.05Y-3.9
X6.05Y-4.
X6.05Y-4.1
X6.05Y-4.2
X6.05Y-4.3
X6.12Y-4.84
X6.122Y-2.7756
X6.122Y-2.8543
X6.122Y-2.9331
X6.2008Y-2.7756
X6.2008Y-2.8543
X6.2008Y-2.9331
X6.25Y-3.3
X6.25Y-3.5
X6.2795Y-2.7756
X6.2795Y-2.8543
X6.2795Y-2.9331
X6.35Y-3.4
X6.35Y-3.6
X6.35Y-3.7
X6.35Y-3.8
X6.35Y-3.9
X6.35Y-4.
X6.35Y-4.1
X6.35Y-4.2
X6.35Y-4.3
X6.45Y-3.1
X6.45Y-3.2
X6.45Y-3.3
X6.45Y-3.4
X6.45Y-3.5
X6.45Y-3.6
X6.45Y-3.7
X6.45Y-3.8
X6.45Y-3.9
X6.45Y-4.
X6.45Y-4.1
X6.45Y-4.2
X6.45Y-4.3
X6.45Y-4.4
X6.45Y-4.5
X6.64Y-4.84
X6.675Y-2.8
X6.6875Y-3.7375
X6.7859Y-3.7375
X6.7875Y-4.075
X6.7875Y-4.275
X6.8Y-3.06
X6.8Y-3.24
X6.8875Y-3.74
X6.8984Y-3.06
X6.8984Y-3.24
X6.9859Y-3.74
X6.9875Y-4.075
X6.9875Y-4.275
X7.Y-3.
X7.Y-3.3
X7.04Y-4.84
X7.1Y-3.
X7.1Y-3.3
X7.125Y-3.875
X7.125Y-3.975
X7.125Y-4.075
X7.125Y-4.175
X7.125Y-4.275
X7.125Y-4.375
X7.125Y-4.475
X7.125Y-4.575
X7.2Y-3.
X7.2Y-3.3
X7.3Y-3.
X7.3Y-3.3
X7.325Y-3.75
X7.4Y-3.2
X7.425Y-3.875
X7.425Y-3.975
X7.425Y-4.075
X7.425Y-4.175
X7.425Y-4.275
X7.425Y-4.375
X7.425Y-4.475
X7.425Y-4.575
T5
X5.3016Y-3.3
X5.3984Y-3.4
X5.5016Y-3.3
X5.5984Y-3.4
X5.72Y-4.7416
X5.7484Y-3.1
X5.7516Y-2.8
X6.12Y-4.7416
X6.1484Y-3.3
X6.1484Y-3.4
X6.1516Y-3.5
X6.2516Y-3.4
X6.3484Y-3.3
X6.3516Y-3.1
X6.5766Y-2.8
X6.64Y-4.7416
X6.6891Y-4.275
X6.7875Y-4.1734
X6.8891Y-4.275
X6.9875Y-4.1734
X7.04Y-4.7416
X7.2266Y-3.75
X7.4Y-3.1016
T6
X5.6Y-2.75
X5.6Y-2.85
X5.6Y-2.95
X5.75Y-2.7
X5.75Y-2.9
X5.75Y-3.
X5.85Y-2.7
X6.425Y-2.75
X6.425Y-2.85
X6.425Y-2.95
X6.575Y-2.7
X6.575Y-2.9
X6.575Y-3.
X6.675Y-2.7
X6.6875Y-4.075
X6.6875Y-4.175
X6.6875Y-4.375
X6.6875Y-4.475
X6.6875Y-4.575
X6.7875Y-4.375
X6.7875Y-4.475
X6.7875Y-4.575
X6.8875Y-4.075
X6.8875Y-4.175
X6.8875Y-4.375
X6.8875Y-4.475
X6.8875Y-4.575
X6.9875Y-4.375
X6.9875Y-4.475
X6.9875Y-4.575
X7.125Y-3.65
X7.125Y-3.75
X7.425Y-3.65
X7.425Y-3.75
T7
X5.72Y-4.67
X6.12Y-4.67
X6.64Y-4.67
X7.04Y-4.67
T8
X5.1625Y-4.75
X5.2625Y-4.75
X5.3625Y-4.75
X5.4625Y-4.75
X5.5625Y-4.75
X5.85Y-2.9
X5.85Y-3.
X5.95Y-3.1
X5.95Y-3.2
X5.95Y-3.3
X5.95Y-3.4
X5.95Y-3.5
X5.95Y-3.6
X5.95Y-3.7
X5.95Y-3.8
X5.95Y-3.9
X5.95Y-4.
X5.95Y-4.1
X5.95Y-4.2
X5.95Y-4.3
X5.95Y-4.4
X6.275Y-4.75
X6.375Y-4.75
X6.475Y-4.75
X6.55Y-3.1
X6.55Y-3.2
X6.55Y-3.3
X6.55Y-3.4
X6.55Y-3.5
X6.55Y-3.6
X6.55Y-3.7
X6.55Y-3.8
X6.55Y-3.9
X6.55Y-4.
X6.55Y-4.1
X6.55Y-4.2
X6.55Y-4.3
X6.55Y-4.4
X6.675Y-2.9
X6.675Y-3.
X6.675Y-3.175
X6.675Y-3.275
X6.9Y-2.75
X6.9Y-2.85
X7.Y-2.75
X7.Y-2.85
X7.1Y-2.75
X7.1Y-2.85
X7.175Y-4.75
X7.2Y-2.75
X7.2Y-2.85
X7.275Y-4.75
X7.3Y-2.75
X7.3Y-2.85
X7.375Y-4.75
X7.4Y-2.75
X7.4Y-2.85
T9
X5.815Y-4.8
X5.915Y-4.8
X6.015Y-4.8
X6.74Y-4.8
X6.84Y-4.8
X6.94Y-4.8
T0
M30
