G04 #@! TF.FileFunction,Soldermask,Top*
%FSLAX46Y46*%
G04 Gerber Fmt 4.6, Leading zero omitted, Abs format (unit mm)*
G04 Created by KiCad (PCBNEW 4.0.0-rc2-stable) date 04.05.2016 11:08:01*
%MOMM*%
G01*
G04 APERTURE LIST*
%ADD10C,0.100000*%
%ADD11R,1.700000X1.700000*%
%ADD12C,1.700000*%
%ADD13C,1.797000*%
%ADD14O,2.000000X2.000000*%
%ADD15O,1.299160X1.901140*%
%ADD16C,1.924000*%
%ADD17C,2.127200*%
%ADD18R,2.127200X2.127200*%
%ADD19C,2.000000*%
%ADD20O,2.432000X2.940000*%
%ADD21O,2.127200X2.127200*%
G04 APERTURE END LIST*
D10*
D11*
X142240000Y-83820000D03*
D12*
X139740000Y-83820000D03*
D11*
X139700000Y-86360000D03*
D12*
X142200000Y-86360000D03*
D11*
X137160000Y-83820000D03*
D12*
X134660000Y-83820000D03*
D11*
X134620000Y-86360000D03*
D12*
X137120000Y-86360000D03*
D11*
X176530000Y-120650000D03*
D12*
X176530000Y-118150000D03*
D11*
X166370000Y-120650000D03*
D12*
X166370000Y-118150000D03*
D11*
X153670000Y-120650000D03*
D12*
X153670000Y-118150000D03*
D11*
X143510000Y-120650000D03*
D12*
X143510000Y-118150000D03*
D11*
X158750000Y-83820000D03*
D12*
X161250000Y-83820000D03*
D11*
X153670000Y-86360000D03*
D12*
X156170000Y-86360000D03*
D11*
X153670000Y-83820000D03*
D12*
X156170000Y-83820000D03*
D11*
X161290000Y-86360000D03*
D12*
X158790000Y-86360000D03*
D11*
X148590000Y-71120000D03*
D12*
X146090000Y-71120000D03*
D11*
X169545000Y-71120000D03*
D12*
X167045000Y-71120000D03*
D11*
X171450000Y-108585000D03*
D12*
X168950000Y-108585000D03*
D11*
X171450000Y-103505000D03*
D12*
X171450000Y-106005000D03*
D13*
X146050000Y-76200000D03*
X146050000Y-73660000D03*
X169545000Y-68580000D03*
X167005000Y-68580000D03*
X168910000Y-111125000D03*
X168910000Y-113665000D03*
X171450000Y-111125000D03*
X171450000Y-113665000D03*
X168910000Y-103505000D03*
X168910000Y-106045000D03*
X173990000Y-111125000D03*
X173990000Y-113665000D03*
D14*
X134620000Y-88900000D03*
X134620000Y-91440000D03*
X134620000Y-93980000D03*
X134620000Y-96520000D03*
X134620000Y-99060000D03*
X134620000Y-101600000D03*
X134620000Y-104140000D03*
X134620000Y-106680000D03*
X134620000Y-109220000D03*
X134620000Y-111760000D03*
X142240000Y-111760000D03*
X142240000Y-109220000D03*
X142240000Y-106680000D03*
X142240000Y-104140000D03*
X142240000Y-101600000D03*
X142240000Y-99060000D03*
X142240000Y-96520000D03*
X142240000Y-93980000D03*
X142240000Y-91440000D03*
X142240000Y-88900000D03*
X130810000Y-81280000D03*
X130810000Y-83820000D03*
X130810000Y-86360000D03*
X130810000Y-88900000D03*
X130810000Y-91440000D03*
X130810000Y-93980000D03*
X130810000Y-96520000D03*
X130810000Y-99060000D03*
X130810000Y-101600000D03*
X130810000Y-104140000D03*
X130810000Y-106680000D03*
X130810000Y-109220000D03*
X130810000Y-111760000D03*
X130810000Y-114300000D03*
X146050000Y-114300000D03*
X146050000Y-111760000D03*
X146050000Y-109220000D03*
X146050000Y-106680000D03*
X146050000Y-104140000D03*
X146050000Y-101600000D03*
X146050000Y-99060000D03*
X146050000Y-96520000D03*
X146050000Y-93980000D03*
X146050000Y-91440000D03*
X146050000Y-88900000D03*
X146050000Y-86360000D03*
X146050000Y-83820000D03*
X146050000Y-81280000D03*
X148590000Y-81280000D03*
X148590000Y-83820000D03*
X148590000Y-86360000D03*
X148590000Y-88900000D03*
X148590000Y-91440000D03*
X148590000Y-93980000D03*
X148590000Y-96520000D03*
X148590000Y-99060000D03*
X148590000Y-101600000D03*
X148590000Y-104140000D03*
X148590000Y-106680000D03*
X148590000Y-109220000D03*
X148590000Y-111760000D03*
X148590000Y-114300000D03*
X163830000Y-114300000D03*
X163830000Y-111760000D03*
X163830000Y-109220000D03*
X163830000Y-106680000D03*
X163830000Y-104140000D03*
X163830000Y-101600000D03*
X163830000Y-99060000D03*
X163830000Y-96520000D03*
X163830000Y-93980000D03*
X163830000Y-91440000D03*
X163830000Y-88900000D03*
X163830000Y-86360000D03*
X163830000Y-83820000D03*
X163830000Y-81280000D03*
X179070000Y-97790000D03*
X179070000Y-100330000D03*
X179070000Y-102870000D03*
X179070000Y-105410000D03*
X179070000Y-107950000D03*
X179070000Y-110490000D03*
X179070000Y-113030000D03*
X179070000Y-115570000D03*
X186690000Y-115570000D03*
X186690000Y-113030000D03*
X186690000Y-110490000D03*
X186690000Y-107950000D03*
X186690000Y-105410000D03*
X186690000Y-102870000D03*
X186690000Y-100330000D03*
X186690000Y-97790000D03*
D13*
X148590000Y-68580000D03*
X146050000Y-68580000D03*
X167005000Y-76200000D03*
X167005000Y-73660000D03*
D11*
X176530000Y-108585000D03*
D12*
X174030000Y-108585000D03*
D11*
X176530000Y-103505000D03*
D12*
X176530000Y-106005000D03*
D15*
X170180000Y-100330000D03*
X171450000Y-100330000D03*
X168910000Y-100330000D03*
X175260000Y-100330000D03*
X176530000Y-100330000D03*
X173990000Y-100330000D03*
D13*
X176530000Y-111125000D03*
X176530000Y-113665000D03*
X173990000Y-103505000D03*
X173990000Y-106045000D03*
D16*
X163195000Y-72390000D03*
X163195000Y-74930000D03*
X163195000Y-69850000D03*
X142240000Y-72390000D03*
X142240000Y-74930000D03*
X142240000Y-69850000D03*
D13*
X168910000Y-116205000D03*
X171450000Y-116205000D03*
X176530000Y-116205000D03*
X173990000Y-116205000D03*
D17*
X130175000Y-120015000D03*
X132715000Y-120015000D03*
X135255000Y-120015000D03*
X137795000Y-120015000D03*
X140335000Y-120015000D03*
D18*
X130810000Y-69850000D03*
D17*
X130810000Y-72390000D03*
X130810000Y-74930000D03*
D18*
X133350000Y-69850000D03*
D17*
X133350000Y-72390000D03*
X133350000Y-74930000D03*
D18*
X135890000Y-69850000D03*
D17*
X135890000Y-72390000D03*
X135890000Y-74930000D03*
D18*
X138430000Y-69850000D03*
D17*
X138430000Y-72390000D03*
X138430000Y-74930000D03*
D18*
X159385000Y-69850000D03*
D17*
X159385000Y-72390000D03*
X159385000Y-74930000D03*
D18*
X156845000Y-69850000D03*
D17*
X156845000Y-72390000D03*
X156845000Y-74930000D03*
D18*
X154305000Y-69850000D03*
D17*
X154305000Y-72390000D03*
X154305000Y-74930000D03*
D18*
X151765000Y-69850000D03*
D17*
X151765000Y-72390000D03*
X151765000Y-74930000D03*
D18*
X180340000Y-120015000D03*
D17*
X182880000Y-120015000D03*
X185420000Y-120015000D03*
X148590000Y-73660000D03*
X148590000Y-76200000D03*
X169545000Y-73660000D03*
X169545000Y-76200000D03*
D19*
X151130000Y-78740000D03*
X151130000Y-81280000D03*
X151130000Y-83820000D03*
X151130000Y-86360000D03*
X151130000Y-88900000D03*
X151130000Y-91440000D03*
X151130000Y-93980000D03*
X151130000Y-96520000D03*
X151130000Y-99060000D03*
X151130000Y-101600000D03*
X151130000Y-104140000D03*
X151130000Y-106680000D03*
X151130000Y-109220000D03*
X151130000Y-111760000D03*
X166370000Y-111760000D03*
X166370000Y-109220000D03*
X166370000Y-106680000D03*
X166370000Y-104140000D03*
X166370000Y-101600000D03*
X166370000Y-99060000D03*
X166370000Y-96520000D03*
X166370000Y-93980000D03*
X166370000Y-91440000D03*
X166370000Y-88900000D03*
X166370000Y-86360000D03*
X166370000Y-83820000D03*
X166370000Y-81280000D03*
X166370000Y-78740000D03*
D20*
X171450000Y-119380000D03*
X168910000Y-119380000D03*
X173990000Y-119380000D03*
X148590000Y-119380000D03*
X146050000Y-119380000D03*
X151130000Y-119380000D03*
D11*
X168910000Y-95250000D03*
D12*
X171410000Y-95250000D03*
D11*
X173990000Y-95250000D03*
D12*
X176490000Y-95250000D03*
D11*
X173355000Y-78105000D03*
D12*
X173355000Y-75605000D03*
D11*
X173355000Y-80645000D03*
D12*
X173355000Y-83145000D03*
D14*
X184785000Y-75565000D03*
X182245000Y-75565000D03*
X179705000Y-75565000D03*
X177165000Y-75565000D03*
X177165000Y-83185000D03*
X179705000Y-83185000D03*
X182245000Y-83185000D03*
X184785000Y-83185000D03*
X153670000Y-91440000D03*
X153670000Y-93980000D03*
X153670000Y-96520000D03*
X153670000Y-99060000D03*
X153670000Y-101600000D03*
X153670000Y-104140000D03*
X153670000Y-106680000D03*
X153670000Y-109220000D03*
X161290000Y-109220000D03*
X161290000Y-106680000D03*
X161290000Y-104140000D03*
X161290000Y-101600000D03*
X161290000Y-99060000D03*
X161290000Y-96520000D03*
X161290000Y-93980000D03*
X161290000Y-91440000D03*
D13*
X186690000Y-93980000D03*
X186690000Y-91440000D03*
X179070000Y-93980000D03*
X179070000Y-91440000D03*
D11*
X187960000Y-80645000D03*
D12*
X187960000Y-78145000D03*
D11*
X158750000Y-88900000D03*
D12*
X156250000Y-88900000D03*
D11*
X184150000Y-93980000D03*
D12*
X181650000Y-93980000D03*
D18*
X162560000Y-120015000D03*
D17*
X160020000Y-120015000D03*
X157480000Y-120015000D03*
D16*
X175260000Y-88265000D03*
X172720000Y-85725000D03*
X172720000Y-90805000D03*
X185420000Y-88265000D03*
X182880000Y-85725000D03*
X182880000Y-90805000D03*
D18*
X172720000Y-72390000D03*
D21*
X172720000Y-69850000D03*
X175260000Y-72390000D03*
X175260000Y-69850000D03*
X177800000Y-72390000D03*
X177800000Y-69850000D03*
X180340000Y-72390000D03*
X180340000Y-69850000D03*
X182880000Y-72390000D03*
X182880000Y-69850000D03*
X185420000Y-72390000D03*
X185420000Y-69850000D03*
X187960000Y-72390000D03*
X187960000Y-69850000D03*
M02*
