M48
;DRILL file {KiCad 4.0.0-rc2-stable} date 15.04.2016 14:18:49
;FORMAT={-:-/ absolute / inch / decimal}
FMAT,2
INCH,TZ
T1C0.016
T2C0.024
T3C0.031
T4C0.032
T5C0.032
T6C0.040
T7C0.045
%
G90
G05
M72
T1
X5.121Y-2.6878
X5.2245Y-3.0994
X5.3Y-4.5797
X5.3625Y-3.07
X5.3625Y-3.1025
X5.4693Y-3.541
X5.491Y-4.1
X5.5257Y-3.0002
X5.5508Y-3.1641
X5.5508Y-4.556
X5.6171Y-3.1956
X5.675Y-3.16
X5.7376Y-3.1062
X5.793Y-3.452
X5.8018Y-3.6743
X5.96Y-4.49
X6.1532Y-3.0517
X6.1845Y-3.8298
X6.2112Y-3.7753
X6.2128Y-4.1218
X6.24Y-3.8
X6.2806Y-3.798
X6.3915Y-4.5655
X6.405Y-3.76
X6.595Y-3.0425
X6.8378Y-3.9015
T2
X6.65Y-4.4
X6.7Y-4.4
X6.75Y-4.4
X6.85Y-4.4
X6.9Y-4.4
X6.95Y-4.4
T3
X5.15Y-3.2
X5.15Y-3.3
X5.15Y-3.4
X5.15Y-3.5
X5.15Y-3.6
X5.15Y-3.7
X5.15Y-3.8
X5.15Y-3.9
X5.15Y-4.
X5.15Y-4.1
X5.15Y-4.2
X5.15Y-4.3
X5.15Y-4.4
X5.15Y-4.5
X5.3Y-3.4
X5.3Y-3.5
X5.3Y-3.6
X5.3Y-3.7
X5.3Y-3.8
X5.3Y-3.9
X5.3Y-4.
X5.3Y-4.1
X5.3Y-4.2
X5.3Y-4.3
X5.3Y-4.4
X5.4Y-3.3
X5.5Y-3.4
X5.6Y-3.3
X5.6Y-3.5
X5.6Y-3.6
X5.6Y-3.7
X5.6Y-3.8
X5.6Y-3.9
X5.6Y-4.
X5.6Y-4.1
X5.6Y-4.2
X5.6Y-4.3
X5.6Y-4.4
X5.6Y-4.775
X5.75Y-3.2
X5.75Y-3.3
X5.75Y-3.4
X5.75Y-3.5
X5.75Y-3.6
X5.75Y-3.7
X5.75Y-3.8
X5.75Y-3.9
X5.75Y-4.
X5.75Y-4.1
X5.75Y-4.2
X5.75Y-4.3
X5.75Y-4.4
X5.75Y-4.5
X5.85Y-3.2
X5.85Y-3.3
X5.85Y-3.4
X5.85Y-3.5
X5.85Y-3.6
X5.85Y-3.7
X5.85Y-3.8
X5.85Y-3.9
X5.85Y-4.
X5.85Y-4.1
X5.85Y-4.2
X5.85Y-4.3
X5.85Y-4.4
X5.85Y-4.5
X6.Y-4.775
X6.05Y-3.3
X6.05Y-3.4
X6.05Y-3.5
X6.05Y-3.6
X6.05Y-3.7
X6.05Y-3.8
X6.05Y-3.9
X6.05Y-4.
X6.05Y-4.1
X6.05Y-4.2
X6.15Y-4.675
X6.25Y-3.3
X6.35Y-3.4
X6.35Y-3.5
X6.35Y-3.6
X6.35Y-3.7
X6.35Y-3.8
X6.35Y-3.9
X6.35Y-4.
X6.35Y-4.1
X6.35Y-4.2
X6.45Y-3.2
X6.45Y-3.3
X6.45Y-3.4
X6.45Y-3.5
X6.45Y-3.6
X6.45Y-3.7
X6.45Y-3.8
X6.45Y-3.9
X6.45Y-4.
X6.45Y-4.1
X6.45Y-4.2
X6.45Y-4.3
X6.45Y-4.4
X6.45Y-4.5
X6.45Y-4.675
X6.6266Y-4.6
X6.65Y-3.3
X6.65Y-3.4
X6.65Y-3.5
X6.65Y-3.6
X6.65Y-4.05
X6.65Y-4.25
X6.725Y-4.6
X6.75Y-3.15
X6.75Y-3.75
X6.85Y-3.05
X6.85Y-4.05
X6.85Y-4.25
X6.8766Y-4.6
X6.95Y-3.3
X6.95Y-3.4
X6.95Y-3.5
X6.95Y-3.6
X6.95Y-3.75
X6.975Y-4.6
T4
X5.3016Y-3.3
X5.3984Y-3.4
X5.5016Y-3.3
X5.5984Y-3.4
X5.6Y-4.6766
X6.Y-4.6766
X6.1484Y-3.3
X6.1484Y-3.4
X6.2484Y-4.675
X6.2516Y-3.4
X6.3484Y-3.3
X6.3516Y-4.675
X6.65Y-4.1516
X6.6516Y-3.75
X6.7484Y-4.05
X6.75Y-3.0516
X6.85Y-3.1484
X6.85Y-4.1516
X6.8516Y-3.75
X6.9484Y-4.05
T5
X5.6Y-2.75
X5.6Y-2.85
X5.6Y-2.95
X5.75Y-2.75
X5.75Y-2.85
X5.75Y-2.95
X5.75Y-3.05
X6.05Y-4.3
X6.05Y-4.4
X6.3Y-2.75
X6.3Y-2.85
X6.3Y-2.95
X6.35Y-4.3
X6.35Y-4.4
X6.45Y-2.75
X6.45Y-2.85
X6.45Y-2.95
X6.45Y-3.05
X6.65Y-3.05
X6.65Y-3.15
X6.65Y-3.85
X6.65Y-3.95
X6.75Y-3.85
X6.75Y-3.95
X6.75Y-4.15
X6.75Y-4.25
X6.85Y-3.85
X6.85Y-3.95
X6.95Y-3.05
X6.95Y-3.15
X6.95Y-3.85
X6.95Y-3.95
X6.95Y-4.15
X6.95Y-4.25
T6
X5.1Y-4.775
X5.15Y-2.75
X5.15Y-2.85
X5.15Y-2.95
X5.2Y-4.775
X5.25Y-2.75
X5.25Y-2.85
X5.25Y-2.95
X5.3Y-4.775
X5.35Y-2.75
X5.35Y-2.85
X5.35Y-2.95
X5.4Y-4.775
X5.45Y-2.75
X5.45Y-2.85
X5.45Y-2.95
X5.5Y-4.775
X5.7Y-4.65
X5.8Y-4.65
X5.85Y-2.75
X5.85Y-2.85
X5.85Y-2.95
X5.9Y-4.65
X5.95Y-2.75
X5.95Y-2.85
X5.95Y-2.95
X5.95Y-3.1
X5.95Y-3.2
X5.95Y-3.3
X5.95Y-3.4
X5.95Y-3.5
X5.95Y-3.6
X5.95Y-3.7
X5.95Y-3.8
X5.95Y-3.9
X5.95Y-4.
X5.95Y-4.1
X5.95Y-4.2
X5.95Y-4.3
X5.95Y-4.4
X6.05Y-2.75
X6.05Y-2.85
X6.05Y-2.95
X6.15Y-2.75
X6.15Y-2.85
X6.15Y-2.95
X6.55Y-2.75
X6.55Y-2.85
X6.55Y-3.1
X6.55Y-3.2
X6.55Y-3.3
X6.55Y-3.4
X6.55Y-3.5
X6.55Y-3.6
X6.55Y-3.7
X6.55Y-3.8
X6.55Y-3.9
X6.55Y-4.
X6.55Y-4.1
X6.55Y-4.2
X6.55Y-4.3
X6.55Y-4.4
X6.6Y-2.95
X6.65Y-2.75
X6.65Y-2.85
X6.7Y-2.95
X6.7Y-4.775
X6.75Y-2.75
X6.75Y-2.85
X6.8Y-2.95
X6.8Y-4.775
X6.85Y-2.75
X6.85Y-2.85
X6.9Y-2.95
X6.9Y-4.775
X6.95Y-2.75
X6.95Y-2.85
T7
X5.7Y-4.775
X5.8Y-4.775
X5.9Y-4.775
X6.2Y-4.775
X6.3Y-4.775
X6.4Y-4.775
T0
M30
