G04 #@! TF.FileFunction,Legend,Top*
%FSLAX46Y46*%
G04 Gerber Fmt 4.6, Leading zero omitted, Abs format (unit mm)*
G04 Created by KiCad (PCBNEW 4.0.0-rc2-stable) date 04.05.2016 11:16:23*
%MOMM*%
G01*
G04 APERTURE LIST*
%ADD10C,0.100000*%
%ADD11C,0.150000*%
%ADD12R,1.700000X1.700000*%
%ADD13C,1.700000*%
%ADD14C,1.797000*%
%ADD15O,2.000000X2.000000*%
%ADD16O,1.299160X1.901140*%
%ADD17C,1.924000*%
%ADD18C,2.127200*%
%ADD19R,2.127200X2.127200*%
%ADD20C,2.000000*%
%ADD21O,2.432000X2.940000*%
%ADD22O,2.127200X2.127200*%
G04 APERTURE END LIST*
D10*
D11*
X129371286Y-109651142D02*
X128871286Y-109651142D01*
X128942714Y-109651142D02*
X128907000Y-109615427D01*
X128871286Y-109543999D01*
X128871286Y-109436856D01*
X128907000Y-109365427D01*
X128978429Y-109329713D01*
X129371286Y-109329713D01*
X128978429Y-109329713D02*
X128907000Y-109293999D01*
X128871286Y-109222570D01*
X128871286Y-109115427D01*
X128907000Y-109043999D01*
X128978429Y-109008284D01*
X129371286Y-109008284D01*
X129371286Y-108651142D02*
X128871286Y-108651142D01*
X128621286Y-108651142D02*
X128657000Y-108686856D01*
X128692714Y-108651142D01*
X128657000Y-108615427D01*
X128621286Y-108651142D01*
X128692714Y-108651142D01*
X129371286Y-108365427D02*
X128871286Y-107972570D01*
X128871286Y-108365427D02*
X129371286Y-107972570D01*
X129335571Y-107722570D02*
X129371286Y-107651141D01*
X129371286Y-107508284D01*
X129335571Y-107436856D01*
X129264143Y-107401141D01*
X129228429Y-107401141D01*
X129157000Y-107436856D01*
X129121286Y-107508284D01*
X129121286Y-107615427D01*
X129085571Y-107686856D01*
X129014143Y-107722570D01*
X128978429Y-107722570D01*
X128907000Y-107686856D01*
X128871286Y-107615427D01*
X128871286Y-107508284D01*
X128907000Y-107436856D01*
X129371286Y-107079713D02*
X128871286Y-107079713D01*
X128621286Y-107079713D02*
X128657000Y-107115427D01*
X128692714Y-107079713D01*
X128657000Y-107043998D01*
X128621286Y-107079713D01*
X128692714Y-107079713D01*
X129371286Y-106401141D02*
X128621286Y-106401141D01*
X129335571Y-106401141D02*
X129371286Y-106472570D01*
X129371286Y-106615427D01*
X129335571Y-106686855D01*
X129299857Y-106722570D01*
X129228429Y-106758284D01*
X129014143Y-106758284D01*
X128942714Y-106722570D01*
X128907000Y-106686855D01*
X128871286Y-106615427D01*
X128871286Y-106472570D01*
X128907000Y-106401141D01*
X128871286Y-105472570D02*
X129621286Y-105472570D01*
X128907000Y-105472570D02*
X128871286Y-105401141D01*
X128871286Y-105258284D01*
X128907000Y-105186855D01*
X128942714Y-105151141D01*
X129014143Y-105115427D01*
X129228429Y-105115427D01*
X129299857Y-105151141D01*
X129335571Y-105186855D01*
X129371286Y-105258284D01*
X129371286Y-105401141D01*
X129335571Y-105472570D01*
X129371286Y-104793999D02*
X128871286Y-104793999D01*
X129014143Y-104793999D02*
X128942714Y-104758284D01*
X128907000Y-104722570D01*
X128871286Y-104651141D01*
X128871286Y-104579713D01*
X129371286Y-104222570D02*
X129335571Y-104293998D01*
X129299857Y-104329713D01*
X129228429Y-104365427D01*
X129014143Y-104365427D01*
X128942714Y-104329713D01*
X128907000Y-104293998D01*
X128871286Y-104222570D01*
X128871286Y-104115427D01*
X128907000Y-104043998D01*
X128942714Y-104008284D01*
X129014143Y-103972570D01*
X129228429Y-103972570D01*
X129299857Y-104008284D01*
X129335571Y-104043998D01*
X129371286Y-104115427D01*
X129371286Y-104222570D01*
X128871286Y-103758284D02*
X128871286Y-103472570D01*
X128621286Y-103651142D02*
X129264143Y-103651142D01*
X129335571Y-103615427D01*
X129371286Y-103543999D01*
X129371286Y-103472570D01*
X129371286Y-103115428D02*
X129335571Y-103186856D01*
X129299857Y-103222571D01*
X129228429Y-103258285D01*
X129014143Y-103258285D01*
X128942714Y-103222571D01*
X128907000Y-103186856D01*
X128871286Y-103115428D01*
X128871286Y-103008285D01*
X128907000Y-102936856D01*
X128942714Y-102901142D01*
X129014143Y-102865428D01*
X129228429Y-102865428D01*
X129299857Y-102901142D01*
X129335571Y-102936856D01*
X129371286Y-103008285D01*
X129371286Y-103115428D01*
X128871286Y-102651142D02*
X128871286Y-102365428D01*
X128621286Y-102544000D02*
X129264143Y-102544000D01*
X129335571Y-102508285D01*
X129371286Y-102436857D01*
X129371286Y-102365428D01*
X128871286Y-102186857D02*
X129371286Y-102008286D01*
X128871286Y-101829714D02*
X129371286Y-102008286D01*
X129549857Y-102079714D01*
X129585571Y-102115429D01*
X129621286Y-102186857D01*
X128871286Y-101544000D02*
X129621286Y-101544000D01*
X128907000Y-101544000D02*
X128871286Y-101472571D01*
X128871286Y-101329714D01*
X128907000Y-101258285D01*
X128942714Y-101222571D01*
X129014143Y-101186857D01*
X129228429Y-101186857D01*
X129299857Y-101222571D01*
X129335571Y-101258285D01*
X129371286Y-101329714D01*
X129371286Y-101472571D01*
X129335571Y-101544000D01*
X129335571Y-100579714D02*
X129371286Y-100651143D01*
X129371286Y-100794000D01*
X129335571Y-100865429D01*
X129264143Y-100901143D01*
X128978429Y-100901143D01*
X128907000Y-100865429D01*
X128871286Y-100794000D01*
X128871286Y-100651143D01*
X128907000Y-100579714D01*
X128978429Y-100544000D01*
X129049857Y-100544000D01*
X129121286Y-100901143D01*
X128621286Y-99722571D02*
X128621286Y-99258285D01*
X128907000Y-99508285D01*
X128907000Y-99401143D01*
X128942714Y-99329714D01*
X128978429Y-99294000D01*
X129049857Y-99258285D01*
X129228429Y-99258285D01*
X129299857Y-99294000D01*
X129335571Y-99329714D01*
X129371286Y-99401143D01*
X129371286Y-99615428D01*
X129335571Y-99686857D01*
X129299857Y-99722571D01*
X129371286Y-98936857D02*
X128871286Y-98936857D01*
X129014143Y-98936857D02*
X128942714Y-98901142D01*
X128907000Y-98865428D01*
X128871286Y-98793999D01*
X128871286Y-98722571D01*
X129371286Y-98151142D02*
X128621286Y-98151142D01*
X129335571Y-98151142D02*
X129371286Y-98222571D01*
X129371286Y-98365428D01*
X129335571Y-98436856D01*
X129299857Y-98472571D01*
X129228429Y-98508285D01*
X129014143Y-98508285D01*
X128942714Y-98472571D01*
X128907000Y-98436856D01*
X128871286Y-98365428D01*
X128871286Y-98222571D01*
X128907000Y-98151142D01*
X129371286Y-97222571D02*
X128871286Y-97222571D01*
X129014143Y-97222571D02*
X128942714Y-97186856D01*
X128907000Y-97151142D01*
X128871286Y-97079713D01*
X128871286Y-97008285D01*
X129335571Y-96472570D02*
X129371286Y-96543999D01*
X129371286Y-96686856D01*
X129335571Y-96758285D01*
X129264143Y-96793999D01*
X128978429Y-96793999D01*
X128907000Y-96758285D01*
X128871286Y-96686856D01*
X128871286Y-96543999D01*
X128907000Y-96472570D01*
X128978429Y-96436856D01*
X129049857Y-96436856D01*
X129121286Y-96793999D01*
X128871286Y-96186856D02*
X129371286Y-96008285D01*
X128871286Y-95829713D01*
X129371286Y-95543999D02*
X128871286Y-95543999D01*
X128621286Y-95543999D02*
X128657000Y-95579713D01*
X128692714Y-95543999D01*
X128657000Y-95508284D01*
X128621286Y-95543999D01*
X128692714Y-95543999D01*
X129335571Y-95222570D02*
X129371286Y-95151141D01*
X129371286Y-95008284D01*
X129335571Y-94936856D01*
X129264143Y-94901141D01*
X129228429Y-94901141D01*
X129157000Y-94936856D01*
X129121286Y-95008284D01*
X129121286Y-95115427D01*
X129085571Y-95186856D01*
X129014143Y-95222570D01*
X128978429Y-95222570D01*
X128907000Y-95186856D01*
X128871286Y-95115427D01*
X128871286Y-95008284D01*
X128907000Y-94936856D01*
X129371286Y-94579713D02*
X128871286Y-94579713D01*
X128621286Y-94579713D02*
X128657000Y-94615427D01*
X128692714Y-94579713D01*
X128657000Y-94543998D01*
X128621286Y-94579713D01*
X128692714Y-94579713D01*
X129371286Y-94115427D02*
X129335571Y-94186855D01*
X129299857Y-94222570D01*
X129228429Y-94258284D01*
X129014143Y-94258284D01*
X128942714Y-94222570D01*
X128907000Y-94186855D01*
X128871286Y-94115427D01*
X128871286Y-94008284D01*
X128907000Y-93936855D01*
X128942714Y-93901141D01*
X129014143Y-93865427D01*
X129228429Y-93865427D01*
X129299857Y-93901141D01*
X129335571Y-93936855D01*
X129371286Y-94008284D01*
X129371286Y-94115427D01*
X128871286Y-93543999D02*
X129371286Y-93543999D01*
X128942714Y-93543999D02*
X128907000Y-93508284D01*
X128871286Y-93436856D01*
X128871286Y-93329713D01*
X128907000Y-93258284D01*
X128978429Y-93222570D01*
X129371286Y-93222570D01*
X129371286Y-92293999D02*
X128621286Y-92293999D01*
X128907000Y-92293999D02*
X128871286Y-92222570D01*
X128871286Y-92079713D01*
X128907000Y-92008284D01*
X128942714Y-91972570D01*
X129014143Y-91936856D01*
X129228429Y-91936856D01*
X129299857Y-91972570D01*
X129335571Y-92008284D01*
X129371286Y-92079713D01*
X129371286Y-92222570D01*
X129335571Y-92293999D01*
X128871286Y-91686856D02*
X129371286Y-91508285D01*
X128871286Y-91329713D02*
X129371286Y-91508285D01*
X129549857Y-91579713D01*
X129585571Y-91615428D01*
X129621286Y-91686856D01*
X129371286Y-90472570D02*
X128621286Y-90472570D01*
X129371286Y-90151141D02*
X128978429Y-90151141D01*
X128907000Y-90186855D01*
X128871286Y-90258284D01*
X128871286Y-90365427D01*
X128907000Y-90436855D01*
X128942714Y-90472570D01*
X129335571Y-89508284D02*
X129371286Y-89579713D01*
X129371286Y-89722570D01*
X129335571Y-89793999D01*
X129264143Y-89829713D01*
X128978429Y-89829713D01*
X128907000Y-89793999D01*
X128871286Y-89722570D01*
X128871286Y-89579713D01*
X128907000Y-89508284D01*
X128978429Y-89472570D01*
X129049857Y-89472570D01*
X129121286Y-89829713D01*
X128871286Y-89151142D02*
X129371286Y-89151142D01*
X128942714Y-89151142D02*
X128907000Y-89115427D01*
X128871286Y-89043999D01*
X128871286Y-88936856D01*
X128907000Y-88865427D01*
X128978429Y-88829713D01*
X129371286Y-88829713D01*
X128871286Y-88472571D02*
X129371286Y-88472571D01*
X128942714Y-88472571D02*
X128907000Y-88436856D01*
X128871286Y-88365428D01*
X128871286Y-88258285D01*
X128907000Y-88186856D01*
X128978429Y-88151142D01*
X129371286Y-88151142D01*
X129371286Y-87794000D02*
X128871286Y-87794000D01*
X128621286Y-87794000D02*
X128657000Y-87829714D01*
X128692714Y-87794000D01*
X128657000Y-87758285D01*
X128621286Y-87794000D01*
X128692714Y-87794000D01*
X128871286Y-87436857D02*
X129371286Y-87436857D01*
X128942714Y-87436857D02*
X128907000Y-87401142D01*
X128871286Y-87329714D01*
X128871286Y-87222571D01*
X128907000Y-87151142D01*
X128978429Y-87115428D01*
X129371286Y-87115428D01*
X128871286Y-86436857D02*
X129478429Y-86436857D01*
X129549857Y-86472571D01*
X129585571Y-86508286D01*
X129621286Y-86579714D01*
X129621286Y-86686857D01*
X129585571Y-86758286D01*
X129335571Y-86436857D02*
X129371286Y-86508286D01*
X129371286Y-86651143D01*
X129335571Y-86722571D01*
X129299857Y-86758286D01*
X129228429Y-86794000D01*
X129014143Y-86794000D01*
X128942714Y-86758286D01*
X128907000Y-86722571D01*
X128871286Y-86651143D01*
X128871286Y-86508286D01*
X128907000Y-86436857D01*
X156323571Y-121993429D02*
X156430714Y-122029143D01*
X156466429Y-122064857D01*
X156502143Y-122136286D01*
X156502143Y-122243429D01*
X156466429Y-122314857D01*
X156430714Y-122350571D01*
X156359286Y-122386286D01*
X156073571Y-122386286D01*
X156073571Y-121636286D01*
X156323571Y-121636286D01*
X156395000Y-121672000D01*
X156430714Y-121707714D01*
X156466429Y-121779143D01*
X156466429Y-121850571D01*
X156430714Y-121922000D01*
X156395000Y-121957714D01*
X156323571Y-121993429D01*
X156073571Y-121993429D01*
X156966429Y-121636286D02*
X157109286Y-121636286D01*
X157180714Y-121672000D01*
X157252143Y-121743429D01*
X157287857Y-121886286D01*
X157287857Y-122136286D01*
X157252143Y-122279143D01*
X157180714Y-122350571D01*
X157109286Y-122386286D01*
X156966429Y-122386286D01*
X156895000Y-122350571D01*
X156823571Y-122279143D01*
X156787857Y-122136286D01*
X156787857Y-121886286D01*
X156823571Y-121743429D01*
X156895000Y-121672000D01*
X156966429Y-121636286D01*
X157573571Y-122172000D02*
X157930714Y-122172000D01*
X157502143Y-122386286D02*
X157752143Y-121636286D01*
X158002143Y-122386286D01*
X158680714Y-122386286D02*
X158430714Y-122029143D01*
X158252142Y-122386286D02*
X158252142Y-121636286D01*
X158537857Y-121636286D01*
X158609285Y-121672000D01*
X158645000Y-121707714D01*
X158680714Y-121779143D01*
X158680714Y-121886286D01*
X158645000Y-121957714D01*
X158609285Y-121993429D01*
X158537857Y-122029143D01*
X158252142Y-122029143D01*
X159002142Y-122386286D02*
X159002142Y-121636286D01*
X159180714Y-121636286D01*
X159287857Y-121672000D01*
X159359285Y-121743429D01*
X159395000Y-121814857D01*
X159430714Y-121957714D01*
X159430714Y-122064857D01*
X159395000Y-122207714D01*
X159359285Y-122279143D01*
X159287857Y-122350571D01*
X159180714Y-122386286D01*
X159002142Y-122386286D01*
X160287857Y-122350571D02*
X160395000Y-122386286D01*
X160573571Y-122386286D01*
X160645000Y-122350571D01*
X160680714Y-122314857D01*
X160716429Y-122243429D01*
X160716429Y-122172000D01*
X160680714Y-122100571D01*
X160645000Y-122064857D01*
X160573571Y-122029143D01*
X160430714Y-121993429D01*
X160359286Y-121957714D01*
X160323571Y-121922000D01*
X160287857Y-121850571D01*
X160287857Y-121779143D01*
X160323571Y-121707714D01*
X160359286Y-121672000D01*
X160430714Y-121636286D01*
X160609286Y-121636286D01*
X160716429Y-121672000D01*
X161037857Y-121993429D02*
X161287857Y-121993429D01*
X161395000Y-122386286D02*
X161037857Y-122386286D01*
X161037857Y-121636286D01*
X161395000Y-121636286D01*
X162073571Y-122386286D02*
X161716428Y-122386286D01*
X161716428Y-121636286D01*
X162323571Y-121993429D02*
X162573571Y-121993429D01*
X162680714Y-122386286D02*
X162323571Y-122386286D01*
X162323571Y-121636286D01*
X162680714Y-121636286D01*
X163430714Y-122314857D02*
X163395000Y-122350571D01*
X163287857Y-122386286D01*
X163216428Y-122386286D01*
X163109285Y-122350571D01*
X163037857Y-122279143D01*
X163002142Y-122207714D01*
X162966428Y-122064857D01*
X162966428Y-121957714D01*
X163002142Y-121814857D01*
X163037857Y-121743429D01*
X163109285Y-121672000D01*
X163216428Y-121636286D01*
X163287857Y-121636286D01*
X163395000Y-121672000D01*
X163430714Y-121707714D01*
X163645000Y-121636286D02*
X164073571Y-121636286D01*
X163859285Y-122386286D02*
X163859285Y-121636286D01*
X187041286Y-89441571D02*
X187791286Y-89191571D01*
X187041286Y-88941571D01*
X187041286Y-88548714D02*
X187041286Y-88405857D01*
X187077000Y-88334429D01*
X187148429Y-88263000D01*
X187291286Y-88227286D01*
X187541286Y-88227286D01*
X187684143Y-88263000D01*
X187755571Y-88334429D01*
X187791286Y-88405857D01*
X187791286Y-88548714D01*
X187755571Y-88620143D01*
X187684143Y-88691572D01*
X187541286Y-88727286D01*
X187291286Y-88727286D01*
X187148429Y-88691572D01*
X187077000Y-88620143D01*
X187041286Y-88548714D01*
X187791286Y-87548715D02*
X187791286Y-87905858D01*
X187041286Y-87905858D01*
X187791286Y-86905857D02*
X187791286Y-87334429D01*
X187791286Y-87120143D02*
X187041286Y-87120143D01*
X187148429Y-87191572D01*
X187219857Y-87263000D01*
X187255571Y-87334429D01*
X176881286Y-89441571D02*
X177631286Y-89191571D01*
X176881286Y-88941571D01*
X176881286Y-88548714D02*
X176881286Y-88405857D01*
X176917000Y-88334429D01*
X176988429Y-88263000D01*
X177131286Y-88227286D01*
X177381286Y-88227286D01*
X177524143Y-88263000D01*
X177595571Y-88334429D01*
X177631286Y-88405857D01*
X177631286Y-88548714D01*
X177595571Y-88620143D01*
X177524143Y-88691572D01*
X177381286Y-88727286D01*
X177131286Y-88727286D01*
X176988429Y-88691572D01*
X176917000Y-88620143D01*
X176881286Y-88548714D01*
X177631286Y-87548715D02*
X177631286Y-87905858D01*
X176881286Y-87905858D01*
X176952714Y-87334429D02*
X176917000Y-87298715D01*
X176881286Y-87227286D01*
X176881286Y-87048715D01*
X176917000Y-86977286D01*
X176952714Y-86941572D01*
X177024143Y-86905857D01*
X177095571Y-86905857D01*
X177202714Y-86941572D01*
X177631286Y-87370143D01*
X177631286Y-86905857D01*
X147268571Y-121255286D02*
X147768571Y-121255286D01*
X147447142Y-122005286D01*
X148161428Y-121576714D02*
X148090000Y-121541000D01*
X148054285Y-121505286D01*
X148018571Y-121433857D01*
X148018571Y-121398143D01*
X148054285Y-121326714D01*
X148090000Y-121291000D01*
X148161428Y-121255286D01*
X148304285Y-121255286D01*
X148375714Y-121291000D01*
X148411428Y-121326714D01*
X148447143Y-121398143D01*
X148447143Y-121433857D01*
X148411428Y-121505286D01*
X148375714Y-121541000D01*
X148304285Y-121576714D01*
X148161428Y-121576714D01*
X148090000Y-121612429D01*
X148054285Y-121648143D01*
X148018571Y-121719571D01*
X148018571Y-121862429D01*
X148054285Y-121933857D01*
X148090000Y-121969571D01*
X148161428Y-122005286D01*
X148304285Y-122005286D01*
X148375714Y-121969571D01*
X148411428Y-121933857D01*
X148447143Y-121862429D01*
X148447143Y-121719571D01*
X148411428Y-121648143D01*
X148375714Y-121612429D01*
X148304285Y-121576714D01*
X148911429Y-121255286D02*
X148982857Y-121255286D01*
X149054286Y-121291000D01*
X149090000Y-121326714D01*
X149125714Y-121398143D01*
X149161429Y-121541000D01*
X149161429Y-121719571D01*
X149125714Y-121862429D01*
X149090000Y-121933857D01*
X149054286Y-121969571D01*
X148982857Y-122005286D01*
X148911429Y-122005286D01*
X148840000Y-121969571D01*
X148804286Y-121933857D01*
X148768571Y-121862429D01*
X148732857Y-121719571D01*
X148732857Y-121541000D01*
X148768571Y-121398143D01*
X148804286Y-121326714D01*
X148840000Y-121291000D01*
X148911429Y-121255286D01*
X149518572Y-122005286D02*
X149661429Y-122005286D01*
X149732857Y-121969571D01*
X149768572Y-121933857D01*
X149840000Y-121826714D01*
X149875715Y-121683857D01*
X149875715Y-121398143D01*
X149840000Y-121326714D01*
X149804286Y-121291000D01*
X149732857Y-121255286D01*
X149590000Y-121255286D01*
X149518572Y-121291000D01*
X149482857Y-121326714D01*
X149447143Y-121398143D01*
X149447143Y-121576714D01*
X149482857Y-121648143D01*
X149518572Y-121683857D01*
X149590000Y-121719571D01*
X149732857Y-121719571D01*
X149804286Y-121683857D01*
X149840000Y-121648143D01*
X149875715Y-121576714D01*
X170128571Y-121255286D02*
X170628571Y-121255286D01*
X170307142Y-122005286D01*
X171021428Y-121576714D02*
X170950000Y-121541000D01*
X170914285Y-121505286D01*
X170878571Y-121433857D01*
X170878571Y-121398143D01*
X170914285Y-121326714D01*
X170950000Y-121291000D01*
X171021428Y-121255286D01*
X171164285Y-121255286D01*
X171235714Y-121291000D01*
X171271428Y-121326714D01*
X171307143Y-121398143D01*
X171307143Y-121433857D01*
X171271428Y-121505286D01*
X171235714Y-121541000D01*
X171164285Y-121576714D01*
X171021428Y-121576714D01*
X170950000Y-121612429D01*
X170914285Y-121648143D01*
X170878571Y-121719571D01*
X170878571Y-121862429D01*
X170914285Y-121933857D01*
X170950000Y-121969571D01*
X171021428Y-122005286D01*
X171164285Y-122005286D01*
X171235714Y-121969571D01*
X171271428Y-121933857D01*
X171307143Y-121862429D01*
X171307143Y-121719571D01*
X171271428Y-121648143D01*
X171235714Y-121612429D01*
X171164285Y-121576714D01*
X172021429Y-122005286D02*
X171592857Y-122005286D01*
X171807143Y-122005286D02*
X171807143Y-121255286D01*
X171735714Y-121362429D01*
X171664286Y-121433857D01*
X171592857Y-121469571D01*
X172307143Y-121326714D02*
X172342857Y-121291000D01*
X172414286Y-121255286D01*
X172592857Y-121255286D01*
X172664286Y-121291000D01*
X172700000Y-121326714D01*
X172735715Y-121398143D01*
X172735715Y-121469571D01*
X172700000Y-121576714D01*
X172271429Y-122005286D01*
X172735715Y-122005286D01*
X130020857Y-121993429D02*
X130270857Y-121993429D01*
X130378000Y-122386286D02*
X130020857Y-122386286D01*
X130020857Y-121636286D01*
X130378000Y-121636286D01*
X130628000Y-121636286D02*
X131128000Y-122386286D01*
X131128000Y-121636286D02*
X130628000Y-122386286D01*
X131306572Y-121636286D02*
X131735143Y-121636286D01*
X131520857Y-122386286D02*
X131520857Y-121636286D01*
X131985143Y-121993429D02*
X132235143Y-121993429D01*
X132342286Y-122386286D02*
X131985143Y-122386286D01*
X131985143Y-121636286D01*
X132342286Y-121636286D01*
X133092286Y-122386286D02*
X132842286Y-122029143D01*
X132663714Y-122386286D02*
X132663714Y-121636286D01*
X132949429Y-121636286D01*
X133020857Y-121672000D01*
X133056572Y-121707714D01*
X133092286Y-121779143D01*
X133092286Y-121886286D01*
X133056572Y-121957714D01*
X133020857Y-121993429D01*
X132949429Y-122029143D01*
X132663714Y-122029143D01*
X133413714Y-122386286D02*
X133413714Y-121636286D01*
X133842286Y-122386286D01*
X133842286Y-121636286D01*
X134163714Y-122172000D02*
X134520857Y-122172000D01*
X134092286Y-122386286D02*
X134342286Y-121636286D01*
X134592286Y-122386286D01*
X135199428Y-122386286D02*
X134842285Y-122386286D01*
X134842285Y-121636286D01*
X135985143Y-122350571D02*
X136092286Y-122386286D01*
X136270857Y-122386286D01*
X136342286Y-122350571D01*
X136378000Y-122314857D01*
X136413715Y-122243429D01*
X136413715Y-122172000D01*
X136378000Y-122100571D01*
X136342286Y-122064857D01*
X136270857Y-122029143D01*
X136128000Y-121993429D01*
X136056572Y-121957714D01*
X136020857Y-121922000D01*
X135985143Y-121850571D01*
X135985143Y-121779143D01*
X136020857Y-121707714D01*
X136056572Y-121672000D01*
X136128000Y-121636286D01*
X136306572Y-121636286D01*
X136413715Y-121672000D01*
X136735143Y-122386286D02*
X136735143Y-121636286D01*
X137485144Y-121672000D02*
X137413715Y-121636286D01*
X137306572Y-121636286D01*
X137199429Y-121672000D01*
X137128001Y-121743429D01*
X137092286Y-121814857D01*
X137056572Y-121957714D01*
X137056572Y-122064857D01*
X137092286Y-122207714D01*
X137128001Y-122279143D01*
X137199429Y-122350571D01*
X137306572Y-122386286D01*
X137378001Y-122386286D01*
X137485144Y-122350571D01*
X137520858Y-122314857D01*
X137520858Y-122064857D01*
X137378001Y-122064857D01*
X137842286Y-122386286D02*
X137842286Y-121636286D01*
X138270858Y-122386286D01*
X138270858Y-121636286D01*
X138592286Y-122172000D02*
X138949429Y-122172000D01*
X138520858Y-122386286D02*
X138770858Y-121636286D01*
X139020858Y-122386286D01*
X139628000Y-122386286D02*
X139270857Y-122386286D01*
X139270857Y-121636286D01*
X139842286Y-122350571D02*
X139949429Y-122386286D01*
X140128000Y-122386286D01*
X140199429Y-122350571D01*
X140235143Y-122314857D01*
X140270858Y-122243429D01*
X140270858Y-122172000D01*
X140235143Y-122100571D01*
X140199429Y-122064857D01*
X140128000Y-122029143D01*
X139985143Y-121993429D01*
X139913715Y-121957714D01*
X139878000Y-121922000D01*
X139842286Y-121850571D01*
X139842286Y-121779143D01*
X139878000Y-121707714D01*
X139913715Y-121672000D01*
X139985143Y-121636286D01*
X140163715Y-121636286D01*
X140270858Y-121672000D01*
X187557143Y-120354286D02*
X187307143Y-119997143D01*
X187128571Y-120354286D02*
X187128571Y-119604286D01*
X187414286Y-119604286D01*
X187485714Y-119640000D01*
X187521429Y-119675714D01*
X187557143Y-119747143D01*
X187557143Y-119854286D01*
X187521429Y-119925714D01*
X187485714Y-119961429D01*
X187414286Y-119997143D01*
X187128571Y-119997143D01*
X178667143Y-120354286D02*
X178310000Y-120354286D01*
X178310000Y-119604286D01*
X180005000Y-122172000D02*
X180362143Y-122172000D01*
X179933572Y-122386286D02*
X180183572Y-121636286D01*
X180433572Y-122386286D01*
X180683571Y-121636286D02*
X180683571Y-122243429D01*
X180719286Y-122314857D01*
X180755000Y-122350571D01*
X180826429Y-122386286D01*
X180969286Y-122386286D01*
X181040714Y-122350571D01*
X181076429Y-122314857D01*
X181112143Y-122243429D01*
X181112143Y-121636286D01*
X181469285Y-122386286D02*
X181469285Y-121636286D01*
X181647857Y-121636286D01*
X181755000Y-121672000D01*
X181826428Y-121743429D01*
X181862143Y-121814857D01*
X181897857Y-121957714D01*
X181897857Y-122064857D01*
X181862143Y-122207714D01*
X181826428Y-122279143D01*
X181755000Y-122350571D01*
X181647857Y-122386286D01*
X181469285Y-122386286D01*
X182219285Y-122386286D02*
X182219285Y-121636286D01*
X182719286Y-121636286D02*
X182862143Y-121636286D01*
X182933571Y-121672000D01*
X183005000Y-121743429D01*
X183040714Y-121886286D01*
X183040714Y-122136286D01*
X183005000Y-122279143D01*
X182933571Y-122350571D01*
X182862143Y-122386286D01*
X182719286Y-122386286D01*
X182647857Y-122350571D01*
X182576428Y-122279143D01*
X182540714Y-122136286D01*
X182540714Y-121886286D01*
X182576428Y-121743429D01*
X182647857Y-121672000D01*
X182719286Y-121636286D01*
X184076429Y-121636286D02*
X184219286Y-121636286D01*
X184290714Y-121672000D01*
X184362143Y-121743429D01*
X184397857Y-121886286D01*
X184397857Y-122136286D01*
X184362143Y-122279143D01*
X184290714Y-122350571D01*
X184219286Y-122386286D01*
X184076429Y-122386286D01*
X184005000Y-122350571D01*
X183933571Y-122279143D01*
X183897857Y-122136286D01*
X183897857Y-121886286D01*
X183933571Y-121743429D01*
X184005000Y-121672000D01*
X184076429Y-121636286D01*
X184719285Y-121636286D02*
X184719285Y-122243429D01*
X184755000Y-122314857D01*
X184790714Y-122350571D01*
X184862143Y-122386286D01*
X185005000Y-122386286D01*
X185076428Y-122350571D01*
X185112143Y-122314857D01*
X185147857Y-122243429D01*
X185147857Y-121636286D01*
X185397857Y-121636286D02*
X185826428Y-121636286D01*
X185612142Y-122386286D02*
X185612142Y-121636286D01*
X168598571Y-78571286D02*
X168598571Y-77821286D01*
X169027143Y-78571286D01*
X169027143Y-77821286D01*
X169812857Y-78571286D02*
X169562857Y-78214143D01*
X169384285Y-78571286D02*
X169384285Y-77821286D01*
X169670000Y-77821286D01*
X169741428Y-77857000D01*
X169777143Y-77892714D01*
X169812857Y-77964143D01*
X169812857Y-78071286D01*
X169777143Y-78142714D01*
X169741428Y-78178429D01*
X169670000Y-78214143D01*
X169384285Y-78214143D01*
X170527143Y-78571286D02*
X170098571Y-78571286D01*
X170312857Y-78571286D02*
X170312857Y-77821286D01*
X170241428Y-77928429D01*
X170170000Y-77999857D01*
X170098571Y-78035571D01*
X147516571Y-78571286D02*
X147516571Y-77821286D01*
X147945143Y-78571286D01*
X147945143Y-77821286D01*
X148730857Y-78571286D02*
X148480857Y-78214143D01*
X148302285Y-78571286D02*
X148302285Y-77821286D01*
X148588000Y-77821286D01*
X148659428Y-77857000D01*
X148695143Y-77892714D01*
X148730857Y-77964143D01*
X148730857Y-78071286D01*
X148695143Y-78142714D01*
X148659428Y-78178429D01*
X148588000Y-78214143D01*
X148302285Y-78214143D01*
X149016571Y-77892714D02*
X149052285Y-77857000D01*
X149123714Y-77821286D01*
X149302285Y-77821286D01*
X149373714Y-77857000D01*
X149409428Y-77892714D01*
X149445143Y-77964143D01*
X149445143Y-78035571D01*
X149409428Y-78142714D01*
X148980857Y-78571286D01*
X149445143Y-78571286D01*
X128815714Y-76072858D02*
X128780000Y-76144286D01*
X128744286Y-76180001D01*
X128672857Y-76215715D01*
X128637143Y-76215715D01*
X128565714Y-76180001D01*
X128530000Y-76144286D01*
X128494286Y-76072858D01*
X128494286Y-75930001D01*
X128530000Y-75858572D01*
X128565714Y-75822858D01*
X128637143Y-75787143D01*
X128672857Y-75787143D01*
X128744286Y-75822858D01*
X128780000Y-75858572D01*
X128815714Y-75930001D01*
X128815714Y-76072858D01*
X128851429Y-76144286D01*
X128887143Y-76180001D01*
X128958571Y-76215715D01*
X129101429Y-76215715D01*
X129172857Y-76180001D01*
X129208571Y-76144286D01*
X129244286Y-76072858D01*
X129244286Y-75930001D01*
X129208571Y-75858572D01*
X129172857Y-75822858D01*
X129101429Y-75787143D01*
X128958571Y-75787143D01*
X128887143Y-75822858D01*
X128851429Y-75858572D01*
X128815714Y-75930001D01*
X128494286Y-75108572D02*
X128494286Y-75465715D01*
X128851429Y-75501429D01*
X128815714Y-75465715D01*
X128780000Y-75394286D01*
X128780000Y-75215715D01*
X128815714Y-75144286D01*
X128851429Y-75108572D01*
X128922857Y-75072857D01*
X129101429Y-75072857D01*
X129172857Y-75108572D01*
X129208571Y-75144286D01*
X129244286Y-75215715D01*
X129244286Y-75394286D01*
X129208571Y-75465715D01*
X129172857Y-75501429D01*
X128815714Y-74644286D02*
X128780000Y-74715714D01*
X128744286Y-74751429D01*
X128672857Y-74787143D01*
X128637143Y-74787143D01*
X128565714Y-74751429D01*
X128530000Y-74715714D01*
X128494286Y-74644286D01*
X128494286Y-74501429D01*
X128530000Y-74430000D01*
X128565714Y-74394286D01*
X128637143Y-74358571D01*
X128672857Y-74358571D01*
X128744286Y-74394286D01*
X128780000Y-74430000D01*
X128815714Y-74501429D01*
X128815714Y-74644286D01*
X128851429Y-74715714D01*
X128887143Y-74751429D01*
X128958571Y-74787143D01*
X129101429Y-74787143D01*
X129172857Y-74751429D01*
X129208571Y-74715714D01*
X129244286Y-74644286D01*
X129244286Y-74501429D01*
X129208571Y-74430000D01*
X129172857Y-74394286D01*
X129101429Y-74358571D01*
X128958571Y-74358571D01*
X128887143Y-74394286D01*
X128851429Y-74430000D01*
X128815714Y-74501429D01*
X128494286Y-73894285D02*
X128494286Y-73822857D01*
X128530000Y-73751428D01*
X128565714Y-73715714D01*
X128637143Y-73680000D01*
X128780000Y-73644285D01*
X128958571Y-73644285D01*
X129101429Y-73680000D01*
X129172857Y-73715714D01*
X129208571Y-73751428D01*
X129244286Y-73822857D01*
X129244286Y-73894285D01*
X129208571Y-73965714D01*
X129172857Y-74001428D01*
X129101429Y-74037143D01*
X128958571Y-74072857D01*
X128780000Y-74072857D01*
X128637143Y-74037143D01*
X128565714Y-74001428D01*
X128530000Y-73965714D01*
X128494286Y-73894285D01*
X128494286Y-70778572D02*
X128494286Y-70921429D01*
X128530000Y-70992858D01*
X128565714Y-71028572D01*
X128672857Y-71100001D01*
X128815714Y-71135715D01*
X129101429Y-71135715D01*
X129172857Y-71100001D01*
X129208571Y-71064286D01*
X129244286Y-70992858D01*
X129244286Y-70850001D01*
X129208571Y-70778572D01*
X129172857Y-70742858D01*
X129101429Y-70707143D01*
X128922857Y-70707143D01*
X128851429Y-70742858D01*
X128815714Y-70778572D01*
X128780000Y-70850001D01*
X128780000Y-70992858D01*
X128815714Y-71064286D01*
X128851429Y-71100001D01*
X128922857Y-71135715D01*
X128494286Y-70028572D02*
X128494286Y-70385715D01*
X128851429Y-70421429D01*
X128815714Y-70385715D01*
X128780000Y-70314286D01*
X128780000Y-70135715D01*
X128815714Y-70064286D01*
X128851429Y-70028572D01*
X128922857Y-69992857D01*
X129101429Y-69992857D01*
X129172857Y-70028572D01*
X129208571Y-70064286D01*
X129244286Y-70135715D01*
X129244286Y-70314286D01*
X129208571Y-70385715D01*
X129172857Y-70421429D01*
X128815714Y-69564286D02*
X128780000Y-69635714D01*
X128744286Y-69671429D01*
X128672857Y-69707143D01*
X128637143Y-69707143D01*
X128565714Y-69671429D01*
X128530000Y-69635714D01*
X128494286Y-69564286D01*
X128494286Y-69421429D01*
X128530000Y-69350000D01*
X128565714Y-69314286D01*
X128637143Y-69278571D01*
X128672857Y-69278571D01*
X128744286Y-69314286D01*
X128780000Y-69350000D01*
X128815714Y-69421429D01*
X128815714Y-69564286D01*
X128851429Y-69635714D01*
X128887143Y-69671429D01*
X128958571Y-69707143D01*
X129101429Y-69707143D01*
X129172857Y-69671429D01*
X129208571Y-69635714D01*
X129244286Y-69564286D01*
X129244286Y-69421429D01*
X129208571Y-69350000D01*
X129172857Y-69314286D01*
X129101429Y-69278571D01*
X128958571Y-69278571D01*
X128887143Y-69314286D01*
X128851429Y-69350000D01*
X128815714Y-69421429D01*
X129244286Y-68564285D02*
X129244286Y-68992857D01*
X129244286Y-68778571D02*
X128494286Y-68778571D01*
X128601429Y-68850000D01*
X128672857Y-68921428D01*
X128708571Y-68992857D01*
X161577857Y-118449286D02*
X161577857Y-117699286D01*
X162006429Y-118449286D01*
X162006429Y-117699286D01*
X162363571Y-118056429D02*
X162613571Y-118056429D01*
X162720714Y-118449286D02*
X162363571Y-118449286D01*
X162363571Y-117699286D01*
X162720714Y-117699286D01*
X162970714Y-117699286D02*
X163149285Y-118449286D01*
X163292142Y-117913571D01*
X163435000Y-118449286D01*
X163613571Y-117699286D01*
X156730001Y-117699286D02*
X156872858Y-117699286D01*
X156944286Y-117735000D01*
X157015715Y-117806429D01*
X157051429Y-117949286D01*
X157051429Y-118199286D01*
X157015715Y-118342143D01*
X156944286Y-118413571D01*
X156872858Y-118449286D01*
X156730001Y-118449286D01*
X156658572Y-118413571D01*
X156587143Y-118342143D01*
X156551429Y-118199286D01*
X156551429Y-117949286D01*
X156587143Y-117806429D01*
X156658572Y-117735000D01*
X156730001Y-117699286D01*
X157730000Y-118449286D02*
X157372857Y-118449286D01*
X157372857Y-117699286D01*
X157980000Y-118449286D02*
X157980000Y-117699286D01*
X158158572Y-117699286D01*
X158265715Y-117735000D01*
X158337143Y-117806429D01*
X158372858Y-117877857D01*
X158408572Y-118020714D01*
X158408572Y-118127857D01*
X158372858Y-118270714D01*
X158337143Y-118342143D01*
X158265715Y-118413571D01*
X158158572Y-118449286D01*
X157980000Y-118449286D01*
X139102858Y-117699286D02*
X139352858Y-118449286D01*
X139602858Y-117699286D01*
X139852857Y-118056429D02*
X140102857Y-118056429D01*
X140210000Y-118449286D02*
X139852857Y-118449286D01*
X139852857Y-117699286D01*
X140210000Y-117699286D01*
X140460000Y-117699286D02*
X140960000Y-118449286D01*
X140960000Y-117699286D02*
X140460000Y-118449286D01*
X141138572Y-117699286D02*
X141567143Y-117699286D01*
X141352857Y-118449286D02*
X141352857Y-117699286D01*
X137045000Y-118449286D02*
X137045000Y-117699286D01*
X137545001Y-117699286D02*
X137687858Y-117699286D01*
X137759286Y-117735000D01*
X137830715Y-117806429D01*
X137866429Y-117949286D01*
X137866429Y-118199286D01*
X137830715Y-118342143D01*
X137759286Y-118413571D01*
X137687858Y-118449286D01*
X137545001Y-118449286D01*
X137473572Y-118413571D01*
X137402143Y-118342143D01*
X137366429Y-118199286D01*
X137366429Y-117949286D01*
X137402143Y-117806429D01*
X137473572Y-117735000D01*
X137545001Y-117699286D01*
X138152143Y-117770714D02*
X138187857Y-117735000D01*
X138259286Y-117699286D01*
X138437857Y-117699286D01*
X138509286Y-117735000D01*
X138545000Y-117770714D01*
X138580715Y-117842143D01*
X138580715Y-117913571D01*
X138545000Y-118020714D01*
X138116429Y-118449286D01*
X138580715Y-118449286D01*
X134505000Y-118449286D02*
X134505000Y-117699286D01*
X135005001Y-117699286D02*
X135147858Y-117699286D01*
X135219286Y-117735000D01*
X135290715Y-117806429D01*
X135326429Y-117949286D01*
X135326429Y-118199286D01*
X135290715Y-118342143D01*
X135219286Y-118413571D01*
X135147858Y-118449286D01*
X135005001Y-118449286D01*
X134933572Y-118413571D01*
X134862143Y-118342143D01*
X134826429Y-118199286D01*
X134826429Y-117949286D01*
X134862143Y-117806429D01*
X134933572Y-117735000D01*
X135005001Y-117699286D01*
X136040715Y-118449286D02*
X135612143Y-118449286D01*
X135826429Y-118449286D02*
X135826429Y-117699286D01*
X135755000Y-117806429D01*
X135683572Y-117877857D01*
X135612143Y-117913571D01*
X132179286Y-118235000D02*
X132536429Y-118235000D01*
X132107858Y-118449286D02*
X132357858Y-117699286D01*
X132607858Y-118449286D01*
X132965000Y-118020714D02*
X132893572Y-117985000D01*
X132857857Y-117949286D01*
X132822143Y-117877857D01*
X132822143Y-117842143D01*
X132857857Y-117770714D01*
X132893572Y-117735000D01*
X132965000Y-117699286D01*
X133107857Y-117699286D01*
X133179286Y-117735000D01*
X133215000Y-117770714D01*
X133250715Y-117842143D01*
X133250715Y-117877857D01*
X133215000Y-117949286D01*
X133179286Y-117985000D01*
X133107857Y-118020714D01*
X132965000Y-118020714D01*
X132893572Y-118056429D01*
X132857857Y-118092143D01*
X132822143Y-118163571D01*
X132822143Y-118306429D01*
X132857857Y-118377857D01*
X132893572Y-118413571D01*
X132965000Y-118449286D01*
X133107857Y-118449286D01*
X133179286Y-118413571D01*
X133215000Y-118377857D01*
X133250715Y-118306429D01*
X133250715Y-118163571D01*
X133215000Y-118092143D01*
X133179286Y-118056429D01*
X133107857Y-118020714D01*
X129639286Y-118235000D02*
X129996429Y-118235000D01*
X129567858Y-118449286D02*
X129817858Y-117699286D01*
X130067858Y-118449286D01*
X130675000Y-117699286D02*
X130317857Y-117699286D01*
X130282143Y-118056429D01*
X130317857Y-118020714D01*
X130389286Y-117985000D01*
X130567857Y-117985000D01*
X130639286Y-118020714D01*
X130675000Y-118056429D01*
X130710715Y-118127857D01*
X130710715Y-118306429D01*
X130675000Y-118377857D01*
X130639286Y-118413571D01*
X130567857Y-118449286D01*
X130389286Y-118449286D01*
X130317857Y-118413571D01*
X130282143Y-118377857D01*
X187352857Y-68284286D02*
X187352857Y-67534286D01*
X187602857Y-68070000D01*
X187852857Y-67534286D01*
X187852857Y-68284286D01*
X188352858Y-67534286D02*
X188424286Y-67534286D01*
X188495715Y-67570000D01*
X188531429Y-67605714D01*
X188567143Y-67677143D01*
X188602858Y-67820000D01*
X188602858Y-67998571D01*
X188567143Y-68141429D01*
X188531429Y-68212857D01*
X188495715Y-68248571D01*
X188424286Y-68284286D01*
X188352858Y-68284286D01*
X188281429Y-68248571D01*
X188245715Y-68212857D01*
X188210000Y-68141429D01*
X188174286Y-67998571D01*
X188174286Y-67820000D01*
X188210000Y-67677143D01*
X188245715Y-67605714D01*
X188281429Y-67570000D01*
X188352858Y-67534286D01*
X184812857Y-68284286D02*
X184812857Y-67534286D01*
X185062857Y-68070000D01*
X185312857Y-67534286D01*
X185312857Y-68284286D01*
X186062858Y-68284286D02*
X185634286Y-68284286D01*
X185848572Y-68284286D02*
X185848572Y-67534286D01*
X185777143Y-67641429D01*
X185705715Y-67712857D01*
X185634286Y-67748571D01*
X182326429Y-68284286D02*
X182076429Y-67927143D01*
X181897857Y-68284286D02*
X181897857Y-67534286D01*
X182183572Y-67534286D01*
X182255000Y-67570000D01*
X182290715Y-67605714D01*
X182326429Y-67677143D01*
X182326429Y-67784286D01*
X182290715Y-67855714D01*
X182255000Y-67891429D01*
X182183572Y-67927143D01*
X181897857Y-67927143D01*
X182576429Y-67534286D02*
X182755000Y-68284286D01*
X182897857Y-67748571D01*
X183040715Y-68284286D01*
X183219286Y-67534286D01*
X183469286Y-67605714D02*
X183505000Y-67570000D01*
X183576429Y-67534286D01*
X183755000Y-67534286D01*
X183826429Y-67570000D01*
X183862143Y-67605714D01*
X183897858Y-67677143D01*
X183897858Y-67748571D01*
X183862143Y-67855714D01*
X183433572Y-68284286D01*
X183897858Y-68284286D01*
X179643571Y-68284286D02*
X179643571Y-67534286D01*
X179965000Y-67605714D02*
X180000714Y-67570000D01*
X180072143Y-67534286D01*
X180250714Y-67534286D01*
X180322143Y-67570000D01*
X180357857Y-67605714D01*
X180393572Y-67677143D01*
X180393572Y-67748571D01*
X180357857Y-67855714D01*
X179929286Y-68284286D01*
X180393572Y-68284286D01*
X180715000Y-67891429D02*
X180965000Y-67891429D01*
X181072143Y-68284286D02*
X180715000Y-68284286D01*
X180715000Y-67534286D01*
X181072143Y-67534286D01*
X176976571Y-68284286D02*
X176976571Y-67534286D01*
X177726572Y-68284286D02*
X177298000Y-68284286D01*
X177512286Y-68284286D02*
X177512286Y-67534286D01*
X177440857Y-67641429D01*
X177369429Y-67712857D01*
X177298000Y-67748571D01*
X178048000Y-67891429D02*
X178298000Y-67891429D01*
X178405143Y-68284286D02*
X178048000Y-68284286D01*
X178048000Y-67534286D01*
X178405143Y-67534286D01*
X172112857Y-68284286D02*
X172112857Y-67534286D01*
X172362857Y-68070000D01*
X172612857Y-67534286D01*
X172612857Y-68284286D01*
X172934286Y-68248571D02*
X173041429Y-68284286D01*
X173220000Y-68284286D01*
X173291429Y-68248571D01*
X173327143Y-68212857D01*
X173362858Y-68141429D01*
X173362858Y-68070000D01*
X173327143Y-67998571D01*
X173291429Y-67962857D01*
X173220000Y-67927143D01*
X173077143Y-67891429D01*
X173005715Y-67855714D01*
X172970000Y-67820000D01*
X172934286Y-67748571D01*
X172934286Y-67677143D01*
X172970000Y-67605714D01*
X173005715Y-67570000D01*
X173077143Y-67534286D01*
X173255715Y-67534286D01*
X173362858Y-67570000D01*
X174706428Y-68284286D02*
X174706428Y-67534286D01*
X174992143Y-67534286D01*
X175063571Y-67570000D01*
X175099286Y-67605714D01*
X175135000Y-67677143D01*
X175135000Y-67784286D01*
X175099286Y-67855714D01*
X175063571Y-67891429D01*
X174992143Y-67927143D01*
X174706428Y-67927143D01*
X175420714Y-68248571D02*
X175527857Y-68284286D01*
X175706428Y-68284286D01*
X175777857Y-68248571D01*
X175813571Y-68212857D01*
X175849286Y-68141429D01*
X175849286Y-68070000D01*
X175813571Y-67998571D01*
X175777857Y-67962857D01*
X175706428Y-67927143D01*
X175563571Y-67891429D01*
X175492143Y-67855714D01*
X175456428Y-67820000D01*
X175420714Y-67748571D01*
X175420714Y-67677143D01*
X175456428Y-67605714D01*
X175492143Y-67570000D01*
X175563571Y-67534286D01*
X175742143Y-67534286D01*
X175849286Y-67570000D01*
X150511001Y-67534286D02*
X150761001Y-68284286D01*
X151011001Y-67534286D01*
X151261000Y-68284286D02*
X151261000Y-67534286D01*
X151439572Y-67534286D01*
X151546715Y-67570000D01*
X151618143Y-67641429D01*
X151653858Y-67712857D01*
X151689572Y-67855714D01*
X151689572Y-67962857D01*
X151653858Y-68105714D01*
X151618143Y-68177143D01*
X151546715Y-68248571D01*
X151439572Y-68284286D01*
X151261000Y-68284286D01*
X152011000Y-68284286D02*
X152011000Y-67534286D01*
X152189572Y-67534286D01*
X152296715Y-67570000D01*
X152368143Y-67641429D01*
X152403858Y-67712857D01*
X152439572Y-67855714D01*
X152439572Y-67962857D01*
X152403858Y-68105714D01*
X152368143Y-68177143D01*
X152296715Y-68248571D01*
X152189572Y-68284286D01*
X152011000Y-68284286D01*
X153680000Y-67891429D02*
X153430000Y-67891429D01*
X153430000Y-68284286D02*
X153430000Y-67534286D01*
X153787143Y-67534286D01*
X154501429Y-68212857D02*
X154465715Y-68248571D01*
X154358572Y-68284286D01*
X154287143Y-68284286D01*
X154180000Y-68248571D01*
X154108572Y-68177143D01*
X154072857Y-68105714D01*
X154037143Y-67962857D01*
X154037143Y-67855714D01*
X154072857Y-67712857D01*
X154108572Y-67641429D01*
X154180000Y-67570000D01*
X154287143Y-67534286D01*
X154358572Y-67534286D01*
X154465715Y-67570000D01*
X154501429Y-67605714D01*
X155215715Y-68284286D02*
X154787143Y-68284286D01*
X155001429Y-68284286D02*
X155001429Y-67534286D01*
X154930000Y-67641429D01*
X154858572Y-67712857D01*
X154787143Y-67748571D01*
X156093000Y-67891429D02*
X155843000Y-67891429D01*
X155843000Y-68284286D02*
X155843000Y-67534286D01*
X156200143Y-67534286D01*
X156914429Y-68212857D02*
X156878715Y-68248571D01*
X156771572Y-68284286D01*
X156700143Y-68284286D01*
X156593000Y-68248571D01*
X156521572Y-68177143D01*
X156485857Y-68105714D01*
X156450143Y-67962857D01*
X156450143Y-67855714D01*
X156485857Y-67712857D01*
X156521572Y-67641429D01*
X156593000Y-67570000D01*
X156700143Y-67534286D01*
X156771572Y-67534286D01*
X156878715Y-67570000D01*
X156914429Y-67605714D01*
X157200143Y-67605714D02*
X157235857Y-67570000D01*
X157307286Y-67534286D01*
X157485857Y-67534286D01*
X157557286Y-67570000D01*
X157593000Y-67605714D01*
X157628715Y-67677143D01*
X157628715Y-67748571D01*
X157593000Y-67855714D01*
X157164429Y-68284286D01*
X157628715Y-68284286D01*
X158295714Y-67891429D02*
X158545714Y-67891429D01*
X158652857Y-68284286D02*
X158295714Y-68284286D01*
X158295714Y-67534286D01*
X158652857Y-67534286D01*
X158902857Y-67534286D02*
X159402857Y-68284286D01*
X159402857Y-67534286D02*
X158902857Y-68284286D01*
X159688571Y-68284286D02*
X159688571Y-67534286D01*
X160045714Y-68284286D02*
X160045714Y-67534286D01*
X160474286Y-68284286D01*
X160474286Y-67534286D01*
X158510000Y-77301286D02*
X158510000Y-76551286D01*
X158688572Y-76551286D01*
X158795715Y-76587000D01*
X158867143Y-76658429D01*
X158902858Y-76729857D01*
X158938572Y-76872714D01*
X158938572Y-76979857D01*
X158902858Y-77122714D01*
X158867143Y-77194143D01*
X158795715Y-77265571D01*
X158688572Y-77301286D01*
X158510000Y-77301286D01*
X159510000Y-76908429D02*
X159260000Y-76908429D01*
X159260000Y-77301286D02*
X159260000Y-76551286D01*
X159617143Y-76551286D01*
X159831429Y-76551286D02*
X160331429Y-77301286D01*
X160331429Y-76551286D02*
X159831429Y-77301286D01*
X137555000Y-77301286D02*
X137555000Y-76551286D01*
X137733572Y-76551286D01*
X137840715Y-76587000D01*
X137912143Y-76658429D01*
X137947858Y-76729857D01*
X137983572Y-76872714D01*
X137983572Y-76979857D01*
X137947858Y-77122714D01*
X137912143Y-77194143D01*
X137840715Y-77265571D01*
X137733572Y-77301286D01*
X137555000Y-77301286D01*
X138555000Y-76908429D02*
X138305000Y-76908429D01*
X138305000Y-77301286D02*
X138305000Y-76551286D01*
X138662143Y-76551286D01*
X138876429Y-76551286D02*
X139376429Y-77301286D01*
X139376429Y-76551286D02*
X138876429Y-77301286D01*
X137340714Y-67891429D02*
X137590714Y-67891429D01*
X137697857Y-68284286D02*
X137340714Y-68284286D01*
X137340714Y-67534286D01*
X137697857Y-67534286D01*
X137947857Y-67534286D02*
X138447857Y-68284286D01*
X138447857Y-67534286D02*
X137947857Y-68284286D01*
X138733571Y-68284286D02*
X138733571Y-67534286D01*
X139090714Y-68284286D02*
X139090714Y-67534286D01*
X139519286Y-68284286D01*
X139519286Y-67534286D01*
X135138000Y-67891429D02*
X134888000Y-67891429D01*
X134888000Y-68284286D02*
X134888000Y-67534286D01*
X135245143Y-67534286D01*
X135959429Y-68212857D02*
X135923715Y-68248571D01*
X135816572Y-68284286D01*
X135745143Y-68284286D01*
X135638000Y-68248571D01*
X135566572Y-68177143D01*
X135530857Y-68105714D01*
X135495143Y-67962857D01*
X135495143Y-67855714D01*
X135530857Y-67712857D01*
X135566572Y-67641429D01*
X135638000Y-67570000D01*
X135745143Y-67534286D01*
X135816572Y-67534286D01*
X135923715Y-67570000D01*
X135959429Y-67605714D01*
X136245143Y-67605714D02*
X136280857Y-67570000D01*
X136352286Y-67534286D01*
X136530857Y-67534286D01*
X136602286Y-67570000D01*
X136638000Y-67605714D01*
X136673715Y-67677143D01*
X136673715Y-67748571D01*
X136638000Y-67855714D01*
X136209429Y-68284286D01*
X136673715Y-68284286D01*
X132725000Y-67891429D02*
X132475000Y-67891429D01*
X132475000Y-68284286D02*
X132475000Y-67534286D01*
X132832143Y-67534286D01*
X133546429Y-68212857D02*
X133510715Y-68248571D01*
X133403572Y-68284286D01*
X133332143Y-68284286D01*
X133225000Y-68248571D01*
X133153572Y-68177143D01*
X133117857Y-68105714D01*
X133082143Y-67962857D01*
X133082143Y-67855714D01*
X133117857Y-67712857D01*
X133153572Y-67641429D01*
X133225000Y-67570000D01*
X133332143Y-67534286D01*
X133403572Y-67534286D01*
X133510715Y-67570000D01*
X133546429Y-67605714D01*
X134260715Y-68284286D02*
X133832143Y-68284286D01*
X134046429Y-68284286D02*
X134046429Y-67534286D01*
X133975000Y-67641429D01*
X133903572Y-67712857D01*
X133832143Y-67748571D01*
X129556001Y-67534286D02*
X129806001Y-68284286D01*
X130056001Y-67534286D01*
X130306000Y-68284286D02*
X130306000Y-67534286D01*
X130484572Y-67534286D01*
X130591715Y-67570000D01*
X130663143Y-67641429D01*
X130698858Y-67712857D01*
X130734572Y-67855714D01*
X130734572Y-67962857D01*
X130698858Y-68105714D01*
X130663143Y-68177143D01*
X130591715Y-68248571D01*
X130484572Y-68284286D01*
X130306000Y-68284286D01*
X131056000Y-68284286D02*
X131056000Y-67534286D01*
X131234572Y-67534286D01*
X131341715Y-67570000D01*
X131413143Y-67641429D01*
X131448858Y-67712857D01*
X131484572Y-67855714D01*
X131484572Y-67962857D01*
X131448858Y-68105714D01*
X131413143Y-68177143D01*
X131341715Y-68248571D01*
X131234572Y-68284286D01*
X131056000Y-68284286D01*
X142490000Y-85070000D02*
X139490000Y-85070000D01*
X139490000Y-82570000D02*
X142490000Y-82570000D01*
X139450000Y-85110000D02*
X142450000Y-85110000D01*
X142450000Y-87610000D02*
X139450000Y-87610000D01*
X137410000Y-85070000D02*
X134410000Y-85070000D01*
X134410000Y-82570000D02*
X137410000Y-82570000D01*
X134370000Y-85110000D02*
X137370000Y-85110000D01*
X137370000Y-87610000D02*
X134370000Y-87610000D01*
X175280000Y-120900000D02*
X175280000Y-117900000D01*
X177780000Y-117900000D02*
X177780000Y-120900000D01*
X165120000Y-120900000D02*
X165120000Y-117900000D01*
X167620000Y-117900000D02*
X167620000Y-120900000D01*
X152420000Y-120900000D02*
X152420000Y-117900000D01*
X154920000Y-117900000D02*
X154920000Y-120900000D01*
X142260000Y-120900000D02*
X142260000Y-117900000D01*
X144760000Y-117900000D02*
X144760000Y-120900000D01*
X158500000Y-82570000D02*
X161500000Y-82570000D01*
X161500000Y-85070000D02*
X158500000Y-85070000D01*
X153420000Y-85110000D02*
X156420000Y-85110000D01*
X156420000Y-87610000D02*
X153420000Y-87610000D01*
X153420000Y-82570000D02*
X156420000Y-82570000D01*
X156420000Y-85070000D02*
X153420000Y-85070000D01*
X161540000Y-87610000D02*
X158540000Y-87610000D01*
X158540000Y-85110000D02*
X161540000Y-85110000D01*
X148840000Y-72370000D02*
X145840000Y-72370000D01*
X145840000Y-69870000D02*
X148840000Y-69870000D01*
X169795000Y-72370000D02*
X166795000Y-72370000D01*
X166795000Y-69870000D02*
X169795000Y-69870000D01*
X171700000Y-109835000D02*
X168700000Y-109835000D01*
X168700000Y-107335000D02*
X171700000Y-107335000D01*
X172700000Y-103255000D02*
X172700000Y-106255000D01*
X170200000Y-106255000D02*
X170200000Y-103255000D01*
X146050000Y-76200000D02*
X146050000Y-73660000D01*
X147469903Y-76200000D02*
G75*
G03X147469903Y-76200000I-1419903J0D01*
G01*
X169545000Y-68580000D02*
X167005000Y-68580000D01*
X170964903Y-68580000D02*
G75*
G03X170964903Y-68580000I-1419903J0D01*
G01*
X168910000Y-111125000D02*
X168910000Y-113665000D01*
X170329903Y-111125000D02*
G75*
G03X170329903Y-111125000I-1419903J0D01*
G01*
X171450000Y-111125000D02*
X171450000Y-113665000D01*
X172869903Y-111125000D02*
G75*
G03X172869903Y-111125000I-1419903J0D01*
G01*
X168910000Y-103505000D02*
X168910000Y-106045000D01*
X170329903Y-103505000D02*
G75*
G03X170329903Y-103505000I-1419903J0D01*
G01*
X173990000Y-111125000D02*
X173990000Y-113665000D01*
X175409903Y-111125000D02*
G75*
G03X175409903Y-111125000I-1419903J0D01*
G01*
X134755000Y-86605000D02*
X134755000Y-87875000D01*
X142105000Y-86605000D02*
X142105000Y-87875000D01*
X142105000Y-114055000D02*
X142105000Y-112785000D01*
X134755000Y-114055000D02*
X134755000Y-112785000D01*
X134755000Y-86605000D02*
X142105000Y-86605000D01*
X134755000Y-114055000D02*
X142105000Y-114055000D01*
X134755000Y-87875000D02*
X133820000Y-87875000D01*
X130945000Y-78985000D02*
X130945000Y-80255000D01*
X145915000Y-78985000D02*
X145915000Y-80255000D01*
X145915000Y-116595000D02*
X145915000Y-115325000D01*
X130945000Y-116595000D02*
X130945000Y-115325000D01*
X130945000Y-78985000D02*
X145915000Y-78985000D01*
X130945000Y-116595000D02*
X145915000Y-116595000D01*
X130945000Y-80255000D02*
X130010000Y-80255000D01*
X148725000Y-78985000D02*
X148725000Y-80255000D01*
X163695000Y-78985000D02*
X163695000Y-80255000D01*
X163695000Y-116595000D02*
X163695000Y-115325000D01*
X148725000Y-116595000D02*
X148725000Y-115325000D01*
X148725000Y-78985000D02*
X163695000Y-78985000D01*
X148725000Y-116595000D02*
X163695000Y-116595000D01*
X148725000Y-80255000D02*
X147790000Y-80255000D01*
X179205000Y-95495000D02*
X179205000Y-96765000D01*
X186555000Y-95495000D02*
X186555000Y-96765000D01*
X186555000Y-117865000D02*
X186555000Y-116595000D01*
X179205000Y-117865000D02*
X179205000Y-116595000D01*
X179205000Y-95495000D02*
X186555000Y-95495000D01*
X179205000Y-117865000D02*
X186555000Y-117865000D01*
X179205000Y-96765000D02*
X178270000Y-96765000D01*
X148590000Y-68580000D02*
X146050000Y-68580000D01*
X150009903Y-68580000D02*
G75*
G03X150009903Y-68580000I-1419903J0D01*
G01*
X167005000Y-76200000D02*
X167005000Y-73660000D01*
X168424903Y-76200000D02*
G75*
G03X168424903Y-76200000I-1419903J0D01*
G01*
X176780000Y-109835000D02*
X173780000Y-109835000D01*
X173780000Y-107335000D02*
X176780000Y-107335000D01*
X177780000Y-103255000D02*
X177780000Y-106255000D01*
X175280000Y-106255000D02*
X175280000Y-103255000D01*
X168480000Y-102030000D02*
X171880000Y-102030000D01*
X168482944Y-102027056D02*
G75*
G02X170180000Y-97930000I1697056J1697056D01*
G01*
X171877056Y-102027056D02*
G75*
G03X170180000Y-97930000I-1697056J1697056D01*
G01*
X173560000Y-102030000D02*
X176960000Y-102030000D01*
X173562944Y-102027056D02*
G75*
G02X175260000Y-97930000I1697056J1697056D01*
G01*
X176957056Y-102027056D02*
G75*
G03X175260000Y-97930000I-1697056J1697056D01*
G01*
X176530000Y-111125000D02*
X176530000Y-113665000D01*
X177949903Y-111125000D02*
G75*
G03X177949903Y-111125000I-1419903J0D01*
G01*
X173990000Y-103505000D02*
X173990000Y-106045000D01*
X175409903Y-103505000D02*
G75*
G03X175409903Y-103505000I-1419903J0D01*
G01*
X165227000Y-68834000D02*
X163957000Y-68834000D01*
X164477700Y-69621400D02*
X164731700Y-69583300D01*
X164731700Y-69583300D02*
X165011100Y-69405500D01*
X165011100Y-69405500D02*
X165227000Y-69088000D01*
X165227000Y-69088000D02*
X165239700Y-68643500D01*
X165239700Y-68643500D02*
X165036500Y-68287900D01*
X165036500Y-68287900D02*
X164744400Y-68110100D01*
X164744400Y-68110100D02*
X164426900Y-68059300D01*
X164426900Y-68059300D02*
X164020500Y-68160900D01*
X164020500Y-68160900D02*
X163766500Y-68503800D01*
X163766500Y-68503800D02*
X163677600Y-68681600D01*
X161417000Y-77216000D02*
X161417000Y-67564000D01*
X164465000Y-67564000D02*
X165735000Y-67564000D01*
X165735000Y-67564000D02*
X165735000Y-77216000D01*
X165735000Y-77216000D02*
X160655000Y-77216000D01*
X160655000Y-67564000D02*
X163195000Y-67564000D01*
X163195000Y-67564000D02*
X164465000Y-67564000D01*
X144272000Y-68834000D02*
X143002000Y-68834000D01*
X143522700Y-69621400D02*
X143776700Y-69583300D01*
X143776700Y-69583300D02*
X144056100Y-69405500D01*
X144056100Y-69405500D02*
X144272000Y-69088000D01*
X144272000Y-69088000D02*
X144284700Y-68643500D01*
X144284700Y-68643500D02*
X144081500Y-68287900D01*
X144081500Y-68287900D02*
X143789400Y-68110100D01*
X143789400Y-68110100D02*
X143471900Y-68059300D01*
X143471900Y-68059300D02*
X143065500Y-68160900D01*
X143065500Y-68160900D02*
X142811500Y-68503800D01*
X142811500Y-68503800D02*
X142722600Y-68681600D01*
X140462000Y-77216000D02*
X140462000Y-67564000D01*
X143510000Y-67564000D02*
X144780000Y-67564000D01*
X144780000Y-67564000D02*
X144780000Y-77216000D01*
X144780000Y-77216000D02*
X139700000Y-77216000D01*
X139700000Y-67564000D02*
X142240000Y-67564000D01*
X142240000Y-67564000D02*
X143510000Y-67564000D01*
X168910000Y-116205000D02*
X171450000Y-116205000D01*
X170329903Y-116205000D02*
G75*
G03X170329903Y-116205000I-1419903J0D01*
G01*
X176530000Y-116205000D02*
X173990000Y-116205000D01*
X177949903Y-116205000D02*
G75*
G03X177949903Y-116205000I-1419903J0D01*
G01*
X131445000Y-121285000D02*
X128905000Y-121285000D01*
X128905000Y-121285000D02*
X128905000Y-118745000D01*
X128905000Y-118745000D02*
X131445000Y-118745000D01*
X131445000Y-118745000D02*
X141605000Y-118745000D01*
X141605000Y-118745000D02*
X141605000Y-121285000D01*
X141605000Y-121285000D02*
X131445000Y-121285000D01*
X129540000Y-71120000D02*
X129540000Y-68580000D01*
X129540000Y-68580000D02*
X132080000Y-68580000D01*
X132080000Y-68580000D02*
X132080000Y-71120000D01*
X129540000Y-71120000D02*
X129540000Y-76200000D01*
X129540000Y-76200000D02*
X132080000Y-76200000D01*
X132080000Y-76200000D02*
X132080000Y-71120000D01*
X132080000Y-71120000D02*
X132080000Y-68580000D01*
X132080000Y-68580000D02*
X134620000Y-68580000D01*
X134620000Y-68580000D02*
X134620000Y-71120000D01*
X132080000Y-71120000D02*
X132080000Y-76200000D01*
X132080000Y-76200000D02*
X134620000Y-76200000D01*
X134620000Y-76200000D02*
X134620000Y-71120000D01*
X134620000Y-71120000D02*
X134620000Y-68580000D01*
X134620000Y-68580000D02*
X137160000Y-68580000D01*
X137160000Y-68580000D02*
X137160000Y-71120000D01*
X134620000Y-71120000D02*
X134620000Y-76200000D01*
X134620000Y-76200000D02*
X137160000Y-76200000D01*
X137160000Y-76200000D02*
X137160000Y-71120000D01*
X137160000Y-71120000D02*
X137160000Y-68580000D01*
X137160000Y-68580000D02*
X139700000Y-68580000D01*
X139700000Y-68580000D02*
X139700000Y-71120000D01*
X137160000Y-71120000D02*
X137160000Y-76200000D01*
X137160000Y-76200000D02*
X139700000Y-76200000D01*
X139700000Y-76200000D02*
X139700000Y-71120000D01*
X158115000Y-71120000D02*
X158115000Y-68580000D01*
X158115000Y-68580000D02*
X160655000Y-68580000D01*
X160655000Y-68580000D02*
X160655000Y-71120000D01*
X158115000Y-71120000D02*
X158115000Y-76200000D01*
X158115000Y-76200000D02*
X160655000Y-76200000D01*
X160655000Y-76200000D02*
X160655000Y-71120000D01*
X155575000Y-71120000D02*
X155575000Y-68580000D01*
X155575000Y-68580000D02*
X158115000Y-68580000D01*
X158115000Y-68580000D02*
X158115000Y-71120000D01*
X155575000Y-71120000D02*
X155575000Y-76200000D01*
X155575000Y-76200000D02*
X158115000Y-76200000D01*
X158115000Y-76200000D02*
X158115000Y-71120000D01*
X153035000Y-71120000D02*
X153035000Y-68580000D01*
X153035000Y-68580000D02*
X155575000Y-68580000D01*
X155575000Y-68580000D02*
X155575000Y-71120000D01*
X153035000Y-71120000D02*
X153035000Y-76200000D01*
X153035000Y-76200000D02*
X155575000Y-76200000D01*
X155575000Y-76200000D02*
X155575000Y-71120000D01*
X150495000Y-71120000D02*
X150495000Y-68580000D01*
X150495000Y-68580000D02*
X153035000Y-68580000D01*
X153035000Y-68580000D02*
X153035000Y-71120000D01*
X150495000Y-71120000D02*
X150495000Y-76200000D01*
X150495000Y-76200000D02*
X153035000Y-76200000D01*
X153035000Y-76200000D02*
X153035000Y-71120000D01*
X181610000Y-121285000D02*
X179070000Y-121285000D01*
X179070000Y-121285000D02*
X179070000Y-118745000D01*
X179070000Y-118745000D02*
X181610000Y-118745000D01*
X181610000Y-121285000D02*
X186690000Y-121285000D01*
X186690000Y-121285000D02*
X186690000Y-118745000D01*
X186690000Y-118745000D02*
X181610000Y-118745000D01*
X147320000Y-74930000D02*
X147320000Y-72390000D01*
X147320000Y-72390000D02*
X149860000Y-72390000D01*
X149860000Y-72390000D02*
X149860000Y-74930000D01*
X149860000Y-74930000D02*
X149860000Y-77470000D01*
X147320000Y-74930000D02*
X147320000Y-77470000D01*
X147320000Y-77470000D02*
X149860000Y-77470000D01*
X168275000Y-74930000D02*
X168275000Y-72390000D01*
X168275000Y-72390000D02*
X170815000Y-72390000D01*
X170815000Y-72390000D02*
X170815000Y-74930000D01*
X170815000Y-74930000D02*
X170815000Y-77470000D01*
X168275000Y-74930000D02*
X168275000Y-77470000D01*
X168275000Y-77470000D02*
X170815000Y-77470000D01*
X166116000Y-122174000D02*
X176784000Y-122174000D01*
X169672000Y-121158000D02*
X169672000Y-122428000D01*
X173228000Y-121158000D02*
X173228000Y-122428000D01*
X176784000Y-121031000D02*
X166116000Y-121031000D01*
X166116000Y-117602000D02*
X176784000Y-117602000D01*
X176784000Y-122428000D02*
X176784000Y-117602000D01*
X166116000Y-122428000D02*
X166116000Y-117602000D01*
X166116000Y-122428000D02*
X176784000Y-122428000D01*
X143256000Y-122174000D02*
X153924000Y-122174000D01*
X146812000Y-121158000D02*
X146812000Y-122428000D01*
X150368000Y-121158000D02*
X150368000Y-122428000D01*
X153924000Y-121031000D02*
X143256000Y-121031000D01*
X143256000Y-117602000D02*
X153924000Y-117602000D01*
X153924000Y-122428000D02*
X153924000Y-117602000D01*
X143256000Y-122428000D02*
X143256000Y-117602000D01*
X143256000Y-122428000D02*
X153924000Y-122428000D01*
X172008800Y-95605600D02*
X172059600Y-95758000D01*
X171958000Y-96012000D02*
X171958000Y-95605600D01*
X171856400Y-95707200D02*
X171856400Y-96215200D01*
X171754800Y-96418400D02*
X171754800Y-95808800D01*
X171653200Y-95808800D02*
X171653200Y-96469200D01*
X171551600Y-96621600D02*
X171551600Y-95859600D01*
X171450000Y-95859600D02*
X171450000Y-96723200D01*
X171348400Y-96824800D02*
X171348400Y-95859600D01*
X171246800Y-95859600D02*
X171246800Y-96875600D01*
X171145200Y-96926400D02*
X171145200Y-95808800D01*
X171043600Y-95707200D02*
X171043600Y-96977200D01*
X170942000Y-97028000D02*
X170942000Y-95656400D01*
X170840400Y-95504000D02*
X170840400Y-97028000D01*
X172059600Y-94945200D02*
X172059600Y-95605600D01*
X172008800Y-94589600D02*
X172008800Y-94945200D01*
X171907200Y-94386400D02*
X171907200Y-94843600D01*
X171856400Y-94234000D02*
X171856400Y-94792800D01*
X171754800Y-94081600D02*
X171754800Y-94742000D01*
X171653200Y-93980000D02*
X171653200Y-94691200D01*
X171551600Y-93878400D02*
X171551600Y-94589600D01*
X171450000Y-93776800D02*
X171450000Y-94640400D01*
X171348400Y-94640400D02*
X171348400Y-93726000D01*
X171246800Y-93624400D02*
X171246800Y-94640400D01*
X171145200Y-94691200D02*
X171145200Y-93573600D01*
X171043600Y-93522800D02*
X171043600Y-94742000D01*
X170942000Y-94843600D02*
X170942000Y-93472000D01*
X170840400Y-93421200D02*
X170840400Y-94945200D01*
X170586400Y-93370400D02*
X170637200Y-93522800D01*
X170434000Y-93319600D02*
X170484800Y-97129600D01*
X170738800Y-93370400D02*
X170738800Y-97129600D01*
X170281600Y-97231200D02*
X170281600Y-93370400D01*
X170281600Y-93370400D02*
X170383200Y-93370400D01*
X170383200Y-93370400D02*
X170383200Y-97129600D01*
X170383200Y-97129600D02*
X170535600Y-97129600D01*
X170535600Y-97129600D02*
X170535600Y-93319600D01*
X170535600Y-93319600D02*
X170688000Y-93370400D01*
X170688000Y-93370400D02*
X170637200Y-97129600D01*
X170637200Y-97129600D02*
X170840400Y-97028000D01*
X170840400Y-97028000D02*
X170738800Y-97028000D01*
X170180000Y-93268800D02*
X170180000Y-97231200D01*
X172180000Y-95250000D02*
G75*
G03X172180000Y-95250000I-2000000J0D01*
G01*
X177088800Y-95605600D02*
X177139600Y-95758000D01*
X177038000Y-96012000D02*
X177038000Y-95605600D01*
X176936400Y-95707200D02*
X176936400Y-96215200D01*
X176834800Y-96418400D02*
X176834800Y-95808800D01*
X176733200Y-95808800D02*
X176733200Y-96469200D01*
X176631600Y-96621600D02*
X176631600Y-95859600D01*
X176530000Y-95859600D02*
X176530000Y-96723200D01*
X176428400Y-96824800D02*
X176428400Y-95859600D01*
X176326800Y-95859600D02*
X176326800Y-96875600D01*
X176225200Y-96926400D02*
X176225200Y-95808800D01*
X176123600Y-95707200D02*
X176123600Y-96977200D01*
X176022000Y-97028000D02*
X176022000Y-95656400D01*
X175920400Y-95504000D02*
X175920400Y-97028000D01*
X177139600Y-94945200D02*
X177139600Y-95605600D01*
X177088800Y-94589600D02*
X177088800Y-94945200D01*
X176987200Y-94386400D02*
X176987200Y-94843600D01*
X176936400Y-94234000D02*
X176936400Y-94792800D01*
X176834800Y-94081600D02*
X176834800Y-94742000D01*
X176733200Y-93980000D02*
X176733200Y-94691200D01*
X176631600Y-93878400D02*
X176631600Y-94589600D01*
X176530000Y-93776800D02*
X176530000Y-94640400D01*
X176428400Y-94640400D02*
X176428400Y-93726000D01*
X176326800Y-93624400D02*
X176326800Y-94640400D01*
X176225200Y-94691200D02*
X176225200Y-93573600D01*
X176123600Y-93522800D02*
X176123600Y-94742000D01*
X176022000Y-94843600D02*
X176022000Y-93472000D01*
X175920400Y-93421200D02*
X175920400Y-94945200D01*
X175666400Y-93370400D02*
X175717200Y-93522800D01*
X175514000Y-93319600D02*
X175564800Y-97129600D01*
X175818800Y-93370400D02*
X175818800Y-97129600D01*
X175361600Y-97231200D02*
X175361600Y-93370400D01*
X175361600Y-93370400D02*
X175463200Y-93370400D01*
X175463200Y-93370400D02*
X175463200Y-97129600D01*
X175463200Y-97129600D02*
X175615600Y-97129600D01*
X175615600Y-97129600D02*
X175615600Y-93319600D01*
X175615600Y-93319600D02*
X175768000Y-93370400D01*
X175768000Y-93370400D02*
X175717200Y-97129600D01*
X175717200Y-97129600D02*
X175920400Y-97028000D01*
X175920400Y-97028000D02*
X175818800Y-97028000D01*
X175260000Y-93268800D02*
X175260000Y-97231200D01*
X177260000Y-95250000D02*
G75*
G03X177260000Y-95250000I-2000000J0D01*
G01*
X173710600Y-75006200D02*
X173863000Y-74955400D01*
X174117000Y-75057000D02*
X173710600Y-75057000D01*
X173812200Y-75158600D02*
X174320200Y-75158600D01*
X174523400Y-75260200D02*
X173913800Y-75260200D01*
X173913800Y-75361800D02*
X174574200Y-75361800D01*
X174726600Y-75463400D02*
X173964600Y-75463400D01*
X173964600Y-75565000D02*
X174828200Y-75565000D01*
X174929800Y-75666600D02*
X173964600Y-75666600D01*
X173964600Y-75768200D02*
X174980600Y-75768200D01*
X175031400Y-75869800D02*
X173913800Y-75869800D01*
X173812200Y-75971400D02*
X175082200Y-75971400D01*
X175133000Y-76073000D02*
X173761400Y-76073000D01*
X173609000Y-76174600D02*
X175133000Y-76174600D01*
X173050200Y-74955400D02*
X173710600Y-74955400D01*
X172694600Y-75006200D02*
X173050200Y-75006200D01*
X172491400Y-75107800D02*
X172948600Y-75107800D01*
X172339000Y-75158600D02*
X172897800Y-75158600D01*
X172186600Y-75260200D02*
X172847000Y-75260200D01*
X172085000Y-75361800D02*
X172796200Y-75361800D01*
X171983400Y-75463400D02*
X172694600Y-75463400D01*
X171881800Y-75565000D02*
X172745400Y-75565000D01*
X172745400Y-75666600D02*
X171831000Y-75666600D01*
X171729400Y-75768200D02*
X172745400Y-75768200D01*
X172796200Y-75869800D02*
X171678600Y-75869800D01*
X171627800Y-75971400D02*
X172847000Y-75971400D01*
X172948600Y-76073000D02*
X171577000Y-76073000D01*
X171526200Y-76174600D02*
X173050200Y-76174600D01*
X171475400Y-76428600D02*
X171627800Y-76377800D01*
X171424600Y-76581000D02*
X175234600Y-76530200D01*
X171475400Y-76276200D02*
X175234600Y-76276200D01*
X175336200Y-76733400D02*
X171475400Y-76733400D01*
X171475400Y-76733400D02*
X171475400Y-76631800D01*
X171475400Y-76631800D02*
X175234600Y-76631800D01*
X175234600Y-76631800D02*
X175234600Y-76479400D01*
X175234600Y-76479400D02*
X171424600Y-76479400D01*
X171424600Y-76479400D02*
X171475400Y-76327000D01*
X171475400Y-76327000D02*
X175234600Y-76377800D01*
X175234600Y-76377800D02*
X175133000Y-76174600D01*
X175133000Y-76174600D02*
X175133000Y-76276200D01*
X171373800Y-76835000D02*
X175336200Y-76835000D01*
X175355000Y-76835000D02*
G75*
G03X175355000Y-76835000I-2000000J0D01*
G01*
X172999400Y-83743800D02*
X172847000Y-83794600D01*
X172593000Y-83693000D02*
X172999400Y-83693000D01*
X172897800Y-83591400D02*
X172389800Y-83591400D01*
X172186600Y-83489800D02*
X172796200Y-83489800D01*
X172796200Y-83388200D02*
X172135800Y-83388200D01*
X171983400Y-83286600D02*
X172745400Y-83286600D01*
X172745400Y-83185000D02*
X171881800Y-83185000D01*
X171780200Y-83083400D02*
X172745400Y-83083400D01*
X172745400Y-82981800D02*
X171729400Y-82981800D01*
X171678600Y-82880200D02*
X172796200Y-82880200D01*
X172897800Y-82778600D02*
X171627800Y-82778600D01*
X171577000Y-82677000D02*
X172948600Y-82677000D01*
X173101000Y-82575400D02*
X171577000Y-82575400D01*
X173659800Y-83794600D02*
X172999400Y-83794600D01*
X174015400Y-83743800D02*
X173659800Y-83743800D01*
X174218600Y-83642200D02*
X173761400Y-83642200D01*
X174371000Y-83591400D02*
X173812200Y-83591400D01*
X174523400Y-83489800D02*
X173863000Y-83489800D01*
X174625000Y-83388200D02*
X173913800Y-83388200D01*
X174726600Y-83286600D02*
X174015400Y-83286600D01*
X174828200Y-83185000D02*
X173964600Y-83185000D01*
X173964600Y-83083400D02*
X174879000Y-83083400D01*
X174980600Y-82981800D02*
X173964600Y-82981800D01*
X173913800Y-82880200D02*
X175031400Y-82880200D01*
X175082200Y-82778600D02*
X173863000Y-82778600D01*
X173761400Y-82677000D02*
X175133000Y-82677000D01*
X175183800Y-82575400D02*
X173659800Y-82575400D01*
X175234600Y-82321400D02*
X175082200Y-82372200D01*
X175285400Y-82169000D02*
X171475400Y-82219800D01*
X175234600Y-82473800D02*
X171475400Y-82473800D01*
X171373800Y-82016600D02*
X175234600Y-82016600D01*
X175234600Y-82016600D02*
X175234600Y-82118200D01*
X175234600Y-82118200D02*
X171475400Y-82118200D01*
X171475400Y-82118200D02*
X171475400Y-82270600D01*
X171475400Y-82270600D02*
X175285400Y-82270600D01*
X175285400Y-82270600D02*
X175234600Y-82423000D01*
X175234600Y-82423000D02*
X171475400Y-82372200D01*
X171475400Y-82372200D02*
X171577000Y-82575400D01*
X171577000Y-82575400D02*
X171577000Y-82473800D01*
X175336200Y-81915000D02*
X171373800Y-81915000D01*
X175355000Y-81915000D02*
G75*
G03X175355000Y-81915000I-2000000J0D01*
G01*
X176403000Y-83185000D02*
X175895000Y-83185000D01*
X176403000Y-75565000D02*
X175895000Y-75565000D01*
X185547000Y-78867000D02*
X186055000Y-78867000D01*
X185547000Y-78867000D02*
X185547000Y-79883000D01*
X185547000Y-79883000D02*
X186055000Y-79883000D01*
X185801000Y-83185000D02*
X185547000Y-83185000D01*
X185547000Y-75565000D02*
X185801000Y-75565000D01*
X185801000Y-83185000D02*
X186055000Y-83185000D01*
X185801000Y-75565000D02*
X186055000Y-75565000D01*
X175895000Y-75565000D02*
X175895000Y-83185000D01*
X186055000Y-75565000D02*
X186055000Y-83185000D01*
X153805000Y-89145000D02*
X153805000Y-90415000D01*
X161155000Y-89145000D02*
X161155000Y-90415000D01*
X161155000Y-111515000D02*
X161155000Y-110245000D01*
X153805000Y-111515000D02*
X153805000Y-110245000D01*
X153805000Y-89145000D02*
X161155000Y-89145000D01*
X153805000Y-111515000D02*
X161155000Y-111515000D01*
X153805000Y-90415000D02*
X152870000Y-90415000D01*
X186690000Y-93980000D02*
X186690000Y-91440000D01*
X188109903Y-93980000D02*
G75*
G03X188109903Y-93980000I-1419903J0D01*
G01*
X179070000Y-93980000D02*
X179070000Y-91440000D01*
X180489903Y-93980000D02*
G75*
G03X180489903Y-93980000I-1419903J0D01*
G01*
X186710000Y-80895000D02*
X186710000Y-77895000D01*
X189210000Y-77895000D02*
X189210000Y-80895000D01*
X159000000Y-90150000D02*
X156000000Y-90150000D01*
X156000000Y-87650000D02*
X159000000Y-87650000D01*
X184400000Y-95230000D02*
X181400000Y-95230000D01*
X181400000Y-92730000D02*
X184400000Y-92730000D01*
X161290000Y-118745000D02*
X163830000Y-118745000D01*
X163830000Y-118745000D02*
X163830000Y-121285000D01*
X163830000Y-121285000D02*
X161290000Y-121285000D01*
X161290000Y-118745000D02*
X156210000Y-118745000D01*
X156210000Y-118745000D02*
X156210000Y-121285000D01*
X156210000Y-121285000D02*
X161290000Y-121285000D01*
X170053000Y-91059000D02*
X170434000Y-90678000D01*
X170942000Y-91694000D02*
X171196000Y-91313000D01*
X170942000Y-84963000D02*
X171196000Y-85344000D01*
X170053000Y-85598000D02*
X170307000Y-85852000D01*
X176022000Y-88773000D02*
X176403000Y-88773000D01*
X176022000Y-87884000D02*
X176403000Y-87884000D01*
X176022000Y-88265000D02*
G75*
G03X176022000Y-88265000I-3302000J0D01*
G01*
X176530000Y-88265000D02*
G75*
G03X176530000Y-88265000I-3810000J0D01*
G01*
X180213000Y-91059000D02*
X180594000Y-90678000D01*
X181102000Y-91694000D02*
X181356000Y-91313000D01*
X181102000Y-84963000D02*
X181356000Y-85344000D01*
X180213000Y-85598000D02*
X180467000Y-85852000D01*
X186182000Y-88773000D02*
X186563000Y-88773000D01*
X186182000Y-87884000D02*
X186563000Y-87884000D01*
X186182000Y-88265000D02*
G75*
G03X186182000Y-88265000I-3302000J0D01*
G01*
X186690000Y-88265000D02*
G75*
G03X186690000Y-88265000I-3810000J0D01*
G01*
X173990000Y-73660000D02*
X171450000Y-73660000D01*
X171450000Y-73660000D02*
X171450000Y-71120000D01*
X189230000Y-68580000D02*
X171450000Y-68580000D01*
X173990000Y-73660000D02*
X189230000Y-73660000D01*
X189230000Y-68580000D02*
X189230000Y-73660000D01*
X171450000Y-68580000D02*
X171450000Y-71120000D01*
X138057000Y-102631571D02*
X138009381Y-102726809D01*
X138009381Y-102869666D01*
X138057000Y-103012524D01*
X138152238Y-103107762D01*
X138247476Y-103155381D01*
X138437952Y-103203000D01*
X138580810Y-103203000D01*
X138771286Y-103155381D01*
X138866524Y-103107762D01*
X138961762Y-103012524D01*
X139009381Y-102869666D01*
X139009381Y-102774428D01*
X138961762Y-102631571D01*
X138914143Y-102583952D01*
X138580810Y-102583952D01*
X138580810Y-102774428D01*
X138723667Y-102203000D02*
X138723667Y-101726809D01*
X139009381Y-102298238D02*
X138009381Y-101964905D01*
X139009381Y-101631571D01*
X139009381Y-100822047D02*
X139009381Y-101298238D01*
X138009381Y-101298238D01*
X139009381Y-99964904D02*
X139009381Y-100536333D01*
X139009381Y-100250619D02*
X138009381Y-100250619D01*
X138152238Y-100345857D01*
X138247476Y-100441095D01*
X138295095Y-100536333D01*
X138009381Y-99107761D02*
X138009381Y-99298238D01*
X138057000Y-99393476D01*
X138104619Y-99441095D01*
X138247476Y-99536333D01*
X138437952Y-99583952D01*
X138818905Y-99583952D01*
X138914143Y-99536333D01*
X138961762Y-99488714D01*
X139009381Y-99393476D01*
X139009381Y-99202999D01*
X138961762Y-99107761D01*
X138914143Y-99060142D01*
X138818905Y-99012523D01*
X138580810Y-99012523D01*
X138485571Y-99060142D01*
X138437952Y-99107761D01*
X138390333Y-99202999D01*
X138390333Y-99393476D01*
X138437952Y-99488714D01*
X138485571Y-99536333D01*
X138580810Y-99583952D01*
X138009381Y-98726809D02*
X139009381Y-98393476D01*
X138009381Y-98060142D01*
X138437952Y-97583952D02*
X138390333Y-97679190D01*
X138342714Y-97726809D01*
X138247476Y-97774428D01*
X138199857Y-97774428D01*
X138104619Y-97726809D01*
X138057000Y-97679190D01*
X138009381Y-97583952D01*
X138009381Y-97393475D01*
X138057000Y-97298237D01*
X138104619Y-97250618D01*
X138199857Y-97202999D01*
X138247476Y-97202999D01*
X138342714Y-97250618D01*
X138390333Y-97298237D01*
X138437952Y-97393475D01*
X138437952Y-97583952D01*
X138485571Y-97679190D01*
X138533190Y-97726809D01*
X138628429Y-97774428D01*
X138818905Y-97774428D01*
X138914143Y-97726809D01*
X138961762Y-97679190D01*
X139009381Y-97583952D01*
X139009381Y-97393475D01*
X138961762Y-97298237D01*
X138914143Y-97250618D01*
X138818905Y-97202999D01*
X138628429Y-97202999D01*
X138533190Y-97250618D01*
X138485571Y-97298237D01*
X138437952Y-97393475D01*
X136930000Y-80414762D02*
X137072857Y-80462381D01*
X137310953Y-80462381D01*
X137406191Y-80414762D01*
X137453810Y-80367143D01*
X137501429Y-80271905D01*
X137501429Y-80176667D01*
X137453810Y-80081429D01*
X137406191Y-80033810D01*
X137310953Y-79986190D01*
X137120476Y-79938571D01*
X137025238Y-79890952D01*
X136977619Y-79843333D01*
X136930000Y-79748095D01*
X136930000Y-79652857D01*
X136977619Y-79557619D01*
X137025238Y-79510000D01*
X137120476Y-79462381D01*
X137358572Y-79462381D01*
X137501429Y-79510000D01*
X137930000Y-80462381D02*
X137930000Y-79462381D01*
X138406190Y-80462381D02*
X138406190Y-79462381D01*
X138644285Y-79462381D01*
X138787143Y-79510000D01*
X138882381Y-79605238D01*
X138930000Y-79700476D01*
X138977619Y-79890952D01*
X138977619Y-80033810D01*
X138930000Y-80224286D01*
X138882381Y-80319524D01*
X138787143Y-80414762D01*
X138644285Y-80462381D01*
X138406190Y-80462381D01*
X139358571Y-79557619D02*
X139406190Y-79510000D01*
X139501428Y-79462381D01*
X139739524Y-79462381D01*
X139834762Y-79510000D01*
X139882381Y-79557619D01*
X139930000Y-79652857D01*
X139930000Y-79748095D01*
X139882381Y-79890952D01*
X139310952Y-80462381D01*
X139930000Y-80462381D01*
X155980000Y-80414762D02*
X156122857Y-80462381D01*
X156360953Y-80462381D01*
X156456191Y-80414762D01*
X156503810Y-80367143D01*
X156551429Y-80271905D01*
X156551429Y-80176667D01*
X156503810Y-80081429D01*
X156456191Y-80033810D01*
X156360953Y-79986190D01*
X156170476Y-79938571D01*
X156075238Y-79890952D01*
X156027619Y-79843333D01*
X155980000Y-79748095D01*
X155980000Y-79652857D01*
X156027619Y-79557619D01*
X156075238Y-79510000D01*
X156170476Y-79462381D01*
X156408572Y-79462381D01*
X156551429Y-79510000D01*
X156980000Y-80462381D02*
X156980000Y-79462381D01*
X157456190Y-80462381D02*
X157456190Y-79462381D01*
X157694285Y-79462381D01*
X157837143Y-79510000D01*
X157932381Y-79605238D01*
X157980000Y-79700476D01*
X158027619Y-79890952D01*
X158027619Y-80033810D01*
X157980000Y-80224286D01*
X157932381Y-80319524D01*
X157837143Y-80414762D01*
X157694285Y-80462381D01*
X157456190Y-80462381D01*
X158980000Y-80462381D02*
X158408571Y-80462381D01*
X158694285Y-80462381D02*
X158694285Y-79462381D01*
X158599047Y-79605238D01*
X158503809Y-79700476D01*
X158408571Y-79748095D01*
X182665714Y-107918095D02*
X183332381Y-107918095D01*
X182284762Y-108156191D02*
X182999048Y-108394286D01*
X182999048Y-107775238D01*
X182332381Y-107203810D02*
X182332381Y-107108571D01*
X182380000Y-107013333D01*
X182427619Y-106965714D01*
X182522857Y-106918095D01*
X182713333Y-106870476D01*
X182951429Y-106870476D01*
X183141905Y-106918095D01*
X183237143Y-106965714D01*
X183284762Y-107013333D01*
X183332381Y-107108571D01*
X183332381Y-107203810D01*
X183284762Y-107299048D01*
X183237143Y-107346667D01*
X183141905Y-107394286D01*
X182951429Y-107441905D01*
X182713333Y-107441905D01*
X182522857Y-107394286D01*
X182427619Y-107346667D01*
X182380000Y-107299048D01*
X182332381Y-107203810D01*
X182332381Y-105965714D02*
X182332381Y-106441905D01*
X182808571Y-106489524D01*
X182760952Y-106441905D01*
X182713333Y-106346667D01*
X182713333Y-106108571D01*
X182760952Y-106013333D01*
X182808571Y-105965714D01*
X182903810Y-105918095D01*
X183141905Y-105918095D01*
X183237143Y-105965714D01*
X183284762Y-106013333D01*
X183332381Y-106108571D01*
X183332381Y-106346667D01*
X183284762Y-106441905D01*
X183237143Y-106489524D01*
X182427619Y-105537143D02*
X182380000Y-105489524D01*
X182332381Y-105394286D01*
X182332381Y-105156190D01*
X182380000Y-105060952D01*
X182427619Y-105013333D01*
X182522857Y-104965714D01*
X182618095Y-104965714D01*
X182760952Y-105013333D01*
X183332381Y-105584762D01*
X183332381Y-104965714D01*
X165298381Y-72985238D02*
X164822190Y-73318572D01*
X165298381Y-73556667D02*
X164298381Y-73556667D01*
X164298381Y-73175714D01*
X164346000Y-73080476D01*
X164393619Y-73032857D01*
X164488857Y-72985238D01*
X164631714Y-72985238D01*
X164726952Y-73032857D01*
X164774571Y-73080476D01*
X164822190Y-73175714D01*
X164822190Y-73556667D01*
X164298381Y-72699524D02*
X165298381Y-72366191D01*
X164298381Y-72032857D01*
X165298381Y-71175714D02*
X165298381Y-71747143D01*
X165298381Y-71461429D02*
X164298381Y-71461429D01*
X164441238Y-71556667D01*
X164536476Y-71651905D01*
X164584095Y-71747143D01*
X144343381Y-72985238D02*
X143867190Y-73318572D01*
X144343381Y-73556667D02*
X143343381Y-73556667D01*
X143343381Y-73175714D01*
X143391000Y-73080476D01*
X143438619Y-73032857D01*
X143533857Y-72985238D01*
X143676714Y-72985238D01*
X143771952Y-73032857D01*
X143819571Y-73080476D01*
X143867190Y-73175714D01*
X143867190Y-73556667D01*
X143343381Y-72699524D02*
X144343381Y-72366191D01*
X143343381Y-72032857D01*
X143438619Y-71747143D02*
X143391000Y-71699524D01*
X143343381Y-71604286D01*
X143343381Y-71366190D01*
X143391000Y-71270952D01*
X143438619Y-71223333D01*
X143533857Y-71175714D01*
X143629095Y-71175714D01*
X143771952Y-71223333D01*
X144343381Y-71794762D01*
X144343381Y-71175714D01*
X169373586Y-96637071D02*
X169945015Y-96637071D01*
X169659301Y-96922786D02*
X169659301Y-96351357D01*
X174453586Y-96637071D02*
X175025015Y-96637071D01*
X174739301Y-96922786D02*
X174739301Y-96351357D01*
X174742071Y-77641414D02*
X174742071Y-77069985D01*
X175027786Y-77355699D02*
X174456357Y-77355699D01*
X172075071Y-81680014D02*
X172075071Y-81108585D01*
X172360786Y-81394299D02*
X171789357Y-81394299D01*
X178165476Y-79827381D02*
X178165476Y-78827381D01*
X179213095Y-79732143D02*
X179165476Y-79779762D01*
X179022619Y-79827381D01*
X178927381Y-79827381D01*
X178784523Y-79779762D01*
X178689285Y-79684524D01*
X178641666Y-79589286D01*
X178594047Y-79398810D01*
X178594047Y-79255952D01*
X178641666Y-79065476D01*
X178689285Y-78970238D01*
X178784523Y-78875000D01*
X178927381Y-78827381D01*
X179022619Y-78827381D01*
X179165476Y-78875000D01*
X179213095Y-78922619D01*
X180117857Y-79827381D02*
X179641666Y-79827381D01*
X179641666Y-78827381D01*
X180355952Y-78827381D02*
X181022619Y-78827381D01*
X180594047Y-79827381D01*
X181832143Y-78827381D02*
X181641666Y-78827381D01*
X181546428Y-78875000D01*
X181498809Y-78922619D01*
X181403571Y-79065476D01*
X181355952Y-79255952D01*
X181355952Y-79636905D01*
X181403571Y-79732143D01*
X181451190Y-79779762D01*
X181546428Y-79827381D01*
X181736905Y-79827381D01*
X181832143Y-79779762D01*
X181879762Y-79732143D01*
X181927381Y-79636905D01*
X181927381Y-79398810D01*
X181879762Y-79303571D01*
X181832143Y-79255952D01*
X181736905Y-79208333D01*
X181546428Y-79208333D01*
X181451190Y-79255952D01*
X181403571Y-79303571D01*
X181355952Y-79398810D01*
X182784524Y-78827381D02*
X182594047Y-78827381D01*
X182498809Y-78875000D01*
X182451190Y-78922619D01*
X182355952Y-79065476D01*
X182308333Y-79255952D01*
X182308333Y-79636905D01*
X182355952Y-79732143D01*
X182403571Y-79779762D01*
X182498809Y-79827381D01*
X182689286Y-79827381D01*
X182784524Y-79779762D01*
X182832143Y-79732143D01*
X182879762Y-79636905D01*
X182879762Y-79398810D01*
X182832143Y-79303571D01*
X182784524Y-79255952D01*
X182689286Y-79208333D01*
X182498809Y-79208333D01*
X182403571Y-79255952D01*
X182355952Y-79303571D01*
X182308333Y-79398810D01*
X183498809Y-78827381D02*
X183594048Y-78827381D01*
X183689286Y-78875000D01*
X183736905Y-78922619D01*
X183784524Y-79017857D01*
X183832143Y-79208333D01*
X183832143Y-79446429D01*
X183784524Y-79636905D01*
X183736905Y-79732143D01*
X183689286Y-79779762D01*
X183594048Y-79827381D01*
X183498809Y-79827381D01*
X183403571Y-79779762D01*
X183355952Y-79732143D01*
X183308333Y-79636905D01*
X183260714Y-79446429D01*
X183260714Y-79208333D01*
X183308333Y-79017857D01*
X183355952Y-78922619D01*
X183403571Y-78875000D01*
X183498809Y-78827381D01*
X157265714Y-101568095D02*
X157932381Y-101568095D01*
X156884762Y-101806191D02*
X157599048Y-102044286D01*
X157599048Y-101425238D01*
X156932381Y-100853810D02*
X156932381Y-100758571D01*
X156980000Y-100663333D01*
X157027619Y-100615714D01*
X157122857Y-100568095D01*
X157313333Y-100520476D01*
X157551429Y-100520476D01*
X157741905Y-100568095D01*
X157837143Y-100615714D01*
X157884762Y-100663333D01*
X157932381Y-100758571D01*
X157932381Y-100853810D01*
X157884762Y-100949048D01*
X157837143Y-100996667D01*
X157741905Y-101044286D01*
X157551429Y-101091905D01*
X157313333Y-101091905D01*
X157122857Y-101044286D01*
X157027619Y-100996667D01*
X156980000Y-100949048D01*
X156932381Y-100853810D01*
X156932381Y-99615714D02*
X156932381Y-100091905D01*
X157408571Y-100139524D01*
X157360952Y-100091905D01*
X157313333Y-99996667D01*
X157313333Y-99758571D01*
X157360952Y-99663333D01*
X157408571Y-99615714D01*
X157503810Y-99568095D01*
X157741905Y-99568095D01*
X157837143Y-99615714D01*
X157884762Y-99663333D01*
X157932381Y-99758571D01*
X157932381Y-99996667D01*
X157884762Y-100091905D01*
X157837143Y-100139524D01*
X156932381Y-99234762D02*
X156932381Y-98615714D01*
X157313333Y-98949048D01*
X157313333Y-98806190D01*
X157360952Y-98710952D01*
X157408571Y-98663333D01*
X157503810Y-98615714D01*
X157741905Y-98615714D01*
X157837143Y-98663333D01*
X157884762Y-98710952D01*
X157932381Y-98806190D01*
X157932381Y-99091905D01*
X157884762Y-99187143D01*
X157837143Y-99234762D01*
X172124762Y-88590381D02*
X171791428Y-88114190D01*
X171553333Y-88590381D02*
X171553333Y-87590381D01*
X171934286Y-87590381D01*
X172029524Y-87638000D01*
X172077143Y-87685619D01*
X172124762Y-87780857D01*
X172124762Y-87923714D01*
X172077143Y-88018952D01*
X172029524Y-88066571D01*
X171934286Y-88114190D01*
X171553333Y-88114190D01*
X172410476Y-87590381D02*
X172743809Y-88590381D01*
X173077143Y-87590381D01*
X173315238Y-87590381D02*
X173934286Y-87590381D01*
X173600952Y-87971333D01*
X173743810Y-87971333D01*
X173839048Y-88018952D01*
X173886667Y-88066571D01*
X173934286Y-88161810D01*
X173934286Y-88399905D01*
X173886667Y-88495143D01*
X173839048Y-88542762D01*
X173743810Y-88590381D01*
X173458095Y-88590381D01*
X173362857Y-88542762D01*
X173315238Y-88495143D01*
X182284762Y-88590381D02*
X181951428Y-88114190D01*
X181713333Y-88590381D02*
X181713333Y-87590381D01*
X182094286Y-87590381D01*
X182189524Y-87638000D01*
X182237143Y-87685619D01*
X182284762Y-87780857D01*
X182284762Y-87923714D01*
X182237143Y-88018952D01*
X182189524Y-88066571D01*
X182094286Y-88114190D01*
X181713333Y-88114190D01*
X182570476Y-87590381D02*
X182903809Y-88590381D01*
X183237143Y-87590381D01*
X183999048Y-87923714D02*
X183999048Y-88590381D01*
X183760952Y-87542762D02*
X183522857Y-88257048D01*
X184141905Y-88257048D01*
%LPC*%
D12*
X142240000Y-83820000D03*
D13*
X139740000Y-83820000D03*
D12*
X139700000Y-86360000D03*
D13*
X142200000Y-86360000D03*
D12*
X137160000Y-83820000D03*
D13*
X134660000Y-83820000D03*
D12*
X134620000Y-86360000D03*
D13*
X137120000Y-86360000D03*
D12*
X176530000Y-120650000D03*
D13*
X176530000Y-118150000D03*
D12*
X166370000Y-120650000D03*
D13*
X166370000Y-118150000D03*
D12*
X153670000Y-120650000D03*
D13*
X153670000Y-118150000D03*
D12*
X143510000Y-120650000D03*
D13*
X143510000Y-118150000D03*
D12*
X158750000Y-83820000D03*
D13*
X161250000Y-83820000D03*
D12*
X153670000Y-86360000D03*
D13*
X156170000Y-86360000D03*
D12*
X153670000Y-83820000D03*
D13*
X156170000Y-83820000D03*
D12*
X161290000Y-86360000D03*
D13*
X158790000Y-86360000D03*
D12*
X148590000Y-71120000D03*
D13*
X146090000Y-71120000D03*
D12*
X169545000Y-71120000D03*
D13*
X167045000Y-71120000D03*
D12*
X171450000Y-108585000D03*
D13*
X168950000Y-108585000D03*
D12*
X171450000Y-103505000D03*
D13*
X171450000Y-106005000D03*
D14*
X146050000Y-76200000D03*
X146050000Y-73660000D03*
X169545000Y-68580000D03*
X167005000Y-68580000D03*
X168910000Y-111125000D03*
X168910000Y-113665000D03*
X171450000Y-111125000D03*
X171450000Y-113665000D03*
X168910000Y-103505000D03*
X168910000Y-106045000D03*
X173990000Y-111125000D03*
X173990000Y-113665000D03*
D15*
X134620000Y-88900000D03*
X134620000Y-91440000D03*
X134620000Y-93980000D03*
X134620000Y-96520000D03*
X134620000Y-99060000D03*
X134620000Y-101600000D03*
X134620000Y-104140000D03*
X134620000Y-106680000D03*
X134620000Y-109220000D03*
X134620000Y-111760000D03*
X142240000Y-111760000D03*
X142240000Y-109220000D03*
X142240000Y-106680000D03*
X142240000Y-104140000D03*
X142240000Y-101600000D03*
X142240000Y-99060000D03*
X142240000Y-96520000D03*
X142240000Y-93980000D03*
X142240000Y-91440000D03*
X142240000Y-88900000D03*
X130810000Y-81280000D03*
X130810000Y-83820000D03*
X130810000Y-86360000D03*
X130810000Y-88900000D03*
X130810000Y-91440000D03*
X130810000Y-93980000D03*
X130810000Y-96520000D03*
X130810000Y-99060000D03*
X130810000Y-101600000D03*
X130810000Y-104140000D03*
X130810000Y-106680000D03*
X130810000Y-109220000D03*
X130810000Y-111760000D03*
X130810000Y-114300000D03*
X146050000Y-114300000D03*
X146050000Y-111760000D03*
X146050000Y-109220000D03*
X146050000Y-106680000D03*
X146050000Y-104140000D03*
X146050000Y-101600000D03*
X146050000Y-99060000D03*
X146050000Y-96520000D03*
X146050000Y-93980000D03*
X146050000Y-91440000D03*
X146050000Y-88900000D03*
X146050000Y-86360000D03*
X146050000Y-83820000D03*
X146050000Y-81280000D03*
X148590000Y-81280000D03*
X148590000Y-83820000D03*
X148590000Y-86360000D03*
X148590000Y-88900000D03*
X148590000Y-91440000D03*
X148590000Y-93980000D03*
X148590000Y-96520000D03*
X148590000Y-99060000D03*
X148590000Y-101600000D03*
X148590000Y-104140000D03*
X148590000Y-106680000D03*
X148590000Y-109220000D03*
X148590000Y-111760000D03*
X148590000Y-114300000D03*
X163830000Y-114300000D03*
X163830000Y-111760000D03*
X163830000Y-109220000D03*
X163830000Y-106680000D03*
X163830000Y-104140000D03*
X163830000Y-101600000D03*
X163830000Y-99060000D03*
X163830000Y-96520000D03*
X163830000Y-93980000D03*
X163830000Y-91440000D03*
X163830000Y-88900000D03*
X163830000Y-86360000D03*
X163830000Y-83820000D03*
X163830000Y-81280000D03*
X179070000Y-97790000D03*
X179070000Y-100330000D03*
X179070000Y-102870000D03*
X179070000Y-105410000D03*
X179070000Y-107950000D03*
X179070000Y-110490000D03*
X179070000Y-113030000D03*
X179070000Y-115570000D03*
X186690000Y-115570000D03*
X186690000Y-113030000D03*
X186690000Y-110490000D03*
X186690000Y-107950000D03*
X186690000Y-105410000D03*
X186690000Y-102870000D03*
X186690000Y-100330000D03*
X186690000Y-97790000D03*
D14*
X148590000Y-68580000D03*
X146050000Y-68580000D03*
X167005000Y-76200000D03*
X167005000Y-73660000D03*
D12*
X176530000Y-108585000D03*
D13*
X174030000Y-108585000D03*
D12*
X176530000Y-103505000D03*
D13*
X176530000Y-106005000D03*
D16*
X170180000Y-100330000D03*
X171450000Y-100330000D03*
X168910000Y-100330000D03*
X175260000Y-100330000D03*
X176530000Y-100330000D03*
X173990000Y-100330000D03*
D14*
X176530000Y-111125000D03*
X176530000Y-113665000D03*
X173990000Y-103505000D03*
X173990000Y-106045000D03*
D17*
X163195000Y-72390000D03*
X163195000Y-74930000D03*
X163195000Y-69850000D03*
X142240000Y-72390000D03*
X142240000Y-74930000D03*
X142240000Y-69850000D03*
D14*
X168910000Y-116205000D03*
X171450000Y-116205000D03*
X176530000Y-116205000D03*
X173990000Y-116205000D03*
D18*
X130175000Y-120015000D03*
X132715000Y-120015000D03*
X135255000Y-120015000D03*
X137795000Y-120015000D03*
X140335000Y-120015000D03*
D19*
X130810000Y-69850000D03*
D18*
X130810000Y-72390000D03*
X130810000Y-74930000D03*
D19*
X133350000Y-69850000D03*
D18*
X133350000Y-72390000D03*
X133350000Y-74930000D03*
D19*
X135890000Y-69850000D03*
D18*
X135890000Y-72390000D03*
X135890000Y-74930000D03*
D19*
X138430000Y-69850000D03*
D18*
X138430000Y-72390000D03*
X138430000Y-74930000D03*
D19*
X159385000Y-69850000D03*
D18*
X159385000Y-72390000D03*
X159385000Y-74930000D03*
D19*
X156845000Y-69850000D03*
D18*
X156845000Y-72390000D03*
X156845000Y-74930000D03*
D19*
X154305000Y-69850000D03*
D18*
X154305000Y-72390000D03*
X154305000Y-74930000D03*
D19*
X151765000Y-69850000D03*
D18*
X151765000Y-72390000D03*
X151765000Y-74930000D03*
D19*
X180340000Y-120015000D03*
D18*
X182880000Y-120015000D03*
X185420000Y-120015000D03*
X148590000Y-73660000D03*
X148590000Y-76200000D03*
X169545000Y-73660000D03*
X169545000Y-76200000D03*
D20*
X151130000Y-78740000D03*
X151130000Y-81280000D03*
X151130000Y-83820000D03*
X151130000Y-86360000D03*
X151130000Y-88900000D03*
X151130000Y-91440000D03*
X151130000Y-93980000D03*
X151130000Y-96520000D03*
X151130000Y-99060000D03*
X151130000Y-101600000D03*
X151130000Y-104140000D03*
X151130000Y-106680000D03*
X151130000Y-109220000D03*
X151130000Y-111760000D03*
X166370000Y-111760000D03*
X166370000Y-109220000D03*
X166370000Y-106680000D03*
X166370000Y-104140000D03*
X166370000Y-101600000D03*
X166370000Y-99060000D03*
X166370000Y-96520000D03*
X166370000Y-93980000D03*
X166370000Y-91440000D03*
X166370000Y-88900000D03*
X166370000Y-86360000D03*
X166370000Y-83820000D03*
X166370000Y-81280000D03*
X166370000Y-78740000D03*
D21*
X171450000Y-119380000D03*
X168910000Y-119380000D03*
X173990000Y-119380000D03*
X148590000Y-119380000D03*
X146050000Y-119380000D03*
X151130000Y-119380000D03*
D12*
X168910000Y-95250000D03*
D13*
X171410000Y-95250000D03*
D12*
X173990000Y-95250000D03*
D13*
X176490000Y-95250000D03*
D12*
X173355000Y-78105000D03*
D13*
X173355000Y-75605000D03*
D12*
X173355000Y-80645000D03*
D13*
X173355000Y-83145000D03*
D15*
X184785000Y-75565000D03*
X182245000Y-75565000D03*
X179705000Y-75565000D03*
X177165000Y-75565000D03*
X177165000Y-83185000D03*
X179705000Y-83185000D03*
X182245000Y-83185000D03*
X184785000Y-83185000D03*
X153670000Y-91440000D03*
X153670000Y-93980000D03*
X153670000Y-96520000D03*
X153670000Y-99060000D03*
X153670000Y-101600000D03*
X153670000Y-104140000D03*
X153670000Y-106680000D03*
X153670000Y-109220000D03*
X161290000Y-109220000D03*
X161290000Y-106680000D03*
X161290000Y-104140000D03*
X161290000Y-101600000D03*
X161290000Y-99060000D03*
X161290000Y-96520000D03*
X161290000Y-93980000D03*
X161290000Y-91440000D03*
D14*
X186690000Y-93980000D03*
X186690000Y-91440000D03*
X179070000Y-93980000D03*
X179070000Y-91440000D03*
D12*
X187960000Y-80645000D03*
D13*
X187960000Y-78145000D03*
D12*
X158750000Y-88900000D03*
D13*
X156250000Y-88900000D03*
D12*
X184150000Y-93980000D03*
D13*
X181650000Y-93980000D03*
D19*
X162560000Y-120015000D03*
D18*
X160020000Y-120015000D03*
X157480000Y-120015000D03*
D17*
X175260000Y-88265000D03*
X172720000Y-85725000D03*
X172720000Y-90805000D03*
X185420000Y-88265000D03*
X182880000Y-85725000D03*
X182880000Y-90805000D03*
D19*
X172720000Y-72390000D03*
D22*
X172720000Y-69850000D03*
X175260000Y-72390000D03*
X175260000Y-69850000D03*
X177800000Y-72390000D03*
X177800000Y-69850000D03*
X180340000Y-72390000D03*
X180340000Y-69850000D03*
X182880000Y-72390000D03*
X182880000Y-69850000D03*
X185420000Y-72390000D03*
X185420000Y-69850000D03*
X187960000Y-72390000D03*
X187960000Y-69850000D03*
M02*
