G04 #@! TF.FileFunction,Legend,Top*
%FSLAX46Y46*%
G04 Gerber Fmt 4.6, Leading zero omitted, Abs format (unit mm)*
G04 Created by KiCad (PCBNEW 4.0.0-rc2-stable) date 22.03.2016 15:32:23*
%MOMM*%
G01*
G04 APERTURE LIST*
%ADD10C,0.100000*%
%ADD11C,0.150000*%
%ADD12R,1.700000X1.700000*%
%ADD13C,1.700000*%
%ADD14C,1.797000*%
%ADD15O,2.000000X2.000000*%
%ADD16O,2.432000X2.940000*%
%ADD17O,1.299160X1.901140*%
%ADD18C,2.127200*%
%ADD19C,1.924000*%
%ADD20R,2.127200X2.127200*%
%ADD21O,2.127200X2.127200*%
G04 APERTURE END LIST*
D10*
D11*
X159863357Y-117849286D02*
X159863357Y-117099286D01*
X160291929Y-117849286D01*
X160291929Y-117099286D01*
X160649071Y-117456429D02*
X160899071Y-117456429D01*
X161006214Y-117849286D02*
X160649071Y-117849286D01*
X160649071Y-117099286D01*
X161006214Y-117099286D01*
X161256214Y-117099286D02*
X161434785Y-117849286D01*
X161577642Y-117313571D01*
X161720500Y-117849286D01*
X161899071Y-117099286D01*
X159434786Y-118656429D02*
X159541929Y-118692143D01*
X159577644Y-118727857D01*
X159613358Y-118799286D01*
X159613358Y-118906429D01*
X159577644Y-118977857D01*
X159541929Y-119013571D01*
X159470501Y-119049286D01*
X159184786Y-119049286D01*
X159184786Y-118299286D01*
X159434786Y-118299286D01*
X159506215Y-118335000D01*
X159541929Y-118370714D01*
X159577644Y-118442143D01*
X159577644Y-118513571D01*
X159541929Y-118585000D01*
X159506215Y-118620714D01*
X159434786Y-118656429D01*
X159184786Y-118656429D01*
X160077644Y-118299286D02*
X160220501Y-118299286D01*
X160291929Y-118335000D01*
X160363358Y-118406429D01*
X160399072Y-118549286D01*
X160399072Y-118799286D01*
X160363358Y-118942143D01*
X160291929Y-119013571D01*
X160220501Y-119049286D01*
X160077644Y-119049286D01*
X160006215Y-119013571D01*
X159934786Y-118942143D01*
X159899072Y-118799286D01*
X159899072Y-118549286D01*
X159934786Y-118406429D01*
X160006215Y-118335000D01*
X160077644Y-118299286D01*
X160684786Y-118835000D02*
X161041929Y-118835000D01*
X160613358Y-119049286D02*
X160863358Y-118299286D01*
X161113358Y-119049286D01*
X161791929Y-119049286D02*
X161541929Y-118692143D01*
X161363357Y-119049286D02*
X161363357Y-118299286D01*
X161649072Y-118299286D01*
X161720500Y-118335000D01*
X161756215Y-118370714D01*
X161791929Y-118442143D01*
X161791929Y-118549286D01*
X161756215Y-118620714D01*
X161720500Y-118656429D01*
X161649072Y-118692143D01*
X161363357Y-118692143D01*
X162113357Y-119049286D02*
X162113357Y-118299286D01*
X162291929Y-118299286D01*
X162399072Y-118335000D01*
X162470500Y-118406429D01*
X162506215Y-118477857D01*
X162541929Y-118620714D01*
X162541929Y-118727857D01*
X162506215Y-118870714D01*
X162470500Y-118942143D01*
X162399072Y-119013571D01*
X162291929Y-119049286D01*
X162113357Y-119049286D01*
X171468000Y-68439071D02*
X171575143Y-68474786D01*
X171753714Y-68474786D01*
X171825143Y-68439071D01*
X171860857Y-68403357D01*
X171896572Y-68331929D01*
X171896572Y-68260500D01*
X171860857Y-68189071D01*
X171825143Y-68153357D01*
X171753714Y-68117643D01*
X171610857Y-68081929D01*
X171539429Y-68046214D01*
X171503714Y-68010500D01*
X171468000Y-67939071D01*
X171468000Y-67867643D01*
X171503714Y-67796214D01*
X171539429Y-67760500D01*
X171610857Y-67724786D01*
X171789429Y-67724786D01*
X171896572Y-67760500D01*
X172218000Y-68474786D02*
X172218000Y-67724786D01*
X172575143Y-68474786D02*
X172575143Y-67724786D01*
X172753715Y-67724786D01*
X172860858Y-67760500D01*
X172932286Y-67831929D01*
X172968001Y-67903357D01*
X173003715Y-68046214D01*
X173003715Y-68153357D01*
X172968001Y-68296214D01*
X172932286Y-68367643D01*
X172860858Y-68439071D01*
X172753715Y-68474786D01*
X172575143Y-68474786D01*
X173718001Y-68474786D02*
X173289429Y-68474786D01*
X173503715Y-68474786D02*
X173503715Y-67724786D01*
X173432286Y-67831929D01*
X173360858Y-67903357D01*
X173289429Y-67939071D01*
X133495000Y-68439071D02*
X133602143Y-68474786D01*
X133780714Y-68474786D01*
X133852143Y-68439071D01*
X133887857Y-68403357D01*
X133923572Y-68331929D01*
X133923572Y-68260500D01*
X133887857Y-68189071D01*
X133852143Y-68153357D01*
X133780714Y-68117643D01*
X133637857Y-68081929D01*
X133566429Y-68046214D01*
X133530714Y-68010500D01*
X133495000Y-67939071D01*
X133495000Y-67867643D01*
X133530714Y-67796214D01*
X133566429Y-67760500D01*
X133637857Y-67724786D01*
X133816429Y-67724786D01*
X133923572Y-67760500D01*
X134245000Y-68474786D02*
X134245000Y-67724786D01*
X134602143Y-68474786D02*
X134602143Y-67724786D01*
X134780715Y-67724786D01*
X134887858Y-67760500D01*
X134959286Y-67831929D01*
X134995001Y-67903357D01*
X135030715Y-68046214D01*
X135030715Y-68153357D01*
X134995001Y-68296214D01*
X134959286Y-68367643D01*
X134887858Y-68439071D01*
X134780715Y-68474786D01*
X134602143Y-68474786D01*
X135316429Y-67796214D02*
X135352143Y-67760500D01*
X135423572Y-67724786D01*
X135602143Y-67724786D01*
X135673572Y-67760500D01*
X135709286Y-67796214D01*
X135745001Y-67867643D01*
X135745001Y-67939071D01*
X135709286Y-68046214D01*
X135280715Y-68474786D01*
X135745001Y-68474786D01*
X168035000Y-78507786D02*
X168035000Y-77757786D01*
X168213572Y-77757786D01*
X168320715Y-77793500D01*
X168392143Y-77864929D01*
X168427858Y-77936357D01*
X168463572Y-78079214D01*
X168463572Y-78186357D01*
X168427858Y-78329214D01*
X168392143Y-78400643D01*
X168320715Y-78472071D01*
X168213572Y-78507786D01*
X168035000Y-78507786D01*
X169035000Y-78114929D02*
X168785000Y-78114929D01*
X168785000Y-78507786D02*
X168785000Y-77757786D01*
X169142143Y-77757786D01*
X169356429Y-77757786D02*
X169856429Y-78507786D01*
X169856429Y-77757786D02*
X169356429Y-78507786D01*
X178460786Y-75057142D02*
X178496500Y-74985714D01*
X178532214Y-74949999D01*
X178603643Y-74914285D01*
X178639357Y-74914285D01*
X178710786Y-74949999D01*
X178746500Y-74985714D01*
X178782214Y-75057142D01*
X178782214Y-75199999D01*
X178746500Y-75271428D01*
X178710786Y-75307142D01*
X178639357Y-75342857D01*
X178603643Y-75342857D01*
X178532214Y-75307142D01*
X178496500Y-75271428D01*
X178460786Y-75199999D01*
X178460786Y-75057142D01*
X178425071Y-74985714D01*
X178389357Y-74949999D01*
X178317929Y-74914285D01*
X178175071Y-74914285D01*
X178103643Y-74949999D01*
X178067929Y-74985714D01*
X178032214Y-75057142D01*
X178032214Y-75199999D01*
X178067929Y-75271428D01*
X178103643Y-75307142D01*
X178175071Y-75342857D01*
X178317929Y-75342857D01*
X178389357Y-75307142D01*
X178425071Y-75271428D01*
X178460786Y-75199999D01*
X178782214Y-76021428D02*
X178782214Y-75664285D01*
X178425071Y-75628571D01*
X178460786Y-75664285D01*
X178496500Y-75735714D01*
X178496500Y-75914285D01*
X178460786Y-75985714D01*
X178425071Y-76021428D01*
X178353643Y-76057143D01*
X178175071Y-76057143D01*
X178103643Y-76021428D01*
X178067929Y-75985714D01*
X178032214Y-75914285D01*
X178032214Y-75735714D01*
X178067929Y-75664285D01*
X178103643Y-75628571D01*
X178460786Y-76485714D02*
X178496500Y-76414286D01*
X178532214Y-76378571D01*
X178603643Y-76342857D01*
X178639357Y-76342857D01*
X178710786Y-76378571D01*
X178746500Y-76414286D01*
X178782214Y-76485714D01*
X178782214Y-76628571D01*
X178746500Y-76700000D01*
X178710786Y-76735714D01*
X178639357Y-76771429D01*
X178603643Y-76771429D01*
X178532214Y-76735714D01*
X178496500Y-76700000D01*
X178460786Y-76628571D01*
X178460786Y-76485714D01*
X178425071Y-76414286D01*
X178389357Y-76378571D01*
X178317929Y-76342857D01*
X178175071Y-76342857D01*
X178103643Y-76378571D01*
X178067929Y-76414286D01*
X178032214Y-76485714D01*
X178032214Y-76628571D01*
X178067929Y-76700000D01*
X178103643Y-76735714D01*
X178175071Y-76771429D01*
X178317929Y-76771429D01*
X178389357Y-76735714D01*
X178425071Y-76700000D01*
X178460786Y-76628571D01*
X178782214Y-77235715D02*
X178782214Y-77307143D01*
X178746500Y-77378572D01*
X178710786Y-77414286D01*
X178639357Y-77450000D01*
X178496500Y-77485715D01*
X178317929Y-77485715D01*
X178175071Y-77450000D01*
X178103643Y-77414286D01*
X178067929Y-77378572D01*
X178032214Y-77307143D01*
X178032214Y-77235715D01*
X178067929Y-77164286D01*
X178103643Y-77128572D01*
X178175071Y-77092857D01*
X178317929Y-77057143D01*
X178496500Y-77057143D01*
X178639357Y-77092857D01*
X178710786Y-77128572D01*
X178746500Y-77164286D01*
X178782214Y-77235715D01*
X178782214Y-70191428D02*
X178782214Y-70048571D01*
X178746500Y-69977142D01*
X178710786Y-69941428D01*
X178603643Y-69869999D01*
X178460786Y-69834285D01*
X178175071Y-69834285D01*
X178103643Y-69869999D01*
X178067929Y-69905714D01*
X178032214Y-69977142D01*
X178032214Y-70119999D01*
X178067929Y-70191428D01*
X178103643Y-70227142D01*
X178175071Y-70262857D01*
X178353643Y-70262857D01*
X178425071Y-70227142D01*
X178460786Y-70191428D01*
X178496500Y-70119999D01*
X178496500Y-69977142D01*
X178460786Y-69905714D01*
X178425071Y-69869999D01*
X178353643Y-69834285D01*
X178782214Y-70941428D02*
X178782214Y-70584285D01*
X178425071Y-70548571D01*
X178460786Y-70584285D01*
X178496500Y-70655714D01*
X178496500Y-70834285D01*
X178460786Y-70905714D01*
X178425071Y-70941428D01*
X178353643Y-70977143D01*
X178175071Y-70977143D01*
X178103643Y-70941428D01*
X178067929Y-70905714D01*
X178032214Y-70834285D01*
X178032214Y-70655714D01*
X178067929Y-70584285D01*
X178103643Y-70548571D01*
X178460786Y-71405714D02*
X178496500Y-71334286D01*
X178532214Y-71298571D01*
X178603643Y-71262857D01*
X178639357Y-71262857D01*
X178710786Y-71298571D01*
X178746500Y-71334286D01*
X178782214Y-71405714D01*
X178782214Y-71548571D01*
X178746500Y-71620000D01*
X178710786Y-71655714D01*
X178639357Y-71691429D01*
X178603643Y-71691429D01*
X178532214Y-71655714D01*
X178496500Y-71620000D01*
X178460786Y-71548571D01*
X178460786Y-71405714D01*
X178425071Y-71334286D01*
X178389357Y-71298571D01*
X178317929Y-71262857D01*
X178175071Y-71262857D01*
X178103643Y-71298571D01*
X178067929Y-71334286D01*
X178032214Y-71405714D01*
X178032214Y-71548571D01*
X178067929Y-71620000D01*
X178103643Y-71655714D01*
X178175071Y-71691429D01*
X178317929Y-71691429D01*
X178389357Y-71655714D01*
X178425071Y-71620000D01*
X178460786Y-71548571D01*
X178032214Y-72405715D02*
X178032214Y-71977143D01*
X178032214Y-72191429D02*
X178782214Y-72191429D01*
X178675071Y-72120000D01*
X178603643Y-72048572D01*
X178567929Y-71977143D01*
X170825000Y-69224929D02*
X170575000Y-69224929D01*
X170575000Y-69617786D02*
X170575000Y-68867786D01*
X170932143Y-68867786D01*
X171646429Y-69546357D02*
X171610715Y-69582071D01*
X171503572Y-69617786D01*
X171432143Y-69617786D01*
X171325000Y-69582071D01*
X171253572Y-69510643D01*
X171217857Y-69439214D01*
X171182143Y-69296357D01*
X171182143Y-69189214D01*
X171217857Y-69046357D01*
X171253572Y-68974929D01*
X171325000Y-68903500D01*
X171432143Y-68867786D01*
X171503572Y-68867786D01*
X171610715Y-68903500D01*
X171646429Y-68939214D01*
X171932143Y-68939214D02*
X171967857Y-68903500D01*
X172039286Y-68867786D01*
X172217857Y-68867786D01*
X172289286Y-68903500D01*
X172325000Y-68939214D01*
X172360715Y-69010643D01*
X172360715Y-69082071D01*
X172325000Y-69189214D01*
X171896429Y-69617786D01*
X172360715Y-69617786D01*
X173365000Y-69224929D02*
X173115000Y-69224929D01*
X173115000Y-69617786D02*
X173115000Y-68867786D01*
X173472143Y-68867786D01*
X174186429Y-69546357D02*
X174150715Y-69582071D01*
X174043572Y-69617786D01*
X173972143Y-69617786D01*
X173865000Y-69582071D01*
X173793572Y-69510643D01*
X173757857Y-69439214D01*
X173722143Y-69296357D01*
X173722143Y-69189214D01*
X173757857Y-69046357D01*
X173793572Y-68974929D01*
X173865000Y-68903500D01*
X173972143Y-68867786D01*
X174043572Y-68867786D01*
X174150715Y-68903500D01*
X174186429Y-68939214D01*
X174900715Y-69617786D02*
X174472143Y-69617786D01*
X174686429Y-69617786D02*
X174686429Y-68867786D01*
X174615000Y-68974929D01*
X174543572Y-69046357D01*
X174472143Y-69082071D01*
X175530001Y-68867786D02*
X175780001Y-69617786D01*
X176030001Y-68867786D01*
X176280000Y-69617786D02*
X176280000Y-68867786D01*
X176458572Y-68867786D01*
X176565715Y-68903500D01*
X176637143Y-68974929D01*
X176672858Y-69046357D01*
X176708572Y-69189214D01*
X176708572Y-69296357D01*
X176672858Y-69439214D01*
X176637143Y-69510643D01*
X176565715Y-69582071D01*
X176458572Y-69617786D01*
X176280000Y-69617786D01*
X177030000Y-69617786D02*
X177030000Y-68867786D01*
X177208572Y-68867786D01*
X177315715Y-68903500D01*
X177387143Y-68974929D01*
X177422858Y-69046357D01*
X177458572Y-69189214D01*
X177458572Y-69296357D01*
X177422858Y-69439214D01*
X177387143Y-69510643D01*
X177315715Y-69582071D01*
X177208572Y-69617786D01*
X177030000Y-69617786D01*
X156533571Y-79968286D02*
X156533571Y-79218286D01*
X156962143Y-79968286D01*
X156962143Y-79218286D01*
X157747857Y-79968286D02*
X157497857Y-79611143D01*
X157319285Y-79968286D02*
X157319285Y-79218286D01*
X157605000Y-79218286D01*
X157676428Y-79254000D01*
X157712143Y-79289714D01*
X157747857Y-79361143D01*
X157747857Y-79468286D01*
X157712143Y-79539714D01*
X157676428Y-79575429D01*
X157605000Y-79611143D01*
X157319285Y-79611143D01*
X158462143Y-79968286D02*
X158033571Y-79968286D01*
X158247857Y-79968286D02*
X158247857Y-79218286D01*
X158176428Y-79325429D01*
X158105000Y-79396857D01*
X158033571Y-79432571D01*
X148977071Y-79968286D02*
X148977071Y-79218286D01*
X149405643Y-79968286D01*
X149405643Y-79218286D01*
X150191357Y-79968286D02*
X149941357Y-79611143D01*
X149762785Y-79968286D02*
X149762785Y-79218286D01*
X150048500Y-79218286D01*
X150119928Y-79254000D01*
X150155643Y-79289714D01*
X150191357Y-79361143D01*
X150191357Y-79468286D01*
X150155643Y-79539714D01*
X150119928Y-79575429D01*
X150048500Y-79611143D01*
X149762785Y-79611143D01*
X150477071Y-79289714D02*
X150512785Y-79254000D01*
X150584214Y-79218286D01*
X150762785Y-79218286D01*
X150834214Y-79254000D01*
X150869928Y-79289714D01*
X150905643Y-79361143D01*
X150905643Y-79432571D01*
X150869928Y-79539714D01*
X150441357Y-79968286D01*
X150905643Y-79968286D01*
X167820714Y-69224929D02*
X168070714Y-69224929D01*
X168177857Y-69617786D02*
X167820714Y-69617786D01*
X167820714Y-68867786D01*
X168177857Y-68867786D01*
X168427857Y-68867786D02*
X168927857Y-69617786D01*
X168927857Y-68867786D02*
X168427857Y-69617786D01*
X169213571Y-69617786D02*
X169213571Y-68867786D01*
X169570714Y-69617786D02*
X169570714Y-68867786D01*
X169999286Y-69617786D01*
X169999286Y-68867786D01*
X137555000Y-78444286D02*
X137555000Y-77694286D01*
X137733572Y-77694286D01*
X137840715Y-77730000D01*
X137912143Y-77801429D01*
X137947858Y-77872857D01*
X137983572Y-78015714D01*
X137983572Y-78122857D01*
X137947858Y-78265714D01*
X137912143Y-78337143D01*
X137840715Y-78408571D01*
X137733572Y-78444286D01*
X137555000Y-78444286D01*
X138555000Y-78051429D02*
X138305000Y-78051429D01*
X138305000Y-78444286D02*
X138305000Y-77694286D01*
X138662143Y-77694286D01*
X138876429Y-77694286D02*
X139376429Y-78444286D01*
X139376429Y-77694286D02*
X138876429Y-78444286D01*
X137340714Y-69224929D02*
X137590714Y-69224929D01*
X137697857Y-69617786D02*
X137340714Y-69617786D01*
X137340714Y-68867786D01*
X137697857Y-68867786D01*
X137947857Y-68867786D02*
X138447857Y-69617786D01*
X138447857Y-68867786D02*
X137947857Y-69617786D01*
X138733571Y-69617786D02*
X138733571Y-68867786D01*
X139090714Y-69617786D02*
X139090714Y-68867786D01*
X139519286Y-69617786D01*
X139519286Y-68867786D01*
X135265000Y-69224929D02*
X135015000Y-69224929D01*
X135015000Y-69617786D02*
X135015000Y-68867786D01*
X135372143Y-68867786D01*
X136086429Y-69546357D02*
X136050715Y-69582071D01*
X135943572Y-69617786D01*
X135872143Y-69617786D01*
X135765000Y-69582071D01*
X135693572Y-69510643D01*
X135657857Y-69439214D01*
X135622143Y-69296357D01*
X135622143Y-69189214D01*
X135657857Y-69046357D01*
X135693572Y-68974929D01*
X135765000Y-68903500D01*
X135872143Y-68867786D01*
X135943572Y-68867786D01*
X136050715Y-68903500D01*
X136086429Y-68939214D01*
X136372143Y-68939214D02*
X136407857Y-68903500D01*
X136479286Y-68867786D01*
X136657857Y-68867786D01*
X136729286Y-68903500D01*
X136765000Y-68939214D01*
X136800715Y-69010643D01*
X136800715Y-69082071D01*
X136765000Y-69189214D01*
X136336429Y-69617786D01*
X136800715Y-69617786D01*
X132725000Y-69224929D02*
X132475000Y-69224929D01*
X132475000Y-69617786D02*
X132475000Y-68867786D01*
X132832143Y-68867786D01*
X133546429Y-69546357D02*
X133510715Y-69582071D01*
X133403572Y-69617786D01*
X133332143Y-69617786D01*
X133225000Y-69582071D01*
X133153572Y-69510643D01*
X133117857Y-69439214D01*
X133082143Y-69296357D01*
X133082143Y-69189214D01*
X133117857Y-69046357D01*
X133153572Y-68974929D01*
X133225000Y-68903500D01*
X133332143Y-68867786D01*
X133403572Y-68867786D01*
X133510715Y-68903500D01*
X133546429Y-68939214D01*
X134260715Y-69617786D02*
X133832143Y-69617786D01*
X134046429Y-69617786D02*
X134046429Y-68867786D01*
X133975000Y-68974929D01*
X133903572Y-69046357D01*
X133832143Y-69082071D01*
X129810001Y-68867786D02*
X130060001Y-69617786D01*
X130310001Y-68867786D01*
X130560000Y-69617786D02*
X130560000Y-68867786D01*
X130738572Y-68867786D01*
X130845715Y-68903500D01*
X130917143Y-68974929D01*
X130952858Y-69046357D01*
X130988572Y-69189214D01*
X130988572Y-69296357D01*
X130952858Y-69439214D01*
X130917143Y-69510643D01*
X130845715Y-69582071D01*
X130738572Y-69617786D01*
X130560000Y-69617786D01*
X131310000Y-69617786D02*
X131310000Y-68867786D01*
X131488572Y-68867786D01*
X131595715Y-68903500D01*
X131667143Y-68974929D01*
X131702858Y-69046357D01*
X131738572Y-69189214D01*
X131738572Y-69296357D01*
X131702858Y-69439214D01*
X131667143Y-69510643D01*
X131595715Y-69582071D01*
X131488572Y-69617786D01*
X131310000Y-69617786D01*
X128879214Y-77342858D02*
X128843500Y-77414286D01*
X128807786Y-77450001D01*
X128736357Y-77485715D01*
X128700643Y-77485715D01*
X128629214Y-77450001D01*
X128593500Y-77414286D01*
X128557786Y-77342858D01*
X128557786Y-77200001D01*
X128593500Y-77128572D01*
X128629214Y-77092858D01*
X128700643Y-77057143D01*
X128736357Y-77057143D01*
X128807786Y-77092858D01*
X128843500Y-77128572D01*
X128879214Y-77200001D01*
X128879214Y-77342858D01*
X128914929Y-77414286D01*
X128950643Y-77450001D01*
X129022071Y-77485715D01*
X129164929Y-77485715D01*
X129236357Y-77450001D01*
X129272071Y-77414286D01*
X129307786Y-77342858D01*
X129307786Y-77200001D01*
X129272071Y-77128572D01*
X129236357Y-77092858D01*
X129164929Y-77057143D01*
X129022071Y-77057143D01*
X128950643Y-77092858D01*
X128914929Y-77128572D01*
X128879214Y-77200001D01*
X128557786Y-76378572D02*
X128557786Y-76735715D01*
X128914929Y-76771429D01*
X128879214Y-76735715D01*
X128843500Y-76664286D01*
X128843500Y-76485715D01*
X128879214Y-76414286D01*
X128914929Y-76378572D01*
X128986357Y-76342857D01*
X129164929Y-76342857D01*
X129236357Y-76378572D01*
X129272071Y-76414286D01*
X129307786Y-76485715D01*
X129307786Y-76664286D01*
X129272071Y-76735715D01*
X129236357Y-76771429D01*
X128879214Y-75914286D02*
X128843500Y-75985714D01*
X128807786Y-76021429D01*
X128736357Y-76057143D01*
X128700643Y-76057143D01*
X128629214Y-76021429D01*
X128593500Y-75985714D01*
X128557786Y-75914286D01*
X128557786Y-75771429D01*
X128593500Y-75700000D01*
X128629214Y-75664286D01*
X128700643Y-75628571D01*
X128736357Y-75628571D01*
X128807786Y-75664286D01*
X128843500Y-75700000D01*
X128879214Y-75771429D01*
X128879214Y-75914286D01*
X128914929Y-75985714D01*
X128950643Y-76021429D01*
X129022071Y-76057143D01*
X129164929Y-76057143D01*
X129236357Y-76021429D01*
X129272071Y-75985714D01*
X129307786Y-75914286D01*
X129307786Y-75771429D01*
X129272071Y-75700000D01*
X129236357Y-75664286D01*
X129164929Y-75628571D01*
X129022071Y-75628571D01*
X128950643Y-75664286D01*
X128914929Y-75700000D01*
X128879214Y-75771429D01*
X128557786Y-75164285D02*
X128557786Y-75092857D01*
X128593500Y-75021428D01*
X128629214Y-74985714D01*
X128700643Y-74950000D01*
X128843500Y-74914285D01*
X129022071Y-74914285D01*
X129164929Y-74950000D01*
X129236357Y-74985714D01*
X129272071Y-75021428D01*
X129307786Y-75092857D01*
X129307786Y-75164285D01*
X129272071Y-75235714D01*
X129236357Y-75271428D01*
X129164929Y-75307143D01*
X129022071Y-75342857D01*
X128843500Y-75342857D01*
X128700643Y-75307143D01*
X128629214Y-75271428D01*
X128593500Y-75235714D01*
X128557786Y-75164285D01*
X128557786Y-72048572D02*
X128557786Y-72191429D01*
X128593500Y-72262858D01*
X128629214Y-72298572D01*
X128736357Y-72370001D01*
X128879214Y-72405715D01*
X129164929Y-72405715D01*
X129236357Y-72370001D01*
X129272071Y-72334286D01*
X129307786Y-72262858D01*
X129307786Y-72120001D01*
X129272071Y-72048572D01*
X129236357Y-72012858D01*
X129164929Y-71977143D01*
X128986357Y-71977143D01*
X128914929Y-72012858D01*
X128879214Y-72048572D01*
X128843500Y-72120001D01*
X128843500Y-72262858D01*
X128879214Y-72334286D01*
X128914929Y-72370001D01*
X128986357Y-72405715D01*
X128557786Y-71298572D02*
X128557786Y-71655715D01*
X128914929Y-71691429D01*
X128879214Y-71655715D01*
X128843500Y-71584286D01*
X128843500Y-71405715D01*
X128879214Y-71334286D01*
X128914929Y-71298572D01*
X128986357Y-71262857D01*
X129164929Y-71262857D01*
X129236357Y-71298572D01*
X129272071Y-71334286D01*
X129307786Y-71405715D01*
X129307786Y-71584286D01*
X129272071Y-71655715D01*
X129236357Y-71691429D01*
X128879214Y-70834286D02*
X128843500Y-70905714D01*
X128807786Y-70941429D01*
X128736357Y-70977143D01*
X128700643Y-70977143D01*
X128629214Y-70941429D01*
X128593500Y-70905714D01*
X128557786Y-70834286D01*
X128557786Y-70691429D01*
X128593500Y-70620000D01*
X128629214Y-70584286D01*
X128700643Y-70548571D01*
X128736357Y-70548571D01*
X128807786Y-70584286D01*
X128843500Y-70620000D01*
X128879214Y-70691429D01*
X128879214Y-70834286D01*
X128914929Y-70905714D01*
X128950643Y-70941429D01*
X129022071Y-70977143D01*
X129164929Y-70977143D01*
X129236357Y-70941429D01*
X129272071Y-70905714D01*
X129307786Y-70834286D01*
X129307786Y-70691429D01*
X129272071Y-70620000D01*
X129236357Y-70584286D01*
X129164929Y-70548571D01*
X129022071Y-70548571D01*
X128950643Y-70584286D01*
X128914929Y-70620000D01*
X128879214Y-70691429D01*
X129307786Y-69834285D02*
X129307786Y-70262857D01*
X129307786Y-70048571D02*
X128557786Y-70048571D01*
X128664929Y-70120000D01*
X128736357Y-70191428D01*
X128772071Y-70262857D01*
X137985572Y-117163500D02*
X137914143Y-117127786D01*
X137807000Y-117127786D01*
X137699857Y-117163500D01*
X137628429Y-117234929D01*
X137592714Y-117306357D01*
X137557000Y-117449214D01*
X137557000Y-117556357D01*
X137592714Y-117699214D01*
X137628429Y-117770643D01*
X137699857Y-117842071D01*
X137807000Y-117877786D01*
X137878429Y-117877786D01*
X137985572Y-117842071D01*
X138021286Y-117806357D01*
X138021286Y-117556357D01*
X137878429Y-117556357D01*
X138342714Y-117877786D02*
X138342714Y-117127786D01*
X138771286Y-117877786D01*
X138771286Y-117127786D01*
X139128428Y-117877786D02*
X139128428Y-117127786D01*
X139307000Y-117127786D01*
X139414143Y-117163500D01*
X139485571Y-117234929D01*
X139521286Y-117306357D01*
X139557000Y-117449214D01*
X139557000Y-117556357D01*
X139521286Y-117699214D01*
X139485571Y-117770643D01*
X139414143Y-117842071D01*
X139307000Y-117877786D01*
X139128428Y-117877786D01*
X135015000Y-117877786D02*
X135015000Y-117127786D01*
X135300715Y-117127786D01*
X135372143Y-117163500D01*
X135407858Y-117199214D01*
X135443572Y-117270643D01*
X135443572Y-117377786D01*
X135407858Y-117449214D01*
X135372143Y-117484929D01*
X135300715Y-117520643D01*
X135015000Y-117520643D01*
X135729286Y-117199214D02*
X135765000Y-117163500D01*
X135836429Y-117127786D01*
X136015000Y-117127786D01*
X136086429Y-117163500D01*
X136122143Y-117199214D01*
X136157858Y-117270643D01*
X136157858Y-117342071D01*
X136122143Y-117449214D01*
X135693572Y-117877786D01*
X136157858Y-117877786D01*
X136622144Y-117520643D02*
X136622144Y-117877786D01*
X136372144Y-117127786D02*
X136622144Y-117520643D01*
X136872144Y-117127786D01*
X132312285Y-117877786D02*
X132312285Y-117127786D01*
X132598000Y-117127786D01*
X132669428Y-117163500D01*
X132705143Y-117199214D01*
X132740857Y-117270643D01*
X132740857Y-117377786D01*
X132705143Y-117449214D01*
X132669428Y-117484929D01*
X132598000Y-117520643D01*
X132312285Y-117520643D01*
X133026571Y-117199214D02*
X133062285Y-117163500D01*
X133133714Y-117127786D01*
X133312285Y-117127786D01*
X133383714Y-117163500D01*
X133419428Y-117199214D01*
X133455143Y-117270643D01*
X133455143Y-117342071D01*
X133419428Y-117449214D01*
X132990857Y-117877786D01*
X133455143Y-117877786D01*
X133705143Y-117127786D02*
X134205143Y-117877786D01*
X134205143Y-117127786D02*
X133705143Y-117877786D01*
X139775571Y-121402071D02*
X140347000Y-121402071D01*
X140061286Y-121687786D02*
X140061286Y-121116357D01*
X141097000Y-121687786D02*
X140668428Y-121687786D01*
X140882714Y-121687786D02*
X140882714Y-120937786D01*
X140811285Y-121044929D01*
X140739857Y-121116357D01*
X140668428Y-121152071D01*
X141739857Y-120937786D02*
X141597000Y-120937786D01*
X141525571Y-120973500D01*
X141489857Y-121009214D01*
X141418428Y-121116357D01*
X141382714Y-121259214D01*
X141382714Y-121544929D01*
X141418428Y-121616357D01*
X141454143Y-121652071D01*
X141525571Y-121687786D01*
X141668428Y-121687786D01*
X141739857Y-121652071D01*
X141775571Y-121616357D01*
X141811286Y-121544929D01*
X141811286Y-121366357D01*
X141775571Y-121294929D01*
X141739857Y-121259214D01*
X141668428Y-121223500D01*
X141525571Y-121223500D01*
X141454143Y-121259214D01*
X141418428Y-121294929D01*
X141382714Y-121366357D01*
X142025572Y-120937786D02*
X142275572Y-121687786D01*
X142525572Y-120937786D01*
X137680000Y-121687786D02*
X137680000Y-120937786D01*
X138180001Y-120937786D02*
X138322858Y-120937786D01*
X138394286Y-120973500D01*
X138465715Y-121044929D01*
X138501429Y-121187786D01*
X138501429Y-121437786D01*
X138465715Y-121580643D01*
X138394286Y-121652071D01*
X138322858Y-121687786D01*
X138180001Y-121687786D01*
X138108572Y-121652071D01*
X138037143Y-121580643D01*
X138001429Y-121437786D01*
X138001429Y-121187786D01*
X138037143Y-121044929D01*
X138108572Y-120973500D01*
X138180001Y-120937786D01*
X138787143Y-121009214D02*
X138822857Y-120973500D01*
X138894286Y-120937786D01*
X139072857Y-120937786D01*
X139144286Y-120973500D01*
X139180000Y-121009214D01*
X139215715Y-121080643D01*
X139215715Y-121152071D01*
X139180000Y-121259214D01*
X138751429Y-121687786D01*
X139215715Y-121687786D01*
X135140000Y-121687786D02*
X135140000Y-120937786D01*
X135640001Y-120937786D02*
X135782858Y-120937786D01*
X135854286Y-120973500D01*
X135925715Y-121044929D01*
X135961429Y-121187786D01*
X135961429Y-121437786D01*
X135925715Y-121580643D01*
X135854286Y-121652071D01*
X135782858Y-121687786D01*
X135640001Y-121687786D01*
X135568572Y-121652071D01*
X135497143Y-121580643D01*
X135461429Y-121437786D01*
X135461429Y-121187786D01*
X135497143Y-121044929D01*
X135568572Y-120973500D01*
X135640001Y-120937786D01*
X136675715Y-121687786D02*
X136247143Y-121687786D01*
X136461429Y-121687786D02*
X136461429Y-120937786D01*
X136390000Y-121044929D01*
X136318572Y-121116357D01*
X136247143Y-121152071D01*
X132814286Y-121473500D02*
X133171429Y-121473500D01*
X132742858Y-121687786D02*
X132992858Y-120937786D01*
X133242858Y-121687786D01*
X133600000Y-121259214D02*
X133528572Y-121223500D01*
X133492857Y-121187786D01*
X133457143Y-121116357D01*
X133457143Y-121080643D01*
X133492857Y-121009214D01*
X133528572Y-120973500D01*
X133600000Y-120937786D01*
X133742857Y-120937786D01*
X133814286Y-120973500D01*
X133850000Y-121009214D01*
X133885715Y-121080643D01*
X133885715Y-121116357D01*
X133850000Y-121187786D01*
X133814286Y-121223500D01*
X133742857Y-121259214D01*
X133600000Y-121259214D01*
X133528572Y-121294929D01*
X133492857Y-121330643D01*
X133457143Y-121402071D01*
X133457143Y-121544929D01*
X133492857Y-121616357D01*
X133528572Y-121652071D01*
X133600000Y-121687786D01*
X133742857Y-121687786D01*
X133814286Y-121652071D01*
X133850000Y-121616357D01*
X133885715Y-121544929D01*
X133885715Y-121402071D01*
X133850000Y-121330643D01*
X133814286Y-121294929D01*
X133742857Y-121259214D01*
X130274286Y-121473500D02*
X130631429Y-121473500D01*
X130202858Y-121687786D02*
X130452858Y-120937786D01*
X130702858Y-121687786D01*
X131310000Y-120937786D02*
X130952857Y-120937786D01*
X130917143Y-121294929D01*
X130952857Y-121259214D01*
X131024286Y-121223500D01*
X131202857Y-121223500D01*
X131274286Y-121259214D01*
X131310000Y-121294929D01*
X131345715Y-121366357D01*
X131345715Y-121544929D01*
X131310000Y-121616357D01*
X131274286Y-121652071D01*
X131202857Y-121687786D01*
X131024286Y-121687786D01*
X130952857Y-121652071D01*
X130917143Y-121616357D01*
X159412857Y-68347786D02*
X159412857Y-67597786D01*
X159662857Y-68133500D01*
X159912857Y-67597786D01*
X159912857Y-68347786D01*
X160662858Y-68347786D02*
X160234286Y-68347786D01*
X160448572Y-68347786D02*
X160448572Y-67597786D01*
X160377143Y-67704929D01*
X160305715Y-67776357D01*
X160234286Y-67812071D01*
X156872857Y-68347786D02*
X156872857Y-67597786D01*
X157122857Y-68133500D01*
X157372857Y-67597786D01*
X157372857Y-68347786D01*
X157872858Y-67597786D02*
X157944286Y-67597786D01*
X158015715Y-67633500D01*
X158051429Y-67669214D01*
X158087143Y-67740643D01*
X158122858Y-67883500D01*
X158122858Y-68062071D01*
X158087143Y-68204929D01*
X158051429Y-68276357D01*
X158015715Y-68312071D01*
X157944286Y-68347786D01*
X157872858Y-68347786D01*
X157801429Y-68312071D01*
X157765715Y-68276357D01*
X157730000Y-68204929D01*
X157694286Y-68062071D01*
X157694286Y-67883500D01*
X157730000Y-67740643D01*
X157765715Y-67669214D01*
X157801429Y-67633500D01*
X157872858Y-67597786D01*
X154243571Y-68347786D02*
X154243571Y-67597786D01*
X154565000Y-67669214D02*
X154600714Y-67633500D01*
X154672143Y-67597786D01*
X154850714Y-67597786D01*
X154922143Y-67633500D01*
X154957857Y-67669214D01*
X154993572Y-67740643D01*
X154993572Y-67812071D01*
X154957857Y-67919214D01*
X154529286Y-68347786D01*
X154993572Y-68347786D01*
X155315000Y-67954929D02*
X155565000Y-67954929D01*
X155672143Y-68347786D02*
X155315000Y-68347786D01*
X155315000Y-67597786D01*
X155672143Y-67597786D01*
X151703571Y-68347786D02*
X151703571Y-67597786D01*
X152453572Y-68347786D02*
X152025000Y-68347786D01*
X152239286Y-68347786D02*
X152239286Y-67597786D01*
X152167857Y-67704929D01*
X152096429Y-67776357D01*
X152025000Y-67812071D01*
X152775000Y-67954929D02*
X153025000Y-67954929D01*
X153132143Y-68347786D02*
X152775000Y-68347786D01*
X152775000Y-67597786D01*
X153132143Y-67597786D01*
X149306428Y-68347786D02*
X149306428Y-67597786D01*
X149592143Y-67597786D01*
X149663571Y-67633500D01*
X149699286Y-67669214D01*
X149735000Y-67740643D01*
X149735000Y-67847786D01*
X149699286Y-67919214D01*
X149663571Y-67954929D01*
X149592143Y-67990643D01*
X149306428Y-67990643D01*
X150020714Y-68312071D02*
X150127857Y-68347786D01*
X150306428Y-68347786D01*
X150377857Y-68312071D01*
X150413571Y-68276357D01*
X150449286Y-68204929D01*
X150449286Y-68133500D01*
X150413571Y-68062071D01*
X150377857Y-68026357D01*
X150306428Y-67990643D01*
X150163571Y-67954929D01*
X150092143Y-67919214D01*
X150056428Y-67883500D01*
X150020714Y-67812071D01*
X150020714Y-67740643D01*
X150056428Y-67669214D01*
X150092143Y-67633500D01*
X150163571Y-67597786D01*
X150342143Y-67597786D01*
X150449286Y-67633500D01*
X146712857Y-68347786D02*
X146712857Y-67597786D01*
X146962857Y-68133500D01*
X147212857Y-67597786D01*
X147212857Y-68347786D01*
X147534286Y-68312071D02*
X147641429Y-68347786D01*
X147820000Y-68347786D01*
X147891429Y-68312071D01*
X147927143Y-68276357D01*
X147962858Y-68204929D01*
X147962858Y-68133500D01*
X147927143Y-68062071D01*
X147891429Y-68026357D01*
X147820000Y-67990643D01*
X147677143Y-67954929D01*
X147605715Y-67919214D01*
X147570000Y-67883500D01*
X147534286Y-67812071D01*
X147534286Y-67740643D01*
X147570000Y-67669214D01*
X147605715Y-67633500D01*
X147677143Y-67597786D01*
X147855715Y-67597786D01*
X147962858Y-67633500D01*
X177855524Y-123642381D02*
X177522190Y-123166190D01*
X177284095Y-123642381D02*
X177284095Y-122642381D01*
X177665048Y-122642381D01*
X177760286Y-122690000D01*
X177807905Y-122737619D01*
X177855524Y-122832857D01*
X177855524Y-122975714D01*
X177807905Y-123070952D01*
X177760286Y-123118571D01*
X177665048Y-123166190D01*
X177284095Y-123166190D01*
X168203524Y-123642381D02*
X167727333Y-123642381D01*
X167727333Y-122642381D01*
X144275181Y-123455181D02*
X144370420Y-123455181D01*
X144465658Y-123502800D01*
X144513277Y-123550419D01*
X144560896Y-123645657D01*
X144608515Y-123836133D01*
X144608515Y-124074229D01*
X144560896Y-124264705D01*
X144513277Y-124359943D01*
X144465658Y-124407562D01*
X144370420Y-124455181D01*
X144275181Y-124455181D01*
X144179943Y-124407562D01*
X144132324Y-124359943D01*
X144084705Y-124264705D01*
X144037086Y-124074229D01*
X144037086Y-123836133D01*
X144084705Y-123645657D01*
X144132324Y-123550419D01*
X144179943Y-123502800D01*
X144275181Y-123455181D01*
X157359315Y-124556781D02*
X156787886Y-124556781D01*
X157073600Y-124556781D02*
X157073600Y-123556781D01*
X156978362Y-123699638D01*
X156883124Y-123794876D01*
X156787886Y-123842495D01*
X165220686Y-123652019D02*
X165268305Y-123604400D01*
X165363543Y-123556781D01*
X165601639Y-123556781D01*
X165696877Y-123604400D01*
X165744496Y-123652019D01*
X165792115Y-123747257D01*
X165792115Y-123842495D01*
X165744496Y-123985352D01*
X165173067Y-124556781D01*
X165792115Y-124556781D01*
X152666724Y-124505981D02*
X152857200Y-124505981D01*
X152952439Y-124458362D01*
X153000058Y-124410743D01*
X153095296Y-124267886D01*
X153142915Y-124077410D01*
X153142915Y-123696457D01*
X153095296Y-123601219D01*
X153047677Y-123553600D01*
X152952439Y-123505981D01*
X152761962Y-123505981D01*
X152666724Y-123553600D01*
X152619105Y-123601219D01*
X152571486Y-123696457D01*
X152571486Y-123934552D01*
X152619105Y-124029790D01*
X152666724Y-124077410D01*
X152761962Y-124125029D01*
X152952439Y-124125029D01*
X153047677Y-124077410D01*
X153095296Y-124029790D01*
X153142915Y-123934552D01*
X167106648Y-97759829D02*
X167868553Y-97759829D01*
X177622248Y-97810629D02*
X178384153Y-97810629D01*
X178003201Y-98191581D02*
X178003201Y-97429676D01*
X148348001Y-117099286D02*
X148490858Y-117099286D01*
X148562286Y-117135000D01*
X148633715Y-117206429D01*
X148669429Y-117349286D01*
X148669429Y-117599286D01*
X148633715Y-117742143D01*
X148562286Y-117813571D01*
X148490858Y-117849286D01*
X148348001Y-117849286D01*
X148276572Y-117813571D01*
X148205143Y-117742143D01*
X148169429Y-117599286D01*
X148169429Y-117349286D01*
X148205143Y-117206429D01*
X148276572Y-117135000D01*
X148348001Y-117099286D01*
X149348000Y-117849286D02*
X148990857Y-117849286D01*
X148990857Y-117099286D01*
X149598000Y-117849286D02*
X149598000Y-117099286D01*
X149776572Y-117099286D01*
X149883715Y-117135000D01*
X149955143Y-117206429D01*
X149990858Y-117277857D01*
X150026572Y-117420714D01*
X150026572Y-117527857D01*
X149990858Y-117670714D01*
X149955143Y-117742143D01*
X149883715Y-117813571D01*
X149776572Y-117849286D01*
X149598000Y-117849286D01*
X147687286Y-118656429D02*
X147794429Y-118692143D01*
X147830144Y-118727857D01*
X147865858Y-118799286D01*
X147865858Y-118906429D01*
X147830144Y-118977857D01*
X147794429Y-119013571D01*
X147723001Y-119049286D01*
X147437286Y-119049286D01*
X147437286Y-118299286D01*
X147687286Y-118299286D01*
X147758715Y-118335000D01*
X147794429Y-118370714D01*
X147830144Y-118442143D01*
X147830144Y-118513571D01*
X147794429Y-118585000D01*
X147758715Y-118620714D01*
X147687286Y-118656429D01*
X147437286Y-118656429D01*
X148330144Y-118299286D02*
X148473001Y-118299286D01*
X148544429Y-118335000D01*
X148615858Y-118406429D01*
X148651572Y-118549286D01*
X148651572Y-118799286D01*
X148615858Y-118942143D01*
X148544429Y-119013571D01*
X148473001Y-119049286D01*
X148330144Y-119049286D01*
X148258715Y-119013571D01*
X148187286Y-118942143D01*
X148151572Y-118799286D01*
X148151572Y-118549286D01*
X148187286Y-118406429D01*
X148258715Y-118335000D01*
X148330144Y-118299286D01*
X148937286Y-118835000D02*
X149294429Y-118835000D01*
X148865858Y-119049286D02*
X149115858Y-118299286D01*
X149365858Y-119049286D01*
X150044429Y-119049286D02*
X149794429Y-118692143D01*
X149615857Y-119049286D02*
X149615857Y-118299286D01*
X149901572Y-118299286D01*
X149973000Y-118335000D01*
X150008715Y-118370714D01*
X150044429Y-118442143D01*
X150044429Y-118549286D01*
X150008715Y-118620714D01*
X149973000Y-118656429D01*
X149901572Y-118692143D01*
X149615857Y-118692143D01*
X150365857Y-119049286D02*
X150365857Y-118299286D01*
X150544429Y-118299286D01*
X150651572Y-118335000D01*
X150723000Y-118406429D01*
X150758715Y-118477857D01*
X150794429Y-118620714D01*
X150794429Y-118727857D01*
X150758715Y-118870714D01*
X150723000Y-118942143D01*
X150651572Y-119013571D01*
X150544429Y-119049286D01*
X150365857Y-119049286D01*
X142490000Y-85070000D02*
X139490000Y-85070000D01*
X139490000Y-82570000D02*
X142490000Y-82570000D01*
X139450000Y-85110000D02*
X142450000Y-85110000D01*
X142450000Y-87610000D02*
X139450000Y-87610000D01*
X137410000Y-87610000D02*
X134410000Y-87610000D01*
X134410000Y-85110000D02*
X137410000Y-85110000D01*
X134370000Y-82570000D02*
X137370000Y-82570000D01*
X137370000Y-85070000D02*
X134370000Y-85070000D01*
X165350000Y-121900000D02*
X162350000Y-121900000D01*
X162350000Y-119400000D02*
X165350000Y-119400000D01*
X157230000Y-119400000D02*
X160230000Y-119400000D01*
X160230000Y-121900000D02*
X157230000Y-121900000D01*
X152650000Y-121900000D02*
X149650000Y-121900000D01*
X149650000Y-119400000D02*
X152650000Y-119400000D01*
X144530000Y-119400000D02*
X147530000Y-119400000D01*
X147530000Y-121900000D02*
X144530000Y-121900000D01*
X158500000Y-82570000D02*
X161500000Y-82570000D01*
X161500000Y-85070000D02*
X158500000Y-85070000D01*
X153420000Y-85110000D02*
X156420000Y-85110000D01*
X156420000Y-87610000D02*
X153420000Y-87610000D01*
X153420000Y-82570000D02*
X156420000Y-82570000D01*
X156420000Y-85070000D02*
X153420000Y-85070000D01*
X161540000Y-87610000D02*
X158540000Y-87610000D01*
X158540000Y-85110000D02*
X161540000Y-85110000D01*
X170200000Y-82800000D02*
X170200000Y-79800000D01*
X172700000Y-79800000D02*
X172700000Y-82800000D01*
X175240000Y-79760000D02*
X175240000Y-82760000D01*
X172740000Y-82760000D02*
X172740000Y-79760000D01*
X168660000Y-104160000D02*
X171660000Y-104160000D01*
X171660000Y-106660000D02*
X168660000Y-106660000D01*
X167660000Y-110740000D02*
X167660000Y-107740000D01*
X170160000Y-107740000D02*
X170160000Y-110740000D01*
X171700000Y-99040000D02*
X168700000Y-99040000D01*
X168700000Y-96540000D02*
X171700000Y-96540000D01*
X173740000Y-96540000D02*
X176740000Y-96540000D01*
X176740000Y-99040000D02*
X173740000Y-99040000D01*
X147320000Y-74930000D02*
X147320000Y-77470000D01*
X148739903Y-74930000D02*
G75*
G03X148739903Y-74930000I-1419903J0D01*
G01*
X176530000Y-82550000D02*
X176530000Y-80010000D01*
X177949903Y-82550000D02*
G75*
G03X177949903Y-82550000I-1419903J0D01*
G01*
X171450000Y-102870000D02*
X171450000Y-100330000D01*
X172869903Y-102870000D02*
G75*
G03X172869903Y-102870000I-1419903J0D01*
G01*
X168910000Y-102870000D02*
X168910000Y-100330000D01*
X170329903Y-102870000D02*
G75*
G03X170329903Y-102870000I-1419903J0D01*
G01*
X171450000Y-110490000D02*
X171450000Y-107950000D01*
X172869903Y-110490000D02*
G75*
G03X172869903Y-110490000I-1419903J0D01*
G01*
X176530000Y-102870000D02*
X176530000Y-100330000D01*
X177949903Y-102870000D02*
G75*
G03X177949903Y-102870000I-1419903J0D01*
G01*
X134755000Y-86605000D02*
X134755000Y-87875000D01*
X142105000Y-86605000D02*
X142105000Y-87875000D01*
X142105000Y-114055000D02*
X142105000Y-112785000D01*
X134755000Y-114055000D02*
X134755000Y-112785000D01*
X134755000Y-86605000D02*
X142105000Y-86605000D01*
X134755000Y-114055000D02*
X142105000Y-114055000D01*
X134755000Y-87875000D02*
X133820000Y-87875000D01*
X130945000Y-78985000D02*
X130945000Y-80255000D01*
X145915000Y-78985000D02*
X145915000Y-80255000D01*
X145915000Y-116595000D02*
X145915000Y-115325000D01*
X130945000Y-116595000D02*
X130945000Y-115325000D01*
X130945000Y-78985000D02*
X145915000Y-78985000D01*
X130945000Y-116595000D02*
X145915000Y-116595000D01*
X130945000Y-80255000D02*
X130010000Y-80255000D01*
X156464000Y-124841000D02*
X156464000Y-121412000D01*
X166116000Y-124841000D02*
X166116000Y-121412000D01*
X155956000Y-125984000D02*
X166624000Y-125984000D01*
X159512000Y-124968000D02*
X159512000Y-126238000D01*
X163068000Y-124968000D02*
X163068000Y-126238000D01*
X166624000Y-124841000D02*
X155956000Y-124841000D01*
X155956000Y-121412000D02*
X166624000Y-121412000D01*
X166624000Y-126238000D02*
X166624000Y-121412000D01*
X155956000Y-126238000D02*
X155956000Y-121412000D01*
X155956000Y-126238000D02*
X166624000Y-126238000D01*
X143764000Y-124841000D02*
X143764000Y-121412000D01*
X153416000Y-124841000D02*
X153416000Y-121412000D01*
X143256000Y-125984000D02*
X153924000Y-125984000D01*
X146812000Y-124968000D02*
X146812000Y-126238000D01*
X150368000Y-124968000D02*
X150368000Y-126238000D01*
X153924000Y-124841000D02*
X143256000Y-124841000D01*
X143256000Y-121412000D02*
X153924000Y-121412000D01*
X153924000Y-126238000D02*
X153924000Y-121412000D01*
X143256000Y-126238000D02*
X143256000Y-121412000D01*
X143256000Y-126238000D02*
X153924000Y-126238000D01*
X148725000Y-78985000D02*
X148725000Y-80255000D01*
X163695000Y-78985000D02*
X163695000Y-80255000D01*
X163695000Y-116595000D02*
X163695000Y-115325000D01*
X148725000Y-116595000D02*
X148725000Y-115325000D01*
X148725000Y-78985000D02*
X163695000Y-78985000D01*
X148725000Y-116595000D02*
X163695000Y-116595000D01*
X148725000Y-80255000D02*
X147790000Y-80255000D01*
X153805000Y-86605000D02*
X153805000Y-87875000D01*
X161155000Y-86605000D02*
X161155000Y-87875000D01*
X161155000Y-108975000D02*
X161155000Y-107705000D01*
X153805000Y-108975000D02*
X153805000Y-107705000D01*
X153805000Y-86605000D02*
X161155000Y-86605000D01*
X153805000Y-108975000D02*
X161155000Y-108975000D01*
X153805000Y-87875000D02*
X152870000Y-87875000D01*
X169045000Y-84065000D02*
X169045000Y-85335000D01*
X176395000Y-84065000D02*
X176395000Y-85335000D01*
X176395000Y-96275000D02*
X176395000Y-95005000D01*
X169045000Y-96275000D02*
X169045000Y-95005000D01*
X169045000Y-84065000D02*
X176395000Y-84065000D01*
X169045000Y-96275000D02*
X176395000Y-96275000D01*
X169045000Y-85335000D02*
X168110000Y-85335000D01*
X153670000Y-111760000D02*
X154178000Y-111760000D01*
X161290000Y-111760000D02*
X160782000Y-111760000D01*
X160782000Y-111760000D02*
X160782000Y-110744000D01*
X160782000Y-110744000D02*
X154178000Y-110744000D01*
X154178000Y-110744000D02*
X154178000Y-112776000D01*
X154178000Y-112776000D02*
X160782000Y-112776000D01*
X160782000Y-112776000D02*
X160782000Y-111760000D01*
X154178000Y-111252000D02*
X154686000Y-110744000D01*
X153670000Y-109220000D02*
X154178000Y-109220000D01*
X161290000Y-109220000D02*
X160782000Y-109220000D01*
X160782000Y-109220000D02*
X160782000Y-108204000D01*
X160782000Y-108204000D02*
X154178000Y-108204000D01*
X154178000Y-108204000D02*
X154178000Y-110236000D01*
X154178000Y-110236000D02*
X160782000Y-110236000D01*
X160782000Y-110236000D02*
X160782000Y-109220000D01*
X154178000Y-108712000D02*
X154686000Y-108204000D01*
X168910000Y-80010000D02*
X168910000Y-82550000D01*
X170329903Y-80010000D02*
G75*
G03X170329903Y-80010000I-1419903J0D01*
G01*
X160020000Y-77470000D02*
X160020000Y-74930000D01*
X161439903Y-77470000D02*
G75*
G03X161439903Y-77470000I-1419903J0D01*
G01*
X173740000Y-104160000D02*
X176740000Y-104160000D01*
X176740000Y-106660000D02*
X173740000Y-106660000D01*
X172740000Y-110740000D02*
X172740000Y-107740000D01*
X175240000Y-107740000D02*
X175240000Y-110740000D01*
X168480000Y-116000000D02*
X171880000Y-116000000D01*
X168482944Y-115997056D02*
G75*
G02X170180000Y-111900000I1697056J1697056D01*
G01*
X171877056Y-115997056D02*
G75*
G03X170180000Y-111900000I-1697056J1697056D01*
G01*
X173560000Y-116000000D02*
X176960000Y-116000000D01*
X173562944Y-115997056D02*
G75*
G02X175260000Y-111900000I1697056J1697056D01*
G01*
X176957056Y-115997056D02*
G75*
G03X175260000Y-111900000I-1697056J1697056D01*
G01*
X173990000Y-102870000D02*
X173990000Y-100330000D01*
X175409903Y-102870000D02*
G75*
G03X175409903Y-102870000I-1419903J0D01*
G01*
X176530000Y-110490000D02*
X176530000Y-107950000D01*
X177949903Y-110490000D02*
G75*
G03X177949903Y-110490000I-1419903J0D01*
G01*
X169600000Y-116500000D02*
X169600000Y-121498000D01*
X169740000Y-116508000D02*
X169740000Y-121490000D01*
X169880000Y-116524000D02*
X169880000Y-118904000D01*
X169880000Y-119094000D02*
X169880000Y-121474000D01*
X170020000Y-116548000D02*
X170020000Y-118509000D01*
X170020000Y-119489000D02*
X170020000Y-121450000D01*
X170160000Y-116581000D02*
X170160000Y-118342000D01*
X170160000Y-119656000D02*
X170160000Y-121417000D01*
X170300000Y-116622000D02*
X170300000Y-118235000D01*
X170300000Y-119763000D02*
X170300000Y-121376000D01*
X170440000Y-116672000D02*
X170440000Y-118164000D01*
X170440000Y-119834000D02*
X170440000Y-121326000D01*
X170580000Y-116733000D02*
X170580000Y-118120000D01*
X170580000Y-119878000D02*
X170580000Y-121265000D01*
X170720000Y-116803000D02*
X170720000Y-118101000D01*
X170720000Y-119897000D02*
X170720000Y-121195000D01*
X170860000Y-116885000D02*
X170860000Y-118103000D01*
X170860000Y-119895000D02*
X170860000Y-121113000D01*
X171000000Y-116980000D02*
X171000000Y-118128000D01*
X171000000Y-119870000D02*
X171000000Y-121018000D01*
X171140000Y-117091000D02*
X171140000Y-118176000D01*
X171140000Y-119822000D02*
X171140000Y-120907000D01*
X171280000Y-117219000D02*
X171280000Y-118254000D01*
X171280000Y-119744000D02*
X171280000Y-120779000D01*
X171420000Y-117368000D02*
X171420000Y-118371000D01*
X171420000Y-119627000D02*
X171420000Y-120630000D01*
X171560000Y-117547000D02*
X171560000Y-118559000D01*
X171560000Y-119439000D02*
X171560000Y-120451000D01*
X171700000Y-117766000D02*
X171700000Y-120232000D01*
X171840000Y-118055000D02*
X171840000Y-119943000D01*
X171980000Y-118527000D02*
X171980000Y-119471000D01*
X171675000Y-118999000D02*
G75*
G03X171675000Y-118999000I-900000J0D01*
G01*
X172062500Y-118999000D02*
G75*
G03X172062500Y-118999000I-2537500J0D01*
G01*
X175315000Y-116500000D02*
X175315000Y-121498000D01*
X175455000Y-116508000D02*
X175455000Y-121490000D01*
X175595000Y-116524000D02*
X175595000Y-118904000D01*
X175595000Y-119094000D02*
X175595000Y-121474000D01*
X175735000Y-116548000D02*
X175735000Y-118509000D01*
X175735000Y-119489000D02*
X175735000Y-121450000D01*
X175875000Y-116581000D02*
X175875000Y-118342000D01*
X175875000Y-119656000D02*
X175875000Y-121417000D01*
X176015000Y-116622000D02*
X176015000Y-118235000D01*
X176015000Y-119763000D02*
X176015000Y-121376000D01*
X176155000Y-116672000D02*
X176155000Y-118164000D01*
X176155000Y-119834000D02*
X176155000Y-121326000D01*
X176295000Y-116733000D02*
X176295000Y-118120000D01*
X176295000Y-119878000D02*
X176295000Y-121265000D01*
X176435000Y-116803000D02*
X176435000Y-118101000D01*
X176435000Y-119897000D02*
X176435000Y-121195000D01*
X176575000Y-116885000D02*
X176575000Y-118103000D01*
X176575000Y-119895000D02*
X176575000Y-121113000D01*
X176715000Y-116980000D02*
X176715000Y-118128000D01*
X176715000Y-119870000D02*
X176715000Y-121018000D01*
X176855000Y-117091000D02*
X176855000Y-118176000D01*
X176855000Y-119822000D02*
X176855000Y-120907000D01*
X176995000Y-117219000D02*
X176995000Y-118254000D01*
X176995000Y-119744000D02*
X176995000Y-120779000D01*
X177135000Y-117368000D02*
X177135000Y-118371000D01*
X177135000Y-119627000D02*
X177135000Y-120630000D01*
X177275000Y-117547000D02*
X177275000Y-118559000D01*
X177275000Y-119439000D02*
X177275000Y-120451000D01*
X177415000Y-117766000D02*
X177415000Y-120232000D01*
X177555000Y-118055000D02*
X177555000Y-119943000D01*
X177695000Y-118527000D02*
X177695000Y-119471000D01*
X177390000Y-118999000D02*
G75*
G03X177390000Y-118999000I-900000J0D01*
G01*
X177777500Y-118999000D02*
G75*
G03X177777500Y-118999000I-2537500J0D01*
G01*
X166497000Y-70104000D02*
X165227000Y-70104000D01*
X165747700Y-70891400D02*
X166001700Y-70853300D01*
X166001700Y-70853300D02*
X166281100Y-70675500D01*
X166281100Y-70675500D02*
X166497000Y-70358000D01*
X166497000Y-70358000D02*
X166509700Y-69913500D01*
X166509700Y-69913500D02*
X166306500Y-69557900D01*
X166306500Y-69557900D02*
X166014400Y-69380100D01*
X166014400Y-69380100D02*
X165696900Y-69329300D01*
X165696900Y-69329300D02*
X165290500Y-69430900D01*
X165290500Y-69430900D02*
X165036500Y-69773800D01*
X165036500Y-69773800D02*
X164947600Y-69951600D01*
X162687000Y-78486000D02*
X162687000Y-68834000D01*
X165735000Y-68834000D02*
X167005000Y-68834000D01*
X167005000Y-68834000D02*
X167005000Y-78486000D01*
X167005000Y-78486000D02*
X161925000Y-78486000D01*
X161925000Y-68834000D02*
X164465000Y-68834000D01*
X164465000Y-68834000D02*
X165735000Y-68834000D01*
X144907000Y-70104000D02*
X143637000Y-70104000D01*
X144157700Y-70891400D02*
X144411700Y-70853300D01*
X144411700Y-70853300D02*
X144691100Y-70675500D01*
X144691100Y-70675500D02*
X144907000Y-70358000D01*
X144907000Y-70358000D02*
X144919700Y-69913500D01*
X144919700Y-69913500D02*
X144716500Y-69557900D01*
X144716500Y-69557900D02*
X144424400Y-69380100D01*
X144424400Y-69380100D02*
X144106900Y-69329300D01*
X144106900Y-69329300D02*
X143700500Y-69430900D01*
X143700500Y-69430900D02*
X143446500Y-69773800D01*
X143446500Y-69773800D02*
X143357600Y-69951600D01*
X141097000Y-78486000D02*
X141097000Y-68834000D01*
X144145000Y-68834000D02*
X145415000Y-68834000D01*
X145415000Y-68834000D02*
X145415000Y-78486000D01*
X145415000Y-78486000D02*
X140335000Y-78486000D01*
X140335000Y-68834000D02*
X142875000Y-68834000D01*
X142875000Y-68834000D02*
X144145000Y-68834000D01*
X152400000Y-77470000D02*
X152400000Y-74930000D01*
X153819903Y-77470000D02*
G75*
G03X153819903Y-77470000I-1419903J0D01*
G01*
X154940000Y-77470000D02*
X154940000Y-74930000D01*
X156359903Y-77470000D02*
G75*
G03X156359903Y-77470000I-1419903J0D01*
G01*
X132080000Y-124460000D02*
X129540000Y-124460000D01*
X129540000Y-124460000D02*
X129540000Y-121920000D01*
X129540000Y-121920000D02*
X132080000Y-121920000D01*
X132080000Y-121920000D02*
X142240000Y-121920000D01*
X142240000Y-121920000D02*
X142240000Y-124460000D01*
X142240000Y-124460000D02*
X132080000Y-124460000D01*
X134620000Y-120650000D02*
X132080000Y-120650000D01*
X132080000Y-120650000D02*
X132080000Y-118110000D01*
X132080000Y-118110000D02*
X134620000Y-118110000D01*
X134620000Y-120650000D02*
X139700000Y-120650000D01*
X139700000Y-120650000D02*
X139700000Y-118110000D01*
X139700000Y-118110000D02*
X134620000Y-118110000D01*
X156210000Y-116840000D02*
X158750000Y-116840000D01*
X158750000Y-116840000D02*
X158750000Y-119380000D01*
X158750000Y-119380000D02*
X156210000Y-119380000D01*
X156210000Y-116840000D02*
X151130000Y-116840000D01*
X151130000Y-116840000D02*
X151130000Y-119380000D01*
X151130000Y-119380000D02*
X156210000Y-119380000D01*
X129540000Y-72390000D02*
X129540000Y-69850000D01*
X129540000Y-69850000D02*
X132080000Y-69850000D01*
X132080000Y-69850000D02*
X132080000Y-72390000D01*
X129540000Y-72390000D02*
X129540000Y-77470000D01*
X129540000Y-77470000D02*
X132080000Y-77470000D01*
X132080000Y-77470000D02*
X132080000Y-72390000D01*
X132080000Y-72390000D02*
X132080000Y-69850000D01*
X132080000Y-69850000D02*
X134620000Y-69850000D01*
X134620000Y-69850000D02*
X134620000Y-72390000D01*
X132080000Y-72390000D02*
X132080000Y-77470000D01*
X132080000Y-77470000D02*
X134620000Y-77470000D01*
X134620000Y-77470000D02*
X134620000Y-72390000D01*
X134620000Y-72390000D02*
X134620000Y-69850000D01*
X134620000Y-69850000D02*
X137160000Y-69850000D01*
X137160000Y-69850000D02*
X137160000Y-72390000D01*
X134620000Y-72390000D02*
X134620000Y-77470000D01*
X134620000Y-77470000D02*
X137160000Y-77470000D01*
X137160000Y-77470000D02*
X137160000Y-72390000D01*
X137160000Y-72390000D02*
X137160000Y-69850000D01*
X137160000Y-69850000D02*
X139700000Y-69850000D01*
X139700000Y-69850000D02*
X139700000Y-72390000D01*
X137160000Y-72390000D02*
X137160000Y-77470000D01*
X137160000Y-77470000D02*
X139700000Y-77470000D01*
X139700000Y-77470000D02*
X139700000Y-72390000D01*
X167640000Y-72390000D02*
X167640000Y-69850000D01*
X167640000Y-69850000D02*
X170180000Y-69850000D01*
X170180000Y-69850000D02*
X170180000Y-72390000D01*
X167640000Y-72390000D02*
X167640000Y-77470000D01*
X167640000Y-77470000D02*
X170180000Y-77470000D01*
X170180000Y-77470000D02*
X170180000Y-72390000D01*
X170180000Y-72390000D02*
X170180000Y-69850000D01*
X170180000Y-69850000D02*
X172720000Y-69850000D01*
X172720000Y-69850000D02*
X172720000Y-72390000D01*
X170180000Y-72390000D02*
X170180000Y-77470000D01*
X170180000Y-77470000D02*
X172720000Y-77470000D01*
X172720000Y-77470000D02*
X172720000Y-72390000D01*
X172720000Y-72390000D02*
X172720000Y-69850000D01*
X172720000Y-69850000D02*
X175260000Y-69850000D01*
X175260000Y-69850000D02*
X175260000Y-72390000D01*
X172720000Y-72390000D02*
X172720000Y-77470000D01*
X172720000Y-77470000D02*
X175260000Y-77470000D01*
X175260000Y-77470000D02*
X175260000Y-72390000D01*
X175260000Y-72390000D02*
X175260000Y-69850000D01*
X175260000Y-69850000D02*
X177800000Y-69850000D01*
X177800000Y-69850000D02*
X177800000Y-72390000D01*
X175260000Y-72390000D02*
X175260000Y-77470000D01*
X175260000Y-77470000D02*
X177800000Y-77470000D01*
X177800000Y-77470000D02*
X177800000Y-72390000D01*
X171450000Y-124460000D02*
X168910000Y-124460000D01*
X168910000Y-124460000D02*
X168910000Y-121920000D01*
X168910000Y-121920000D02*
X171450000Y-121920000D01*
X171450000Y-124460000D02*
X176530000Y-124460000D01*
X176530000Y-124460000D02*
X176530000Y-121920000D01*
X176530000Y-121920000D02*
X171450000Y-121920000D01*
X151130000Y-76200000D02*
X151130000Y-78740000D01*
X151130000Y-78740000D02*
X148590000Y-78740000D01*
X148590000Y-78740000D02*
X148590000Y-76200000D01*
X148590000Y-76200000D02*
X148590000Y-73660000D01*
X151130000Y-76200000D02*
X151130000Y-73660000D01*
X151130000Y-73660000D02*
X148590000Y-73660000D01*
X158750000Y-76200000D02*
X158750000Y-78740000D01*
X158750000Y-78740000D02*
X156210000Y-78740000D01*
X156210000Y-78740000D02*
X156210000Y-76200000D01*
X156210000Y-76200000D02*
X156210000Y-73660000D01*
X158750000Y-76200000D02*
X158750000Y-73660000D01*
X158750000Y-73660000D02*
X156210000Y-73660000D01*
X148590000Y-73660000D02*
X146050000Y-73660000D01*
X146050000Y-73660000D02*
X146050000Y-71120000D01*
X161290000Y-68580000D02*
X146050000Y-68580000D01*
X148590000Y-73660000D02*
X161290000Y-73660000D01*
X161290000Y-68580000D02*
X161290000Y-73660000D01*
X146050000Y-68580000D02*
X146050000Y-71120000D01*
X146202400Y-118491000D02*
G75*
G03X146202400Y-118491000I-25400J0D01*
G01*
X145415000Y-118745000D02*
X146939000Y-118745000D01*
X146939000Y-118745000D02*
X146177000Y-117221000D01*
X145415000Y-118745000D02*
X146177000Y-117221000D01*
X146177000Y-117729000D02*
X146177000Y-118237000D01*
X163982400Y-118491000D02*
G75*
G03X163982400Y-118491000I-25400J0D01*
G01*
X163195000Y-118745000D02*
X164719000Y-118745000D01*
X164719000Y-118745000D02*
X163957000Y-117221000D01*
X163195000Y-118745000D02*
X163957000Y-117221000D01*
X163957000Y-117729000D02*
X163957000Y-118237000D01*
X137718895Y-88250781D02*
X137718895Y-89060305D01*
X137766514Y-89155543D01*
X137814133Y-89203162D01*
X137909371Y-89250781D01*
X138099848Y-89250781D01*
X138195086Y-89203162D01*
X138242705Y-89155543D01*
X138290324Y-89060305D01*
X138290324Y-88250781D01*
X139290324Y-89250781D02*
X138718895Y-89250781D01*
X139004609Y-89250781D02*
X139004609Y-88250781D01*
X138909371Y-88393638D01*
X138814133Y-88488876D01*
X138718895Y-88536495D01*
X138057000Y-102631571D02*
X138009381Y-102726809D01*
X138009381Y-102869666D01*
X138057000Y-103012524D01*
X138152238Y-103107762D01*
X138247476Y-103155381D01*
X138437952Y-103203000D01*
X138580810Y-103203000D01*
X138771286Y-103155381D01*
X138866524Y-103107762D01*
X138961762Y-103012524D01*
X139009381Y-102869666D01*
X139009381Y-102774428D01*
X138961762Y-102631571D01*
X138914143Y-102583952D01*
X138580810Y-102583952D01*
X138580810Y-102774428D01*
X138723667Y-102203000D02*
X138723667Y-101726809D01*
X139009381Y-102298238D02*
X138009381Y-101964905D01*
X139009381Y-101631571D01*
X139009381Y-100822047D02*
X139009381Y-101298238D01*
X138009381Y-101298238D01*
X139009381Y-99964904D02*
X139009381Y-100536333D01*
X139009381Y-100250619D02*
X138009381Y-100250619D01*
X138152238Y-100345857D01*
X138247476Y-100441095D01*
X138295095Y-100536333D01*
X138009381Y-99107761D02*
X138009381Y-99298238D01*
X138057000Y-99393476D01*
X138104619Y-99441095D01*
X138247476Y-99536333D01*
X138437952Y-99583952D01*
X138818905Y-99583952D01*
X138914143Y-99536333D01*
X138961762Y-99488714D01*
X139009381Y-99393476D01*
X139009381Y-99202999D01*
X138961762Y-99107761D01*
X138914143Y-99060142D01*
X138818905Y-99012523D01*
X138580810Y-99012523D01*
X138485571Y-99060142D01*
X138437952Y-99107761D01*
X138390333Y-99202999D01*
X138390333Y-99393476D01*
X138437952Y-99488714D01*
X138485571Y-99536333D01*
X138580810Y-99583952D01*
X138009381Y-98726809D02*
X139009381Y-98393476D01*
X138009381Y-98060142D01*
X138437952Y-97583952D02*
X138390333Y-97679190D01*
X138342714Y-97726809D01*
X138247476Y-97774428D01*
X138199857Y-97774428D01*
X138104619Y-97726809D01*
X138057000Y-97679190D01*
X138009381Y-97583952D01*
X138009381Y-97393475D01*
X138057000Y-97298237D01*
X138104619Y-97250618D01*
X138199857Y-97202999D01*
X138247476Y-97202999D01*
X138342714Y-97250618D01*
X138390333Y-97298237D01*
X138437952Y-97393475D01*
X138437952Y-97583952D01*
X138485571Y-97679190D01*
X138533190Y-97726809D01*
X138628429Y-97774428D01*
X138818905Y-97774428D01*
X138914143Y-97726809D01*
X138961762Y-97679190D01*
X139009381Y-97583952D01*
X139009381Y-97393475D01*
X138961762Y-97298237D01*
X138914143Y-97250618D01*
X138818905Y-97202999D01*
X138628429Y-97202999D01*
X138533190Y-97250618D01*
X138485571Y-97298237D01*
X138437952Y-97393475D01*
X136930000Y-115974762D02*
X137072857Y-116022381D01*
X137310953Y-116022381D01*
X137406191Y-115974762D01*
X137453810Y-115927143D01*
X137501429Y-115831905D01*
X137501429Y-115736667D01*
X137453810Y-115641429D01*
X137406191Y-115593810D01*
X137310953Y-115546190D01*
X137120476Y-115498571D01*
X137025238Y-115450952D01*
X136977619Y-115403333D01*
X136930000Y-115308095D01*
X136930000Y-115212857D01*
X136977619Y-115117619D01*
X137025238Y-115070000D01*
X137120476Y-115022381D01*
X137358572Y-115022381D01*
X137501429Y-115070000D01*
X137930000Y-116022381D02*
X137930000Y-115022381D01*
X138406190Y-116022381D02*
X138406190Y-115022381D01*
X138644285Y-115022381D01*
X138787143Y-115070000D01*
X138882381Y-115165238D01*
X138930000Y-115260476D01*
X138977619Y-115450952D01*
X138977619Y-115593810D01*
X138930000Y-115784286D01*
X138882381Y-115879524D01*
X138787143Y-115974762D01*
X138644285Y-116022381D01*
X138406190Y-116022381D01*
X139358571Y-115117619D02*
X139406190Y-115070000D01*
X139501428Y-115022381D01*
X139739524Y-115022381D01*
X139834762Y-115070000D01*
X139882381Y-115117619D01*
X139930000Y-115212857D01*
X139930000Y-115308095D01*
X139882381Y-115450952D01*
X139310952Y-116022381D01*
X139930000Y-116022381D01*
X154710000Y-115974762D02*
X154852857Y-116022381D01*
X155090953Y-116022381D01*
X155186191Y-115974762D01*
X155233810Y-115927143D01*
X155281429Y-115831905D01*
X155281429Y-115736667D01*
X155233810Y-115641429D01*
X155186191Y-115593810D01*
X155090953Y-115546190D01*
X154900476Y-115498571D01*
X154805238Y-115450952D01*
X154757619Y-115403333D01*
X154710000Y-115308095D01*
X154710000Y-115212857D01*
X154757619Y-115117619D01*
X154805238Y-115070000D01*
X154900476Y-115022381D01*
X155138572Y-115022381D01*
X155281429Y-115070000D01*
X155710000Y-116022381D02*
X155710000Y-115022381D01*
X156186190Y-116022381D02*
X156186190Y-115022381D01*
X156424285Y-115022381D01*
X156567143Y-115070000D01*
X156662381Y-115165238D01*
X156710000Y-115260476D01*
X156757619Y-115450952D01*
X156757619Y-115593810D01*
X156710000Y-115784286D01*
X156662381Y-115879524D01*
X156567143Y-115974762D01*
X156424285Y-116022381D01*
X156186190Y-116022381D01*
X157710000Y-116022381D02*
X157138571Y-116022381D01*
X157424285Y-116022381D02*
X157424285Y-115022381D01*
X157329047Y-115165238D01*
X157233809Y-115260476D01*
X157138571Y-115308095D01*
X156591095Y-88225381D02*
X156591095Y-89034905D01*
X156638714Y-89130143D01*
X156686333Y-89177762D01*
X156781571Y-89225381D01*
X156972048Y-89225381D01*
X157067286Y-89177762D01*
X157114905Y-89130143D01*
X157162524Y-89034905D01*
X157162524Y-88225381D01*
X158067286Y-88225381D02*
X157876809Y-88225381D01*
X157781571Y-88273000D01*
X157733952Y-88320619D01*
X157638714Y-88463476D01*
X157591095Y-88653952D01*
X157591095Y-89034905D01*
X157638714Y-89130143D01*
X157686333Y-89177762D01*
X157781571Y-89225381D01*
X157972048Y-89225381D01*
X158067286Y-89177762D01*
X158114905Y-89130143D01*
X158162524Y-89034905D01*
X158162524Y-88796810D01*
X158114905Y-88701571D01*
X158067286Y-88653952D01*
X157972048Y-88606333D01*
X157781571Y-88606333D01*
X157686333Y-88653952D01*
X157638714Y-88701571D01*
X157591095Y-88796810D01*
X157265714Y-99028095D02*
X157932381Y-99028095D01*
X156884762Y-99266191D02*
X157599048Y-99504286D01*
X157599048Y-98885238D01*
X156932381Y-98313810D02*
X156932381Y-98218571D01*
X156980000Y-98123333D01*
X157027619Y-98075714D01*
X157122857Y-98028095D01*
X157313333Y-97980476D01*
X157551429Y-97980476D01*
X157741905Y-98028095D01*
X157837143Y-98075714D01*
X157884762Y-98123333D01*
X157932381Y-98218571D01*
X157932381Y-98313810D01*
X157884762Y-98409048D01*
X157837143Y-98456667D01*
X157741905Y-98504286D01*
X157551429Y-98551905D01*
X157313333Y-98551905D01*
X157122857Y-98504286D01*
X157027619Y-98456667D01*
X156980000Y-98409048D01*
X156932381Y-98313810D01*
X156932381Y-97075714D02*
X156932381Y-97551905D01*
X157408571Y-97599524D01*
X157360952Y-97551905D01*
X157313333Y-97456667D01*
X157313333Y-97218571D01*
X157360952Y-97123333D01*
X157408571Y-97075714D01*
X157503810Y-97028095D01*
X157741905Y-97028095D01*
X157837143Y-97075714D01*
X157884762Y-97123333D01*
X157932381Y-97218571D01*
X157932381Y-97456667D01*
X157884762Y-97551905D01*
X157837143Y-97599524D01*
X157027619Y-96647143D02*
X156980000Y-96599524D01*
X156932381Y-96504286D01*
X156932381Y-96266190D01*
X156980000Y-96170952D01*
X157027619Y-96123333D01*
X157122857Y-96075714D01*
X157218095Y-96075714D01*
X157360952Y-96123333D01*
X157932381Y-96694762D01*
X157932381Y-96075714D01*
X171958095Y-84542381D02*
X171958095Y-85351905D01*
X172005714Y-85447143D01*
X172053333Y-85494762D01*
X172148571Y-85542381D01*
X172339048Y-85542381D01*
X172434286Y-85494762D01*
X172481905Y-85447143D01*
X172529524Y-85351905D01*
X172529524Y-84542381D01*
X173148571Y-84970952D02*
X173053333Y-84923333D01*
X173005714Y-84875714D01*
X172958095Y-84780476D01*
X172958095Y-84732857D01*
X173005714Y-84637619D01*
X173053333Y-84590000D01*
X173148571Y-84542381D01*
X173339048Y-84542381D01*
X173434286Y-84590000D01*
X173481905Y-84637619D01*
X173529524Y-84732857D01*
X173529524Y-84780476D01*
X173481905Y-84875714D01*
X173434286Y-84923333D01*
X173339048Y-84970952D01*
X173148571Y-84970952D01*
X173053333Y-85018571D01*
X173005714Y-85066190D01*
X172958095Y-85161429D01*
X172958095Y-85351905D01*
X173005714Y-85447143D01*
X173053333Y-85494762D01*
X173148571Y-85542381D01*
X173339048Y-85542381D01*
X173434286Y-85494762D01*
X173481905Y-85447143D01*
X173529524Y-85351905D01*
X173529524Y-85161429D01*
X173481905Y-85066190D01*
X173434286Y-85018571D01*
X173339048Y-84970952D01*
X173426381Y-93106524D02*
X172426381Y-93106524D01*
X173331143Y-92058905D02*
X173378762Y-92106524D01*
X173426381Y-92249381D01*
X173426381Y-92344619D01*
X173378762Y-92487477D01*
X173283524Y-92582715D01*
X173188286Y-92630334D01*
X172997810Y-92677953D01*
X172854952Y-92677953D01*
X172664476Y-92630334D01*
X172569238Y-92582715D01*
X172474000Y-92487477D01*
X172426381Y-92344619D01*
X172426381Y-92249381D01*
X172474000Y-92106524D01*
X172521619Y-92058905D01*
X173426381Y-91154143D02*
X173426381Y-91630334D01*
X172426381Y-91630334D01*
X172426381Y-90916048D02*
X172426381Y-90249381D01*
X173426381Y-90677953D01*
X172426381Y-89439857D02*
X172426381Y-89630334D01*
X172474000Y-89725572D01*
X172521619Y-89773191D01*
X172664476Y-89868429D01*
X172854952Y-89916048D01*
X173235905Y-89916048D01*
X173331143Y-89868429D01*
X173378762Y-89820810D01*
X173426381Y-89725572D01*
X173426381Y-89535095D01*
X173378762Y-89439857D01*
X173331143Y-89392238D01*
X173235905Y-89344619D01*
X172997810Y-89344619D01*
X172902571Y-89392238D01*
X172854952Y-89439857D01*
X172807333Y-89535095D01*
X172807333Y-89725572D01*
X172854952Y-89820810D01*
X172902571Y-89868429D01*
X172997810Y-89916048D01*
X172426381Y-88487476D02*
X172426381Y-88677953D01*
X172474000Y-88773191D01*
X172521619Y-88820810D01*
X172664476Y-88916048D01*
X172854952Y-88963667D01*
X173235905Y-88963667D01*
X173331143Y-88916048D01*
X173378762Y-88868429D01*
X173426381Y-88773191D01*
X173426381Y-88582714D01*
X173378762Y-88487476D01*
X173331143Y-88439857D01*
X173235905Y-88392238D01*
X172997810Y-88392238D01*
X172902571Y-88439857D01*
X172854952Y-88487476D01*
X172807333Y-88582714D01*
X172807333Y-88773191D01*
X172854952Y-88868429D01*
X172902571Y-88916048D01*
X172997810Y-88963667D01*
X172426381Y-87773191D02*
X172426381Y-87677952D01*
X172474000Y-87582714D01*
X172521619Y-87535095D01*
X172616857Y-87487476D01*
X172807333Y-87439857D01*
X173045429Y-87439857D01*
X173235905Y-87487476D01*
X173331143Y-87535095D01*
X173378762Y-87582714D01*
X173426381Y-87677952D01*
X173426381Y-87773191D01*
X173378762Y-87868429D01*
X173331143Y-87916048D01*
X173235905Y-87963667D01*
X173045429Y-88011286D01*
X172807333Y-88011286D01*
X172616857Y-87963667D01*
X172521619Y-87916048D01*
X172474000Y-87868429D01*
X172426381Y-87773191D01*
X157313334Y-112339381D02*
X156980000Y-111863190D01*
X156741905Y-112339381D02*
X156741905Y-111339381D01*
X157122858Y-111339381D01*
X157218096Y-111387000D01*
X157265715Y-111434619D01*
X157313334Y-111529857D01*
X157313334Y-111672714D01*
X157265715Y-111767952D01*
X157218096Y-111815571D01*
X157122858Y-111863190D01*
X156741905Y-111863190D01*
X157646667Y-111339381D02*
X158313334Y-111339381D01*
X157884762Y-112339381D01*
X157313334Y-109799381D02*
X156980000Y-109323190D01*
X156741905Y-109799381D02*
X156741905Y-108799381D01*
X157122858Y-108799381D01*
X157218096Y-108847000D01*
X157265715Y-108894619D01*
X157313334Y-108989857D01*
X157313334Y-109132714D01*
X157265715Y-109227952D01*
X157218096Y-109275571D01*
X157122858Y-109323190D01*
X156741905Y-109323190D01*
X157884762Y-109227952D02*
X157789524Y-109180333D01*
X157741905Y-109132714D01*
X157694286Y-109037476D01*
X157694286Y-108989857D01*
X157741905Y-108894619D01*
X157789524Y-108847000D01*
X157884762Y-108799381D01*
X158075239Y-108799381D01*
X158170477Y-108847000D01*
X158218096Y-108894619D01*
X158265715Y-108989857D01*
X158265715Y-109037476D01*
X158218096Y-109132714D01*
X158170477Y-109180333D01*
X158075239Y-109227952D01*
X157884762Y-109227952D01*
X157789524Y-109275571D01*
X157741905Y-109323190D01*
X157694286Y-109418429D01*
X157694286Y-109608905D01*
X157741905Y-109704143D01*
X157789524Y-109751762D01*
X157884762Y-109799381D01*
X158075239Y-109799381D01*
X158170477Y-109751762D01*
X158218096Y-109704143D01*
X158265715Y-109608905D01*
X158265715Y-109418429D01*
X158218096Y-109323190D01*
X158170477Y-109275571D01*
X158075239Y-109227952D01*
X166568381Y-74255238D02*
X166092190Y-74588572D01*
X166568381Y-74826667D02*
X165568381Y-74826667D01*
X165568381Y-74445714D01*
X165616000Y-74350476D01*
X165663619Y-74302857D01*
X165758857Y-74255238D01*
X165901714Y-74255238D01*
X165996952Y-74302857D01*
X166044571Y-74350476D01*
X166092190Y-74445714D01*
X166092190Y-74826667D01*
X165568381Y-73969524D02*
X166568381Y-73636191D01*
X165568381Y-73302857D01*
X166568381Y-72445714D02*
X166568381Y-73017143D01*
X166568381Y-72731429D02*
X165568381Y-72731429D01*
X165711238Y-72826667D01*
X165806476Y-72921905D01*
X165854095Y-73017143D01*
X144978381Y-74255238D02*
X144502190Y-74588572D01*
X144978381Y-74826667D02*
X143978381Y-74826667D01*
X143978381Y-74445714D01*
X144026000Y-74350476D01*
X144073619Y-74302857D01*
X144168857Y-74255238D01*
X144311714Y-74255238D01*
X144406952Y-74302857D01*
X144454571Y-74350476D01*
X144502190Y-74445714D01*
X144502190Y-74826667D01*
X143978381Y-73969524D02*
X144978381Y-73636191D01*
X143978381Y-73302857D01*
X144073619Y-73017143D02*
X144026000Y-72969524D01*
X143978381Y-72874286D01*
X143978381Y-72636190D01*
X144026000Y-72540952D01*
X144073619Y-72493333D01*
X144168857Y-72445714D01*
X144264095Y-72445714D01*
X144406952Y-72493333D01*
X144978381Y-73064762D01*
X144978381Y-72445714D01*
%LPC*%
D12*
X142240000Y-83820000D03*
D13*
X139740000Y-83820000D03*
D12*
X139700000Y-86360000D03*
D13*
X142200000Y-86360000D03*
D12*
X137160000Y-86360000D03*
D13*
X134660000Y-86360000D03*
D12*
X134620000Y-83820000D03*
D13*
X137120000Y-83820000D03*
D12*
X165100000Y-120650000D03*
D13*
X162600000Y-120650000D03*
D12*
X157480000Y-120650000D03*
D13*
X159980000Y-120650000D03*
D12*
X152400000Y-120650000D03*
D13*
X149900000Y-120650000D03*
D12*
X144780000Y-120650000D03*
D13*
X147280000Y-120650000D03*
D12*
X158750000Y-83820000D03*
D13*
X161250000Y-83820000D03*
D12*
X153670000Y-86360000D03*
D13*
X156170000Y-86360000D03*
D12*
X153670000Y-83820000D03*
D13*
X156170000Y-83820000D03*
D12*
X161290000Y-86360000D03*
D13*
X158790000Y-86360000D03*
D12*
X171450000Y-82550000D03*
D13*
X171450000Y-80050000D03*
D12*
X173990000Y-80010000D03*
D13*
X173990000Y-82510000D03*
D12*
X168910000Y-105410000D03*
D13*
X171410000Y-105410000D03*
D12*
X168910000Y-110490000D03*
D13*
X168910000Y-107990000D03*
D12*
X171450000Y-97790000D03*
D13*
X168950000Y-97790000D03*
D12*
X173990000Y-97790000D03*
D13*
X176490000Y-97790000D03*
D14*
X147320000Y-74930000D03*
X147320000Y-77470000D03*
X176530000Y-82550000D03*
X176530000Y-80010000D03*
X171450000Y-102870000D03*
X171450000Y-100330000D03*
X168910000Y-102870000D03*
X168910000Y-100330000D03*
X171450000Y-110490000D03*
X171450000Y-107950000D03*
X176530000Y-102870000D03*
X176530000Y-100330000D03*
D15*
X134620000Y-88900000D03*
X134620000Y-91440000D03*
X134620000Y-93980000D03*
X134620000Y-96520000D03*
X134620000Y-99060000D03*
X134620000Y-101600000D03*
X134620000Y-104140000D03*
X134620000Y-106680000D03*
X134620000Y-109220000D03*
X134620000Y-111760000D03*
X142240000Y-111760000D03*
X142240000Y-109220000D03*
X142240000Y-106680000D03*
X142240000Y-104140000D03*
X142240000Y-101600000D03*
X142240000Y-99060000D03*
X142240000Y-96520000D03*
X142240000Y-93980000D03*
X142240000Y-91440000D03*
X142240000Y-88900000D03*
X130810000Y-81280000D03*
X130810000Y-83820000D03*
X130810000Y-86360000D03*
X130810000Y-88900000D03*
X130810000Y-91440000D03*
X130810000Y-93980000D03*
X130810000Y-96520000D03*
X130810000Y-99060000D03*
X130810000Y-101600000D03*
X130810000Y-104140000D03*
X130810000Y-106680000D03*
X130810000Y-109220000D03*
X130810000Y-111760000D03*
X130810000Y-114300000D03*
X146050000Y-114300000D03*
X146050000Y-111760000D03*
X146050000Y-109220000D03*
X146050000Y-106680000D03*
X146050000Y-104140000D03*
X146050000Y-101600000D03*
X146050000Y-99060000D03*
X146050000Y-96520000D03*
X146050000Y-93980000D03*
X146050000Y-91440000D03*
X146050000Y-88900000D03*
X146050000Y-86360000D03*
X146050000Y-83820000D03*
X146050000Y-81280000D03*
D16*
X161290000Y-123190000D03*
X158750000Y-123190000D03*
X163830000Y-123190000D03*
X148590000Y-123190000D03*
X146050000Y-123190000D03*
X151130000Y-123190000D03*
D15*
X148590000Y-81280000D03*
X148590000Y-83820000D03*
X148590000Y-86360000D03*
X148590000Y-88900000D03*
X148590000Y-91440000D03*
X148590000Y-93980000D03*
X148590000Y-96520000D03*
X148590000Y-99060000D03*
X148590000Y-101600000D03*
X148590000Y-104140000D03*
X148590000Y-106680000D03*
X148590000Y-109220000D03*
X148590000Y-111760000D03*
X148590000Y-114300000D03*
X163830000Y-114300000D03*
X163830000Y-111760000D03*
X163830000Y-109220000D03*
X163830000Y-106680000D03*
X163830000Y-104140000D03*
X163830000Y-101600000D03*
X163830000Y-99060000D03*
X163830000Y-96520000D03*
X163830000Y-93980000D03*
X163830000Y-91440000D03*
X163830000Y-88900000D03*
X163830000Y-86360000D03*
X163830000Y-83820000D03*
X163830000Y-81280000D03*
X153670000Y-88900000D03*
X153670000Y-91440000D03*
X153670000Y-93980000D03*
X153670000Y-96520000D03*
X153670000Y-99060000D03*
X153670000Y-101600000D03*
X153670000Y-104140000D03*
X153670000Y-106680000D03*
X161290000Y-106680000D03*
X161290000Y-104140000D03*
X161290000Y-101600000D03*
X161290000Y-99060000D03*
X161290000Y-96520000D03*
X161290000Y-93980000D03*
X161290000Y-91440000D03*
X161290000Y-88900000D03*
X168910000Y-86360000D03*
X168910000Y-88900000D03*
X168910000Y-91440000D03*
X168910000Y-93980000D03*
X176530000Y-93980000D03*
X176530000Y-91440000D03*
X176530000Y-88900000D03*
X176530000Y-86360000D03*
D14*
X153670000Y-111760000D03*
X161290000Y-111760000D03*
X153670000Y-109220000D03*
X161290000Y-109220000D03*
X168910000Y-80010000D03*
X168910000Y-82550000D03*
X160020000Y-77470000D03*
X160020000Y-74930000D03*
D12*
X173990000Y-105410000D03*
D13*
X176490000Y-105410000D03*
D12*
X173990000Y-110490000D03*
D13*
X173990000Y-107990000D03*
D17*
X170180000Y-114300000D03*
X171450000Y-114300000D03*
X168910000Y-114300000D03*
X175260000Y-114300000D03*
X176530000Y-114300000D03*
X173990000Y-114300000D03*
D14*
X173990000Y-102870000D03*
X173990000Y-100330000D03*
X176530000Y-110490000D03*
X176530000Y-107950000D03*
D12*
X168275000Y-118999000D03*
D13*
X170775000Y-118999000D03*
D12*
X173990000Y-118999000D03*
D13*
X176490000Y-118999000D03*
D18*
X151130000Y-81280000D03*
X151130000Y-83820000D03*
X151130000Y-86360000D03*
X151130000Y-88900000D03*
X151130000Y-91440000D03*
X151130000Y-93980000D03*
X151130000Y-96520000D03*
X151130000Y-99060000D03*
X151130000Y-101600000D03*
X151130000Y-104140000D03*
X151130000Y-106680000D03*
X151130000Y-109220000D03*
X151130000Y-111760000D03*
X151130000Y-114300000D03*
X166370000Y-114300000D03*
X166370000Y-111760000D03*
X166370000Y-109220000D03*
X166370000Y-106680000D03*
X166370000Y-104140000D03*
X166370000Y-101600000D03*
X166370000Y-99060000D03*
X166370000Y-96520000D03*
X166370000Y-93980000D03*
X166370000Y-91440000D03*
X166370000Y-88900000D03*
X166370000Y-86360000D03*
X166370000Y-83820000D03*
X166370000Y-81280000D03*
D19*
X164465000Y-73660000D03*
X164465000Y-76200000D03*
X164465000Y-71120000D03*
X142875000Y-73660000D03*
X142875000Y-76200000D03*
X142875000Y-71120000D03*
D14*
X152400000Y-77470000D03*
X152400000Y-74930000D03*
X154940000Y-77470000D03*
X154940000Y-74930000D03*
D18*
X130810000Y-123190000D03*
X133350000Y-123190000D03*
X135890000Y-123190000D03*
X138430000Y-123190000D03*
X140970000Y-123190000D03*
D20*
X133350000Y-119380000D03*
D18*
X135890000Y-119380000D03*
X138430000Y-119380000D03*
D20*
X157480000Y-118110000D03*
D18*
X154940000Y-118110000D03*
X152400000Y-118110000D03*
D20*
X130810000Y-71120000D03*
D18*
X130810000Y-73660000D03*
X130810000Y-76200000D03*
D20*
X133350000Y-71120000D03*
D18*
X133350000Y-73660000D03*
X133350000Y-76200000D03*
D20*
X135890000Y-71120000D03*
D18*
X135890000Y-73660000D03*
X135890000Y-76200000D03*
D20*
X138430000Y-71120000D03*
D18*
X138430000Y-73660000D03*
X138430000Y-76200000D03*
D20*
X168910000Y-71120000D03*
D18*
X168910000Y-73660000D03*
X168910000Y-76200000D03*
D20*
X171450000Y-71120000D03*
D18*
X171450000Y-73660000D03*
X171450000Y-76200000D03*
D20*
X173990000Y-71120000D03*
D18*
X173990000Y-73660000D03*
X173990000Y-76200000D03*
D20*
X176530000Y-71120000D03*
D18*
X176530000Y-73660000D03*
X176530000Y-76200000D03*
D20*
X170180000Y-123190000D03*
D18*
X172720000Y-123190000D03*
X175260000Y-123190000D03*
X149860000Y-77470000D03*
X149860000Y-74930000D03*
X157480000Y-77470000D03*
X157480000Y-74930000D03*
D20*
X147320000Y-72390000D03*
D21*
X147320000Y-69850000D03*
X149860000Y-72390000D03*
X149860000Y-69850000D03*
X152400000Y-72390000D03*
X152400000Y-69850000D03*
X154940000Y-72390000D03*
X154940000Y-69850000D03*
X157480000Y-72390000D03*
X157480000Y-69850000D03*
X160020000Y-72390000D03*
X160020000Y-69850000D03*
M02*
