M48
;DRILL file {KiCad 4.0.0-rc2-stable} date 22.03.2016 15:35:39
;FORMAT={-:-/ absolute / inch / decimal}
FMAT,2
INCH,TZ
T1C0.016
T2C0.024
T3C0.031
T4C0.032
T5C0.032
T6C0.040
T7C0.045
%
G90
G05
M72
T1
X5.2019Y-2.7457
X5.3825Y-4.0375
X5.5134Y-4.0984
X5.5459Y-4.4021
X5.662Y-3.91
X5.6725Y-4.3156
X5.698Y-4.3856
X5.7078Y-2.9675
X5.8087Y-4.6408
X6.0194Y-4.0493
X6.1091Y-4.0453
X6.1094Y-4.4532
X6.2246Y-3.1851
X6.2577Y-3.19
X6.2809Y-4.2065
X6.351Y-4.5634
X6.3574Y-3.0417
X6.3989Y-3.0113
X6.4467Y-4.7067
X6.463Y-3.0506
X6.4784Y-4.05
X6.5965Y-3.115
X6.6917Y-3.046
X6.7897Y-4.4258
X6.8672Y-3.4204
T2
X6.65Y-4.5
X6.7Y-4.5
X6.75Y-4.5
X6.85Y-4.5
X6.9Y-4.5
X6.95Y-4.5
T3
X5.15Y-3.2
X5.15Y-3.3
X5.15Y-3.4
X5.15Y-3.5
X5.15Y-3.6
X5.15Y-3.7
X5.15Y-3.8
X5.15Y-3.9
X5.15Y-4.
X5.15Y-4.1
X5.15Y-4.2
X5.15Y-4.3
X5.15Y-4.4
X5.15Y-4.5
X5.3Y-3.3
X5.3Y-3.5
X5.3Y-3.6
X5.3Y-3.7
X5.3Y-3.8
X5.3Y-3.9
X5.3Y-4.
X5.3Y-4.1
X5.3Y-4.2
X5.3Y-4.3
X5.3Y-4.4
X5.4Y-3.4
X5.5Y-3.4
X5.6Y-3.3
X5.6Y-3.5
X5.6Y-3.6
X5.6Y-3.7
X5.6Y-3.8
X5.6Y-3.9
X5.6Y-4.
X5.6Y-4.1
X5.6Y-4.2
X5.6Y-4.3
X5.6Y-4.4
X5.7Y-4.75
X5.75Y-3.2
X5.75Y-3.3
X5.75Y-3.4
X5.75Y-3.5
X5.75Y-3.6
X5.75Y-3.7
X5.75Y-3.8
X5.75Y-3.9
X5.75Y-4.
X5.75Y-4.1
X5.75Y-4.2
X5.75Y-4.3
X5.75Y-4.4
X5.75Y-4.5
X5.85Y-3.2
X5.85Y-3.3
X5.85Y-3.4
X5.85Y-3.5
X5.85Y-3.6
X5.85Y-3.7
X5.85Y-3.8
X5.85Y-3.9
X5.85Y-4.
X5.85Y-4.1
X5.85Y-4.2
X5.85Y-4.3
X5.85Y-4.4
X5.85Y-4.5
X6.Y-4.75
X6.05Y-3.3
X6.05Y-3.4
X6.05Y-3.5
X6.05Y-3.6
X6.05Y-3.7
X6.05Y-3.8
X6.05Y-3.9
X6.05Y-4.
X6.05Y-4.1
X6.05Y-4.2
X6.2Y-4.75
X6.25Y-3.3
X6.35Y-3.4
X6.35Y-3.5
X6.35Y-3.6
X6.35Y-3.7
X6.35Y-3.8
X6.35Y-3.9
X6.35Y-4.
X6.35Y-4.1
X6.35Y-4.2
X6.45Y-3.2
X6.45Y-3.3
X6.45Y-3.4
X6.45Y-3.5
X6.45Y-3.6
X6.45Y-3.7
X6.45Y-3.8
X6.45Y-3.9
X6.45Y-4.
X6.45Y-4.1
X6.45Y-4.2
X6.45Y-4.3
X6.45Y-4.4
X6.45Y-4.5
X6.5Y-4.75
X6.625Y-4.685
X6.65Y-3.4
X6.65Y-3.5
X6.65Y-3.6
X6.65Y-3.7
X6.65Y-4.15
X6.65Y-4.35
X6.7234Y-4.685
X6.75Y-3.25
X6.75Y-3.85
X6.85Y-3.15
X6.85Y-3.85
X6.85Y-4.15
X6.85Y-4.35
X6.85Y-4.685
X6.9484Y-4.685
X6.95Y-3.4
X6.95Y-3.5
X6.95Y-3.6
X6.95Y-3.7
T4
X5.3016Y-3.4
X5.3984Y-3.3
X5.5016Y-3.3
X5.5984Y-3.4
X5.7984Y-4.75
X5.9016Y-4.75
X6.1484Y-3.3
X6.1484Y-3.4
X6.2516Y-3.4
X6.2984Y-4.75
X6.3484Y-3.3
X6.4016Y-4.75
X6.65Y-4.2516
X6.6516Y-3.85
X6.7484Y-4.15
X6.75Y-3.1516
X6.85Y-3.2484
X6.85Y-4.2516
X6.9484Y-3.85
X6.9484Y-4.15
T5
X5.625Y-2.8
X5.625Y-2.9
X5.625Y-3.
X5.8Y-2.95
X5.8Y-3.05
X6.Y-2.95
X6.Y-3.05
X6.05Y-4.3
X6.05Y-4.4
X6.1Y-2.95
X6.1Y-3.05
X6.3Y-2.95
X6.3Y-3.05
X6.35Y-4.3
X6.35Y-4.4
X6.475Y-2.8
X6.475Y-2.9
X6.475Y-3.
X6.65Y-3.15
X6.65Y-3.25
X6.65Y-3.95
X6.65Y-4.05
X6.75Y-3.95
X6.75Y-4.05
X6.75Y-4.25
X6.75Y-4.35
X6.85Y-3.95
X6.85Y-4.05
X6.95Y-3.15
X6.95Y-3.25
X6.95Y-3.95
X6.95Y-4.05
X6.95Y-4.25
X6.95Y-4.35
T6
X5.15Y-2.8
X5.15Y-2.9
X5.15Y-3.
X5.15Y-4.85
X5.25Y-2.8
X5.25Y-2.9
X5.25Y-3.
X5.25Y-4.7
X5.25Y-4.85
X5.35Y-2.8
X5.35Y-2.9
X5.35Y-3.
X5.35Y-4.7
X5.35Y-4.85
X5.45Y-2.8
X5.45Y-2.9
X5.45Y-3.
X5.45Y-4.7
X5.45Y-4.85
X5.55Y-4.85
X5.8Y-2.75
X5.8Y-2.85
X5.9Y-2.75
X5.9Y-2.85
X5.9Y-2.95
X5.9Y-3.05
X5.95Y-3.2
X5.95Y-3.3
X5.95Y-3.4
X5.95Y-3.5
X5.95Y-3.6
X5.95Y-3.7
X5.95Y-3.8
X5.95Y-3.9
X5.95Y-4.
X5.95Y-4.1
X5.95Y-4.2
X5.95Y-4.3
X5.95Y-4.4
X5.95Y-4.5
X6.Y-2.75
X6.Y-2.85
X6.Y-4.65
X6.1Y-2.75
X6.1Y-2.85
X6.1Y-4.65
X6.2Y-2.75
X6.2Y-2.85
X6.2Y-2.95
X6.2Y-3.05
X6.2Y-4.65
X6.3Y-2.75
X6.3Y-2.85
X6.55Y-3.2
X6.55Y-3.3
X6.55Y-3.4
X6.55Y-3.5
X6.55Y-3.6
X6.55Y-3.7
X6.55Y-3.8
X6.55Y-3.9
X6.55Y-4.
X6.55Y-4.1
X6.55Y-4.2
X6.55Y-4.3
X6.55Y-4.4
X6.55Y-4.5
X6.65Y-2.8
X6.65Y-2.9
X6.65Y-3.
X6.7Y-4.85
X6.75Y-2.8
X6.75Y-2.9
X6.75Y-3.
X6.8Y-4.85
X6.85Y-2.8
X6.85Y-2.9
X6.85Y-3.
X6.9Y-4.85
X6.95Y-2.8
X6.95Y-2.9
X6.95Y-3.
T7
X5.75Y-4.85
X5.85Y-4.85
X5.95Y-4.85
X6.25Y-4.85
X6.35Y-4.85
X6.45Y-4.85
T0
M30
