G04 #@! TF.FileFunction,Soldermask,Top*
%FSLAX46Y46*%
G04 Gerber Fmt 4.6, Leading zero omitted, Abs format (unit mm)*
G04 Created by KiCad (PCBNEW 4.0.0-rc2-stable) date 22.03.2016 15:33:30*
%MOMM*%
G01*
G04 APERTURE LIST*
%ADD10C,0.100000*%
%ADD11R,1.700000X1.700000*%
%ADD12C,1.700000*%
%ADD13C,1.797000*%
%ADD14O,2.000000X2.000000*%
%ADD15O,2.432000X2.940000*%
%ADD16O,1.299160X1.901140*%
%ADD17C,2.127200*%
%ADD18C,1.924000*%
%ADD19R,2.127200X2.127200*%
%ADD20O,2.127200X2.127200*%
G04 APERTURE END LIST*
D10*
D11*
X142240000Y-83820000D03*
D12*
X139740000Y-83820000D03*
D11*
X139700000Y-86360000D03*
D12*
X142200000Y-86360000D03*
D11*
X137160000Y-86360000D03*
D12*
X134660000Y-86360000D03*
D11*
X134620000Y-83820000D03*
D12*
X137120000Y-83820000D03*
D11*
X165100000Y-120650000D03*
D12*
X162600000Y-120650000D03*
D11*
X157480000Y-120650000D03*
D12*
X159980000Y-120650000D03*
D11*
X152400000Y-120650000D03*
D12*
X149900000Y-120650000D03*
D11*
X144780000Y-120650000D03*
D12*
X147280000Y-120650000D03*
D11*
X158750000Y-83820000D03*
D12*
X161250000Y-83820000D03*
D11*
X153670000Y-86360000D03*
D12*
X156170000Y-86360000D03*
D11*
X153670000Y-83820000D03*
D12*
X156170000Y-83820000D03*
D11*
X161290000Y-86360000D03*
D12*
X158790000Y-86360000D03*
D11*
X171450000Y-82550000D03*
D12*
X171450000Y-80050000D03*
D11*
X173990000Y-80010000D03*
D12*
X173990000Y-82510000D03*
D11*
X168910000Y-105410000D03*
D12*
X171410000Y-105410000D03*
D11*
X168910000Y-110490000D03*
D12*
X168910000Y-107990000D03*
D11*
X171450000Y-97790000D03*
D12*
X168950000Y-97790000D03*
D11*
X173990000Y-97790000D03*
D12*
X176490000Y-97790000D03*
D13*
X147320000Y-74930000D03*
X147320000Y-77470000D03*
X176530000Y-82550000D03*
X176530000Y-80010000D03*
X171450000Y-102870000D03*
X171450000Y-100330000D03*
X168910000Y-102870000D03*
X168910000Y-100330000D03*
X171450000Y-110490000D03*
X171450000Y-107950000D03*
X176530000Y-102870000D03*
X176530000Y-100330000D03*
D14*
X134620000Y-88900000D03*
X134620000Y-91440000D03*
X134620000Y-93980000D03*
X134620000Y-96520000D03*
X134620000Y-99060000D03*
X134620000Y-101600000D03*
X134620000Y-104140000D03*
X134620000Y-106680000D03*
X134620000Y-109220000D03*
X134620000Y-111760000D03*
X142240000Y-111760000D03*
X142240000Y-109220000D03*
X142240000Y-106680000D03*
X142240000Y-104140000D03*
X142240000Y-101600000D03*
X142240000Y-99060000D03*
X142240000Y-96520000D03*
X142240000Y-93980000D03*
X142240000Y-91440000D03*
X142240000Y-88900000D03*
X130810000Y-81280000D03*
X130810000Y-83820000D03*
X130810000Y-86360000D03*
X130810000Y-88900000D03*
X130810000Y-91440000D03*
X130810000Y-93980000D03*
X130810000Y-96520000D03*
X130810000Y-99060000D03*
X130810000Y-101600000D03*
X130810000Y-104140000D03*
X130810000Y-106680000D03*
X130810000Y-109220000D03*
X130810000Y-111760000D03*
X130810000Y-114300000D03*
X146050000Y-114300000D03*
X146050000Y-111760000D03*
X146050000Y-109220000D03*
X146050000Y-106680000D03*
X146050000Y-104140000D03*
X146050000Y-101600000D03*
X146050000Y-99060000D03*
X146050000Y-96520000D03*
X146050000Y-93980000D03*
X146050000Y-91440000D03*
X146050000Y-88900000D03*
X146050000Y-86360000D03*
X146050000Y-83820000D03*
X146050000Y-81280000D03*
D15*
X161290000Y-123190000D03*
X158750000Y-123190000D03*
X163830000Y-123190000D03*
X148590000Y-123190000D03*
X146050000Y-123190000D03*
X151130000Y-123190000D03*
D14*
X148590000Y-81280000D03*
X148590000Y-83820000D03*
X148590000Y-86360000D03*
X148590000Y-88900000D03*
X148590000Y-91440000D03*
X148590000Y-93980000D03*
X148590000Y-96520000D03*
X148590000Y-99060000D03*
X148590000Y-101600000D03*
X148590000Y-104140000D03*
X148590000Y-106680000D03*
X148590000Y-109220000D03*
X148590000Y-111760000D03*
X148590000Y-114300000D03*
X163830000Y-114300000D03*
X163830000Y-111760000D03*
X163830000Y-109220000D03*
X163830000Y-106680000D03*
X163830000Y-104140000D03*
X163830000Y-101600000D03*
X163830000Y-99060000D03*
X163830000Y-96520000D03*
X163830000Y-93980000D03*
X163830000Y-91440000D03*
X163830000Y-88900000D03*
X163830000Y-86360000D03*
X163830000Y-83820000D03*
X163830000Y-81280000D03*
X153670000Y-88900000D03*
X153670000Y-91440000D03*
X153670000Y-93980000D03*
X153670000Y-96520000D03*
X153670000Y-99060000D03*
X153670000Y-101600000D03*
X153670000Y-104140000D03*
X153670000Y-106680000D03*
X161290000Y-106680000D03*
X161290000Y-104140000D03*
X161290000Y-101600000D03*
X161290000Y-99060000D03*
X161290000Y-96520000D03*
X161290000Y-93980000D03*
X161290000Y-91440000D03*
X161290000Y-88900000D03*
X168910000Y-86360000D03*
X168910000Y-88900000D03*
X168910000Y-91440000D03*
X168910000Y-93980000D03*
X176530000Y-93980000D03*
X176530000Y-91440000D03*
X176530000Y-88900000D03*
X176530000Y-86360000D03*
D13*
X153670000Y-111760000D03*
X161290000Y-111760000D03*
X153670000Y-109220000D03*
X161290000Y-109220000D03*
X168910000Y-80010000D03*
X168910000Y-82550000D03*
X160020000Y-77470000D03*
X160020000Y-74930000D03*
D11*
X173990000Y-105410000D03*
D12*
X176490000Y-105410000D03*
D11*
X173990000Y-110490000D03*
D12*
X173990000Y-107990000D03*
D16*
X170180000Y-114300000D03*
X171450000Y-114300000D03*
X168910000Y-114300000D03*
X175260000Y-114300000D03*
X176530000Y-114300000D03*
X173990000Y-114300000D03*
D13*
X173990000Y-102870000D03*
X173990000Y-100330000D03*
X176530000Y-110490000D03*
X176530000Y-107950000D03*
D11*
X168275000Y-118999000D03*
D12*
X170775000Y-118999000D03*
D11*
X173990000Y-118999000D03*
D12*
X176490000Y-118999000D03*
D17*
X151130000Y-81280000D03*
X151130000Y-83820000D03*
X151130000Y-86360000D03*
X151130000Y-88900000D03*
X151130000Y-91440000D03*
X151130000Y-93980000D03*
X151130000Y-96520000D03*
X151130000Y-99060000D03*
X151130000Y-101600000D03*
X151130000Y-104140000D03*
X151130000Y-106680000D03*
X151130000Y-109220000D03*
X151130000Y-111760000D03*
X151130000Y-114300000D03*
X166370000Y-114300000D03*
X166370000Y-111760000D03*
X166370000Y-109220000D03*
X166370000Y-106680000D03*
X166370000Y-104140000D03*
X166370000Y-101600000D03*
X166370000Y-99060000D03*
X166370000Y-96520000D03*
X166370000Y-93980000D03*
X166370000Y-91440000D03*
X166370000Y-88900000D03*
X166370000Y-86360000D03*
X166370000Y-83820000D03*
X166370000Y-81280000D03*
D18*
X164465000Y-73660000D03*
X164465000Y-76200000D03*
X164465000Y-71120000D03*
X142875000Y-73660000D03*
X142875000Y-76200000D03*
X142875000Y-71120000D03*
D13*
X152400000Y-77470000D03*
X152400000Y-74930000D03*
X154940000Y-77470000D03*
X154940000Y-74930000D03*
D17*
X130810000Y-123190000D03*
X133350000Y-123190000D03*
X135890000Y-123190000D03*
X138430000Y-123190000D03*
X140970000Y-123190000D03*
D19*
X133350000Y-119380000D03*
D17*
X135890000Y-119380000D03*
X138430000Y-119380000D03*
D19*
X157480000Y-118110000D03*
D17*
X154940000Y-118110000D03*
X152400000Y-118110000D03*
D19*
X130810000Y-71120000D03*
D17*
X130810000Y-73660000D03*
X130810000Y-76200000D03*
D19*
X133350000Y-71120000D03*
D17*
X133350000Y-73660000D03*
X133350000Y-76200000D03*
D19*
X135890000Y-71120000D03*
D17*
X135890000Y-73660000D03*
X135890000Y-76200000D03*
D19*
X138430000Y-71120000D03*
D17*
X138430000Y-73660000D03*
X138430000Y-76200000D03*
D19*
X168910000Y-71120000D03*
D17*
X168910000Y-73660000D03*
X168910000Y-76200000D03*
D19*
X171450000Y-71120000D03*
D17*
X171450000Y-73660000D03*
X171450000Y-76200000D03*
D19*
X173990000Y-71120000D03*
D17*
X173990000Y-73660000D03*
X173990000Y-76200000D03*
D19*
X176530000Y-71120000D03*
D17*
X176530000Y-73660000D03*
X176530000Y-76200000D03*
D19*
X170180000Y-123190000D03*
D17*
X172720000Y-123190000D03*
X175260000Y-123190000D03*
X149860000Y-77470000D03*
X149860000Y-74930000D03*
X157480000Y-77470000D03*
X157480000Y-74930000D03*
D19*
X147320000Y-72390000D03*
D20*
X147320000Y-69850000D03*
X149860000Y-72390000D03*
X149860000Y-69850000D03*
X152400000Y-72390000D03*
X152400000Y-69850000D03*
X154940000Y-72390000D03*
X154940000Y-69850000D03*
X157480000Y-72390000D03*
X157480000Y-69850000D03*
X160020000Y-72390000D03*
X160020000Y-69850000D03*
M02*
